<svg width="14" height="14" viewBox="0 0 14 14" fill="none" xmlns="http://www.w3.org/2000/svg">
<path fill-rule="evenodd" clip-rule="evenodd" d="M2.78989 0.544094C2.67319 0.604274 2.60027 0.70246 2.56797 0.842815C2.55429 0.902333 2.5428 1.52427 2.54245 2.22489L2.54179 3.49876L1.64536 3.50737L0.748964 3.51597L0.568502 3.60561C0.354536 3.71187 0.186437 3.88505 0.0845817 4.10412L0.0118281 4.26064L0.00329463 7.14277C-0.00564914 10.1652 -0.00441834 10.2016 0.114312 10.4376C0.200057 10.608 0.437683 10.8244 0.619102 10.8973C0.771036 10.9583 0.81436 10.9613 1.6583 10.9707L2.53895 10.9804L2.54721 12.0885C2.55503 13.1388 2.55831 13.2015 2.61017 13.2903C2.64026 13.3418 2.69961 13.41 2.74208 13.4419L2.81932 13.5H7H11.1807L11.2579 13.4419C11.3004 13.41 11.3597 13.3418 11.3898 13.2903C11.4417 13.2015 11.445 13.1388 11.4528 12.0885L11.4611 10.9804L12.3417 10.9707C13.1856 10.9613 13.229 10.9583 13.3809 10.8973C13.5623 10.8244 13.7999 10.608 13.8857 10.4376C14.0044 10.2016 14.0056 10.1652 13.9967 7.14216L13.9882 4.25945L13.8993 4.07739C13.7939 3.86155 13.6222 3.69207 13.4049 3.58933L13.2497 3.51597L12.3552 3.50737L11.4606 3.49879L11.4526 2.15594C11.4449 0.870616 11.4422 0.809112 11.3898 0.719477C11.3597 0.667957 11.3004 0.599696 11.2579 0.567786L11.1807 0.509729L7.03219 0.502724C3.12385 0.496132 2.87824 0.498532 2.78989 0.544094ZM10.6103 2.42655V3.50218H7H3.38967V2.42655V1.35093H7H10.6103V2.42655ZM13.1039 4.40281C13.1518 4.44647 13.154 4.57044 13.154 7.2345C13.154 9.78826 13.1502 10.0248 13.1087 10.071C13.0668 10.1177 13.0037 10.1214 12.2622 10.1214H11.4611L11.4528 9.01132C11.4449 7.94921 11.4421 7.89706 11.3884 7.80477C11.3574 7.75174 11.291 7.68039 11.2407 7.64619L11.1493 7.58405H7H2.85075L2.75929 7.64619C2.70899 7.68039 2.64255 7.75174 2.61165 7.80477C2.5579 7.89706 2.55511 7.94921 2.54721 9.01132L2.53892 10.1214H1.74249C1.03979 10.1214 0.940175 10.116 0.896057 10.0758C0.848221 10.0321 0.846033 9.90815 0.846033 7.2441C0.846033 4.69034 0.849807 4.45383 0.891298 4.40761C0.934896 4.35904 1.16043 4.35717 6.99524 4.35717C12.5945 4.35717 13.0577 4.36061 13.1039 4.40281ZM10.8975 5.37568C10.5991 5.44827 10.3929 5.73311 10.4258 6.02723C10.4439 6.18943 10.5624 6.38357 10.6987 6.47455C10.7971 6.54019 10.8384 6.54979 11.0231 6.54979C11.2138 6.54979 11.2464 6.5416 11.3533 6.46689C11.5045 6.36117 11.6226 6.13766 11.6217 5.95878C11.6205 5.69196 11.413 5.4355 11.153 5.37926C11.0047 5.34721 11.0139 5.34732 10.8975 5.37568ZM10.6103 10.5489V12.6588H7H3.38967V10.5489V8.43903H7H10.6103V10.5489ZM4.90628 9.30497C4.79321 9.355 4.68127 9.49525 4.65903 9.61467C4.6197 9.82615 4.78006 10.0706 4.98229 10.1074C5.0315 10.1164 5.97242 10.1201 7.07322 10.1157C9.04574 10.1077 9.07577 10.1068 9.1502 10.0508C9.28988 9.9456 9.33851 9.85346 9.33851 9.69393C9.33851 9.53441 9.28988 9.44226 9.1502 9.3371C9.07569 9.28098 9.04768 9.28015 7.03219 9.27413C5.37593 9.2692 4.97392 9.27502 4.90628 9.30497ZM4.86687 11.0276C4.66133 11.1387 4.59205 11.4432 4.72839 11.6362C4.86348 11.8275 4.73922 11.8176 7 11.8176C9.00679 11.8176 9.0391 11.8168 9.13335 11.7609C9.24631 11.694 9.35109 11.5215 9.35175 11.4013C9.3524 11.2745 9.24264 11.0868 9.13313 11.0276C9.04339 10.9791 8.93328 10.9764 7 10.9764C5.06672 10.9764 4.95661 10.9791 4.86687 11.0276Z" fill="#00154A"/>
</svg>
