<svg width="46" height="46" viewBox="0 0 46 46" fill="none" xmlns="http://www.w3.org/2000/svg">
<g id="Frame 427319941">
<rect width="46" height="46" rx="10" fill="#F8F8F9"/>
<g id="Group 632041">
<path id="Vector" d="M38.9883 12.7478C38.9883 11.2441 37.7579 10.0137 36.2541 10.0137H15.7469C14.2431 10.0137 13.0127 11.2441 13.0127 12.7478V38.2668C13.0127 39.7706 14.2431 41.001 15.7469 41.001H31.2392L38.986 33.7099L38.9883 12.7478Z" fill="#DADEE0"/>
<path id="Vector_2" d="M13.0127 12.7468C13.0127 11.243 14.243 10.0127 15.7468 10.0127H33.9756V7.73418C33.9756 6.23038 32.7452 5 31.2414 5H10.7342C9.23038 5 8 6.23038 8 7.73418V33.2532C8 34.757 9.23038 35.9873 10.7342 35.9873H13.0127V12.7468Z" fill="#1BB7EA"/>
<path id="Vector_3" d="M33.9734 33.709H38.9861L31.2393 41.0001V36.4432C31.2393 34.9394 32.4696 33.709 33.9734 33.709Z" fill="#F2F2F2"/>
<path id="Vector_4" d="M19.8476 22.0881H32.1514C32.3327 22.0881 32.5066 22.0161 32.6347 21.8879C32.7629 21.7597 32.8349 21.5859 32.8349 21.4046C32.835 21.3148 32.8173 21.2259 32.783 21.1429C32.7487 21.06 32.6983 20.9846 32.6348 20.9212C32.5713 20.8577 32.496 20.8073 32.413 20.773C32.3301 20.7386 32.2412 20.721 32.1514 20.721H19.8476C19.7578 20.721 19.6689 20.7386 19.586 20.773C19.503 20.8073 19.4277 20.8577 19.3642 20.9212C19.3007 20.9846 19.2504 21.06 19.216 21.1429C19.1817 21.2259 19.164 21.3148 19.1641 21.4046C19.1641 21.5859 19.2361 21.7597 19.3643 21.8879C19.4925 22.0161 19.6663 22.0881 19.8476 22.0881ZM19.8476 17.5312H32.1514C32.3327 17.5312 32.5066 17.4591 32.6347 17.3309C32.7629 17.2028 32.8349 17.0289 32.8349 16.8476C32.835 16.7578 32.8173 16.6689 32.783 16.586C32.7487 16.503 32.6983 16.4277 32.6348 16.3642C32.5713 16.3007 32.496 16.2504 32.413 16.216C32.3301 16.1817 32.2412 16.164 32.1514 16.1641H19.8476C19.7578 16.164 19.6689 16.1817 19.586 16.216C19.503 16.2504 19.4277 16.3007 19.3642 16.3642C19.3007 16.4277 19.2504 16.503 19.216 16.586C19.1817 16.6689 19.164 16.7578 19.1641 16.8476C19.1641 17.0289 19.2361 17.2028 19.3643 17.3309C19.4925 17.4591 19.6663 17.5312 19.8476 17.5312ZM19.8476 26.6451H32.1514C32.3327 26.6451 32.5066 26.5731 32.6347 26.4449C32.7629 26.3167 32.8349 26.1428 32.8349 25.9615C32.835 25.8718 32.8173 25.7829 32.783 25.6999C32.7487 25.617 32.6983 25.5416 32.6348 25.4781C32.5713 25.4146 32.496 25.3643 32.413 25.3299C32.3301 25.2956 32.2412 25.278 32.1514 25.278H19.8476C19.7578 25.278 19.6689 25.2956 19.586 25.3299C19.503 25.3643 19.4277 25.4146 19.3642 25.4781C19.3007 25.5416 19.2504 25.617 19.216 25.6999C19.1817 25.7829 19.164 25.8718 19.1641 25.9615C19.1641 26.1428 19.2361 26.3167 19.3643 26.4449C19.4925 26.5731 19.6663 26.6451 19.8476 26.6451ZM19.8476 31.202H26.683C26.8643 31.202 27.0382 31.13 27.1664 31.0018C27.2946 30.8736 27.3666 30.6998 27.3666 30.5185C27.3666 30.4287 27.349 30.3398 27.3147 30.2569C27.2803 30.1739 27.23 30.0985 27.1665 30.035C27.103 29.9716 27.0276 29.9212 26.9447 29.8869C26.8617 29.8526 26.7728 29.8349 26.683 29.8349H19.8476C19.7578 29.8349 19.6689 29.8526 19.586 29.8869C19.503 29.9212 19.4276 29.9716 19.3642 30.035C19.3007 30.0985 19.2503 30.1739 19.216 30.2569C19.1817 30.3398 19.164 30.4287 19.1641 30.5185C19.1641 30.6998 19.2361 30.8736 19.3643 31.0018C19.4925 31.13 19.6663 31.202 19.8476 31.202Z" fill="#1F4254"/>
</g>
</g>
</svg>
