<svg width="16" height="16" viewBox="0 0 16 16" fill="none" xmlns="http://www.w3.org/2000/svg">
<g id="Filter">
<path id="Vector" d="M8.96467 14.2509C9.07506 14.1953 9.1681 14.1092 9.23325 14.0022C9.29841 13.8952 9.33307 13.7716 9.33333 13.6454V10.0053C9.33333 9.82608 9.40333 9.65366 9.52867 9.52639L13.6093 5.38415C13.7329 5.25892 13.8311 5.10978 13.8982 4.94536C13.9652 4.78093 13.9998 4.60449 14 4.42624V2.67739C13.9997 2.58796 13.9821 2.49948 13.9484 2.41701C13.9147 2.33454 13.8655 2.25971 13.8036 2.19679C13.7416 2.13387 13.6682 2.08411 13.5875 2.05034C13.5069 2.01657 13.4205 1.99947 13.3333 2.00001H2.66667C2.298 2.00001 2 2.30244 2 2.67739V4.42624C2 4.78546 2.14067 5.1303 2.39067 5.38415L6.47133 9.52639C6.53316 9.58898 6.58226 9.66355 6.6158 9.74577C6.64933 9.82798 6.66662 9.91621 6.66667 10.0053V14.3228C6.66667 14.8256 7.188 15.1527 7.63133 14.9276L8.96467 14.2509Z" fill="#676F84"/>
</g>
</svg>
