<svg width="21" height="20" viewBox="0 0 21 20" fill="none" xmlns="http://www.w3.org/2000/svg">
<g id="&#208;&#159;&#209;&#128;&#208;&#184;&#209;&#145;&#208;&#188;&#209;&#139;">
<path id="image 14 (Traced)" fill-rule="evenodd" clip-rule="evenodd" d="M6.07329 1.69877C4.42096 1.8584 2.92248 3.04597 2.39612 4.61299C2.01229 5.75571 2.09043 6.76391 2.76859 9.4192C3.36269 11.7455 5.05137 17.2603 5.29874 17.6821C5.42176 17.8918 5.65803 18.0982 5.91069 18.2166C6.08823 18.2998 6.17083 18.3147 6.45518 18.3147C6.73954 18.3147 6.82214 18.2998 6.99968 18.2166C7.25167 18.0985 7.48905 17.8915 7.6092 17.6851C7.65784 17.6015 7.99396 16.5951 8.35611 15.4488C8.7183 14.3024 9.0574 13.2848 9.10973 13.1873C9.24265 12.9397 9.55613 12.6566 9.85329 12.5159C10.0868 12.4054 10.1334 12.3968 10.4961 12.3968C10.8588 12.3968 10.9054 12.4054 11.1389 12.5159C11.4361 12.6566 11.7496 12.9397 11.8824 13.1873C11.9346 13.2848 12.1227 13.8251 12.3003 14.388C13.3412 17.6877 13.3858 17.8018 13.7332 18.0582C13.9315 18.2045 14.3078 18.3333 14.537 18.3333C14.9581 18.3333 15.4482 18.0599 15.66 17.7068C15.7262 17.5965 15.9083 17.1094 16.077 16.5915C17.8337 11.197 18.7441 7.77465 18.8263 6.25553C18.8902 5.07511 18.4697 3.93366 17.6518 3.06793C16.8755 2.24616 15.9653 1.80161 14.8413 1.69516C13.8068 1.5972 12.7315 1.90537 11.8368 2.55623C11.4355 2.84822 11.154 2.98162 10.8211 3.03774C10.2204 3.13898 9.73132 2.99059 9.09536 2.51403C8.53328 2.09285 7.70309 1.77566 6.95797 1.69735C6.56531 1.65611 6.51373 1.65619 6.07329 1.69877Z" fill="white"/>
</g>
</svg>
