<svg width="20" height="20" viewBox="0 0 20 20" fill="none" xmlns="http://www.w3.org/2000/svg">
<g id="Frame 1166">
<g id="Group 889">
<path id="Vector" fill-rule="evenodd" clip-rule="evenodd" d="M10 2C5.5875 2 2 5.5875 2 10C2 14.4125 5.5875 18 10 18C14.4125 18 18 14.4125 18 10C18 5.5875 14.4125 2 10 2Z" fill="#4BAE4F"/>
<path id="Vector_2" d="M8.45937 13.6598C7.4375 12.6379 6.42187 11.6066 5.39687 10.5848C5.28438 10.4723 5.28438 10.2848 5.39687 10.1723L6.575 8.99414C6.6875 8.88164 6.875 8.88164 6.9875 8.99414L8.67187 10.6785L13.0031 6.34414C13.1187 6.23164 13.3031 6.23164 13.4187 6.34414L14.6 7.52539C14.7156 7.64102 14.7156 7.82539 14.6 7.93789L8.87187 13.6598C8.75937 13.7754 8.575 13.7754 8.45937 13.6598Z" fill="white"/>
</g>
</g>
</svg>
