<svg width="20" height="20" viewBox="0 0 20 20" fill="none" xmlns="http://www.w3.org/2000/svg">
<g id="eva:search-outline">
<path id="Vector" d="M16.7536 15.5706L13.9212 12.7465C14.835 11.5823 15.3309 10.1446 15.329 8.66452C15.329 7.3464 14.9382 6.05789 14.2059 4.96191C13.4736 3.86594 12.4327 3.01173 11.2149 2.50731C9.99714 2.00289 8.65713 1.87091 7.36434 2.12806C6.07155 2.38521 4.88404 3.01995 3.952 3.952C3.01995 4.88404 2.38521 6.07155 2.12806 7.36434C1.87091 8.65713 2.00289 9.99714 2.50731 11.2149C3.01173 12.4327 3.86594 13.4736 4.96191 14.2059C6.05789 14.9382 7.3464 15.329 8.66452 15.329C10.1446 15.3309 11.5823 14.835 12.7465 13.9212L15.5706 16.7536C15.6481 16.8317 15.7402 16.8936 15.8417 16.9359C15.9432 16.9782 16.0521 17 16.1621 17C16.2721 17 16.381 16.9782 16.4825 16.9359C16.584 16.8936 16.6761 16.8317 16.7536 16.7536C16.8317 16.6761 16.8936 16.584 16.9359 16.4825C16.9782 16.381 17 16.2721 17 16.1621C17 16.0521 16.9782 15.9432 16.9359 15.8417C16.8936 15.7402 16.8317 15.6481 16.7536 15.5706ZM3.66613 8.66452C3.66613 7.67593 3.95928 6.70955 4.50851 5.88757C5.05774 5.06558 5.83838 4.42493 6.75172 4.04661C7.66506 3.6683 8.67007 3.56931 9.63966 3.76218C10.6093 3.95504 11.4999 4.43109 12.1989 5.13013C12.898 5.82916 13.374 6.71979 13.5669 7.68938C13.7597 8.65898 13.6607 9.66399 13.2824 10.5773C12.9041 11.4907 12.2635 12.2713 11.4415 12.8205C10.6195 13.3698 9.65311 13.6629 8.66452 13.6629C7.33887 13.6629 6.06751 13.1363 5.13013 12.1989C4.19275 11.2615 3.66613 9.99018 3.66613 8.66452Z" fill="#ADB2BF"/>
</g>
</svg>
