<svg width="20" height="20" viewBox="0 0 20 20" fill="none" xmlns="http://www.w3.org/2000/svg">
<g id="Dowload excel">
<g id="Vector">
<path d="M14.0544 4.64239H16.7563V6.01911H14.0544V4.64239ZM14.0544 6.83325H16.7563V8.20997H14.0544V6.83325ZM14.0544 9.02411H16.7563V10.4008H14.0544V9.02411ZM14.0544 11.215H16.7563V12.5917H14.0544V11.215ZM14.0544 13.4058H16.7563V14.7826H14.0544V13.4058Z" fill="#00288D"/>
<path fill-rule="evenodd" clip-rule="evenodd" d="M11.6569 2.74374H17.9881C18.1798 2.73401 18.3675 2.80062 18.5102 2.92901C18.653 3.0574 18.7392 3.23715 18.75 3.42897V15.8501C18.7393 16.0421 18.6532 16.222 18.5104 16.3505C18.3677 16.479 18.1799 16.5457 17.9881 16.536H11.6569V18.75L1.25 16.9553V2.85826L11.6569 1.25V2.74374ZM11.6356 15.964H18.0881V3.39268H11.5813V4.64424H13.1794V6.02096H11.5813V6.83448H13.1794V8.2112H11.5813V9.02472H13.1794V10.4014H11.5863L11.5938 11.215H13.1794V12.5917H11.6056L11.6131 13.4052H13.1794V14.7819H11.625L11.6356 15.964ZM5.30781 6.58921L3.96656 6.66618L5.36531 9.79071L3.85156 12.7087L5.15469 12.8239L6.11281 10.4015L7.07031 12.9196L8.48844 13.0154L6.85969 9.71186L8.48844 6.41649L7.14719 6.49346L6.15094 8.91023L5.30781 6.58921Z" fill="#00288D"/>
</g>
</g>
</svg>
