<svg width="1074" height="965" viewBox="0 0 1074 965" fill="none" xmlns="http://www.w3.org/2000/svg">
<path d="M23.548 811C23.9244 814.239 24.363 817.467 24.8627 820.684L25.1097 820.645C25.6096 823.863 26.1706 827.07 26.7915 830.263L26.5461 830.31C27.1683 833.51 27.8505 836.696 28.5916 839.867L28.8351 839.81C29.576 842.98 30.3758 846.135 31.2332 849.274L30.992 849.34C31.8507 852.483 32.767 855.61 33.7399 858.719L33.9785 858.644C34.9507 861.751 35.9794 864.839 37.0633 867.908L36.8276 867.991C37.9126 871.063 39.0529 874.115 40.2473 877.146L40.4799 877.055C41.6732 880.083 42.9204 883.09 44.2204 886.074L43.9913 886.174C45.2923 889.16 46.6462 892.124 48.0516 895.064L48.2772 894.956C49.6812 897.892 51.1366 900.804 52.6424 903.69L52.4207 903.806C53.9276 906.694 55.4847 909.556 57.0909 912.391L57.3084 912.268C58.9129 915.099 60.5665 917.904 62.2677 920.679L62.0546 920.81C63.7572 923.587 65.5076 926.336 67.3045 929.053L67.513 928.915C69.3083 931.63 71.1501 934.315 73.037 936.967L72.8333 937.112C74.722 939.767 76.656 942.389 78.634 944.978L78.8326 944.826C80.8091 947.413 82.8296 949.965 84.8928 952.483L84.6994 952.641C86.7648 955.161 88.873 957.646 91.0227 960.093L91.2105 959.928C93.3589 962.374 95.5488 964.783 97.779 967.153L97.5969 967.325C99.8298 969.698 102.103 972.032 104.415 974.327L104.591 974.149C106.902 976.442 109.253 978.695 111.641 980.906L111.471 981.089C113.862 983.303 116.291 985.475 118.756 987.604L118.92 987.414C121.384 989.542 123.885 991.626 126.421 993.665L126.265 993.86C128.804 995.901 131.379 997.898 133.989 999.847L134.138 999.647C136.746 1001.6 139.388 1003.5 142.063 1005.35L141.921 1005.56C144.599 1007.41 147.31 1009.22 150.052 1010.98L150.187 1010.77C152.928 1012.52 155.7 1014.23 158.503 1015.88L158.376 1016.1C161.181 1017.76 164.017 1019.36 166.882 1020.91L167.001 1020.69C169.862 1022.24 172.753 1023.74 175.671 1025.18L175.561 1025.4C178.481 1026.85 181.428 1028.23 184.403 1029.57L184.505 1029.34C187.474 1030.67 190.47 1031.94 193.49 1033.16L193.397 1033.39C196.417 1034.6 199.463 1035.76 202.532 1036.86L202.617 1036.62C204.149 1037.17 205.687 1037.71 207.231 1038.23C208.868 1038.78 210.502 1039.31 212.132 1039.83L212.056 1040.07C215.352 1041.12 218.635 1042.11 221.917 1043.04L221.985 1042.79C225.301 1043.73 228.616 1044.6 231.94 1045.41L231.881 1045.65C235.219 1046.46 238.566 1047.21 241.935 1047.89L241.984 1047.64C245.335 1048.32 248.706 1048.93 252.109 1049.47L252.069 1049.72C255.437 1050.26 258.835 1050.73 262.276 1051.14L262.305 1050.89C265.673 1051.29 269.08 1051.62 272.538 1051.89L272.519 1052.14C275.9 1052.41 279.33 1052.61 282.817 1052.76L282.827 1052.51C286.195 1052.64 289.617 1052.72 293.101 1052.74L293.099 1052.99C296.471 1053.01 299.901 1052.98 303.397 1052.89L303.39 1052.64C306.761 1052.56 310.192 1052.42 313.693 1052.23L313.706 1052.48C317.068 1052.3 320.493 1052.07 323.987 1051.79L323.967 1051.54C327.314 1051.28 330.725 1050.97 334.204 1050.61L334.23 1050.86C337.574 1050.52 340.983 1050.13 344.459 1049.71L344.429 1049.46C347.767 1049.05 351.168 1048.61 354.636 1048.12L354.671 1048.37C358.004 1047.91 361.399 1047.4 364.861 1046.87L364.822 1046.62C368.148 1046.1 371.535 1045.55 374.987 1044.97L375.029 1045.22C378.35 1044.65 381.732 1044.06 385.176 1043.44L385.131 1043.19C388.448 1042.59 391.823 1041.96 395.259 1041.3L395.306 1041.55C398.622 1040.91 401.994 1040.25 405.425 1039.55L405.376 1039.31C408.691 1038.64 412.061 1037.95 415.488 1037.23L415.54 1037.47C418.845 1036.78 422.203 1036.06 425.617 1035.32L425.563 1035.08C428.854 1034.36 432.195 1033.62 435.59 1032.86L435.644 1033.11C438.939 1032.37 442.283 1031.61 445.679 1030.83L445.623 1030.59C448.924 1029.83 452.274 1029.05 455.675 1028.25L455.732 1028.49C459.039 1027.72 462.394 1026.92 465.797 1026.1L465.739 1025.86C469.013 1025.07 472.333 1024.27 475.698 1023.45L475.758 1023.69C479.047 1022.89 482.38 1022.07 485.759 1021.23L485.699 1020.99C489.007 1020.17 492.359 1019.34 495.755 1018.48L495.816 1018.73C499.085 1017.91 502.395 1017.07 505.747 1016.22L505.686 1015.98C507.362 1015.55 509.048 1015.12 510.745 1014.69C512.312 1014.29 513.901 1013.88 515.513 1013.46L515.575 1013.71C518.791 1012.88 522.096 1012.02 525.484 1011.13L525.42 1010.89C528.573 1010.06 531.798 1009.21 535.091 1008.33L535.155 1008.57C538.357 1007.72 541.623 1006.85 544.95 1005.95L544.885 1005.71C548.097 1004.85 551.366 1003.96 554.688 1003.06L554.754 1003.3C557.941 1002.43 561.177 1001.55 564.46 1000.65L564.394 1000.41C567.635 999.517 570.922 998.612 574.251 997.691L574.317 997.932C577.497 997.053 580.715 996.159 583.969 995.253L583.902 995.012C587.138 994.11 590.41 993.196 593.716 992.269L593.783 992.51C596.979 991.614 600.206 990.706 603.462 989.788L603.394 989.547C606.629 988.635 609.892 987.712 613.181 986.779L613.249 987.019C616.454 986.11 619.684 985.192 622.937 984.264L622.868 984.024C626.103 983.101 629.361 982.17 632.639 981.231L632.708 981.472C635.918 980.552 639.148 979.625 642.395 978.69L642.326 978.45C645.563 977.518 648.817 976.58 652.088 975.634L652.157 975.874C655.37 974.946 658.598 974.011 661.84 973.07L661.77 972.83C665.009 971.89 668.261 970.944 671.525 969.993L671.595 970.233C674.81 969.297 678.037 968.355 681.274 967.408L681.203 967.168C684.44 966.222 687.687 965.271 690.941 964.315L691.012 964.555C694.233 963.61 697.461 962.66 700.697 961.708L700.626 961.468C703.859 960.515 707.098 959.56 710.343 958.601L710.413 958.841C713.641 957.887 716.873 956.93 720.109 955.97L720.038 955.73C723.269 954.772 726.503 953.812 729.739 952.849L729.81 953.089C733.042 952.127 736.276 951.163 739.51 950.198L739.438 949.959C742.669 948.994 745.901 948.028 749.131 947.061L749.202 947.301C752.436 946.332 755.668 945.363 758.897 944.393L758.825 944.154C762.059 943.182 765.289 942.21 768.515 941.238L768.587 941.477C771.82 940.503 775.048 939.529 778.269 938.555L778.197 938.316C781.435 937.337 784.667 936.359 787.891 935.381L787.964 935.62C791.193 934.641 794.414 933.662 797.626 932.685L797.553 932.446C800.798 931.459 804.034 930.473 807.258 929.489L807.331 929.728C810.555 928.744 813.767 927.762 816.967 926.782L816.894 926.543C820.147 925.547 823.387 924.553 826.612 923.562L826.686 923.801C829.91 922.811 833.12 921.823 836.313 920.838L836.239 920.6C839.496 919.596 842.735 918.595 845.955 917.599L846.029 917.838C849.254 916.84 852.461 915.846 855.646 914.857L855.572 914.618C858.833 913.605 862.071 912.598 865.285 911.596L865.36 911.834C868.585 910.829 871.786 909.829 874.961 908.835L874.886 908.597C878.154 907.574 881.394 906.558 884.603 905.549L884.678 905.787C887.901 904.775 891.092 903.769 894.251 902.772L894.176 902.533C897.456 901.498 900.7 900.471 903.906 899.454L903.982 899.692C907.21 898.668 910.399 897.653 913.548 896.649L913.472 896.411C916.755 895.364 919.994 894.328 923.184 893.304L923.261 893.542C926.512 892.5 929.714 891.469 932.864 890.453L932.787 890.215C936.053 889.161 939.262 888.121 942.411 887.098L942.488 887.335C945.777 886.266 949 885.215 952.155 884.181L952.077 883.943C955.323 882.88 958.496 881.836 961.591 880.812L961.67 881.05C964.984 879.954 968.209 878.882 971.34 877.835L971.261 877.598C974.58 876.488 977.793 875.407 980.894 874.357L980.975 874.594C984.287 873.471 987.472 872.384 990.521 871.334L990.44 871.097C993.769 869.95 996.937 868.847 999.934 867.792L1000.02 868.028C1003.41 866.832 1006.58 865.698 1009.52 864.628L1009.44 864.393C1012.97 863.107 1016.17 861.915 1019 860.824L1019.09 861.057C1022.88 859.598 1026.02 858.32 1028.46 857.24L1028.35 857.012C1030.26 856.165 1031.73 855.445 1032.73 854.859C1033.95 854.145 1035.16 853.37 1036.37 852.54L1036.51 852.746C1038.82 851.16 1041.11 849.372 1043.35 847.414L1043.18 847.226C1045.31 845.366 1047.39 843.352 1049.4 841.213L1049.58 841.384C1051.54 839.301 1053.43 837.098 1055.23 834.804L1055.03 834.65C1056.81 832.388 1058.49 830.036 1060.07 827.62L1060.28 827.757C1061.87 825.325 1063.35 822.828 1064.69 820.291L1064.47 820.174C1065.15 818.893 1065.79 817.603 1066.4 816.306C1067.07 814.878 1067.67 813.549 1068.2 812.28L1068.43 812.377C1069.67 809.433 1070.58 806.802 1071.23 804.005L1070.99 803.948C1071.6 801.331 1071.99 798.565 1072.23 795.249L1072.48 795.267C1072.66 792.708 1072.76 789.824 1072.8 786.435L1072.55 786.432C1072.57 785.047 1072.57 783.578 1072.57 782.01C1072.57 780.443 1072.57 778.973 1072.55 777.588L1072.8 777.585C1072.76 774.196 1072.66 771.313 1072.48 768.754L1072.23 768.772C1071.99 765.455 1071.6 762.689 1070.99 760.073L1071.23 760.016C1070.58 757.219 1069.67 754.588 1068.43 751.644L1068.2 751.741C1067.67 750.471 1067.07 749.143 1066.4 747.715C1065.8 746.425 1065.15 745.14 1064.48 743.865L1064.7 743.748C1063.36 741.225 1061.89 738.738 1060.31 736.316L1060.1 736.453C1058.53 734.046 1056.85 731.704 1055.09 729.451L1055.29 729.297C1053.5 727.009 1051.62 724.814 1049.68 722.738L1049.5 722.909C1047.5 720.772 1045.43 718.763 1043.32 716.911L1043.49 716.724C1041.26 714.765 1038.98 712.982 1036.69 711.411L1036.55 711.617C1035.34 710.789 1034.13 710.02 1032.92 709.316C1032.26 708.93 1030.62 708.235 1028.08 707.261L1028.17 707.028C1025.66 706.065 1022.29 704.838 1018.18 703.382L1018.09 703.618C1015.12 702.566 1011.76 701.395 1008.04 700.118L1008.12 699.881C1005.01 698.81 1001.64 697.663 998.051 696.45L997.971 696.687C994.776 695.607 991.403 694.473 987.869 693.292L987.948 693.055C984.712 691.974 981.34 690.853 977.846 689.696L977.768 689.933C974.505 688.853 971.135 687.741 967.668 686.602L967.746 686.365C964.461 685.285 961.089 684.18 957.638 683.054L957.561 683.292C954.256 682.213 950.88 681.114 947.44 679.997L947.517 679.759C944.195 678.681 940.813 677.586 937.378 676.477L937.301 676.715C933.976 675.641 930.601 674.554 927.182 673.456L927.259 673.218C923.918 672.145 920.536 671.062 917.119 669.969L917.043 670.207C913.695 669.137 910.314 668.059 906.904 666.974L906.98 666.736C903.624 665.668 900.241 664.594 896.835 663.516L896.759 663.754C895.072 663.22 893.379 662.684 891.681 662.148C890.179 661.674 888.681 661.2 887.187 660.727L887.262 660.488C884.256 659.537 881.265 658.588 878.294 657.643L878.218 657.882C875.204 656.924 872.209 655.97 869.239 655.022L869.315 654.784C866.3 653.822 863.309 652.865 860.348 651.916L860.271 652.154C857.253 651.187 854.265 650.228 851.31 649.277L851.387 649.039C848.36 648.065 845.369 647.1 842.418 646.147L842.341 646.385C839.316 645.407 836.333 644.44 833.397 643.487L833.474 643.249C830.432 642.262 827.441 641.288 824.506 640.33L824.429 640.568C821.387 639.575 818.405 638.6 815.489 637.643L815.566 637.405C812.509 636.402 809.525 635.42 806.62 634.461L806.541 634.698C803.467 633.683 800.482 632.694 797.594 631.734L797.673 631.497C794.581 630.468 791.601 629.473 788.742 628.514L788.662 628.751C785.538 627.702 782.559 626.697 779.738 625.74L779.818 625.503C776.645 624.426 773.672 623.409 770.918 622.459L770.836 622.695C767.545 621.559 764.567 620.519 761.934 619.584L762.018 619.348C758.385 618.058 755.41 616.969 753.177 616.11L753.087 616.343C750.948 615.52 749.475 614.902 748.756 614.516C747.237 613.701 745.698 612.779 744.149 611.762L744.286 611.553C741.461 609.698 738.6 607.524 735.765 605.1L735.602 605.29C732.965 603.034 730.35 600.563 727.808 597.931L727.988 597.757C725.541 595.223 723.161 592.539 720.893 589.756L720.699 589.914C718.435 587.136 716.283 584.258 714.285 581.329L714.492 581.188C712.445 578.187 710.561 575.133 708.889 572.078L708.67 572.198C707.798 570.605 706.983 569.012 706.231 567.425C705.412 565.694 704.681 564.125 704.029 562.666L704.257 562.564C702.599 558.855 701.453 555.867 700.662 552.753L700.42 552.815C699.638 549.736 699.203 546.539 698.964 542.424L699.213 542.41C699.043 539.488 698.971 536.099 698.944 531.953L698.694 531.954C698.684 530.327 698.68 528.584 698.68 526.707C698.68 524.83 698.684 523.087 698.694 521.46L698.944 521.461C698.971 517.315 699.043 513.926 699.213 511.005L698.964 510.99C699.203 506.875 699.638 503.678 700.42 500.599L700.662 500.661C701.453 497.547 702.599 494.559 704.257 490.851L704.029 490.748C704.681 489.29 705.412 487.72 706.231 485.989C706.983 484.403 707.798 482.809 708.67 481.216L708.889 481.336C710.562 478.281 712.445 475.227 714.492 472.226L714.285 472.085C716.283 469.157 718.435 466.279 720.699 463.501L720.892 463.659C723.16 460.875 725.54 458.191 727.987 455.658L727.807 455.484C730.349 452.852 732.964 450.38 735.602 448.125L735.764 448.315C738.599 445.89 741.461 443.716 744.286 441.862L744.149 441.653C745.698 440.637 747.237 439.715 748.756 438.9C749.694 438.398 751.26 437.704 753.357 436.853L753.451 437.084C755.892 436.093 759.066 434.882 762.832 433.5L762.746 433.266C765.584 432.224 768.758 431.086 772.207 429.872L772.29 430.108C775.263 429.062 778.44 427.96 781.784 426.814L781.703 426.578C784.747 425.535 787.928 424.457 791.217 423.354L791.297 423.591C794.388 422.554 797.574 421.495 800.832 420.422L800.753 420.184C803.879 419.155 807.07 418.113 810.305 417.065L810.382 417.303C813.536 416.282 816.731 415.256 819.948 414.233L819.872 413.994C821.464 413.488 823.062 412.981 824.662 412.476L829.378 410.989L829.453 411.227C832.574 410.242 835.649 409.272 838.678 408.316L838.603 408.078C841.718 407.094 844.786 406.126 847.806 405.172L847.881 405.411C851.006 404.424 854.08 403.453 857.104 402.497L857.029 402.259C860.155 401.271 863.228 400.299 866.249 399.344L866.324 399.582C869.44 398.596 872.5 397.628 875.505 396.676L875.43 396.438C878.577 395.441 881.665 394.462 884.695 393.501L884.77 393.74C887.86 392.76 890.889 391.798 893.858 390.854L893.783 390.616C896.959 389.606 900.067 388.617 903.109 387.648L903.185 387.886C906.317 386.888 909.379 385.912 912.373 384.955L912.297 384.717C915.414 383.721 918.458 382.746 921.429 381.793L921.505 382.031C924.68 381.013 927.773 380.019 930.786 379.048L930.709 378.81C933.864 377.793 936.931 376.802 939.913 375.835L939.99 376.073C943.136 375.054 946.187 374.061 949.147 373.094L949.07 372.857C952.217 371.829 955.261 370.831 958.207 369.86L958.285 370.097C961.45 369.054 964.501 368.043 967.441 367.062L967.362 366.825C970.544 365.764 973.598 364.738 976.529 363.745L976.609 363.982C979.8 362.901 982.845 361.859 985.754 360.853L985.672 360.616C988.891 359.503 991.942 358.434 994.836 357.405L994.919 357.641C998.145 356.493 1001.18 355.395 1004.03 354.341L1003.94 354.107C1007.15 352.919 1010.13 351.787 1012.91 350.702L1013 350.935C1016.27 349.656 1019.25 348.442 1021.98 347.281L1021.88 347.051C1025.15 345.658 1028.06 344.341 1030.65 343.076L1030.76 343.301C1034.05 341.699 1036.85 340.18 1039.28 338.696L1039.15 338.482C1042.25 336.584 1044.75 334.746 1046.9 332.866L1047.07 333.054C1049.62 330.827 1051.68 328.54 1053.69 326.029L1053.49 325.873C1054.46 324.655 1055.42 323.382 1056.42 322.036C1057.27 320.882 1058.11 319.632 1058.94 318.301L1059.15 318.433C1060.66 316.015 1062.11 313.334 1063.48 310.488L1063.26 310.379C1064.53 307.733 1065.74 304.943 1066.85 302.086L1067.08 302.177C1068.17 299.363 1069.17 296.485 1070.04 293.618L1069.8 293.545C1070.7 290.593 1071.48 287.652 1072.09 284.806L1072.34 284.858C1073.02 281.732 1073.51 278.717 1073.77 275.922L1073.52 275.898C1073.67 274.322 1073.75 272.818 1073.75 271.404C1073.75 269.671 1073.68 267.918 1073.53 266.154L1073.78 266.133C1073.5 262.692 1072.95 259.203 1072.17 255.711L1071.92 255.767C1071.16 252.389 1070.17 249.009 1068.98 245.667L1069.22 245.583C1068.04 242.291 1066.67 239.036 1065.13 235.859L1064.9 235.968C1063.37 232.812 1061.66 229.731 1059.8 226.766L1060.01 226.633C1058.13 223.631 1056.09 220.746 1053.92 218.018L1053.72 218.174C1051.51 215.39 1049.15 212.769 1046.69 210.355L1046.86 210.177C1044.3 207.666 1041.61 205.378 1038.82 203.358L1038.67 203.561C1037.24 202.521 1035.77 201.553 1034.29 200.663C1033.34 200.094 1031.94 199.383 1030.13 198.551L1030.24 198.324C1027.95 197.267 1025.02 196.021 1021.57 194.629L1021.48 194.86C1018.84 193.798 1015.91 192.65 1012.72 191.437L1012.81 191.203C1010.05 190.15 1007.1 189.048 1003.99 187.909L1003.9 188.144C1001.07 187.107 998.118 186.04 995.059 184.952L995.143 184.716C992.266 183.693 989.299 182.651 986.262 181.6L986.18 181.836C983.27 180.828 980.295 179.81 977.276 178.79L977.356 178.553C974.417 177.559 971.435 176.564 968.428 175.572L968.35 175.81C966.865 175.32 965.373 174.831 963.878 174.344C962.282 173.824 960.688 173.305 959.098 172.788L959.175 172.55C955.994 171.515 952.823 170.485 949.664 169.46L949.587 169.697C946.427 168.672 943.279 167.651 940.141 166.635L940.218 166.397C937.068 165.377 933.929 164.362 930.801 163.351L930.724 163.589C927.533 162.557 924.352 161.531 921.184 160.51L921.26 160.272C918.092 159.25 914.934 158.234 911.789 157.222L911.712 157.46C908.566 156.449 905.432 155.442 902.309 154.44L902.385 154.202C899.192 153.178 896.01 152.159 892.841 151.145L892.764 151.383C889.588 150.366 886.423 149.355 883.27 148.349L883.346 148.111C880.193 147.105 877.052 146.104 873.924 145.108L873.848 145.346C870.661 144.332 867.486 143.323 864.324 142.319L864.4 142.081C861.216 141.07 858.045 140.065 854.887 139.066L854.811 139.304C851.653 138.305 848.507 137.31 845.374 136.322L845.449 136.083C842.264 135.078 839.092 134.079 835.934 133.085L835.859 133.323C832.67 132.32 829.494 131.322 826.332 130.331L826.407 130.092C823.244 129.1 820.095 128.114 816.959 127.133L816.885 127.372C813.698 126.375 810.524 125.385 807.364 124.4L807.439 124.161C804.247 123.166 801.068 122.177 797.904 121.195L797.83 121.433C794.665 120.451 791.515 119.474 788.379 118.503L788.453 118.264C785.258 117.275 782.079 116.293 778.913 115.316L778.84 115.555C777.705 115.205 776.571 114.856 775.44 114.508C773.388 113.876 771.343 113.246 769.303 112.619L769.377 112.38C766.213 111.408 763.063 110.442 759.929 109.483L759.856 109.722C756.649 108.74 753.459 107.765 750.283 106.797L750.356 106.558C747.164 105.584 743.987 104.618 740.826 103.658L740.753 103.897C737.59 102.936 734.442 101.982 731.31 101.035L731.382 100.796C728.161 99.8214 724.957 98.8544 721.769 97.8945L721.697 98.1339C718.509 97.174 715.338 96.2212 712.183 95.2755L712.254 95.036C709.069 94.0812 705.9 93.1337 702.749 92.1933L702.677 92.4329C699.462 91.4736 696.265 90.522 693.084 89.5778L693.156 89.3381C689.975 88.3939 686.813 87.4573 683.667 86.5281L683.597 86.7679C680.384 85.8188 677.19 84.8777 674.013 83.9444L674.084 83.7045C670.879 82.7626 667.692 81.8287 664.523 80.9028L664.453 81.1427C661.27 80.2125 658.106 79.2903 654.96 78.3762L655.03 78.1361C651.799 77.1974 648.589 76.2672 645.398 75.3454L645.329 75.5856C642.138 74.6639 638.967 73.7507 635.815 72.846L635.884 72.6057C632.663 71.6808 629.462 70.765 626.281 69.8578L626.213 70.0983C623 69.1819 619.808 68.2747 616.637 67.3764L616.705 67.1359C613.503 66.2288 610.323 65.3311 607.164 64.4425L607.096 64.6832C603.862 63.7736 600.65 62.8736 597.461 61.9833L597.528 61.7426C594.339 60.8522 591.172 59.9716 588.027 59.1006L587.96 59.3416C584.709 58.441 581.481 57.5507 578.278 56.6708L578.344 56.4298C575.138 55.5492 571.956 54.6788 568.797 53.8189L568.732 54.0601C565.489 53.1772 562.271 52.3052 559.079 51.4442L559.144 51.2028C555.923 50.3339 552.728 49.4761 549.558 48.6293L549.493 48.8708C546.254 48.0057 543.042 47.1522 539.857 46.3102L539.921 46.0685C536.687 45.2137 533.481 44.3708 530.303 43.5399L530.239 43.7818C526.999 42.9347 523.787 42.1 520.604 41.2777L520.667 41.0356C517.424 40.1979 514.21 39.3729 511.027 38.5609L510.965 38.8032C507.718 37.9747 504.501 37.1597 501.315 36.3581L501.376 36.1157C498.128 35.2983 494.912 34.4949 491.728 33.7054L491.668 33.9481C488.407 33.1395 485.18 32.3456 481.987 31.5663L482.047 31.3234C478.798 30.5306 475.585 29.7529 472.407 28.9904L472.348 29.2335C469.069 28.4467 465.827 27.676 462.622 26.9214L462.679 26.678C459.438 25.9148 456.234 25.168 453.068 24.4376L453.012 24.6813C449.709 23.9191 446.447 23.1748 443.226 22.4485L443.281 22.2046C440.014 21.4677 436.789 20.7491 433.606 20.0491L433.552 20.2932C430.261 19.5692 427.016 18.8649 423.815 18.1803L423.868 17.9358C420.564 17.2289 417.308 16.5431 414.101 15.8782L414.05 16.1229C410.77 15.4431 407.542 14.7852 404.363 14.149L404.412 13.9039C401.088 13.2385 397.818 12.597 394.604 11.9796L394.556 12.2251C391.229 11.5859 387.961 10.9724 384.752 10.3845L384.797 10.1387C381.479 9.53076 378.224 8.95032 375.032 8.39734L374.99 8.64368C371.664 8.0675 368.408 7.52124 365.22 7.00464L365.26 6.75781C361.888 6.2113 358.592 5.69812 355.373 5.21814L355.337 5.46545C351.962 4.96228 348.671 4.49561 345.465 4.06543L345.498 3.81763C342.111 3.36328 338.818 2.94971 335.618 2.5769L335.59 2.82532C332.186 2.42871 328.89 2.07812 325.699 1.7738L325.723 1.5249C322.294 1.19775 318.988 0.923828 315.804 0.703003L315.786 0.952393C314.129 0.837402 312.505 0.736816 310.913 0.650635C309.243 0.560181 307.573 0.485107 305.905 0.425293L305.914 0.175537C302.565 0.055542 299.222 -0.00280762 295.886 0L295.887 0.25C292.539 0.25293 289.199 0.317383 285.867 0.442993L285.857 0.193237C282.511 0.319458 279.173 0.50708 275.844 0.755981L275.863 1.00537C272.526 1.25488 269.2 1.5658 265.884 1.93774L265.856 1.68933C262.53 2.0625 259.215 2.49707 255.912 2.99231L255.95 3.2395C252.642 3.7356 249.348 4.2926 246.068 4.91016L246.022 4.66455C242.733 5.28369 239.46 5.9635 236.202 6.70361L236.257 6.94739C232.998 7.68774 229.754 8.48853 226.528 9.349L226.463 9.10742C223.232 9.96936 220.018 10.8912 216.822 11.8726L216.896 12.1116C213.702 13.0923 210.527 14.1323 207.373 15.2313L207.29 14.9952C204.134 16.0951 200.997 17.2538 197.882 18.4708L197.973 18.7036C194.863 19.9188 191.774 21.1923 188.708 22.5233L188.609 22.2941C185.544 23.625 182.502 25.0134 179.485 26.4591L179.593 26.6846C176.582 28.1266 173.597 29.6256 170.637 31.181L170.521 30.9597C167.564 32.5132 164.633 34.1229 161.73 35.7882L161.854 36.0051C158.96 37.665 156.093 39.3804 153.254 41.1505L153.122 40.9384C150.289 42.7045 147.485 44.5253 144.71 46.4L144.85 46.6071C142.087 48.4744 139.353 50.3954 136.649 52.3694L136.502 52.1675C133.808 54.135 131.144 56.1552 128.512 58.2277L128.667 58.4241C126.048 60.4865 123.461 62.6007 120.906 64.7662L120.745 64.5755C118.201 66.7322 115.69 68.9396 113.213 71.1974L113.381 71.3821C112.147 72.5065 110.922 73.6432 109.706 74.7925C108.475 75.955 107.258 77.1222 106.054 78.2942L105.88 78.1151C103.447 80.4841 101.068 82.8729 98.7439 85.2818L98.9238 85.4554C96.5694 87.8955 94.2707 90.3563 92.0276 92.8386L91.8421 92.6709C89.5671 95.1884 87.3491 97.7278 85.1878 100.29L85.3789 100.451C83.1959 103.039 81.0709 105.649 79.0035 108.284L78.8068 108.129C76.7145 110.795 74.6812 113.485 72.7065 116.201L72.9087 116.348C70.9198 119.082 68.9904 121.842 67.1203 124.627L66.9128 124.488C65.0279 127.296 63.2031 130.129 61.4381 132.99L61.6509 133.121C59.8784 135.994 58.1662 138.894 56.514 141.822L56.2963 141.699C54.6376 144.639 53.0394 147.606 51.5012 150.602L51.7236 150.717C50.1851 153.713 48.7067 156.739 47.2882 159.794L47.0614 159.689C45.6429 162.744 44.2841 165.828 42.9848 168.943L43.2155 169.039C41.921 172.142 40.6854 175.275 39.5086 178.439L39.2743 178.352C38.1023 181.502 36.9884 184.683 35.9323 187.895L36.1698 187.973C35.1218 191.161 34.1308 194.379 33.1965 197.629L32.9562 197.559C32.0284 200.786 31.1565 204.044 30.34 207.332L30.5827 207.393C29.7758 210.643 29.0232 213.924 28.3245 217.236L28.0799 217.185C27.3881 220.465 26.7491 223.775 26.1628 227.117L26.409 227.16C25.8308 230.456 25.3037 233.782 24.8276 237.139L24.58 237.104C24.1099 240.418 23.6893 243.763 23.3179 247.138L23.5665 247.166C23.3827 248.836 23.2111 250.513 23.0515 252.198C22.8931 253.871 22.7516 255.545 22.6268 257.22L22.3775 257.202C22.1277 260.555 21.945 263.914 21.8287 267.276L22.0786 267.285C21.9625 270.641 21.9128 274.001 21.9287 277.364L21.6787 277.365C21.6947 280.726 21.7763 284.088 21.923 287.451L22.1727 287.44C22.319 290.794 22.53 294.148 22.8054 297.5L22.5562 297.521C22.8312 300.87 23.1703 304.217 23.5729 307.56L23.8211 307.53C24.2223 310.862 24.6866 314.19 25.2135 317.513L24.9666 317.552C25.4926 320.869 26.081 324.181 26.7313 327.486L26.9766 327.438C27.6243 330.73 28.3334 334.016 29.1035 337.292L28.8601 337.349C29.6283 340.618 30.4571 343.878 31.346 347.127L31.5871 347.061C32.4724 350.297 33.4172 353.523 34.4212 356.737L34.1826 356.811C35.1837 360.015 36.2436 363.208 37.3616 366.386L37.5975 366.303C38.7106 369.467 39.8816 372.617 41.1098 375.752L40.877 375.844C42.1016 378.969 43.3831 382.08 44.7211 385.173L44.9505 385.073C46.2819 388.151 47.6691 391.212 49.1117 394.255L48.8859 394.362C50.3243 397.395 51.8178 400.41 53.3658 403.405L53.5879 403.29C55.1275 406.268 56.7212 409.227 58.3684 412.163L58.1503 412.286C59.7923 415.213 61.4875 418.119 63.2354 421.002L63.4492 420.872C65.1874 423.739 66.9779 426.583 68.82 429.402L68.6107 429.539C70.4462 432.348 72.3329 435.133 74.2705 437.892L74.4751 437.749C75.44 439.123 76.4175 440.49 77.4075 441.851C78.3052 443.085 79.1792 444.301 80.0301 445.5L79.8262 445.645C81.6214 448.175 83.3137 450.631 84.9085 453.025L85.1165 452.886C86.8408 455.474 88.4516 457.989 89.9557 460.446L89.7425 460.576C91.3621 463.222 92.8577 465.8 94.2382 468.329L94.4576 468.209C95.9411 470.927 97.2921 473.588 98.5212 476.216L98.2948 476.322C99.5944 479.1 100.757 481.841 101.797 484.571L102.03 484.482C103.111 487.322 104.059 490.15 104.887 492.997L104.647 493.067C105.482 495.937 106.195 498.826 106.802 501.766L107.047 501.715C107.348 503.173 107.623 504.644 107.874 506.131C108.149 507.763 108.395 509.383 108.611 510.991L108.364 511.024C108.807 514.321 109.127 517.568 109.319 520.777L109.568 520.762C109.766 524.071 109.828 527.34 109.751 530.581L109.501 530.575C109.423 533.859 109.201 537.114 108.833 540.352L109.081 540.38C108.711 543.626 108.194 546.855 107.526 550.08L107.281 550.03C106.625 553.195 105.823 556.357 104.87 559.528L105.11 559.6C104.184 562.682 103.118 565.772 101.906 568.881L101.673 568.79C100.513 571.768 99.22 574.764 97.7908 577.787L98.0169 577.894C96.6512 580.783 95.1619 583.697 93.5462 586.644L93.327 586.524C91.7986 589.312 90.1568 592.13 88.3994 594.986L88.6123 595.117C86.9425 597.83 85.1687 600.577 83.2889 603.364L83.0817 603.224C81.3006 605.864 79.4243 608.54 77.451 611.258L77.6533 611.404C76.7042 612.711 75.7328 614.028 74.7388 615.354C73.7064 616.732 72.6839 618.135 71.6717 619.563L71.4678 619.418C69.4847 622.215 67.5415 625.105 65.6419 628.078L65.8526 628.213C64.0031 631.108 62.1949 634.081 60.4314 637.125L60.2151 637C58.4884 639.98 56.8047 643.027 55.1672 646.132L55.3883 646.249C53.7793 649.3 52.2149 652.408 50.6983 655.564L50.4729 655.456C48.9744 658.575 47.5224 661.74 46.1199 664.946L46.3489 665.046C44.9608 668.218 43.6212 671.429 42.333 674.671L42.1007 674.579C40.8188 677.806 39.5878 681.063 38.4106 684.343L38.6459 684.428C37.4721 687.699 36.3518 690.993 35.2878 694.303L35.0498 694.226C33.9836 697.543 32.974 700.876 32.0237 704.217L32.2642 704.285C31.3103 707.639 30.4163 711.001 29.585 714.364L29.3423 714.304C28.5032 717.698 27.728 721.094 27.0196 724.482L27.2643 724.533C26.5481 727.959 25.9003 731.378 25.3238 734.781L25.0773 734.739C24.4915 738.199 23.9792 741.643 23.5438 745.063L23.7918 745.094C23.5714 746.826 23.3706 748.552 23.19 750.271C23.0177 751.911 22.8569 753.457 22.7074 754.922L22.4587 754.897C22.1016 758.398 21.8098 761.438 21.5836 764.198L21.8328 764.218C21.5525 767.638 21.3731 770.625 21.2951 773.528L21.0452 773.521C20.9626 776.59 20.9931 779.567 21.1373 782.859L21.387 782.848C21.5092 785.638 21.7133 788.656 21.9998 792.152L21.7506 792.173C21.9771 794.937 22.255 797.998 22.5846 801.481L22.8335 801.458C22.9729 802.931 23.1216 804.48 23.2795 806.114L23.0308 806.138L23.2795 806.114C23.4362 807.736 23.6085 809.355 23.7964 810.971L23.548 811Z" stroke="url(#paint0_linear_4301_11066)" stroke-width="0.5" stroke-dasharray="10 10"/>
<path d="M411.157 507.272H266.146V760.872H411.157V507.272Z" fill="#504F79"/>
<path d="M472.87 507.272H411.158V760.872H472.87V507.272Z" fill="#38385D"/>
<path d="M396.134 525.397H281.166V551.123H396.134V525.397Z" fill="#38385D"/>
<path d="M375.871 539.307C376.052 528.819 391.676 528.819 391.852 539.307C391.671 549.795 376.048 549.795 375.871 539.307Z" fill="#F85C3D"/>
<path d="M353.955 539.307C354.136 528.819 369.76 528.819 369.936 539.307C369.755 549.795 354.132 549.795 353.955 539.307Z" fill="#F85C3D"/>
<path d="M304.505 528.447H299.508V548.885H304.505V528.447Z" fill="#504F79"/>
<path d="M296.993 528.447H291.996V548.885H296.993V528.447Z" fill="#504F79"/>
<path d="M289.481 528.447H284.484V548.885H289.481V528.447Z" fill="#504F79"/>
<path d="M326.886 528.447H321.889V548.885H326.886V528.447Z" fill="#504F79"/>
<path d="M319.374 528.447H314.377V548.885H319.374V528.447Z" fill="#504F79"/>
<path d="M311.862 528.447H306.865V548.885H311.862V528.447Z" fill="#504F79"/>
<path d="M349.27 528.447H344.273V548.885H349.27V528.447Z" fill="#504F79"/>
<path d="M341.759 528.447H336.762V548.885H341.759V528.447Z" fill="#504F79"/>
<path d="M334.247 528.447H329.25V548.885H334.247V528.447Z" fill="#504F79"/>
<path d="M289.481 535.959H284.484V548.889H289.481V535.959Z" fill="#EECD76"/>
<path d="M296.993 539.901H291.996V548.885H296.993V539.901Z" fill="#EECD76"/>
<path d="M304.505 538.262H299.508V548.889H304.505V538.262Z" fill="#EECD76"/>
<path d="M312.017 539.901H307.02V548.885H312.017V539.901Z" fill="#EECD76"/>
<path d="M319.374 539.901H314.377V548.885H319.374V539.901Z" fill="#EECD76"/>
<path d="M326.886 534.483H321.889V548.889H326.886V534.483Z" fill="#EECD76"/>
<path d="M334.247 539.901H329.25V548.885H334.247V539.901Z" fill="#EECD76"/>
<path d="M341.759 539.901H336.762V548.885H341.759V539.901Z" fill="#EECD76"/>
<path d="M349.268 539.901H344.271V548.885H349.268V539.901Z" fill="#EECD76"/>
<path d="M396.134 563.44H281.166V589.165H396.134V563.44Z" fill="#38385D"/>
<path d="M375.871 577.349C376.052 566.861 391.676 566.861 391.852 577.349C391.671 587.837 376.048 587.837 375.871 577.349Z" fill="#F85C3D"/>
<path d="M353.955 577.349C354.136 566.861 369.76 566.861 369.936 577.349C369.755 587.837 354.132 587.837 353.955 577.349Z" fill="#F85C3D"/>
<path d="M304.505 566.49H299.508V586.927H304.505V566.49Z" fill="#504F79"/>
<path d="M296.993 566.49H291.996V586.927H296.993V566.49Z" fill="#504F79"/>
<path d="M289.481 566.49H284.484V586.927H289.481V566.49Z" fill="#504F79"/>
<path d="M326.886 566.49H321.889V586.927H326.886V566.49Z" fill="#504F79"/>
<path d="M319.374 566.49H314.377V586.927H319.374V566.49Z" fill="#504F79"/>
<path d="M311.862 566.49H306.865V586.927H311.862V566.49Z" fill="#504F79"/>
<path d="M349.27 566.49H344.273V586.927H349.27V566.49Z" fill="#504F79"/>
<path d="M341.759 566.49H336.762V586.927H341.759V566.49Z" fill="#504F79"/>
<path d="M334.247 566.49H329.25V586.927H334.247V566.49Z" fill="#504F79"/>
<path d="M289.481 583.227H284.484V586.932H289.481V583.227Z" fill="#EECD76"/>
<path d="M296.993 577.944H291.996V586.927H296.993V577.944Z" fill="#EECD76"/>
<path d="M304.505 576.305H299.508V586.932H304.505V576.305Z" fill="#EECD76"/>
<path d="M311.862 575.618H306.865V586.927H311.862V575.618Z" fill="#EECD76"/>
<path d="M319.374 577.944H314.377V586.927H319.374V577.944Z" fill="#EECD76"/>
<path d="M326.886 572.526H321.889V586.932H326.886V572.526Z" fill="#EECD76"/>
<path d="M334.247 577.944H329.25V586.927H334.247V577.944Z" fill="#EECD76"/>
<path d="M341.759 581.937H336.762V586.927H341.759V581.937Z" fill="#EECD76"/>
<path d="M349.268 577.944H344.271V586.927H349.268V577.944Z" fill="#EECD76"/>
<path d="M396.134 601.482H281.166V627.208H396.134V601.482Z" fill="#38385D"/>
<path d="M375.871 615.392C376.052 604.904 391.676 604.904 391.852 615.392C391.671 625.88 376.048 625.88 375.871 615.392Z" fill="#F85C3D"/>
<path d="M353.955 615.392C354.136 604.904 369.76 604.904 369.936 615.392C369.755 625.88 354.132 625.88 353.955 615.392Z" fill="#F85C3D"/>
<path d="M304.505 604.533H299.508V624.97H304.505V604.533Z" fill="#504F79"/>
<path d="M296.993 604.533H291.996V624.97H296.993V604.533Z" fill="#504F79"/>
<path d="M289.481 604.533H284.484V624.97H289.481V604.533Z" fill="#504F79"/>
<path d="M326.886 604.533H321.889V624.97H326.886V604.533Z" fill="#504F79"/>
<path d="M319.374 604.533H314.377V624.97H319.374V604.533Z" fill="#504F79"/>
<path d="M311.862 604.533H306.865V624.97H311.862V604.533Z" fill="#504F79"/>
<path d="M349.27 604.533H344.273V624.97H349.27V604.533Z" fill="#504F79"/>
<path d="M341.759 604.533H336.762V624.97H341.759V604.533Z" fill="#504F79"/>
<path d="M334.247 604.533H329.25V624.97H334.247V604.533Z" fill="#504F79"/>
<path d="M289.481 612.045H284.484V624.975H289.481V612.045Z" fill="#EECD76"/>
<path d="M296.993 615.986H291.996V624.97H296.993V615.986Z" fill="#EECD76"/>
<path d="M304.505 614.347H299.508V624.975H304.505V614.347Z" fill="#EECD76"/>
<path d="M311.862 607.574H306.865V624.97H311.862V607.574Z" fill="#504F79"/>
<path d="M319.374 615.986H314.377V624.97H319.374V615.986Z" fill="#EECD76"/>
<path d="M326.886 612.959H321.889V624.97H326.886V612.959Z" fill="#EECD76"/>
<path d="M334.247 615.986H329.25V624.97H334.247V615.986Z" fill="#EECD76"/>
<path d="M341.759 615.986H336.762V624.97H341.759V615.986Z" fill="#EECD76"/>
<path d="M349.268 615.986H344.271V624.97H349.268V615.986Z" fill="#EECD76"/>
<path d="M396.134 639.525H281.166V665.251H396.134V639.525Z" fill="#38385D"/>
<path d="M375.871 653.435C376.052 642.947 391.676 642.947 391.852 653.435C391.671 663.923 376.048 663.923 375.871 653.435Z" fill="#F85C3D"/>
<path d="M353.955 653.435C354.136 642.947 369.76 642.947 369.936 653.435C369.755 663.923 354.132 663.923 353.955 653.435Z" fill="#F85C3D"/>
<path d="M304.505 642.575H299.508V663.013H304.505V642.575Z" fill="#504F79"/>
<path d="M296.993 642.575H291.996V663.013H296.993V642.575Z" fill="#504F79"/>
<path d="M289.481 642.575H284.484V663.013H289.481V642.575Z" fill="#504F79"/>
<path d="M326.886 642.575H321.889V663.013H326.886V642.575Z" fill="#504F79"/>
<path d="M319.374 642.575H314.377V663.013H319.374V642.575Z" fill="#504F79"/>
<path d="M311.862 642.575H306.865V663.013H311.862V642.575Z" fill="#504F79"/>
<path d="M349.27 642.575H344.273V663.013H349.27V642.575Z" fill="#504F79"/>
<path d="M341.759 642.575H336.762V663.013H341.759V642.575Z" fill="#504F79"/>
<path d="M334.247 642.575H329.25V663.013H334.247V642.575Z" fill="#504F79"/>
<path d="M289.481 650.087H284.484V663.017H289.481V650.087Z" fill="#EECD76"/>
<path d="M296.993 658.523H291.996V663.017H296.993V658.523Z" fill="#EECD76"/>
<path d="M304.505 658.022H299.508V663.013H304.505V658.022Z" fill="#EECD76"/>
<path d="M311.862 654.029H306.865V663.013H311.862V654.029Z" fill="#EECD76"/>
<path d="M319.374 654.029H314.377V663.013H319.374V654.029Z" fill="#EECD76"/>
<path d="M326.886 648.611H321.889V663.017H326.886V648.611Z" fill="#EECD76"/>
<path d="M334.247 657.701H329.25V663.013H334.247V657.701Z" fill="#EECD76"/>
<path d="M341.759 654.029H336.762V663.013H341.759V654.029Z" fill="#EECD76"/>
<path d="M349.268 654.029H344.271V663.013H349.268V654.029Z" fill="#EECD76"/>
<path d="M396.134 677.568H281.166V703.293H396.134V677.568Z" fill="#38385D"/>
<path d="M375.871 691.477C376.052 680.989 391.676 680.989 391.852 691.477C391.671 701.965 376.048 701.965 375.871 691.477Z" fill="#F85C3D"/>
<path d="M353.955 691.477C354.136 680.989 369.76 680.989 369.936 691.477C369.755 701.965 354.132 701.965 353.955 691.477Z" fill="#504F79"/>
<path d="M304.505 680.618H299.508V701.056H304.505V680.618Z" fill="#504F79"/>
<path d="M296.993 680.618H291.996V701.056H296.993V680.618Z" fill="#504F79"/>
<path d="M289.481 680.618H284.484V701.056H289.481V680.618Z" fill="#504F79"/>
<path d="M326.886 680.618H321.889V701.056H326.886V680.618Z" fill="#504F79"/>
<path d="M319.374 680.618H314.377V701.056H319.374V680.618Z" fill="#504F79"/>
<path d="M311.862 680.618H306.865V701.056H311.862V680.618Z" fill="#504F79"/>
<path d="M349.27 680.618H344.273V701.056H349.27V680.618Z" fill="#504F79"/>
<path d="M341.759 680.618H336.762V701.056H341.759V680.618Z" fill="#504F79"/>
<path d="M334.247 680.618H329.25V701.056H334.247V680.618Z" fill="#504F79"/>
<path d="M289.481 688.13H284.484V701.06H289.481V688.13Z" fill="#EECD76"/>
<path d="M296.993 692.072H291.996V701.055H296.993V692.072Z" fill="#EECD76"/>
<path d="M304.505 690.433H299.508V701.06H304.505V690.433Z" fill="#EECD76"/>
<path d="M312.017 692.072H307.02V701.055H312.017V692.072Z" fill="#EECD76"/>
<path d="M319.374 692.072H314.377V701.055H319.374V692.072Z" fill="#EECD76"/>
<path d="M326.886 686.654H321.889V701.06H326.886V686.654Z" fill="#EECD76"/>
<path d="M334.247 692.072H329.25V701.055H334.247V692.072Z" fill="#EECD76"/>
<path d="M341.759 692.072H336.762V701.055H341.759V692.072Z" fill="#EECD76"/>
<path d="M349.268 692.072H344.271V701.055H349.268V692.072Z" fill="#EECD76"/>
<path d="M313.077 713.215H281.166V718.573H313.077V713.215Z" fill="#38385D"/>
<path d="M313.077 722.667H281.166V728.025H313.077V722.667Z" fill="#38385D"/>
<path d="M313.077 732.125H281.166V737.482H313.077V732.125Z" fill="#38385D"/>
<path d="M354.604 713.215H322.693V718.573H354.604V713.215Z" fill="#38385D"/>
<path d="M354.604 722.667H322.693V728.025H354.604V722.667Z" fill="#38385D"/>
<path d="M354.604 732.125H322.693V737.482H354.604V732.125Z" fill="#38385D"/>
<path d="M396.134 713.215H364.223V718.573H396.134V713.215Z" fill="#38385D"/>
<path d="M396.134 722.667H364.223V728.025H396.134V722.667Z" fill="#38385D"/>
<path d="M396.134 732.125H364.223V737.482H396.134V732.125Z" fill="#38385D"/>
<path d="M457.966 525.397H426.055V530.774H457.966V525.397Z" fill="#504F79"/>
<path d="M457.966 534.887H426.055V540.263H457.966V534.887Z" fill="#504F79"/>
<path d="M457.966 544.377H426.055V549.753H457.966V544.377Z" fill="#504F79"/>
<path d="M457.966 563.783H426.055V569.16H457.966V563.783Z" fill="#504F79"/>
<path d="M457.966 573.273H426.055V578.649H457.966V573.273Z" fill="#504F79"/>
<path d="M457.966 582.763H426.055V588.139H457.966V582.763Z" fill="#504F79"/>
<path d="M457.966 602.17H426.055V607.546H457.966V602.17Z" fill="#504F79"/>
<path d="M457.966 611.659H426.055V617.036H457.966V611.659Z" fill="#504F79"/>
<path d="M457.966 621.149H426.055V626.525H457.966V621.149Z" fill="#504F79"/>
<path d="M457.966 640.212H426.055V645.588H457.966V640.212Z" fill="#504F79"/>
<path d="M457.966 649.702H426.055V655.078H457.966V649.702Z" fill="#504F79"/>
<path d="M457.966 659.192H426.055V664.568H457.966V659.192Z" fill="#504F79"/>
<path d="M457.966 677.698H426.055V683.074H457.966V677.698Z" fill="#504F79"/>
<path d="M457.966 687.183H426.055V692.559H457.966V687.183Z" fill="#504F79"/>
<path d="M457.966 696.673H426.055V702.049H457.966V696.673Z" fill="#504F79"/>
<path d="M631.759 507.272H486.748V760.872H631.759V507.272Z" fill="#504F79"/>
<path d="M693.472 507.272H631.76V760.872H693.472V507.272Z" fill="#38385D"/>
<path d="M616.74 525.397H501.771V551.123H616.74V525.397Z" fill="#38385D"/>
<path d="M596.477 539.307C596.658 528.819 612.281 528.819 612.458 539.307C612.276 549.795 596.653 549.795 596.477 539.307Z" fill="#F85C3D"/>
<path d="M574.557 539.307C574.738 528.819 590.361 528.819 590.538 539.307C590.356 549.795 574.733 549.795 574.557 539.307Z" fill="#F85C3D"/>
<path d="M525.106 528.447H520.109V548.885H525.106V528.447Z" fill="#504F79"/>
<path d="M517.595 528.447H512.598V548.885H517.595V528.447Z" fill="#504F79"/>
<path d="M510.083 528.447H505.086V548.885H510.083V528.447Z" fill="#504F79"/>
<path d="M547.493 528.447H542.496V548.885H547.493V528.447Z" fill="#504F79"/>
<path d="M539.981 528.447H534.984V548.885H539.981V528.447Z" fill="#504F79"/>
<path d="M532.47 528.447H527.473V548.885H532.47V528.447Z" fill="#504F79"/>
<path d="M569.876 528.447H564.879V548.885H569.876V528.447Z" fill="#504F79"/>
<path d="M562.364 528.447H557.367V548.885H562.364V528.447Z" fill="#504F79"/>
<path d="M554.852 528.447H549.855V548.885H554.852V528.447Z" fill="#504F79"/>
<path d="M510.083 535.959H505.086V548.889H510.083V535.959Z" fill="#EECD76"/>
<path d="M517.595 539.901H512.598V548.885H517.595V539.901Z" fill="#EECD76"/>
<path d="M525.106 538.262H520.109V548.889H525.106V538.262Z" fill="#EECD76"/>
<path d="M532.618 539.901H527.621V548.885H532.618V539.901Z" fill="#EECD76"/>
<path d="M539.981 539.901H534.984V548.885H539.981V539.901Z" fill="#EECD76"/>
<path d="M547.491 534.483H542.494V548.889H547.491V534.483Z" fill="#EECD76"/>
<path d="M554.852 539.901H549.855V548.885H554.852V539.901Z" fill="#EECD76"/>
<path d="M562.364 539.901H557.367V548.885H562.364V539.901Z" fill="#EECD76"/>
<path d="M569.876 539.901H564.879V548.885H569.876V539.901Z" fill="#EECD76"/>
<path d="M616.74 563.44H501.771V589.165H616.74V563.44Z" fill="#38385D"/>
<path d="M596.477 577.349C596.658 566.861 612.281 566.861 612.458 577.349C612.276 587.837 596.653 587.837 596.477 577.349Z" fill="#F85C3D"/>
<path d="M574.557 577.349C574.738 566.861 590.361 566.861 590.538 577.349C590.356 587.837 574.733 587.837 574.557 577.349Z" fill="#F85C3D"/>
<path d="M525.106 566.49H520.109V586.927H525.106V566.49Z" fill="#504F79"/>
<path d="M517.595 566.49H512.598V586.927H517.595V566.49Z" fill="#504F79"/>
<path d="M510.083 566.49H505.086V586.927H510.083V566.49Z" fill="#504F79"/>
<path d="M547.493 566.49H542.496V586.927H547.493V566.49Z" fill="#504F79"/>
<path d="M539.981 566.49H534.984V586.927H539.981V566.49Z" fill="#504F79"/>
<path d="M532.47 566.49H527.473V586.927H532.47V566.49Z" fill="#504F79"/>
<path d="M569.876 566.49H564.879V586.927H569.876V566.49Z" fill="#504F79"/>
<path d="M562.364 566.49H557.367V586.927H562.364V566.49Z" fill="#504F79"/>
<path d="M554.852 566.49H549.855V586.927H554.852V566.49Z" fill="#504F79"/>
<path d="M510.083 583.227H505.086V586.932H510.083V583.227Z" fill="#EECD76"/>
<path d="M517.595 577.944H512.598V586.927H517.595V577.944Z" fill="#EECD76"/>
<path d="M525.106 576.305H520.109V586.932H525.106V576.305Z" fill="#EECD76"/>
<path d="M532.47 575.618H527.473V586.927H532.47V575.618Z" fill="#EECD76"/>
<path d="M539.981 577.944H534.984V586.927H539.981V577.944Z" fill="#EECD76"/>
<path d="M547.491 572.526H542.494V586.932H547.491V572.526Z" fill="#EECD76"/>
<path d="M554.852 577.944H549.855V586.927H554.852V577.944Z" fill="#EECD76"/>
<path d="M562.364 581.937H557.367V586.927H562.364V581.937Z" fill="#EECD76"/>
<path d="M569.876 577.944H564.879V586.927H569.876V577.944Z" fill="#EECD76"/>
<path d="M616.74 601.482H501.771V627.208H616.74V601.482Z" fill="#38385D"/>
<path d="M596.477 615.392C596.658 604.904 612.281 604.904 612.458 615.392C612.276 625.88 596.653 625.88 596.477 615.392Z" fill="#F85C3D"/>
<path d="M574.557 615.392C574.738 604.904 590.361 604.904 590.538 615.392C590.356 625.88 574.733 625.88 574.557 615.392Z" fill="#F85C3D"/>
<path d="M525.106 604.533H520.109V624.97H525.106V604.533Z" fill="#504F79"/>
<path d="M517.595 604.533H512.598V624.97H517.595V604.533Z" fill="#504F79"/>
<path d="M510.083 604.533H505.086V624.97H510.083V604.533Z" fill="#504F79"/>
<path d="M547.493 604.533H542.496V624.97H547.493V604.533Z" fill="#504F79"/>
<path d="M539.981 604.533H534.984V624.97H539.981V604.533Z" fill="#504F79"/>
<path d="M532.47 604.533H527.473V624.97H532.47V604.533Z" fill="#504F79"/>
<path d="M569.876 604.533H564.879V624.97H569.876V604.533Z" fill="#504F79"/>
<path d="M562.364 604.533H557.367V624.97H562.364V604.533Z" fill="#504F79"/>
<path d="M554.852 604.533H549.855V624.97H554.852V604.533Z" fill="#504F79"/>
<path d="M510.083 612.045H505.086V624.975H510.083V612.045Z" fill="#EECD76"/>
<path d="M517.595 615.986H512.598V624.97H517.595V615.986Z" fill="#EECD76"/>
<path d="M525.106 614.347H520.109V624.975H525.106V614.347Z" fill="#EECD76"/>
<path d="M532.47 607.574H527.473V624.97H532.47V607.574Z" fill="#504F79"/>
<path d="M539.981 615.986H534.984V624.97H539.981V615.986Z" fill="#EECD76"/>
<path d="M547.491 612.959H542.494V624.97H547.491V612.959Z" fill="#EECD76"/>
<path d="M554.852 615.986H549.855V624.97H554.852V615.986Z" fill="#EECD76"/>
<path d="M562.364 615.986H557.367V624.97H562.364V615.986Z" fill="#EECD76"/>
<path d="M569.876 615.986H564.879V624.97H569.876V615.986Z" fill="#EECD76"/>
<path d="M616.74 639.525H501.771V665.251H616.74V639.525Z" fill="#38385D"/>
<path d="M596.477 653.435C596.658 642.947 612.281 642.947 612.458 653.435C612.276 663.923 596.653 663.923 596.477 653.435Z" fill="#F85C3D"/>
<path d="M574.557 653.435C574.738 642.947 590.361 642.947 590.538 653.435C590.356 663.923 574.733 663.923 574.557 653.435Z" fill="#F85C3D"/>
<path d="M525.106 642.575H520.109V663.013H525.106V642.575Z" fill="#504F79"/>
<path d="M517.595 642.575H512.598V663.013H517.595V642.575Z" fill="#504F79"/>
<path d="M510.083 642.575H505.086V663.013H510.083V642.575Z" fill="#504F79"/>
<path d="M547.493 642.575H542.496V663.013H547.493V642.575Z" fill="#504F79"/>
<path d="M539.981 642.575H534.984V663.013H539.981V642.575Z" fill="#504F79"/>
<path d="M532.47 642.575H527.473V663.013H532.47V642.575Z" fill="#504F79"/>
<path d="M569.876 642.575H564.879V663.013H569.876V642.575Z" fill="#504F79"/>
<path d="M562.364 642.575H557.367V663.013H562.364V642.575Z" fill="#504F79"/>
<path d="M554.852 642.575H549.855V663.013H554.852V642.575Z" fill="#504F79"/>
<path d="M510.083 650.087H505.086V663.017H510.083V650.087Z" fill="#EECD76"/>
<path d="M517.595 658.523H512.598V663.017H517.595V658.523Z" fill="#EECD76"/>
<path d="M525.106 658.022H520.109V663.013H525.106V658.022Z" fill="#EECD76"/>
<path d="M532.47 654.029H527.473V663.013H532.47V654.029Z" fill="#EECD76"/>
<path d="M539.981 654.029H534.984V663.013H539.981V654.029Z" fill="#EECD76"/>
<path d="M547.491 648.611H542.494V663.017H547.491V648.611Z" fill="#EECD76"/>
<path d="M554.852 657.701H549.855V663.013H554.852V657.701Z" fill="#EECD76"/>
<path d="M562.364 654.029H557.367V663.013H562.364V654.029Z" fill="#EECD76"/>
<path d="M569.876 654.029H564.879V663.013H569.876V654.029Z" fill="#EECD76"/>
<path d="M616.74 677.568H501.771V703.293H616.74V677.568Z" fill="#38385D"/>
<path d="M596.477 691.477C596.658 680.989 612.281 680.989 612.458 691.477C612.276 701.965 596.653 701.965 596.477 691.477Z" fill="#F85C3D"/>
<path d="M574.557 691.477C574.738 680.989 590.361 680.989 590.538 691.477C590.356 701.965 574.733 701.965 574.557 691.477Z" fill="#504F79"/>
<path d="M525.106 680.618H520.109V701.056H525.106V680.618Z" fill="#504F79"/>
<path d="M517.595 680.618H512.598V701.056H517.595V680.618Z" fill="#504F79"/>
<path d="M510.083 680.618H505.086V701.056H510.083V680.618Z" fill="#504F79"/>
<path d="M547.493 680.618H542.496V701.056H547.493V680.618Z" fill="#504F79"/>
<path d="M539.981 680.618H534.984V701.056H539.981V680.618Z" fill="#504F79"/>
<path d="M532.47 680.618H527.473V701.056H532.47V680.618Z" fill="#504F79"/>
<path d="M569.876 680.618H564.879V701.056H569.876V680.618Z" fill="#504F79"/>
<path d="M562.364 680.618H557.367V701.056H562.364V680.618Z" fill="#504F79"/>
<path d="M554.852 680.618H549.855V701.056H554.852V680.618Z" fill="#504F79"/>
<path d="M510.083 688.13H505.086V701.06H510.083V688.13Z" fill="#EECD76"/>
<path d="M517.595 692.072H512.598V701.055H517.595V692.072Z" fill="#EECD76"/>
<path d="M525.106 690.433H520.109V701.06H525.106V690.433Z" fill="#EECD76"/>
<path d="M532.618 692.072H527.621V701.055H532.618V692.072Z" fill="#EECD76"/>
<path d="M539.981 692.072H534.984V701.055H539.981V692.072Z" fill="#EECD76"/>
<path d="M547.491 686.654H542.494V701.06H547.491V686.654Z" fill="#EECD76"/>
<path d="M554.852 692.072H549.855V701.055H554.852V692.072Z" fill="#EECD76"/>
<path d="M562.364 692.072H557.367V701.055H562.364V692.072Z" fill="#EECD76"/>
<path d="M569.876 692.072H564.879V701.055H569.876V692.072Z" fill="#EECD76"/>
<path d="M533.683 713.215H501.771V718.573H533.683V713.215Z" fill="#38385D"/>
<path d="M533.683 722.667H501.771V728.025H533.683V722.667Z" fill="#38385D"/>
<path d="M533.683 732.125H501.771V737.482H533.683V732.125Z" fill="#38385D"/>
<path d="M575.21 713.215H543.299V718.573H575.21V713.215Z" fill="#38385D"/>
<path d="M575.21 722.667H543.299V728.025H575.21V722.667Z" fill="#38385D"/>
<path d="M575.21 732.125H543.299V737.482H575.21V732.125Z" fill="#38385D"/>
<path d="M616.739 713.215H584.828V718.572H616.739V713.215Z" fill="#38385D"/>
<path d="M616.739 722.667H584.828V728.025H616.739V722.667Z" fill="#38385D"/>
<path d="M616.739 732.125H584.828V737.482H616.739V732.125Z" fill="#38385D"/>
<path d="M678.573 525.397H646.662V530.774H678.573V525.397Z" fill="#504F79"/>
<path d="M678.573 534.887H646.662V540.263H678.573V534.887Z" fill="#504F79"/>
<path d="M678.573 544.377H646.662V549.753H678.573V544.377Z" fill="#504F79"/>
<path d="M678.573 563.783H646.662V569.16H678.573V563.783Z" fill="#504F79"/>
<path d="M678.573 573.273H646.662V578.649H678.573V573.273Z" fill="#504F79"/>
<path d="M678.573 582.763H646.662V588.139H678.573V582.763Z" fill="#504F79"/>
<path d="M678.573 602.17H646.662V607.546H678.573V602.17Z" fill="#504F79"/>
<path d="M678.573 611.659H646.662V617.036H678.573V611.659Z" fill="#504F79"/>
<path d="M678.573 621.149H646.662V626.525H678.573V621.149Z" fill="#504F79"/>
<path d="M678.573 640.212H646.662V645.588H678.573V640.212Z" fill="#504F79"/>
<path d="M678.573 649.702H646.662V655.078H678.573V649.702Z" fill="#504F79"/>
<path d="M678.573 659.192H646.662V664.568H678.573V659.192Z" fill="#504F79"/>
<path d="M678.573 677.698H646.662V683.074H678.573V677.698Z" fill="#504F79"/>
<path d="M678.573 687.183H646.662V692.559H678.573V687.183Z" fill="#504F79"/>
<path d="M678.573 696.673H646.662V702.049H678.573V696.673Z" fill="#504F79"/>
<path d="M731.499 760.872H235.117V836.414H731.499V760.872Z" fill="#504F79"/>
<path d="M731.5 760.872H600.783V836.414H731.5V760.872Z" fill="#38385D"/>
<path d="M600.788 760.297H266.146V761.448H600.788V760.297Z" fill="#38385D"/>
<path d="M350.777 498.925H346.506C346.279 486.426 356.872 486.338 357.176 475.01C356.872 463.687 346.274 463.582 346.506 451.089C346.279 438.596 356.872 438.497 357.176 427.174C356.872 415.845 346.274 415.752 346.506 403.253C346.279 390.76 356.872 390.655 357.176 379.332H361.447C361.674 391.831 351.081 391.924 350.777 403.253C351.081 414.576 361.679 414.68 361.447 427.174C361.674 439.667 351.081 439.766 350.777 451.089C351.081 462.418 361.679 462.511 361.447 475.01C361.674 487.503 351.081 487.602 350.777 498.925Z" fill="#E3DBDB"/>
<path d="M380.676 498.925H376.404C376.178 486.426 386.77 486.338 387.074 475.01C386.77 463.687 376.172 463.582 376.404 451.089C376.178 438.596 386.77 438.497 387.074 427.174C386.77 415.845 376.172 415.752 376.404 403.253C376.178 390.76 386.77 390.655 387.074 379.332H391.346C391.572 391.831 380.979 391.924 380.676 403.253C380.979 414.576 391.578 414.68 391.346 427.174C391.572 439.667 380.979 439.766 380.676 451.089C380.979 462.418 391.578 462.511 391.346 475.01C391.572 487.503 380.979 487.602 380.676 498.925Z" fill="#E3DBDB"/>
<path d="M409.328 498.925H405.056C404.83 486.426 415.423 486.338 415.727 475.01C415.423 463.687 404.824 463.582 405.056 451.089C404.83 438.596 415.423 438.497 415.727 427.174C415.423 415.845 404.824 415.752 405.056 403.253C404.83 390.76 415.423 390.655 415.727 379.332H419.998C420.225 391.831 409.632 391.924 409.328 403.253C409.632 414.576 420.23 414.68 419.998 427.174C420.225 439.667 409.632 439.766 409.328 451.089C409.632 462.418 420.23 462.511 419.998 475.01C420.225 487.503 409.632 487.602 409.328 498.925Z" fill="#E3DBDB"/>
<path d="M461.646 927.993C541.646 927.993 606.499 918.356 606.499 906.469C606.499 894.581 541.646 884.945 461.646 884.945C381.646 884.945 316.793 894.581 316.793 906.469C316.793 918.356 381.646 927.993 461.646 927.993Z" fill="#97B4FF"/>
<path d="M486.324 599.384C474.597 595.759 462.655 592.023 450.299 591.569C437.735 591.114 426.08 595.241 416.424 603.256C412.521 606.49 406.984 600.826 410.927 597.559C421.857 588.493 434.716 583.562 448.952 583.618C462.456 583.681 475.696 587.8 488.475 591.76C493.343 593.265 491.216 600.89 486.332 599.376L486.324 599.384Z" fill="#231F20"/>
<path d="M495.133 855.78C483.932 860.791 472.523 865.946 460.31 867.881C447.898 869.849 435.829 867.149 425.273 860.361C421.011 857.62 416.199 863.906 420.501 866.678C432.443 874.358 445.803 877.712 459.936 875.928C473.336 874.239 485.979 868.551 498.184 863.085C502.837 861.006 499.801 853.693 495.133 855.78Z" fill="#231F20"/>
<path d="M614.563 797.729C614.021 817.159 610.301 834.137 577.94 844.653C555.649 851.894 529.391 849.504 512.358 851.934C495.325 854.364 443.367 874.591 401.629 877.013C359.891 879.443 316.457 853.551 313.9 811.479C311.342 769.407 325.826 752.414 326.678 730.569C327.786 702.224 310.45 680.507 312.203 642.378C313.908 605.158 354.793 586.547 398.227 584.93C436.611 583.504 493.15 606.52 512.358 605.97C540.465 605.158 612.014 606.783 612.014 638.331C612.014 674.818 560.055 682.833 549.834 693.349C531.088 712.644 529.391 728.952 546.424 745.937C566.173 765.631 615.416 766.977 614.563 797.721V797.729Z" fill="#E2EAFF"/>
<path d="M334.491 787.895C330.659 802.578 335.04 814.783 343.35 824.781C348.178 833.234 356.981 841.065 363.163 844.571C377.766 852.84 397.675 858.48 413.696 850.044C427.04 843.017 426.992 826.231 412.509 820.862C399.722 816.121 386.035 820.376 374.061 812.13C362.605 804.243 362.581 793.002 355.332 781.984C347.349 769.859 337.462 776.567 334.507 787.903L334.491 787.895Z" fill="white"/>
<path d="M398.279 584.889C358.78 586.362 321.361 601.826 313.625 632.609C336.625 576.452 426.641 594.194 463.845 620.842C474.154 628.227 476.249 639.58 486.271 653.824C495.529 666.978 496.302 634.298 526.113 624.005C543.903 617.863 587.911 610.294 595.511 635.35C598.004 643.563 598.403 654.94 594.985 662.524C592.794 667.384 587.066 674.132 580.159 677.964C596.116 669.965 612.058 658.493 612.058 638.273C612.058 606.717 540.509 605.1 512.402 605.913C493.195 606.462 436.655 583.447 398.271 584.873L398.279 584.889Z" fill="#97B4FF"/>
<path d="M522.763 846.748C516.795 838.04 507.984 844.206 502.838 850.038C503.539 847.576 504.367 843.927 501.117 842.772C498.113 841.713 496.313 845.752 495.604 848.094C493.843 853.902 491.86 859.654 486.227 862.888L476.006 869.142C486.992 866.513 498.193 869.214 509.02 866.186C516.835 863.996 529.391 856.419 522.763 846.748Z" fill="#231F20"/>
<path d="M514.831 604.997C509.956 614.366 500.468 609.307 494.66 604.129C495.656 606.487 496.914 610.016 493.823 611.553C490.971 612.972 488.693 609.171 487.713 606.941C485.259 601.388 482.606 595.915 476.615 593.381L465.717 588.402C476.942 589.685 487.737 585.654 498.842 587.359C506.865 588.593 520.241 594.592 514.831 604.997Z" fill="#231F20"/>
<path d="M436.543 727.329C436.559 727.672 436.574 728.014 436.598 728.365C437.698 745.047 445.72 754.344 452.261 759.196C459.351 764.462 466.163 765.745 466.45 765.8C467.74 766.031 468.975 765.179 469.214 763.888C469.445 762.598 468.593 761.363 467.31 761.124C466.314 760.941 443.203 756.288 441.339 728.046C440.598 716.678 444.987 709.205 448.811 704.943C454.723 698.354 462.164 695.781 467.159 695.574C468.465 695.518 469.485 694.411 469.429 693.104C469.373 691.79 468.266 690.778 466.952 690.834C459.343 691.16 451.042 695.351 445.274 701.78C440.956 706.592 436.009 714.893 436.535 727.329H436.543Z" fill="#231F20"/>
<path d="M396.72 791.811L389.534 784.625C387.821 782.912 385.048 782.912 383.328 784.625C381.615 786.338 381.615 789.118 383.328 790.831L390.514 798.017L383.328 805.203C381.615 806.916 381.615 809.696 383.328 811.409C385.04 813.122 387.821 813.122 389.534 811.409L396.72 804.223L403.906 811.409C405.618 813.122 408.399 813.122 410.112 811.409C411.824 809.696 411.824 806.916 410.112 805.203L402.926 798.017L410.112 790.831C411.824 789.118 411.824 786.338 410.112 784.625C408.399 782.912 405.626 782.912 403.906 784.625L396.72 791.811Z" fill="#231F20"/>
<path d="M396.192 655.654L389.006 648.468C387.294 646.756 384.513 646.756 382.8 648.468C381.087 650.181 381.087 652.962 382.8 654.674L389.986 661.86L382.8 669.046C381.087 670.759 381.087 673.54 382.8 675.252C384.513 676.965 387.294 676.965 389.006 675.252L396.192 668.067L403.378 675.252C405.091 676.965 407.864 676.965 409.584 675.252C411.297 673.54 411.297 670.759 409.584 669.046L402.398 661.86L409.584 654.674C411.297 652.962 411.297 650.181 409.584 648.468C407.871 646.756 405.091 646.756 403.378 648.468L396.192 655.654Z" fill="#231F20"/>
<path d="M151.491 624.327L114.903 609.372V609.379C111.927 607.98 108.613 607.197 105.131 607.197C94.4872 606.459 82.6945 607.805 76.8438 617.619L53.8242 647.357L71.4711 659.898L69.7071 692.139H132.104L129.05 644.434L142.557 649.464L151.491 624.327Z" fill="#F85C3D"/>
<mask id="mask0_4301_11066" style="mask-type:luminance" maskUnits="userSpaceOnUse" x="53" y="607" width="101" height="86">
<path d="M153.311 625.834L114.901 609.364V609.372C111.925 607.973 108.611 607.189 105.129 607.189C94.4852 606.451 82.6926 607.797 76.8419 617.612L53.8223 647.35L71.4691 659.891L69.7051 692.131H132.102L129.048 644.426L144.47 650.094L153.311 625.834Z" fill="white"/>
</mask>
<g mask="url(#mask0_4301_11066)">
<path d="M83.6855 608.382C90.9453 615.764 109.836 620.607 117.173 607.742L102.626 604.161L92.7339 604.783L83.6855 608.382Z" fill="#FFB6A6"/>
<path d="M144.548 644.08L123.057 627.884L111.703 691.584L138.957 690.478L133.279 651.389L144.548 655.704V644.08Z" fill="#DF4930"/>
<path d="M64.068 656.528L79.7892 626.354C79.7892 626.354 81.894 694.84 81.4724 694.84C81.0507 694.84 65.3295 693.997 65.3295 693.997L64.0645 656.524L64.068 656.528Z" fill="#DF4930"/>
</g>
<path d="M143.914 742.362L125.572 692.109H127.603L120.139 609.181L113.586 607.744L113.691 634.572L88.1343 633.733L86.9185 608.035L80.3299 609.796L74.0119 692.137L36.515 753.114L15.1855 810.261H34.6245L63.7443 766.056L101.501 724.912L112.493 745.956L99.4843 810.261H121.921C122.367 806.322 148.292 744.639 143.914 742.365V742.362Z" fill="#00288D"/>
<mask id="mask1_4301_11066" style="mask-type:luminance" maskUnits="userSpaceOnUse" x="15" y="607" width="130" height="204">
<path d="M143.918 742.338L125.575 692.085H127.606L120.143 609.157L113.589 607.72L113.695 634.548L88.1382 633.709L86.9224 608.011L80.3338 609.772L74.0158 692.113L36.5189 753.09L15.1895 810.237H34.6284L63.7482 766.032L101.505 724.888L112.497 745.932L99.4882 810.237H121.924C122.371 806.298 148.296 744.615 143.918 742.341V742.338Z" fill="white"/>
</mask>
<g mask="url(#mask1_4301_11066)">
<path d="M74.0167 692.127C74.0167 692.127 91.9693 727.98 139.386 725.899L132.112 692.127L72.2949 680.05L74.0132 692.127" fill="#00288D"/>
<path d="M86.268 639.537C86.3207 643.146 80.6527 643.146 80.7054 639.537C80.6527 635.928 86.3207 635.928 86.268 639.537Z" fill="#1A1A35"/>
<path d="M118.225 639.982C118.278 643.591 112.61 643.591 112.662 639.982C112.61 636.373 118.278 636.373 118.225 639.982Z" fill="#1A1A35"/>
<path d="M119.841 675.775C119.395 675.746 79.9439 673.396 79.4941 673.368L82.6461 648.612L117.525 649.308L119.844 675.775H119.841ZM80.2567 672.735L119.096 675.051L116.896 649.975L83.2365 649.304L80.2567 672.735Z" fill="#1A1A35"/>
</g>
<path d="M227.848 626.928L111.862 587.047C104.226 584.422 100.163 576.103 102.789 568.468L141.329 456.412C143.955 448.777 152.276 444.716 159.911 447.342L275.898 487.222C283.533 489.848 287.596 498.166 284.971 505.802L246.43 617.857C243.804 625.492 235.483 629.553 227.848 626.928Z" fill="#3875FF"/>
<mask id="mask2_4301_11066" style="mask-type:luminance" maskUnits="userSpaceOnUse" x="101" y="446" width="185" height="182">
<path d="M227.844 626.933L111.858 587.052C104.222 584.427 100.159 576.108 102.785 568.473L141.325 456.417C143.951 448.782 152.272 444.721 159.907 447.347L275.894 487.227C283.529 489.853 287.593 498.171 284.967 505.807L246.426 617.862C243.8 625.497 235.479 629.558 227.844 626.933Z" fill="white"/>
</mask>
<g mask="url(#mask2_4301_11066)">
<path d="M239.018 634.17L123.032 594.29C115.396 591.664 111.333 583.346 113.959 575.711L152.502 463.655C155.128 456.02 163.449 451.959 171.084 454.585L287.07 494.465C294.706 497.09 298.769 505.409 296.143 513.044L257.603 625.1C254.977 632.735 246.656 636.796 239.021 634.17H239.018Z" fill="#A4C4FF"/>
</g>
<path d="M187.95 530.498L201.4 535.123L242.389 493.215C244.602 490.95 243.433 487.134 240.329 486.499C183.034 473.514 188.931 474.928 187.95 530.496V530.498ZM194.554 537.754L152.641 496.771C150.377 494.557 146.558 495.726 145.925 498.83C132.938 556.118 134.351 550.218 189.93 551.201L194.557 537.754H194.554ZM210.636 549.224L197.185 544.6L156.197 586.508C153.983 588.772 155.153 592.588 158.257 593.223C215.552 606.208 209.655 604.795 210.636 549.227V549.224ZM252.663 580.889C265.664 523.567 264.202 529.51 208.658 528.518L204.031 541.966L245.945 582.949C248.209 585.163 252.028 583.993 252.66 580.889H252.663Z" fill="#739BFD"/>
<mask id="mask3_4301_11066" style="mask-type:luminance" maskUnits="userSpaceOnUse" x="139" y="479" width="121" height="121">
<path d="M187.956 530.506L201.406 535.13L242.395 493.222C244.608 490.958 243.439 487.141 240.335 486.506C183.039 473.521 188.937 474.935 187.956 530.503V530.506ZM194.56 537.761L152.647 496.778C150.383 494.564 146.564 495.733 145.931 498.838C132.943 556.125 134.357 550.225 189.936 551.208L194.563 537.761H194.56ZM210.641 549.231L197.191 544.607L156.203 586.515C153.989 588.779 155.158 592.595 158.262 593.231C215.558 606.216 209.661 604.802 210.641 549.234V549.231ZM252.669 580.897C265.67 523.575 264.208 529.517 208.664 528.526L204.037 541.973L245.95 582.956C248.215 585.17 252.034 584.001 252.666 580.897H252.669Z" fill="white"/>
</mask>
<g mask="url(#mask3_4301_11066)">
<path opacity="0.55" d="M223.367 548.411C213.593 575.327 173.314 561.473 182.166 534.243C191.941 507.327 232.22 521.181 223.367 548.411Z" fill="#3875FF"/>
</g>
<path d="M216.477 545.766C208.321 568.226 174.71 556.665 182.098 533.945C190.255 511.485 223.865 523.046 216.477 545.766Z" fill="#3875FF"/>
<path d="M175.535 608.924L158.344 603.015L127.218 693.563L144.409 699.473L175.535 608.924Z" fill="#3875FF"/>
<path d="M172.498 723.81L89.8359 695.387C92.35 689.92 93.352 676.302 102.531 679.287L172.392 703.306C181.47 706.62 173.883 717.934 172.498 723.807V723.81Z" fill="#739BFD"/>
<path d="M111.502 697.944C111.502 697.944 116.531 695.916 116.531 695.291C116.531 694.665 105.673 694.469 105.673 694.469C95.7848 684.352 67.4767 654.537 55.1218 648.278L51.8222 653.145C47.1909 659.684 49.2747 669.523 56.1619 673.621C62.3359 677.036 101.688 703.454 108.126 703.967C110.181 704.504 120.948 701.191 120.948 701.191L111.502 697.944Z" fill="#FFB6A6"/>
<mask id="mask4_4301_11066" style="mask-type:luminance" maskUnits="userSpaceOnUse" x="49" y="648" width="72" height="57">
<path d="M111.499 697.955C111.499 697.955 116.527 695.927 116.527 695.302C116.527 694.676 105.669 694.479 105.669 694.479C95.7809 684.363 67.4728 654.547 55.1179 648.289L51.8183 653.156C47.187 659.695 49.2708 669.534 56.158 673.631C62.332 677.047 101.684 703.465 108.122 703.978C110.177 704.515 120.944 701.202 120.944 701.202L111.499 697.955Z" fill="white"/>
</mask>
<g mask="url(#mask4_4301_11066)">
<path d="M46.1621 654.504C46.1621 654.504 62.3296 664.002 74.3648 660.692L53.8189 643.01L46.1621 654.504Z" fill="#FF8370"/>
</g>
<path d="M172.326 638.189L168.773 635.937L137.819 670.696C137.819 670.696 127.397 674.769 128.595 675.064C129.797 675.359 133.16 676.139 133.16 676.139L131.108 678.676L125.397 681.354C124.832 681.621 124.881 682.44 125.475 682.636L132.429 684.942C134.502 685.63 136.754 685.542 138.768 684.699C141.646 683.789 144.731 678.824 146.66 676.701L172.99 657.347C179.498 652.831 179.15 642.24 172.329 638.185L172.326 638.189Z" fill="#FFB6A6"/>
<path d="M114.665 577.269C114.665 577.269 119.437 588.865 110.61 597.952L109.395 577.269H114.665Z" fill="#00288D"/>
<path d="M114.689 582.735C114.228 582.735 113.803 583.086 113.452 583.68C110.69 566.377 89.8559 566.388 87.0975 583.68C85.1824 580.981 83.696 584.569 83.6925 588.009C83.6398 591.737 85.5373 595.374 87.3294 591.878C88.4082 596.488 91.0436 600.28 94.4837 602.314V609.778H106.283V602.181C109.615 600.118 112.162 596.397 113.22 591.888C116.924 597.88 118.262 582.671 114.685 582.735H114.689Z" fill="#FFB6A6"/>
<mask id="mask5_4301_11066" style="mask-type:luminance" maskUnits="userSpaceOnUse" x="83" y="570" width="34" height="40">
<path d="M114.689 582.718C114.228 582.718 113.803 583.069 113.452 583.663C110.69 566.36 89.8559 566.371 87.0975 583.663C85.1824 580.964 83.696 584.552 83.6925 587.992C83.6398 591.72 85.5373 595.357 87.3294 591.861C88.4082 596.471 91.0436 600.263 94.4837 602.297V609.761H106.283V602.164C109.615 600.101 112.162 596.38 113.22 591.871C116.924 597.863 118.262 582.654 114.685 582.718H114.689Z" fill="white"/>
</mask>
<g mask="url(#mask5_4301_11066)">
<path d="M88.0211 586.08L97.3435 577.738C97.3435 577.738 99.6451 580.647 108.918 581.737L107.523 580.222C107.523 580.222 109.558 581.361 113.813 579.488L103.159 572.404L92.9757 572.706L88.0176 586.076" fill="#FF8370"/>
<path d="M94.4893 602.302C94.4893 602.302 100.878 604.084 106.289 602.165C106.289 602.165 100.076 606.357 93.4316 606.357L94.4893 602.299" fill="#FF8370"/>
</g>
<path d="M88.02 586.104C89.8086 583.588 94.1623 577.547 96.8434 574.459C96.8434 574.459 100.779 579.027 108.243 579.716L103.583 575.692C103.583 575.692 110.783 580.404 117.189 579.505C115.049 561.731 82.1342 558.931 84.7978 583.43C85.4654 584.076 86.6601 587.748 88.02 586.104Z" fill="#00288D"/>
<path d="M96.9375 596.731C96.9375 596.731 101.78 592.571 104.208 593.527C106.636 594.482 96.9375 596.731 96.9375 596.731Z" fill="white"/>
<path d="M21.0016 810.288L19.4941 814.677C19.4941 814.677 21.2406 820.049 25.1234 820.049C29.0063 820.049 29.1715 818.851 29.1715 818.851L32.7521 810.284H21.0016V810.288Z" fill="#FFB6A6"/>
<mask id="mask6_4301_11066" style="mask-type:luminance" maskUnits="userSpaceOnUse" x="19" y="810" width="14" height="11">
<path d="M21.0075 810.316L19.5 814.705C19.5 814.705 21.2464 820.077 25.1293 820.077C29.0122 820.077 29.1773 818.879 29.1773 818.879L32.758 810.312H21.0075V810.316Z" fill="white"/>
</mask>
<g mask="url(#mask6_4301_11066)">
<path d="M32.7581 814.852C32.7581 814.852 20.9373 812.905 18.33 810.484L18.207 808.162L35.0949 809.609L32.7581 814.852Z" fill="#FF8370"/>
</g>
<path d="M29.1701 818.839C29.1701 818.839 21.1092 820.905 19.4366 814.201L3.64509 821.689C1.38213 822.764 0.0327907 825.14 0.278764 827.635L27.9192 827.262C31.8302 827.164 29.1701 820.923 29.1736 818.839H29.1701Z" fill="#38385C"/>
<path d="M113.299 810.284C111.81 812.881 111.254 819.466 105.896 820.049C102.009 820.049 101.848 818.851 101.848 818.851L103.035 810.284H113.296H113.299Z" fill="#FFB6A6"/>
<mask id="mask7_4301_11066" style="mask-type:luminance" maskUnits="userSpaceOnUse" x="101" y="810" width="13" height="11">
<path d="M113.298 810.312C111.808 812.909 111.252 819.494 105.894 820.077C102.007 820.077 101.846 818.879 101.846 818.879L103.033 810.312H113.294H113.298Z" fill="white"/>
</mask>
<g mask="url(#mask7_4301_11066)">
<path d="M98.2645 814.851C98.2645 814.851 111.568 812.736 114.175 810.315L112.816 808.161L95.9277 809.609L98.2645 814.851Z" fill="#FF8370"/>
</g>
<path d="M101.849 818.839C101.849 818.839 109.91 820.905 111.583 814.201L127.375 821.689C129.638 822.764 130.987 825.14 130.741 827.635L103.1 827.262C99.1895 827.164 101.853 820.923 101.846 818.839H101.849Z" fill="#38385C"/>
<path d="M783.147 672.738C781.951 680.18 764.789 747.018 766.239 752.862L768.211 816.149H787.187L796.335 755.017C795.657 753.026 822.621 676.3 823.487 672.738H783.143H783.147Z" fill="#00288D"/>
<path d="M840.511 672.738L851.128 816.152H832.151L795.852 672.738H840.511Z" fill="#00288D"/>
<path d="M807.7 719.549L801.131 693.604C801.131 693.604 793.336 729.912 800.563 740.701L807.696 719.549H807.7Z" fill="#1A1A35"/>
<path d="M750.696 588.372C740.475 589.751 697.83 579.217 687.248 577.022L685.453 586.416C697.638 591.162 737.382 607.858 750.006 608.552L750.696 588.372Z" fill="#FFB6A6"/>
<mask id="mask8_4301_11066" style="mask-type:luminance" maskUnits="userSpaceOnUse" x="685" y="577" width="66" height="32">
<path d="M750.698 588.382C740.477 589.761 697.832 579.226 687.25 577.032L685.455 586.426C697.64 591.172 737.384 607.868 750.008 608.562L750.698 588.382Z" fill="white"/>
</mask>
<g mask="url(#mask8_4301_11066)">
<path d="M747.603 586.622L741.756 611.022L755.5 611.199L756.817 586.629L747.603 586.622Z" fill="#FF8370"/>
</g>
<path d="M856.79 616.984L821.937 590.079C821.612 589.812 821.279 589.561 820.942 589.31C815.698 585.144 808.306 584.094 801.557 584.38C795.73 586.156 757.596 586.089 750.78 585.952L749.844 613.366L776.353 616.294L782.024 672.742H842.246L833.977 629.517L856.794 616.984H856.79Z" fill="#F85C3D"/>
<mask id="mask9_4301_11066" style="mask-type:luminance" maskUnits="userSpaceOnUse" x="749" y="584" width="108" height="89">
<path d="M856.798 616.994L821.945 590.089C821.62 589.822 821.287 589.571 820.949 589.32C815.706 585.154 808.314 584.104 801.565 584.39C795.737 586.165 757.604 586.099 750.788 585.962L749.852 613.376L776.361 616.304L782.032 672.752H842.254L833.985 629.527L856.802 616.994H856.798Z" fill="white"/>
</mask>
<g mask="url(#mask9_4301_11066)">
<path d="M784.211 584.38C789.435 601.166 815.349 605.786 822.117 586.567L804.348 582.777L784.211 584.384V584.38Z" fill="#FFB6A6"/>
<mask id="mask10_4301_11066" style="mask-type:luminance" maskUnits="userSpaceOnUse" x="784" y="582" width="39" height="18">
<path d="M784.215 584.412C789.439 601.198 815.353 605.819 822.121 586.599L804.352 582.809L784.215 584.416V584.412Z" fill="white"/>
</mask>
<g mask="url(#mask10_4301_11066)">
<path d="M786.834 584.398C786.834 584.398 790.946 598.488 808.339 599.687C798.89 601.733 784.318 596.505 781.352 584.782L786.834 584.398Z" fill="#FF8370"/>
</g>
<path d="M750.009 608.554C750.009 608.554 766.289 611.819 787.539 608.554C806.484 654.217 793.225 646.872 841.357 661.734C841.357 661.734 844.771 675.38 843.371 674.914C841.972 674.448 775.726 674.604 775.726 674.604L772.803 617.384L747.986 613.042L750.009 608.554Z" fill="#DF4930"/>
</g>
<path d="M855.218 649.748H793.342L800.11 612.304C800.392 610.736 801.76 609.596 803.351 609.596H860.524C861.543 609.596 862.312 610.517 862.131 611.516L855.222 649.748H855.218Z" fill="#00288D"/>
<path d="M853.498 653.998C852.698 653.234 757.168 655.48 757.345 653.203C757.584 652.489 756.745 649.687 758.14 649.746H855.214C854.866 650.733 855.206 654.112 853.498 653.998Z" fill="#504F79"/>
<path d="M833.157 632.209C830.488 639.867 823.25 637.375 825.856 629.697C828.525 622.039 835.764 624.532 833.157 632.209Z" fill="#504F79"/>
<path d="M766.881 692.447H681.847C679.064 692.447 676.803 690.185 676.803 687.403V576.231C679.828 572.457 676.979 687.583 677.928 687.403C677.928 689.566 679.683 691.326 681.847 691.326H766.881C769.045 691.326 770.804 689.566 770.804 687.403V652.185C770.804 651.875 771.055 651.624 771.365 651.624C771.674 651.624 771.925 651.875 771.925 652.185V687.403C771.925 690.185 769.664 692.447 766.881 692.447Z" fill="#F85C3D"/>
<path d="M832.639 654.021C838.103 649.259 838.107 649.098 846.572 649.529C848.943 649.784 844.91 654.856 843.879 655.279C842.704 656.067 841.195 656.925 840.254 656.858C838.534 656.737 827.768 654.021 828.246 654.021H832.643H832.639Z" fill="#FFB6A6"/>
<path d="M783.384 551.543L777.121 570.736C775.992 574.196 778.269 577.841 781.879 578.339L791.818 579.711L793.844 593.267L809.242 592.354L799.241 551.543H783.384Z" fill="#FFB6A6"/>
<mask id="mask11_4301_11066" style="mask-type:luminance" maskUnits="userSpaceOnUse" x="776" y="551" width="34" height="43">
<path d="M783.38 551.554L777.117 570.747C775.988 574.207 778.265 577.852 781.875 578.35L791.814 579.722L793.84 593.278L809.239 592.365L799.237 551.554H783.38Z" fill="white"/>
</mask>
<g mask="url(#mask11_4301_11066)">
<path d="M776.824 575.47C776.824 575.47 784.588 577.485 793.379 574.62C793.379 574.62 791.458 577.959 791.999 580.636C791.999 580.636 778.047 580.291 776.824 575.47Z" fill="#FF8370"/>
<path d="M778.354 557.913C778.679 558.07 784.652 564.258 800.622 559.265L782.375 549.491L778.357 557.913H778.354Z" fill="#FF8370"/>
</g>
<path d="M772.846 816.175V822.292C772.846 822.292 774.794 828.285 779.124 828.285C783.455 828.285 783.639 826.948 783.639 826.948L784.623 816.175H772.846Z" fill="#FFB6A6"/>
<mask id="mask12_4301_11066" style="mask-type:luminance" maskUnits="userSpaceOnUse" x="772" y="816" width="13" height="13">
<path d="M772.846 816.192V822.31C772.846 822.31 774.794 828.302 779.124 828.302C783.455 828.302 783.639 826.966 783.639 826.966L784.623 816.192H772.846Z" fill="white"/>
</mask>
<g mask="url(#mask12_4301_11066)">
<path d="M785.392 821.79C785.392 821.79 774.453 820.296 771.545 817.6L771.408 815.01L785.596 815.319L785.392 821.794V821.79Z" fill="#FF8370"/>
</g>
<path d="M783.636 826.947C783.636 826.947 774.646 829.251 772.78 821.773L755.168 830.125C752.644 831.325 751.139 833.974 751.413 836.756L782.241 836.341C786.603 836.231 783.636 829.271 783.64 826.947H783.636Z" fill="#38385C"/>
<path d="M835.297 816.175C837.241 819.099 839.13 828.25 844.53 828.285C848.865 828.285 849.045 826.949 849.045 826.949L847.074 816.175H835.297Z" fill="#FFB6A6"/>
<mask id="mask13_4301_11066" style="mask-type:luminance" maskUnits="userSpaceOnUse" x="835" y="816" width="15" height="13">
<path d="M835.293 816.192C837.237 819.116 839.126 828.267 844.527 828.302C848.861 828.302 849.041 826.966 849.041 826.966L847.07 816.192H835.293Z" fill="white"/>
</mask>
<g mask="url(#mask13_4301_11066)">
<path d="M848.265 821.79C848.265 821.79 837.326 820.296 834.418 817.6L834.281 815.01L848.469 815.319L848.265 821.794V821.79Z" fill="#FF8370"/>
</g>
<path d="M849.043 826.947C849.043 826.947 840.052 829.251 838.187 821.773L820.574 830.125C818.05 831.325 816.545 833.974 816.819 836.756L847.647 836.341C852.009 836.231 849.043 829.271 849.047 826.947H849.043Z" fill="#38385C"/>
<path d="M688.72 577.326C686.976 576.276 683.268 571.044 680.795 572.326C680.717 572.639 668.99 576.421 670.037 577.197C670.55 578.232 671.632 578.929 672.8 578.667L679.592 577.256L680.956 585.741L686.776 586.587L688.72 577.322V577.326Z" fill="#FFB6A6"/>
<path d="M672.633 577.682L675.992 586.598L681.486 585.528L679.872 576.236L672.633 577.682Z" fill="#FF8370"/>
<path d="M783.286 553.555C783.286 553.555 795.118 557.655 795.381 557.655C794.644 560.206 792.681 564.243 796.114 566.798L797.732 562.777C797.732 562.777 802.749 568.001 797.732 570.615L805.293 577.019C811.258 569.769 809.768 563.541 809.2 554.989C808.981 549.299 803.662 546.042 798.728 544.568L779.779 538.792C779.779 538.792 773.594 551.337 783.282 553.555H783.286Z" fill="#00288D"/>
<defs>
<linearGradient id="paint0_linear_4301_11066" x1="7.11981" y1="562.019" x2="942.204" y2="754.777" gradientUnits="userSpaceOnUse">
<stop stop-color="#00238C"/>
<stop offset="1" stop-color="#5451FF"/>
</linearGradient>
</defs>
</svg>
