<svg width="46" height="46" viewBox="0 0 46 46" fill="none" xmlns="http://www.w3.org/2000/svg">
<path d="M19.85 27.05L14.9562 22.1562C14.5437 21.7437 14.0375 21.5375 13.4375 21.5375C12.8375 21.5375 12.3125 21.7625 11.8625 22.2125C11.45 22.625 11.2437 23.15 11.2437 23.7875C11.2437 24.425 11.45 24.95 11.8625 25.3625L18.275 31.775C18.6875 32.1875 19.2125 32.3937 19.85 32.3937C20.4875 32.3937 21.0125 32.1875 21.425 31.775L34.1937 19.0062C34.6062 18.5937 34.8125 18.0875 34.8125 17.4875C34.8125 16.8875 34.5875 16.3625 34.1375 15.9125C33.725 15.5 33.2 15.2937 32.5625 15.2937C31.925 15.2937 31.4 15.5 30.9875 15.9125L19.85 27.05ZM23 45.5C19.8875 45.5 16.9625 44.909 14.225 43.727C11.4875 42.5465 9.10625 40.9437 7.08125 38.9187C5.05625 36.8937 3.4535 34.5125 2.273 31.775C1.091 29.0375 0.5 26.1125 0.5 23C0.5 19.8875 1.091 16.9625 2.273 14.225C3.4535 11.4875 5.05625 9.10625 7.08125 7.08125C9.10625 5.05625 11.4875 3.45275 14.225 2.27075C16.9625 1.09025 19.8875 0.5 23 0.5C26.1125 0.5 29.0375 1.09025 31.775 2.27075C34.5125 3.45275 36.8937 5.05625 38.9187 7.08125C40.9437 9.10625 42.5465 11.4875 43.727 14.225C44.909 16.9625 45.5 19.8875 45.5 23C45.5 26.1125 44.909 29.0375 43.727 31.775C42.5465 34.5125 40.9437 36.8937 38.9187 38.9187C36.8937 40.9437 34.5125 42.5465 31.775 43.727C29.0375 44.909 26.1125 45.5 23 45.5Z" fill="#00C108"/>
</svg>
