<svg width="148" height="155" viewBox="0 0 148 155" fill="none" xmlns="http://www.w3.org/2000/svg">
<g id="Group 5075">
<path id="Vector" d="M74.2274 155.003C114.682 155.003 147.477 150.145 147.477 144.153C147.477 138.16 114.682 133.303 74.2274 133.303C33.7726 133.303 0.977539 138.16 0.977539 144.153C0.977539 150.145 33.7726 155.003 74.2274 155.003Z" fill="#84B7B4"/>
<path id="Vector_2" d="M134.648 84.1224C136.398 78.4609 138.201 72.6955 138.421 66.7301C138.64 60.6647 136.648 55.0378 132.778 50.3763C131.217 48.4917 133.951 45.8186 135.528 47.7225C139.905 52.9994 142.286 59.207 142.259 66.0801C142.228 72.5993 140.24 78.9916 138.328 85.1608C137.601 87.5108 133.921 86.4839 134.651 84.1262L134.648 84.1224Z" fill="#231F20"/>
<path id="Vector_3" d="M10.8479 88.3761C8.4287 82.9684 5.94025 77.4608 5.00564 71.5646C4.05564 65.5723 5.35948 59.7454 8.6364 54.6493C9.95947 52.5916 6.92486 50.2685 5.5864 52.3455C1.87872 58.1108 0.259492 64.5608 1.12103 71.3839C1.93641 77.8531 4.68256 83.9569 7.32101 89.8492C8.32486 92.0954 11.8556 90.63 10.8479 88.3761Z" fill="#231F20"/>
<path id="Vector_4" d="M38.8762 146.033C29.4955 145.771 21.2993 143.975 16.2224 128.352C12.7263 117.591 13.8801 104.914 12.7071 96.6907C11.534 88.4677 1.76862 63.3831 0.599389 43.2331C-0.573685 23.0832 11.9263 2.114 32.2378 0.879385C52.5493 -0.355228 60.7531 6.63708 71.2992 7.04862C84.9838 7.58323 95.4684 -0.785998 113.876 0.060154C131.845 0.883229 140.83 20.6216 141.611 41.5908C142.299 60.1216 131.188 87.4177 131.453 96.6907C131.845 110.26 131.061 144.802 115.83 144.802C98.2146 144.802 94.3454 119.718 89.2684 114.783C79.9531 105.733 72.08 104.914 63.88 113.137C54.3724 122.671 53.7224 146.444 38.8801 146.033H38.8762Z" fill="#DEECED"/>
<path id="Vector_5" d="M43.6176 10.8209C36.5291 8.97086 30.6368 11.0862 25.8099 15.0978C21.7291 17.4285 17.9484 21.6785 16.2561 24.6631C12.2638 31.7131 9.5407 41.3247 13.6138 49.0593C17.0061 55.5016 25.1099 55.4785 27.7022 48.4862C29.9907 42.3131 27.9368 35.7054 31.9176 29.9247C35.7253 24.3939 41.1522 24.3824 46.4714 20.8824C52.3252 17.0285 49.0868 12.2555 43.6137 10.8286L43.6176 10.8209Z" fill="white"/>
<path id="Vector_6" d="M141.736 41.4961C141.025 22.4269 133.559 4.36156 118.698 0.626953C145.809 11.7308 137.244 55.1884 124.379 73.1499C120.813 78.1268 115.332 79.1383 108.456 83.9768C102.106 88.446 117.882 88.8191 122.852 103.211C125.817 111.8 129.471 133.046 117.375 136.715C113.409 137.919 107.917 138.111 104.256 136.461C101.909 135.404 98.6518 132.638 96.8018 129.304C100.663 137.007 106.202 144.704 115.963 144.704C131.198 144.704 131.979 110.161 131.586 96.5921C131.321 87.3191 142.432 60.023 141.744 41.4923L141.736 41.4961Z" fill="#B9E1EA"/>
<path id="Vector_7" d="M15.2158 101.714C19.4197 98.8329 16.4427 94.5791 13.6274 92.0945C14.8158 92.4329 16.5774 92.8329 17.135 91.2637C17.6466 89.8137 15.6966 88.9445 14.5658 88.6022C11.762 87.7522 8.98506 86.7945 7.42352 84.0753L4.4043 79.1406C5.67352 84.4445 4.36968 89.8522 5.83122 95.0791C6.88891 98.8521 10.5466 104.914 15.2158 101.714Z" fill="#231F20"/>
<path id="Vector_8" d="M131.915 97.8872C127.392 95.5334 129.834 90.9527 132.334 88.1488C131.196 88.6296 129.492 89.2373 128.75 87.7449C128.065 86.368 129.9 85.2681 130.977 84.795C133.657 83.6104 136.3 82.3296 137.523 79.4373L139.927 74.1758C139.307 79.595 141.253 84.8065 140.43 90.168C139.834 94.0411 136.938 100.499 131.915 97.8872Z" fill="#231F20"/>
<path id="Vector_9" d="M72.8579 60.0869C72.6925 60.0946 72.5271 60.1023 72.3579 60.1138C64.3041 60.6446 59.8156 64.5177 57.4733 67.6754C54.931 71.0984 54.3118 74.3869 54.2848 74.5253C54.1733 75.1484 54.5848 75.7446 55.2079 75.86C55.831 75.9715 56.4271 75.56 56.5425 74.9407C56.631 74.46 58.8771 63.3023 72.5117 62.4023C78.0002 62.0446 81.6079 64.1638 83.6656 66.01C86.8463 68.8638 88.0886 72.4561 88.1886 74.8676C88.2155 75.4984 88.7501 75.9907 89.3809 75.9638C90.0155 75.9369 90.504 75.4023 90.4771 74.7676C90.3194 71.0946 88.2963 67.0869 85.1925 64.3023C82.8694 62.2177 78.8617 59.8292 72.8579 60.0831V60.0869Z" fill="#231F20"/>
<path id="Vector_10" d="M41.736 40.8629L45.2052 37.3937C46.0321 36.5668 46.0321 35.2283 45.2052 34.3975C44.3783 33.5706 43.036 33.5706 42.2091 34.3975L38.7399 37.8668L35.2706 34.3975C34.4437 33.5706 33.1014 33.5706 32.2745 34.3975C31.4476 35.2245 31.4476 36.5668 32.2745 37.3937L35.7437 40.8629L32.2745 44.3321C31.4476 45.159 31.4476 46.5014 32.2745 47.3283C33.1014 48.1552 34.4437 48.1552 35.2706 47.3283L38.7399 43.859L42.2091 47.3283C43.036 48.1552 44.3783 48.1552 45.2052 47.3283C46.0321 46.5014 46.0321 45.1629 45.2052 44.3321L41.736 40.8629Z" fill="#231F20"/>
<path id="Vector_11" d="M107.466 40.611L110.935 37.1417C111.762 36.3148 111.762 34.9725 110.935 34.1456C110.108 33.3187 108.765 33.3187 107.939 34.1456L104.469 37.6148L101 34.1456C100.173 33.3187 98.8309 33.3187 98.004 34.1456C97.1771 34.9725 97.1771 36.3148 98.004 37.1417L101.473 40.611L98.004 44.0802C97.1771 44.9071 97.1771 46.2456 98.004 47.0763C98.8309 47.9032 100.173 47.9032 101 47.0763L104.469 43.6071L107.939 47.0763C108.765 47.9032 110.108 47.9032 110.935 47.0763C111.762 46.2494 111.762 44.9071 110.935 44.0802L107.466 40.611Z" fill="#231F20"/>
</g>
</svg>
