<svg width="21" height="20" viewBox="0 0 21 20" fill="none" xmlns="http://www.w3.org/2000/svg">
<path fill-rule="evenodd" clip-rule="evenodd" d="M6.07427 1.69889C4.42194 1.85852 2.92345 3.04609 2.3971 4.61311C2.01327 5.75583 2.0914 6.76403 2.76957 9.41932C3.36367 11.7456 5.05235 17.2604 5.29972 17.6822C5.42273 17.892 5.65901 18.0983 5.91166 18.2167C6.0892 18.2999 6.17181 18.3148 6.45616 18.3148C6.74051 18.3148 6.82312 18.2999 7.00066 18.2167C7.25264 18.0986 7.49003 17.8916 7.61018 17.6852C7.65882 17.6016 7.99494 16.5953 8.35709 15.4489C8.71928 14.3025 9.05838 13.2849 9.11071 13.1874C9.24363 12.9398 9.5571 12.6567 9.85427 12.516C10.0877 12.4055 10.1343 12.3969 10.497 12.3969C10.8598 12.3969 10.9064 12.4055 11.1398 12.516C11.437 12.6568 11.7505 12.9398 11.8834 13.1874C11.9356 13.2849 12.1237 13.8252 12.3013 14.3881C13.3422 17.6878 13.3867 17.8019 13.7342 18.0583C13.9325 18.2046 14.3087 18.3334 14.5379 18.3334C14.959 18.3334 15.4492 18.06 15.661 17.7069C15.7272 17.5966 15.9093 17.1096 16.0779 16.5916C17.8347 11.1972 18.745 7.77477 18.8273 6.25565C18.8912 5.07523 18.4706 3.93378 17.6527 3.06805C16.8764 2.24628 15.9663 1.80173 14.8423 1.69528C13.8078 1.59732 12.7325 1.9055 11.8378 2.55636C11.4365 2.84834 11.155 2.98174 10.8221 3.03787C10.2214 3.1391 9.7323 2.99071 9.09633 2.51415C8.53426 2.09297 7.70407 1.77579 6.95894 1.69748C6.56629 1.65624 6.51471 1.65631 6.07427 1.69889Z" fill="white"/>
</svg>
