<svg width="16" height="16" viewBox="0 0 16 16" fill="none" xmlns="http://www.w3.org/2000/svg">
<path d="M11.2435 3.71955H13.405V4.81955H11.2435V3.71955ZM11.2435 5.47005H13.405V6.57005H11.2435V5.47005ZM11.2435 7.22055H13.405V8.32055H11.2435V7.22055ZM11.2435 8.97105H13.405V10.071H11.2435V8.97105ZM11.2435 10.7215H13.405V11.8215H11.2435V10.7215Z" fill="#00288D"/>
<path fill-rule="evenodd" clip-rule="evenodd" d="M9.3255 2.20253H14.3905C14.5438 2.19476 14.694 2.24798 14.8082 2.35056C14.9224 2.45315 14.9913 2.59676 15 2.75003V12.6745C14.9915 12.8279 14.9226 12.9716 14.8083 13.0743C14.6941 13.177 14.5439 13.2303 14.3905 13.2225H9.3255V14.9915L1 13.5575V2.29403L9.3255 1.00903V2.20253ZM9.3085 12.7655H14.4705V2.72103H9.265V3.72103H10.5435V4.82103H9.265V5.47103H10.5435V6.57103H9.265V7.22103H10.5435V8.32103H9.269L9.275 8.97103H10.5435V10.071H9.2845L9.2905 10.721H10.5435V11.821H9.3L9.3085 12.7655ZM4.24625 5.27506L3.17325 5.33656L4.29225 7.83306L3.08125 10.1646L4.12375 10.2566L4.89025 8.32106L5.65625 10.3331L6.79075 10.4096L5.48775 7.77006L6.79075 5.13706L5.71775 5.19856L4.92075 7.12956L4.24625 5.27506Z" fill="#00288D"/>
</svg>
