<svg width="12" height="18" viewBox="0 0 12 18" fill="none" xmlns="http://www.w3.org/2000/svg">
<path fill-rule="evenodd" clip-rule="evenodd" d="M5.69211 0.697383C5.28315 0.800007 4.94685 1.14312 4.82969 1.57726C4.80234 1.67868 4.74584 1.79439 4.70246 1.83781C4.62632 1.91405 4.6099 1.91614 4.01504 1.92594L3.40563 1.936V3.00885V4.08172H6.00578H8.60593V3.00881V1.9359L7.98122 1.92591C7.36749 1.91607 7.35513 1.91451 7.27731 1.8366C7.23375 1.79299 7.1831 1.69796 7.16474 1.62546C7.05079 1.17491 6.74927 0.839806 6.34435 0.713733C6.16564 0.658106 5.87745 0.650875 5.69211 0.697383ZM0.741518 3.25298C0.550178 3.31574 0.340973 3.51952 0.251467 3.73037L0.178387 3.9026L0.170342 10.1534C0.161532 17.0246 0.151254 16.6277 0.345562 16.9284C0.461039 17.1071 0.674955 17.2585 0.877216 17.3048C0.989909 17.3306 2.48041 17.338 6.09972 17.3308L11.1645 17.3209L11.345 17.2226C11.5547 17.1084 11.7291 16.8876 11.7922 16.6565C11.8258 16.5337 11.8332 15.3701 11.8332 10.2046V3.9026L11.7601 3.73037C11.7175 3.62996 11.6295 3.50431 11.5491 3.42898C11.3226 3.21667 11.235 3.20237 10.1604 3.20237H9.21773V3.80811C9.21773 4.44845 9.19114 4.59595 9.06251 4.66923C9.02746 4.68923 7.89067 4.69779 5.97259 4.69255L2.93809 4.68424L2.87361 4.5924C2.81393 4.5074 2.80842 4.45219 2.7997 3.85146L2.79025 3.20237L1.83612 3.20465C1.10523 3.20638 0.849103 3.21768 0.741518 3.25298ZM4.35628 6.26132C4.49837 6.4126 4.48206 6.55518 4.30039 6.75082C3.88195 7.20141 2.72788 8.31568 2.66116 8.3335C2.61879 8.34483 2.55844 8.34542 2.52709 8.33483C2.43024 8.3021 1.51587 7.29856 1.49266 7.19955C1.46607 7.08605 1.52621 6.92607 1.62009 6.86058C1.65922 6.83329 1.74313 6.81081 1.8066 6.81059C1.91422 6.81023 1.94526 6.83609 2.26557 7.19291L2.60913 7.57562L2.83149 7.35341C2.95379 7.23121 3.26984 6.91406 3.5338 6.64865C3.9929 6.18709 4.01927 6.16612 4.14031 6.16612C4.23939 6.16612 4.28625 6.18677 4.35628 6.26132ZM10.433 7.38832C10.5284 7.4899 10.5387 7.51697 10.5226 7.62269C10.5126 7.68841 10.4693 7.77963 10.4263 7.82536L10.3482 7.90854H7.91444H5.48073L5.39147 7.80217C5.29426 7.68632 5.27887 7.5667 5.34491 7.43988C5.43277 7.27107 5.35831 7.27583 7.92836 7.27459L10.3251 7.27345L10.433 7.38832ZM4.35628 9.68103C4.44379 9.77424 4.47065 9.90204 4.42773 10.0212C4.40112 10.095 2.77095 11.7142 2.68903 11.7482C2.54862 11.8065 2.45789 11.7395 2.00323 11.2424C1.75668 10.9729 1.53619 10.7148 1.51327 10.6689C1.48054 10.6034 1.47895 10.5593 1.50584 10.4638C1.54741 10.3161 1.65139 10.2374 1.80623 10.2366C1.91434 10.236 1.94481 10.2612 2.26615 10.618L2.61029 11.0001L2.75559 10.8525C2.83549 10.7713 3.1521 10.4531 3.45913 10.1454C3.99357 9.60967 4.02269 9.58583 4.14212 9.58583C4.23921 9.58583 4.28668 9.60693 4.35628 9.68103ZM10.4263 10.7926C10.4693 10.8384 10.5126 10.9296 10.5226 10.9953C10.5387 11.101 10.5284 11.1281 10.433 11.2297L10.3251 11.3445H7.93745C6.15145 11.3445 5.52958 11.3347 5.4696 11.3056C5.37884 11.2616 5.30221 11.1256 5.30221 11.0086C5.30221 10.9156 5.40628 10.7645 5.49762 10.7248C5.53316 10.7093 6.63905 10.6995 7.95522 10.7031L10.3482 10.7094L10.4263 10.7926ZM4.35628 13.1007C4.44401 13.1941 4.47065 13.3218 4.42743 13.4417C4.41739 13.4696 4.1111 13.7903 3.7468 14.1543C2.66762 15.2328 2.71834 15.1876 2.5883 15.1876C2.48099 15.1876 2.44541 15.1563 2.00525 14.6747C1.74744 14.3925 1.52288 14.1262 1.50621 14.0828C1.43273 13.8912 1.59923 13.6573 1.80966 13.6565C1.91345 13.656 1.94817 13.6852 2.26493 14.0389L2.60784 14.4218L2.72378 14.3064C2.78753 14.2429 3.07373 13.9566 3.35975 13.67C3.64576 13.3834 3.91948 13.1167 3.96803 13.0773C4.0958 12.9734 4.24517 12.9824 4.35628 13.1007ZM10.4006 14.1976C10.5128 14.2869 10.5539 14.4368 10.5023 14.5693C10.4236 14.7718 10.5244 14.7642 7.90187 14.7642C6.32147 14.7642 5.49239 14.7529 5.45348 14.7307C5.37982 14.6887 5.30221 14.5326 5.30221 14.4264C5.30221 14.3266 5.43393 14.1546 5.52503 14.1354C5.56232 14.1276 6.6552 14.123 7.95366 14.1251C10.302 14.1291 10.315 14.1295 10.4006 14.1976Z" fill="#C3C7D1"/>
</svg>
