<svg width="98" height="68" viewBox="0 0 98 68" fill="none" xmlns="http://www.w3.org/2000/svg">
<g opacity="0.2">
<rect x="9" width="6" height="6" rx="1" fill="#0078E8"/>
<rect x="26" width="6" height="6" rx="1" fill="#0078E8"/>
<rect x="43" width="6" height="6" rx="1" fill="#0078E8"/>
<rect x="59" width="6" height="6" rx="1" fill="#0078E8"/>
<rect x="76" width="6" height="6" rx="1" fill="#0078E8"/>
<rect x="92" width="6" height="6" rx="1" fill="#0078E8"/>
<rect x="9" y="17" width="6" height="6" rx="1" fill="#0078E8"/>
<rect x="26" y="17" width="6" height="6" rx="1" fill="#0078E8"/>
<rect x="43" y="17" width="6" height="6" rx="1" fill="#0078E8"/>
<rect x="59" y="17" width="6" height="6" rx="1" fill="#0078E8"/>
<rect x="76" y="17" width="6" height="6" rx="1" fill="#0078E8"/>
<rect x="92" y="17" width="6" height="6" rx="1" fill="#0078E8"/>
<rect x="9" y="33" width="6" height="6" rx="1" fill="#0078E8"/>
<rect x="26" y="33" width="6" height="6" rx="1" fill="#0078E8"/>
<rect x="43" y="33" width="6" height="6" rx="1" fill="#0078E8"/>
<rect x="59" y="33" width="6" height="6" rx="1" fill="#0078E8"/>
<rect x="76" y="33" width="6" height="6" rx="1" fill="#0078E8"/>
<rect x="92" y="33" width="6" height="6" rx="1" fill="#0078E8"/>
<rect x="9" y="50" width="6" height="6" rx="1" fill="#0078E8"/>
<rect x="26" y="50" width="6" height="6" rx="1" fill="#0078E8"/>
<rect x="43" y="50" width="6" height="6" rx="1" fill="#0078E8"/>
<rect x="59" y="50" width="6" height="6" rx="1" fill="#0078E8"/>
<rect x="76" y="50" width="6" height="6" rx="1" fill="#0078E8"/>
<rect x="92" y="50" width="6" height="6" rx="1" fill="#0078E8"/>
<rect x="9" y="66" width="6" height="6" rx="1" fill="#0078E8"/>
<rect x="26" y="66" width="6" height="6" rx="1" fill="#0078E8"/>
<rect x="43" y="66" width="6" height="6" rx="1" fill="#0078E8"/>
<rect x="59" y="66" width="6" height="6" rx="1" fill="#0078E8"/>
<rect x="76" y="66" width="6" height="6" rx="1" fill="#0078E8"/>
<rect x="92" y="66" width="6" height="6" rx="1" fill="#0078E8"/>
</g>
</svg>
