<svg width="347" height="103" viewBox="0 0 347 103" fill="none" xmlns="http://www.w3.org/2000/svg">
<path d="M-53 90.5L4.1491 63.4427C39.502 46.7048 80.498 46.7048 115.851 63.4427L173 90.5L230.149 117.557C265.502 134.295 306.498 134.295 341.851 117.557L399 90.5" stroke="#FFDA02" stroke-linecap="round" stroke-linejoin="round"/>
<path d="M-53 71.5L4.1491 44.4427C39.502 27.7048 80.498 27.7048 115.851 44.4427L173 71.5L230.149 98.5573C265.502 115.295 306.498 115.295 341.851 98.5573L399 71.5" stroke="#FFDA02" stroke-linecap="round" stroke-linejoin="round"/>
<path d="M-53 53.5L4.1491 26.4427C39.502 9.70483 80.498 9.7048 115.851 26.4427L173 53.5L230.149 80.5573C265.502 97.2952 306.498 97.2952 341.851 80.5573L399 53.5" stroke="#FFDA02" stroke-linecap="round" stroke-linejoin="round"/>
<path d="M-53 108.5L4.1491 81.4427C39.502 64.7048 80.498 64.7048 115.851 81.4427L173 108.5L230.149 135.557C265.502 152.295 306.498 152.295 341.851 135.557L399 108.5" stroke="#FFDA02" stroke-linecap="round" stroke-linejoin="round"/>
<path d="M-53 126.5L4.1491 99.4427C39.502 82.7048 80.498 82.7048 115.851 99.4427L173 126.5L230.149 153.557C265.502 170.295 306.498 170.295 341.851 153.557L399 126.5" stroke="#FFDA02" stroke-linecap="round" stroke-linejoin="round"/>
<path d="M-53 145.5L4.1491 118.443C39.502 101.705 80.498 101.705 115.851 118.443L173 145.5L230.149 172.557C265.502 189.295 306.498 189.295 341.851 172.557L399 145.5" stroke="#FFDA02" stroke-linecap="round" stroke-linejoin="round"/>
</svg>
