<svg width="346" height="81" viewBox="0 0 346 81" fill="none" xmlns="http://www.w3.org/2000/svg">
<path fill-rule="evenodd" clip-rule="evenodd" d="M354.949 62.8594C354.093 64.1922 353.211 65.5 352.393 66.8452C352.283 67.0479 352.117 67.2168 351.914 67.3332C351.711 67.4497 351.479 67.5093 351.243 67.5053C344.241 67.6673 337.187 67.8666 330.223 68.0409C330.056 68.0262 329.889 68.0012 329.725 67.9662C329.8 67.6951 329.902 67.4322 330.032 67.1815C333.597 61.5018 337.187 55.8345 340.752 50.1548C340.887 49.8909 341.098 49.6712 341.359 49.5229C341.62 49.3746 341.92 49.3041 342.222 49.3203C346.464 49.2455 350.719 49.1335 355 49.0214V48C354.489 48 353.965 48.1495 353.454 48.1744C349.557 48.2865 345.672 48.3986 341.775 48.4733C341.475 48.4465 341.175 48.5053 340.909 48.6424C340.644 48.7796 340.425 48.9891 340.28 49.2456C336.267 55.6477 332.242 62.0415 328.204 68.4271C328.125 68.5798 328.056 68.738 328 68.9004C328.325 68.9563 328.654 68.9896 328.984 69C336.459 68.8132 343.934 68.6014 351.409 68.4271C351.775 68.4439 352.138 68.3547 352.452 68.1707C352.766 67.9867 353.017 67.7162 353.173 67.3932C353.722 66.4466 354.387 65.5623 355 64.653L354.949 62.8594Z" fill="url(#paint0_linear_2051_17657)"/>
<path fill-rule="evenodd" clip-rule="evenodd" d="M355 33.2068C354.437 33.1439 353.874 33.0431 353.311 33.0306C349.677 32.9172 346.043 32.804 342.396 32.741C342.055 32.7684 341.714 32.6972 341.413 32.5361C341.113 32.375 340.868 32.1312 340.707 31.8345C337.2 26.1691 333.643 20.5036 330.124 14.8507C329.945 14.5737 329.804 14.2716 329.574 13.8183C330.188 13.8183 330.662 13.8183 331.122 13.8183C337.648 13.9946 344.174 14.1835 350.713 14.3345C351.122 14.3017 351.531 14.3927 351.885 14.5952C352.24 14.7978 352.523 15.1022 352.697 15.4676C353.4 16.7266 354.219 17.9856 355 19.2446V17.4316C354.347 16.4119 353.72 15.4173 353.068 14.3723C352.926 14.0885 352.699 13.8543 352.417 13.7013C352.136 13.5482 351.814 13.4836 351.494 13.5162L331.762 13C330.546 13 329.318 13 328 13C328.097 13.2594 328.213 13.5118 328.346 13.7554C332.287 20.0503 336.254 26.3453 340.169 32.7284C340.327 33.0283 340.569 33.2776 340.866 33.447C341.163 33.6165 341.503 33.6992 341.846 33.6853C346.235 33.7734 350.611 33.8993 355 34V33.2068Z" fill="url(#paint1_linear_2051_17657)"/>
<path fill-rule="evenodd" clip-rule="evenodd" d="M71.5607 62C71.8019 61.6179 71.9923 61.3249 72.1574 61.032C75.6736 54.5107 79.1771 47.9766 82.7187 41.468C82.9023 41.1835 83 40.8517 83 40.5127C83 40.1737 82.9023 39.842 82.7187 39.5575C79.139 32.9767 75.5763 26.3832 72.0304 19.7769C71.9162 19.5477 71.7639 19.3312 71.5607 19C71.3664 19.2368 71.1843 19.4833 71.0149 19.7387C67.4352 26.3704 63.8555 33.0022 60.2758 39.6339C60.113 39.859 60.0181 40.1264 60.0023 40.4041C59.9866 40.6819 60.0507 40.9583 60.187 41.2005C63.8682 47.9936 67.5368 54.7866 71.1926 61.5797C71.3069 61.7271 71.4298 61.8674 71.5607 62ZM71.5607 20.8596C71.8146 21.2799 72.0304 21.5983 72.2081 21.9295C75.3562 27.763 78.5551 33.6093 81.6778 39.4301C81.8885 39.7492 82.0009 40.1235 82.0009 40.5064C82.0009 40.8892 81.8885 41.2635 81.6778 41.5826C78.5043 47.3907 75.3308 53.237 72.2208 59.0705C72.0431 59.4017 71.8273 59.7074 71.5734 60.1149L70.9134 58.9941C67.778 53.1987 64.6806 47.3907 61.5072 41.6081C61.2896 41.2703 61.1739 40.8767 61.1739 40.4745C61.1739 40.0723 61.2896 39.6787 61.5072 39.3409C64.6806 33.5711 67.778 27.763 70.9134 21.9677C71.053 21.6238 71.2688 21.2926 71.5354 20.8596H71.5607Z" fill="url(#paint2_linear_2051_17657)"/>
<path fill-rule="evenodd" clip-rule="evenodd" d="M316.504 62C316.771 61.5549 316.961 61.2751 317.114 60.9698C320.628 54.4582 324.151 47.9465 327.682 41.4348C327.872 41.1782 327.982 40.8709 327.998 40.5517C328.014 40.2324 327.935 39.9157 327.771 39.6415C324.138 32.9899 320.556 26.3256 316.949 19.6613C316.847 19.4706 316.72 19.2925 316.529 19C316.315 19.2816 316.116 19.5746 315.932 19.8776C312.384 26.4316 308.841 32.9772 305.301 39.5144C305.117 39.7767 305.012 40.0872 305.001 40.4079C304.99 40.7286 305.072 41.0456 305.237 41.3203C308.87 47.9592 312.452 54.6362 316.06 61.3005C316.187 61.4913 316.288 61.6566 316.504 62ZM316.504 60.105C316.225 59.6217 316.009 59.291 315.831 58.9476C312.694 53.1609 309.582 47.3614 306.419 41.6001C306.201 41.2628 306.085 40.8698 306.085 40.4682C306.085 40.0666 306.201 39.6736 306.419 39.3363C309.582 33.5622 312.694 27.7628 315.831 21.976C316.009 21.6454 316.225 21.3147 316.491 20.8696C316.745 21.2893 316.961 21.5945 317.139 21.9252C320.289 27.7501 323.427 33.5877 326.615 39.3999C326.823 39.7197 326.933 40.093 326.933 40.4746C326.933 40.8561 326.823 41.2294 326.615 41.5492C323.414 47.3996 320.264 53.2754 317.088 59.1384C316.936 59.4055 316.771 59.6599 316.504 60.105Z" fill="url(#paint3_linear_2051_17657)"/>
<path fill-rule="evenodd" clip-rule="evenodd" d="M193.472 62C193.752 61.5053 193.981 61.1501 194.185 60.7316C197.66 54.3133 201.151 47.8992 204.66 41.4894C204.862 41.2146 204.979 40.8871 204.998 40.5468C205.016 40.2066 204.934 39.8685 204.762 39.574C201.143 32.9909 197.562 26.3696 193.969 19.7738C193.841 19.5454 193.688 19.3425 193.459 19C193.191 19.4566 192.962 19.8118 192.758 20.1796C189.292 26.5218 185.839 32.9528 182.334 39.3077C182.116 39.6441 182 40.0361 182 40.4366C182 40.8371 182.116 41.2291 182.334 41.5655C185.839 47.9077 189.292 54.3133 192.758 60.6935L193.472 62ZM193.472 60.0846C193.191 59.59 193 59.3109 192.834 59.0065C189.674 53.1971 186.527 47.3749 183.341 41.5782C183.13 41.2604 183.017 40.8876 183.017 40.5063C183.017 40.1251 183.13 39.7523 183.341 39.4345C186.527 33.6378 189.712 27.8156 192.834 22.0062C193.013 21.6764 193.229 21.372 193.484 20.9534C193.752 21.3974 193.969 21.7271 194.147 22.0569C197.294 27.8283 200.404 33.6124 203.589 39.3711C203.808 39.7075 203.924 40.0995 203.924 40.5C203.924 40.9005 203.808 41.2925 203.589 41.6289C200.416 47.3876 197.294 53.159 194.147 58.9431C193.969 59.2729 193.752 59.6026 193.472 60.0846Z" fill="url(#paint4_linear_2051_17657)"/>
<path fill-rule="evenodd" clip-rule="evenodd" d="M83 69H85.0984C91.9877 68.8147 98.8644 68.6047 105.741 68.4688C106.226 68.498 106.709 68.39 107.133 68.1578C107.556 67.9256 107.903 67.579 108.13 67.1595C111.821 61.1811 115.588 55.2521 119.317 49.2984C119.545 48.9525 119.722 48.5943 120 48.0632C119.558 48.0632 119.267 47.989 118.989 48.0014C111.581 48.199 104.186 48.4214 96.7913 48.6066C96.4751 48.569 96.1546 48.6226 95.8693 48.7609C95.5841 48.8992 95.3465 49.1161 95.1859 49.3848C91.2419 55.7091 87.26 62.0087 83.3034 68.3206C83.1866 68.5401 83.0852 68.7671 83 69ZM84.7065 67.9871C84.9341 67.5548 85.0857 67.2336 85.2754 66.9248C88.7137 61.4405 92.1773 55.9685 95.5904 50.4718C95.7563 50.1605 96.0099 49.9021 96.3212 49.727C96.6326 49.5519 96.9886 49.4675 97.3475 49.4836C103.883 49.3354 110.418 49.1501 116.954 48.9772H118.331C118.239 49.2111 118.129 49.4381 118.003 49.6566C114.413 55.388 110.797 61.1193 107.207 66.8507C107.093 67.0764 106.91 67.2625 106.684 67.3839C106.458 67.5054 106.2 67.5564 105.943 67.5301L85.5914 68.1106C85.294 68.0887 84.9984 68.0474 84.7065 67.9871Z" fill="url(#paint5_linear_2051_17657)"/>
<path fill-rule="evenodd" clip-rule="evenodd" d="M59 69L56.9676 65.7407C53.6223 60.4198 50.2518 55.0864 46.8686 49.6914C46.687 49.3447 46.407 49.0567 46.0622 48.8618C45.7174 48.667 45.3224 48.5735 44.9246 48.5926C37.5776 48.4197 30.2306 48.1975 22.8837 48H22C22.0572 48.2494 22.1375 48.4932 22.2398 48.7284C26.1784 55 30.1296 61.2469 34.043 67.5309C34.2155 67.8189 34.4691 68.0523 34.7735 68.2034C35.0779 68.3544 35.4202 68.4167 35.7598 68.3827C40.986 68.4979 46.2164 68.6255 51.451 68.7654L57.4094 68.9383L59 69ZM23.5275 49.037C23.8431 49.037 23.9693 48.963 24.0955 48.963L44.8362 49.5062C45.1032 49.514 45.3627 49.5944 45.5857 49.7383C45.8087 49.8822 45.9862 50.084 46.0986 50.321C49.6248 55.9506 53.151 61.572 56.6772 67.1852C56.8245 67.4609 56.9429 67.7504 57.0307 68.0494H55.7683C49.1914 67.8766 42.6271 67.6914 36.0502 67.5432C35.7141 67.554 35.382 67.4701 35.0933 67.3016C34.8046 67.1331 34.5715 66.887 34.4217 66.5926C30.9965 61.0947 27.5628 55.6173 24.1208 50.1605C23.9567 49.8272 23.7926 49.4938 23.5275 49.037Z" fill="url(#paint6_linear_2051_17657)"/>
<path fill-rule="evenodd" clip-rule="evenodd" d="M267 48.0366C267.19 48.4074 267.304 48.667 267.456 48.9019C271.332 55.0822 275.233 61.2626 279.097 67.443C279.248 67.7414 279.483 67.9917 279.775 68.1646C280.067 68.3375 280.402 68.4259 280.744 68.4195C288.242 68.5926 295.741 68.8027 303.253 68.9881C303.502 69.004 303.751 69.004 304 68.9881C303.894 68.7094 303.771 68.437 303.633 68.1723C299.723 61.9672 295.821 55.7621 291.928 49.557C291.77 49.2645 291.527 49.0234 291.23 48.8632C290.933 48.7029 290.595 48.6305 290.256 48.6546C282.834 48.4692 275.423 48.2468 268.001 48.049C267.76 47.9625 267.431 48.0119 267 48.0366ZM268.558 48.9513C268.963 48.9513 269.128 48.8895 269.305 48.8895C276.196 49.079 283.091 49.2562 289.99 49.421C290.288 49.4277 290.577 49.5174 290.824 49.6795C291.071 49.8416 291.265 50.0693 291.384 50.3357C294.88 55.8981 298.376 61.4521 301.872 66.998C302.059 67.3394 302.228 67.6901 302.379 68.0487L280.212 67.4554L268.558 48.9513Z" fill="url(#paint7_linear_2051_17657)"/>
<path fill-rule="evenodd" clip-rule="evenodd" d="M206 69C206.518 69 206.859 69 207.263 69C214.527 68.802 221.79 68.604 229.054 68.4431C229.455 68.4621 229.853 68.367 230.201 68.1694C230.548 67.9718 230.83 67.6801 231.012 67.3294C234.802 61.2039 238.591 55.1155 242.482 49.0147C242.646 48.7672 242.785 48.5074 243 48.1361C242.707 48.0601 242.406 48.0145 242.103 48C234.625 48.198 227.146 48.4207 219.656 48.6064C219.38 48.5847 219.103 48.6394 218.858 48.7641C218.612 48.8888 218.407 49.0785 218.266 49.3117C214.299 55.6724 210.32 62.0248 206.328 68.3689C206.205 68.572 206.095 68.7828 206 69ZM241.37 48.9529C241.219 49.2746 241.168 49.4231 241.08 49.5716C237.484 55.3465 233.884 61.0884 230.279 66.7973C230.146 67.0328 229.947 67.2258 229.705 67.3532C229.463 67.4805 229.189 67.5367 228.915 67.515C222.22 67.6759 215.512 67.8739 208.804 68.0472C208.489 68.0472 208.173 67.9853 207.718 67.9482C208.009 67.4408 208.198 67.0819 208.413 66.7107C211.786 61.34 215.184 55.9694 218.519 50.6235C218.71 50.2526 219.009 49.9448 219.377 49.7381C219.745 49.5313 220.167 49.4348 220.59 49.4602C226.73 49.3365 232.869 49.1509 239.008 48.99C239.627 48.9281 240.36 48.9529 241.257 48.9529H241.37Z" fill="url(#paint8_linear_2051_17657)"/>
<path fill-rule="evenodd" clip-rule="evenodd" d="M144 48.0638L146.905 52.7014C149.988 57.6481 153.083 62.5083 156.14 67.418C156.286 67.7192 156.517 67.9734 156.806 68.1508C157.094 68.3282 157.428 68.4215 157.769 68.4197C165.349 68.5928 172.827 68.8031 180.343 68.9886C180.562 69.0038 180.781 69.0038 181 68.9886C180.836 68.6423 180.722 68.3455 180.558 68.0734C176.692 61.89 172.802 55.7065 168.949 49.5231C168.794 49.2291 168.555 48.9858 168.261 48.8232C167.967 48.6606 167.631 48.5858 167.294 48.6079C159.904 48.4224 152.502 48.1998 145.112 48.002C144.821 47.9896 144.531 48.0391 144 48.0638ZM145.642 48.9913C146.046 48.9913 146.211 48.9171 146.375 48.9171C153.247 49.1067 160.123 49.284 167.003 49.4489C167.302 49.4562 167.591 49.5461 167.84 49.708C168.088 49.87 168.284 50.0974 168.406 50.364C171.884 55.9209 175.37 61.4777 178.865 67.0346C179.029 67.3067 179.143 67.6035 179.37 68.0858L157.251 67.4922L145.642 48.9913Z" fill="url(#paint9_linear_2051_17657)"/>
<path fill-rule="evenodd" clip-rule="evenodd" d="M83 13.0866L83.5568 14.0395C87.3529 20.1526 91.2377 26.241 95.0592 32.3542C95.2232 32.6917 95.4838 32.9755 95.8095 33.171C96.1352 33.3665 96.512 33.4653 96.894 33.4555C104.17 33.604 111.446 33.8144 118.735 34H120C119.798 33.5793 119.684 33.2699 119.519 32.9976C115.723 26.8103 111.8 20.7342 107.966 14.5716C107.801 14.26 107.547 14.002 107.234 13.8285C106.922 13.655 106.566 13.5736 106.207 13.594C98.8089 13.4208 91.4022 13.2227 83.987 13C83.7592 13.0124 83.4808 13.0495 83 13.0866ZM118.431 32.9976C118.065 33.037 117.698 33.0576 117.33 33.0595C110.611 32.8863 103.892 32.6883 97.1724 32.5398C96.8539 32.5485 96.5397 32.4667 96.2679 32.3041C95.9961 32.1415 95.7784 31.9053 95.6412 31.624C92.1656 26.0554 88.6732 20.495 85.1638 14.9429C84.9867 14.6582 84.8728 14.3612 84.6703 13.9776C85.0499 13.9776 85.303 13.9776 85.5434 13.9776C92.2922 14.1674 99.0409 14.3447 105.79 14.5097C106.131 14.5068 106.466 14.6012 106.754 14.7814C107.042 14.9616 107.269 15.2198 107.409 15.5245C110.683 20.7714 113.973 26.01 117.279 31.2404L118.431 32.9976Z" fill="url(#paint10_linear_2051_17657)"/>
<path fill-rule="evenodd" clip-rule="evenodd" d="M182 13.0329C181.62 13.0329 181.38 12.9588 181.127 13.0329C173.636 13.2306 166.145 13.453 158.641 13.6383C158.346 13.6126 158.051 13.6715 157.79 13.8075C157.529 13.9436 157.315 14.1511 157.173 14.4044C153.233 20.6974 149.285 26.9698 145.329 33.2216C145.228 33.4069 145.152 33.5923 145 33.9012C145.367 33.9012 145.645 34 145.911 34L168.271 33.4193C168.567 33.4449 168.865 33.3876 169.129 33.2541C169.394 33.1207 169.614 32.9166 169.764 32.6656C173.737 26.3026 177.748 19.9643 181.734 13.626C181.823 13.4283 181.873 13.2306 182 13.0329ZM146.569 32.9127C146.746 32.5791 146.86 32.3567 146.987 32.1591C150.517 26.5374 154.073 20.9157 157.591 15.2693C157.743 14.994 157.973 14.7673 158.253 14.6162C158.534 14.465 158.853 14.3958 159.172 14.4167C165.93 14.2561 172.687 14.0584 179.419 13.8855C179.646 13.8855 179.887 13.8855 180.165 13.8855C180.149 14.0422 180.11 14.196 180.051 14.3426C176.483 20.1908 172.864 25.9978 169.194 31.7637C169.066 31.9749 168.879 32.1462 168.655 32.2577C168.431 32.3692 168.179 32.4165 167.929 32.3938L147.683 32.9251C147.328 32.9431 146.973 32.939 146.62 32.9127H146.569Z" fill="url(#paint11_linear_2051_17657)"/>
<path fill-rule="evenodd" clip-rule="evenodd" d="M267 34H268.417L290.131 33.4428C290.47 33.478 290.813 33.4175 291.118 33.2683C291.423 33.119 291.678 32.8874 291.852 32.6008C295.788 26.2612 299.774 19.9463 303.747 13.6315C303.823 13.4953 303.886 13.3343 304 13.0743C303.633 13.0743 303.355 13 303.064 13C295.661 13.1981 288.259 13.421 280.843 13.6067C280.502 13.5731 280.158 13.6399 279.856 13.7988C279.554 13.9576 279.307 14.2012 279.148 14.4982C275.267 20.7305 271.37 26.9463 267.456 33.1456C267.304 33.3314 267.202 33.5914 267 34ZM268.645 33.0589C268.734 32.835 268.836 32.616 268.949 32.4027C272.53 26.6946 276.136 20.9864 279.692 15.2659C279.849 14.9939 280.083 14.7721 280.366 14.6271C280.649 14.4821 280.968 14.4202 281.286 14.4487C287.968 14.2877 294.636 14.102 301.317 13.9287C301.669 13.9322 302.019 13.957 302.368 14.0029C302.203 14.3249 302.115 14.5106 302.013 14.6839C298.445 20.3549 294.885 26.0342 291.333 31.7217C291.178 31.9915 290.946 32.2112 290.665 32.3541C290.384 32.497 290.067 32.5569 289.752 32.5265C283.159 32.6875 276.566 32.8732 269.986 33.0466L268.645 33.0589Z" fill="url(#paint12_linear_2051_17657)"/>
<path fill-rule="evenodd" clip-rule="evenodd" d="M243 33.965C242.797 33.5687 242.671 33.2591 242.506 32.9867C238.645 26.8446 234.789 20.7024 230.937 14.5603C230.786 14.2617 230.551 14.0119 230.259 13.8406C229.967 13.6693 229.63 13.5838 229.29 13.5944C221.788 13.421 214.287 13.1981 206.773 13C206.57 13 206.355 13 206 13C206.107 13.2806 206.234 13.5537 206.38 13.8173C210.283 20.0337 214.186 26.2502 218.088 32.4666C218.223 32.7502 218.438 32.9905 218.707 33.1593C218.976 33.3282 219.289 33.4186 219.609 33.4201C227.11 33.5935 234.616 33.7833 242.126 33.9897C242.366 34.0145 242.62 33.9898 243 33.965ZM207.521 13.9288C208.053 13.9288 208.433 13.9288 208.788 13.9288C215.389 14.1021 221.991 14.2879 228.58 14.4365C228.941 14.4199 229.3 14.5057 229.612 14.6837C229.925 14.8616 230.178 15.1241 230.341 15.4395C233.775 20.9501 237.247 26.4359 240.694 31.9217C240.897 32.2437 241.049 32.5781 241.277 33.0115C240.808 33.0115 240.478 33.0734 240.149 33.0115C233.459 32.8381 226.781 32.64 220.09 32.4914C219.772 32.5048 219.457 32.4277 219.182 32.2694C218.908 32.1112 218.686 31.8786 218.545 31.5998C215.064 26.0273 211.567 20.4589 208.053 14.8946C207.964 14.6718 207.825 14.3745 207.584 13.9288H207.521Z" fill="url(#paint13_linear_2051_17657)"/>
<path fill-rule="evenodd" clip-rule="evenodd" d="M22 34H23.5117L45.1297 33.4425C45.4682 33.483 45.8114 33.4261 46.1177 33.2788C46.424 33.1315 46.6803 32.9 46.8556 32.6124C50.7736 26.269 54.7419 19.9504 58.6977 13.6319C58.7732 13.4956 58.8362 13.3345 59 13C50.8366 13.1487 42.7991 13.3965 34.7239 13.6443C30.5162 20.3841 26.3841 27.0867 22 34ZM57.2741 13.9168C57.1355 14.239 57.0977 14.4 57.0095 14.5487C53.4569 20.2891 49.8833 26.0502 46.2887 31.8319C46.158 32.07 45.96 32.2658 45.7185 32.3955C45.477 32.5252 45.2025 32.5833 44.9282 32.5628L24.7715 33.0956C24.4426 33.0849 24.1145 33.056 23.7889 33.0089L24.2928 32.1416C27.7698 26.5664 31.2594 20.9912 34.7113 15.4283C34.882 15.1167 35.1402 14.86 35.4551 14.6886C35.7701 14.5173 36.1284 14.4386 36.4876 14.462C42.9251 14.3133 49.35 14.1275 55.7749 13.954C56.2159 13.9044 56.682 13.9168 57.3245 13.9168H57.2741Z" fill="url(#paint14_linear_2051_17657)"/>
<path fill-rule="evenodd" clip-rule="evenodd" d="M254.447 98L266 76.4809L254.472 55C254.238 55.2962 254.023 55.6066 253.827 55.9295C250.305 62.4829 246.778 69.0362 243.248 75.5896C243.086 75.8397 243 76.1316 243 76.43C243 76.7283 243.086 77.0203 243.248 77.2704C246.837 83.9001 250.406 90.5383 253.954 97.1851C254.03 97.4015 254.181 97.5925 254.447 98ZM254.447 56.7826L264.989 76.4045C263.244 80.3009 255.028 95.2624 254.283 95.8736L243.867 76.4682L254.447 56.7826Z" fill="url(#paint15_linear_2051_17657)"/>
<path fill-rule="evenodd" clip-rule="evenodd" d="M132.51 97C136.391 89.7418 140.183 82.6241 144 75.468L132.51 54C132.304 54.236 132.11 54.4834 131.931 54.7411C128.378 61.3945 124.821 68.0565 121.26 74.7269C121.105 74.9317 121.015 75.1792 121.002 75.437C120.988 75.6948 121.052 75.9506 121.185 76.1709C124.855 82.9861 128.5 89.8014 132.12 96.6166C132.235 96.7592 132.366 96.8878 132.51 97ZM121.928 75.5447C123.276 72.4268 131.83 56.6707 132.573 55.9679L142.98 75.468C139.477 82.0235 136.013 88.5022 132.435 95.2238L121.928 75.5447Z" fill="url(#paint16_linear_2051_17657)"/>
<path fill-rule="evenodd" clip-rule="evenodd" d="M9.55886 54L-2 75.551L9.48322 97C9.67911 96.8139 9.85643 96.6088 10.0126 96.3875L20.7396 76.3166C20.8945 76.1121 20.9847 75.8649 20.9982 75.6076C21.0117 75.3502 20.9479 75.0947 20.8152 74.8748C17.1849 68.1292 13.5631 61.3666 9.94961 54.5869C9.83133 54.3834 9.70083 54.1874 9.55886 54ZM9.55886 55.8119C13.1765 62.6 16.6429 69.0819 20.1093 75.551C16.5925 82.1095 13.1387 88.5786 9.55886 95.2774C5.9412 88.5403 2.48741 82.0585 -0.991594 75.551L9.55886 55.8119Z" fill="url(#paint17_linear_2051_17657)"/>
<path fill-rule="evenodd" clip-rule="evenodd" d="M9.63895 27C9.92984 26.491 10.1322 26.1728 10.3219 25.8292C13.7621 19.4665 17.1896 13.0146 20.6677 6.62641C20.8841 6.3101 21 5.93513 21 5.5511C21 5.16707 20.8841 4.79209 20.6677 4.47579C19.8961 3.20323 19.2258 1.93067 18.5429 0.569038C18.2773 0.0854664 17.9737 -0.194466 17.2781 0.200026C18.0117 1.57438 18.6946 2.9869 19.5041 4.32309C19.7451 4.67249 19.8742 5.08763 19.8742 5.51292C19.8742 5.93821 19.7451 6.35335 19.5041 6.70275C16.3675 12.4292 13.2941 18.1557 10.1954 23.9458C10.0184 24.2767 9.80337 24.5949 9.53777 25.053C9.28482 24.6712 9.08245 24.4167 8.91804 24.124C5.76878 18.2703 2.59424 12.3911 -0.56766 6.53732C-0.774398 6.23858 -0.885225 5.88331 -0.885225 5.51929C-0.885225 5.15527 -0.774398 4.79996 -0.56766 4.50122C0.0773675 3.43228 0.697099 2.287 1.24095 1.17988C1.40536 0.849014 1.55714 0.505426 1.72155 0.149113C1.62858 0.0784588 1.52022 0.0311127 1.40544 0.0109749C1.29067 -0.009161 1.17277 -0.00152016 1.06152 0.0333061C0.95027 0.0681305 0.848864 0.12911 0.765697 0.21121C0.682531 0.293308 0.619997 0.394173 0.583272 0.505426C-0.213527 1.99431 -0.997678 3.50867 -1.84507 4.9721C-2.21185 5.6211 -1.84507 6.05375 -1.59211 6.53732L5.38936 19.5428L8.86744 25.9819C9.20893 26.3001 9.43659 26.5928 9.63895 27Z" fill="url(#paint18_linear_2051_17657)"/>
<path fill-rule="evenodd" clip-rule="evenodd" d="M132.64 25.1525C132.31 24.6174 132.107 24.2988 131.916 23.9676C128.818 18.2085 125.733 12.4367 122.584 6.70318C122.338 6.35474 122.207 5.93855 122.207 5.51188C122.207 5.0852 122.338 4.66901 122.584 4.32057C123.384 2.98274 124.069 1.56846 124.819 0.179659C124.26 -0.138872 123.917 -0.0242119 123.663 0.447216C122.838 1.98891 122.012 3.51788 121.124 5.04683C120.832 5.56922 121.124 5.96419 121.314 6.38465L124.476 12.2584L131.751 25.7259C131.954 26.1081 132.17 26.4776 132.462 27C132.668 26.7694 132.855 26.5223 133.021 26.261C136.589 19.6611 140.131 13.0483 143.724 6.46109C143.904 6.19382 144 5.87883 144 5.55647C144 5.23412 143.904 4.91913 143.724 4.65186C142.963 3.37773 142.252 1.9889 141.541 0.638327C141.287 0.166901 141.007 -0.164354 140.271 0.179659C140.855 1.30089 141.452 2.39665 142.023 3.4924C143.369 6.10435 143.394 5.04682 142.023 7.58233C139.154 12.9719 136.233 18.336 133.338 23.7128L132.64 25.1525Z" fill="url(#paint19_linear_2051_17657)"/>
<path fill-rule="evenodd" clip-rule="evenodd" d="M254.54 27C254.845 26.4809 255.023 26.1771 255.189 25.8733C258.675 19.4675 262.136 13.0489 265.661 6.66843C265.882 6.35249 266 5.97701 266 5.59234C266 5.20767 265.882 4.83223 265.661 4.51629C264.91 3.25032 264.274 1.98434 263.6 0.718365C263.358 0.275274 263.116 -0.142527 262.404 0.173967C262.478 0.433704 262.571 0.687605 262.684 0.933559C263.371 2.19954 264.071 3.54149 264.796 4.83279C264.921 5.01734 264.996 5.23155 265.011 5.45384C265.027 5.67612 264.983 5.89861 264.885 6.09876C261.492 12.2345 258.145 18.3745 254.845 24.5187L254.59 24.9998C254.298 24.544 254.094 24.2781 253.941 23.987C250.76 18.1508 247.579 12.3147 244.398 6.49121C244.193 6.19269 244.084 5.83973 244.084 5.47841C244.084 5.11709 244.193 4.76417 244.398 4.46564C245.212 3.08573 245.937 1.66784 246.739 0.19931C246.217 -0.104523 245.861 -0.0791988 245.607 0.401871C244.741 1.95902 243.876 3.51616 243.062 5.09863C242.958 5.41679 242.986 5.76268 243.138 6.06079C243.392 6.61212 243.676 7.14887 243.99 7.66856L253.751 25.6328C253.98 26.0885 254.209 26.443 254.54 27Z" fill="url(#paint20_linear_2051_17657)"/>
<defs>
<linearGradient id="paint0_linear_2051_17657" x1="-60.8102" y1="-120.635" x2="575.5" y2="177.502" gradientUnits="userSpaceOnUse">
<stop stop-color="#FF1515"/>
<stop offset="0.31" stop-color="#9852F4"/>
<stop offset="0.65" stop-color="#00D1E9"/>
<stop offset="0.99" stop-color="#0054D4"/>
</linearGradient>
<linearGradient id="paint1_linear_2051_17657" x1="-46.9161" y1="-153.288" x2="592.397" y2="143.479" gradientUnits="userSpaceOnUse">
<stop stop-color="#FF1515"/>
<stop offset="0.31" stop-color="#9852F4"/>
<stop offset="0.65" stop-color="#00D1E9"/>
<stop offset="0.99" stop-color="#0054D4"/>
</linearGradient>
<linearGradient id="paint2_linear_2051_17657" x1="-96.6211" y1="-36.5714" x2="541.967" y2="254.096" gradientUnits="userSpaceOnUse">
<stop stop-color="#FF1515"/>
<stop offset="0.31" stop-color="#9852F4"/>
<stop offset="0.65" stop-color="#00D1E9"/>
<stop offset="0.99" stop-color="#0054D4"/>
</linearGradient>
<linearGradient id="paint3_linear_2051_17657" x1="-55.4208" y1="-129.586" x2="583.081" y2="161.654" gradientUnits="userSpaceOnUse">
<stop stop-color="#FF1515"/>
<stop offset="0.31" stop-color="#9852F4"/>
<stop offset="0.65" stop-color="#00D1E9"/>
<stop offset="0.99" stop-color="#0054D4"/>
</linearGradient>
<linearGradient id="paint4_linear_2051_17657" x1="-77.5003" y1="-82.6652" x2="561.775" y2="210.642" gradientUnits="userSpaceOnUse">
<stop stop-color="#FF1515"/>
<stop offset="0.31" stop-color="#9852F4"/>
<stop offset="0.65" stop-color="#00D1E9"/>
<stop offset="0.99" stop-color="#0054D4"/>
</linearGradient>
<linearGradient id="paint5_linear_2051_17657" x1="-97.9802" y1="-30.4593" x2="532.045" y2="264.003" gradientUnits="userSpaceOnUse">
<stop stop-color="#FF1515"/>
<stop offset="0.31" stop-color="#9852F4"/>
<stop offset="0.65" stop-color="#00D1E9"/>
<stop offset="0.99" stop-color="#0054D4"/>
</linearGradient>
<linearGradient id="paint6_linear_2051_17657" x1="-108.238" y1="-7.82716" x2="521.116" y2="286.087" gradientUnits="userSpaceOnUse">
<stop stop-color="#FF1515"/>
<stop offset="0.31" stop-color="#9852F4"/>
<stop offset="0.65" stop-color="#00D1E9"/>
<stop offset="0.99" stop-color="#0054D4"/>
</linearGradient>
<linearGradient id="paint7_linear_2051_17657" x1="-66.6967" y1="-98.5001" x2="564.341" y2="196.836" gradientUnits="userSpaceOnUse">
<stop stop-color="#FF1515"/>
<stop offset="0.31" stop-color="#9852F4"/>
<stop offset="0.65" stop-color="#00D1E9"/>
<stop offset="0.99" stop-color="#0054D4"/>
</linearGradient>
<linearGradient id="paint8_linear_2051_17657" x1="-76.2182" y1="-75.9334" x2="553.943" y2="217.853" gradientUnits="userSpaceOnUse">
<stop stop-color="#FF1515"/>
<stop offset="0.31" stop-color="#9852F4"/>
<stop offset="0.65" stop-color="#00D1E9"/>
<stop offset="0.99" stop-color="#0054D4"/>
</linearGradient>
<linearGradient id="paint9_linear_2051_17657" x1="-87.4111" y1="-53.2581" x2="542.607" y2="240.649" gradientUnits="userSpaceOnUse">
<stop stop-color="#FF1515"/>
<stop offset="0.31" stop-color="#9852F4"/>
<stop offset="0.65" stop-color="#00D1E9"/>
<stop offset="0.99" stop-color="#0054D4"/>
</linearGradient>
<linearGradient id="paint10_linear_2051_17657" x1="-84.7148" y1="-59.6895" x2="546.151" y2="234.935" gradientUnits="userSpaceOnUse">
<stop stop-color="#FF1515"/>
<stop offset="0.31" stop-color="#9852F4"/>
<stop offset="0.65" stop-color="#00D1E9"/>
<stop offset="0.99" stop-color="#0054D4"/>
</linearGradient>
<linearGradient id="paint11_linear_2051_17657" x1="-73.5328" y1="-82.264" x2="556.965" y2="212.657" gradientUnits="userSpaceOnUse">
<stop stop-color="#FF1515"/>
<stop offset="0.31" stop-color="#9852F4"/>
<stop offset="0.65" stop-color="#00D1E9"/>
<stop offset="0.99" stop-color="#0054D4"/>
</linearGradient>
<linearGradient id="paint12_linear_2051_17657" x1="-52.9791" y1="-127.722" x2="578.008" y2="166.778" gradientUnits="userSpaceOnUse">
<stop stop-color="#FF1515"/>
<stop offset="0.31" stop-color="#9852F4"/>
<stop offset="0.65" stop-color="#00D1E9"/>
<stop offset="0.99" stop-color="#0054D4"/>
</linearGradient>
<linearGradient id="paint13_linear_2051_17657" x1="-63.6565" y1="-105.087" x2="567.92" y2="190.069" gradientUnits="userSpaceOnUse">
<stop stop-color="#FF1515"/>
<stop offset="0.31" stop-color="#9852F4"/>
<stop offset="0.65" stop-color="#00D1E9"/>
<stop offset="0.99" stop-color="#0054D4"/>
</linearGradient>
<linearGradient id="paint14_linear_2051_17657" x1="-94.4423" y1="-37.115" x2="534.889" y2="255.16" gradientUnits="userSpaceOnUse">
<stop stop-color="#FF1515"/>
<stop offset="0.31" stop-color="#9852F4"/>
<stop offset="0.65" stop-color="#00D1E9"/>
<stop offset="0.99" stop-color="#0054D4"/>
</linearGradient>
<linearGradient id="paint15_linear_2051_17657" x1="-78.3961" y1="-76.6358" x2="558.349" y2="212.052" gradientUnits="userSpaceOnUse">
<stop stop-color="#FF1515"/>
<stop offset="0.31" stop-color="#9852F4"/>
<stop offset="0.65" stop-color="#00D1E9"/>
<stop offset="0.99" stop-color="#0054D4"/>
</linearGradient>
<linearGradient id="paint16_linear_2051_17657" x1="-98.2755" y1="-31.3738" x2="537.823" y2="255.046" gradientUnits="userSpaceOnUse">
<stop stop-color="#FF1515"/>
<stop offset="0.31" stop-color="#9852F4"/>
<stop offset="0.65" stop-color="#00D1E9"/>
<stop offset="0.99" stop-color="#0054D4"/>
</linearGradient>
<linearGradient id="paint17_linear_2051_17657" x1="-120.173" y1="15.5552" x2="515.851" y2="302.518" gradientUnits="userSpaceOnUse">
<stop stop-color="#FF1515"/>
<stop offset="0.31" stop-color="#9852F4"/>
<stop offset="0.65" stop-color="#00D1E9"/>
<stop offset="0.99" stop-color="#0054D4"/>
</linearGradient>
<linearGradient id="paint18_linear_2051_17657" x1="-96.1076" y1="-37.0349" x2="540.764" y2="252.046" gradientUnits="userSpaceOnUse">
<stop stop-color="#FF1515"/>
<stop offset="0.31" stop-color="#9852F4"/>
<stop offset="0.65" stop-color="#00D1E9"/>
<stop offset="0.99" stop-color="#0054D4"/>
</linearGradient>
<linearGradient id="paint19_linear_2051_17657" x1="-75.351" y1="-83.7342" x2="563.377" y2="206.975" gradientUnits="userSpaceOnUse">
<stop stop-color="#FF1515"/>
<stop offset="0.31" stop-color="#9852F4"/>
<stop offset="0.65" stop-color="#00D1E9"/>
<stop offset="0.99" stop-color="#0054D4"/>
</linearGradient>
<linearGradient id="paint20_linear_2051_17657" x1="-55.9386" y1="-129.437" x2="582.343" y2="163.573" gradientUnits="userSpaceOnUse">
<stop stop-color="#FF1515"/>
<stop offset="0.31" stop-color="#9852F4"/>
<stop offset="0.65" stop-color="#00D1E9"/>
<stop offset="0.99" stop-color="#0054D4"/>
</linearGradient>
</defs>
</svg>
