<svg width="31" height="32" viewBox="0 0 31 32" fill="none" xmlns="http://www.w3.org/2000/svg">
<path d="M18.0466 19.6317C23.4085 19.6317 27.7708 15.2283 27.7708 9.81586C27.7708 4.40345 23.4085 0 18.0466 0C12.6846 0 8.32236 4.40339 8.32236 9.8158C8.32236 15.2282 12.6846 19.6317 18.0466 19.6317ZM14.9219 12.8789C15.2047 12.4459 15.7846 12.3243 16.217 12.6077C16.8471 13.0204 17.0848 13.0584 17.9162 13.0526C18.7277 13.0473 19.1985 12.4416 19.2926 11.881C19.3384 11.6084 19.3559 10.9426 18.5319 10.6509C17.5654 10.3087 16.5763 9.91761 15.8882 9.37712C15.2001 8.83663 14.885 7.90356 15.0659 6.94219C15.2621 5.9 15.988 5.07036 16.9606 4.77704C16.9694 4.77442 16.978 4.77229 16.9868 4.76967V4.4145C16.9868 3.89706 17.4057 3.47756 17.9224 3.47756C18.4391 3.47756 18.858 3.89706 18.858 4.4145V4.71064C19.4935 4.86255 19.9373 5.15369 20.1175 5.28855C20.5313 5.59843 20.616 6.18551 20.3067 6.60002C19.9973 7.01452 19.411 7.09935 18.9971 6.78941C18.8054 6.64587 18.2755 6.3373 17.5002 6.57122C17.0473 6.70789 16.9299 7.15538 16.9047 7.28923C16.8552 7.55227 16.9107 7.79881 17.043 7.90262C17.52 8.27727 18.3786 8.60901 19.1555 8.88404C20.5882 9.39117 21.3849 10.7204 21.1379 12.1916C21.0167 12.9135 20.6541 13.5832 20.1167 14.0776C19.7507 14.4144 19.3247 14.6545 18.858 14.7917V15.2171C18.858 15.7345 18.4391 16.154 17.9224 16.154C17.4057 16.154 16.9868 15.7345 16.9868 15.2171V14.8851C16.3818 14.8116 15.874 14.6222 15.1926 14.1758C14.7603 13.8926 14.639 13.3118 14.9219 12.8789ZM3.06894 22.7798H0.935615C0.418906 22.7798 0 23.1994 0 23.7168V31.0618C0 31.5792 0.418906 31.9987 0.935615 31.9987H3.06901L3.06894 22.7798ZM30.7256 22.7145C28.972 20.9583 26.1186 20.9582 24.365 22.7145L21.5623 25.5211L20.4136 26.6715C19.9493 27.1364 19.3196 27.3976 18.663 27.3976H13.0772C12.5727 27.3976 12.1385 27.0093 12.1148 26.5047C12.0895 25.9659 12.5182 25.5211 13.0506 25.5211H18.7283C19.8699 25.5211 20.86 24.7072 21.0563 23.5811C21.1014 23.3225 21.1249 23.0566 21.1249 22.7852C21.1249 22.2668 20.7055 21.8462 20.188 21.8462H17.0769C16.0602 21.8462 15.0839 21.3844 14.0501 20.8953C12.9659 20.3824 11.8448 19.852 10.5338 19.7647C9.38728 19.6882 8.23809 19.8139 7.11804 20.1378C5.91877 20.4846 5.05669 21.5516 4.95215 22.7835C4.94816 22.7832 4.9441 22.7831 4.94005 22.7828V31.9956L21.0593 32C22.1675 32 23.2096 31.5678 23.9934 30.7829L30.7254 24.0413C31.0915 23.675 31.0915 23.0809 30.7256 22.7145Z" fill="#FF6700"/>
</svg>
