<svg width="31" height="32" viewBox="0 0 31 32" fill="none" xmlns="http://www.w3.org/2000/svg">
<path fill-rule="evenodd" clip-rule="evenodd" d="M26.0713 18.5145H29.8484C30.1536 18.5155 30.4459 18.6361 30.6617 18.8503C30.8775 19.0644 30.9991 19.3546 31 19.6574V24.6859C30.9991 24.9887 30.8775 25.2788 30.6617 25.493C30.4459 25.7071 30.1536 25.8278 29.8484 25.8287H26.0713C21.1945 25.6573 21.1945 18.686 26.0713 18.5145ZM25.6642 22.5757C25.7722 22.6828 25.9186 22.743 26.0713 22.743C26.224 22.743 26.3705 22.6828 26.4785 22.5757C26.5864 22.4685 26.6471 22.3232 26.6471 22.1716C26.6471 22.0201 26.5864 21.8747 26.4785 21.7676C26.3705 21.6604 26.224 21.6002 26.0713 21.6002C25.9186 21.6002 25.7722 21.6604 25.6642 21.7676C25.5562 21.8747 25.4955 22.0201 25.4955 22.1716C25.4955 22.3232 25.5562 22.4685 25.6642 22.5757Z" fill="#FF6700"/>
<path d="M12.4369 11.2004H6.55815C3.60844 6.37136 7.30149 -0.0730862 13.0126 0.000626684C14.0894 0.00410232 15.1527 0.237473 16.1305 0.684894C17.1083 1.13231 17.9777 1.78331 18.6795 2.59367C19.3814 3.40403 19.8993 4.35478 20.1981 5.38138C20.497 6.40797 20.5697 7.48636 20.4114 8.54332C20.2756 9.48282 19.9527 10.3861 19.4614 11.2004H13.5884V10.5547C14.0688 10.5172 14.5159 10.2966 14.8361 9.93924C15.1563 9.58187 15.3247 9.1154 15.3061 8.63754C15.2875 8.15968 15.0833 7.7075 14.7363 7.37572C14.3893 7.04393 13.9263 6.85827 13.4445 6.85764H12.5808C12.3899 6.85764 12.2069 6.78238 12.0719 6.64843C11.9369 6.51448 11.8611 6.3328 11.8611 6.14336C11.8611 5.95393 11.9369 5.77225 12.0719 5.6383C12.2069 5.50434 12.3899 5.42909 12.5808 5.42909H14.74C14.8927 5.42909 15.0391 5.36889 15.1471 5.26173C15.2551 5.15457 15.3158 5.00922 15.3158 4.85767C15.3158 4.70612 15.2551 4.56078 15.1471 4.45362C15.0391 4.34646 14.8927 4.28626 14.74 4.28626H13.5884V3.90912C13.5884 3.75757 13.5278 3.61223 13.4198 3.50507C13.3118 3.39791 13.1653 3.3377 13.0126 3.3377C12.8599 3.3377 12.7135 3.39791 12.6055 3.50507C12.4975 3.61223 12.4369 3.75757 12.4369 3.90912V4.3034C11.9565 4.34094 11.5094 4.56149 11.1892 4.91886C10.869 5.27624 10.7006 5.7427 10.7192 6.22056C10.7378 6.69842 10.942 7.1506 11.289 7.48239C11.636 7.81418 12.0989 7.99983 12.5808 8.00047H13.4445C13.6354 8.00047 13.8184 8.07572 13.9534 8.20967C14.0884 8.34363 14.1642 8.5253 14.1642 8.71474C14.1642 8.90418 14.0884 9.08586 13.9534 9.21981C13.8184 9.35376 13.6354 9.42901 13.4445 9.42901H11.2853C11.1326 9.42901 10.9861 9.48922 10.8782 9.59638C10.7702 9.70354 10.7095 9.84888 10.7095 10.0004C10.7095 10.152 10.7702 10.2973 10.8782 10.4045C10.9861 10.5116 11.1326 10.5718 11.2853 10.5718H12.4369V11.2004Z" fill="#FF6700"/>
<path fill-rule="evenodd" clip-rule="evenodd" d="M22.6534 18.7796C21.7467 19.6793 21.2366 20.8992 21.2348 22.1716C21.2366 23.4441 21.7467 24.6639 22.6534 25.5637C23.56 26.4634 24.7891 26.9697 26.0713 26.9715H29.7563V28.9601C29.7548 29.7658 29.4316 30.5382 28.8574 31.108C28.2833 31.6777 27.5051 31.9985 26.6931 32H3.06315C2.25122 31.9985 1.47298 31.6777 0.898856 31.108C0.324734 30.5382 0.0015219 29.7658 0 28.9601V10.4461C0.0015219 9.64036 0.324734 8.86801 0.898856 8.29824C1.47298 7.72847 2.25122 7.4077 3.06315 7.40619H4.37593C4.37632 7.78833 4.40132 8.17005 4.45078 8.54903H3.06315C2.55616 8.54903 2.06994 8.7489 1.71145 9.10468C1.35296 9.46045 1.15156 9.94299 1.15156 10.4461C1.15156 10.9493 1.35296 11.4318 1.71145 11.7876C2.06994 12.1434 2.55616 12.3432 3.06315 12.3432H24.8737V8.54903H21.5745C21.6235 8.17001 21.6485 7.78831 21.6493 7.40619H25.4495C25.602 7.40664 25.7482 7.46699 25.8561 7.57406C25.964 7.68112 26.0248 7.8262 26.0252 7.97761V12.3432C27.9771 12.1318 29.7275 13.3546 29.7563 15.3832V17.3717H26.0713C24.7891 17.3735 23.56 17.8798 22.6534 18.7796ZM4.03046 28.5715H8.63669C8.7894 28.5715 8.93585 28.5113 9.04383 28.4041C9.15181 28.297 9.21247 28.1516 9.21247 28.0001C9.21247 27.8485 9.15181 27.7032 9.04383 27.596C8.93585 27.4889 8.7894 27.4287 8.63669 27.4287H4.03046C3.87775 27.4287 3.7313 27.4889 3.62332 27.596C3.51534 27.7032 3.45468 27.8485 3.45468 28.0001C3.45468 28.1516 3.51534 28.297 3.62332 28.4041C3.7313 28.5113 3.87775 28.5715 4.03046 28.5715Z" fill="#FF6700"/>
</svg>
