<svg width="25" height="24" viewBox="0 0 25 24" fill="none" xmlns="http://www.w3.org/2000/svg">
<path d="M8.89454 10.4554C8.39451 9.94587 7.58595 9.94587 7.08591 10.4554L7.06638 10.4713C6.56639 10.9809 6.56639 11.8049 7.06638 12.3145L11.5937 16.9323C12.0937 17.4419 12.9023 17.4419 13.4023 16.9323L17.9297 12.3145C18.4297 11.8049 18.4297 10.9809 17.9297 10.4713L17.914 10.4554C17.4141 9.94587 16.6055 9.94587 16.1055 10.4554L13.7774 12.828V3.30176C13.7774 2.58121 13.207 2 12.5 2C11.7929 2 11.2226 2.58121 11.2226 3.30176V12.828L8.89454 10.4554Z" fill="#00DE5F"/>
<path d="M19.9453 16.3153C19.9453 15.5947 20.5156 15.0135 21.2226 15.0135C21.9297 15.0135 22.5 15.5947 22.5 16.3153V19.7787C22.5 20.3718 22.2773 20.8933 21.8476 21.3352C21.418 21.7771 20.9023 22 20.3203 22H4.67968C4.09767 22 3.58593 21.7731 3.15235 21.3352C2.71873 20.8973 2.5 20.3718 2.5 19.7787V16.3153C2.5 15.5947 3.0703 15.0135 3.77735 15.0135C4.48437 15.0135 5.0547 15.5947 5.0547 16.3153V19.3965H19.9453V16.3153Z" fill="#00DE5F"/>
</svg>
