<svg width="25" height="24" viewBox="0 0 25 24" fill="none" xmlns="http://www.w3.org/2000/svg">
<rect x="0.5" width="24" height="24" rx="4" fill="#0047F9"/>
<path d="M10.3147 12C10.3147 10.8967 11.2082 10 12.3077 10C13.4072 10 14.3007 10.8967 14.3007 12C14.3007 13.1033 13.4072 14 12.3077 14C11.2082 14 10.3147 13.1033 10.3147 12Z" fill="white"/>
<path fill-rule="evenodd" clip-rule="evenodd" d="M5 12C6.14931 9.07331 8.98601 7 12.3077 7C15.6327 7 18.4661 9.07331 19.6154 12C18.4661 14.9267 15.6327 17 12.3077 17C8.98601 17 6.14931 14.9267 5 12ZM8.98601 12C8.98601 13.84 10.4741 15.3333 12.3077 15.3333C14.1413 15.3333 15.6294 13.84 15.6294 12C15.6294 10.16 14.1413 8.66666 12.3077 8.66666C10.4741 8.66666 8.98601 10.16 8.98601 12Z" fill="white"/>
</svg>
