<svg width="40" height="40" viewBox="0 0 40 40" fill="none" xmlns="http://www.w3.org/2000/svg">
<path d="M32.5 40H7.5C5.51088 40 3.60322 39.2098 2.1967 37.8033C0.790176 36.3968 0 34.4891 0 32.5L0 7.5C0 5.51088 0.790176 3.60322 2.1967 2.1967C3.60322 0.790176 5.51088 0 7.5 0L32.5 0C34.4891 0 36.3968 0.790176 37.8033 2.1967C39.2098 3.60322 40 5.51088 40 7.5V32.5C40 34.4891 39.2098 36.3968 37.8033 37.8033C36.3968 39.2098 34.4891 40 32.5 40Z" fill="#D3E9FF"/>
<path fill-rule="evenodd" clip-rule="evenodd" d="M12.2913 10H21.875C22.483 10 23.0661 10.2415 23.496 10.6715C23.926 11.1014 24.1675 11.6845 24.1675 12.2925V17.0925C23.2837 17.1088 22.4338 17.2925 21.6587 17.6088C21.6675 17.575 21.6675 17.5413 21.6675 17.5C21.6675 17.0413 21.2925 16.6663 20.8338 16.6663H13.3338C12.875 16.6663 12.5 17.0413 12.5 17.5C12.5 17.9588 12.875 18.3338 13.3338 18.3338H20.3C19.4748 18.8917 18.7718 19.6117 18.2338 20.45C18.1 20.1838 17.8163 20 17.5 20H13.3338C12.875 20 12.4987 20.375 12.4987 20.8338C12.4987 21.2925 12.8738 21.6675 13.3325 21.6675H17.4987C17.5412 21.6675 17.5738 21.6675 17.6075 21.6587C17.2663 22.5 17.0825 23.4163 17.0825 24.375C17.0809 25.4557 17.32 26.5232 17.7825 27.5H12.2913C11.025 27.5 10 26.475 10 25.2075V12.2913C10 11.025 11.025 10 12.2913 10ZM13.3325 15H16.6663C17.125 15 17.5013 14.625 17.5013 14.1663C17.5013 13.7075 17.1262 13.3325 16.6675 13.3325H13.3338C12.875 13.3325 12.5 13.7075 12.5 14.1663C12.5 14.625 12.875 15 13.3325 15Z" fill="#43A1FF"/>
<path fill-rule="evenodd" clip-rule="evenodd" d="M18.75 24.375C18.75 21.2738 21.2738 18.75 24.375 18.75C27.4762 18.75 30 21.2738 30 24.375C30 27.4762 27.4762 30 24.375 30C21.2738 30 18.75 27.4762 18.75 24.375ZM25.2075 25.2088H26.6663C26.8874 25.2091 27.0996 25.1216 27.2562 24.9654C27.4128 24.8093 27.5009 24.5974 27.5012 24.3762C27.5016 24.1551 27.4141 23.9429 27.2579 23.7863C27.1018 23.6297 26.8899 23.5416 26.6688 23.5413H25.21V22.0825C25.21 21.8614 25.1222 21.6493 24.9658 21.4929C24.8094 21.3366 24.5974 21.2488 24.3762 21.2488C24.1551 21.2488 23.9431 21.3366 23.7867 21.4929C23.6303 21.6493 23.5425 21.8614 23.5425 22.0825V23.5413H22.0838C21.8626 23.5409 21.6504 23.6284 21.4938 23.7846C21.3372 23.9407 21.2491 24.1526 21.2488 24.3738C21.2484 24.5949 21.3359 24.8071 21.4921 24.9637C21.6482 25.1203 21.8601 25.2084 22.0813 25.2088H23.54V26.6675C23.54 26.8886 23.6278 27.1007 23.7842 27.2571C23.9406 27.4134 24.1526 27.5012 24.3738 27.5012C24.5949 27.5012 24.8069 27.4134 24.9633 27.2571C25.1197 27.1007 25.2075 26.8886 25.2075 26.6675V25.2088Z" fill="#43A1FF"/>
</svg>
