<svg width="20" height="20" viewBox="0 0 20 20" fill="none" xmlns="http://www.w3.org/2000/svg">
<path d="M16.58 4.104C15.436 2.8 12.98 2 10.004 2C7.028 2 4.572 2.8 3.428 4.104C1.524 6.312 1.524 13.704 3.428 15.896C4.572 17.2 7.028 18 10.004 18C12.98 18 15.436 17.2 16.58 15.896C18.484 13.688 18.484 6.312 16.58 4.104ZM10.004 5.8C10.2018 5.8 10.3951 5.85865 10.5596 5.96853C10.724 6.07841 10.8522 6.23459 10.9279 6.41732C11.0036 6.60004 11.0234 6.80111 10.9848 6.99509C10.9462 7.18907 10.851 7.36725 10.7111 7.50711C10.5713 7.64696 10.3931 7.7422 10.1991 7.78079C10.0051 7.81937 9.80404 7.79957 9.62132 7.72388C9.43859 7.64819 9.28241 7.52002 9.17253 7.35557C9.06265 7.19112 9.004 6.99778 9.004 6.8C9.004 6.53478 9.10936 6.28043 9.29689 6.09289C9.48443 5.90536 9.73878 5.8 10.004 5.8ZM10.804 14.4H9.204C8.99183 14.4 8.78834 14.3157 8.63831 14.1657C8.48829 14.0157 8.404 13.8122 8.404 13.6C8.404 13.3878 8.48829 13.1843 8.63831 13.0343C8.78834 12.8843 8.99183 12.8 9.204 12.8V10.4C8.99183 10.4 8.78834 10.3157 8.63831 10.1657C8.48829 10.0157 8.404 9.81217 8.404 9.6C8.404 9.38783 8.48829 9.18434 8.63831 9.03431C8.78834 8.88428 8.99183 8.8 9.204 8.8H10.004C10.2162 8.8 10.4197 8.88428 10.5697 9.03431C10.7197 9.18434 10.804 9.38783 10.804 9.6V12.8C11.0162 12.8 11.2197 12.8843 11.3697 13.0343C11.5197 13.1843 11.604 13.3878 11.604 13.6C11.604 13.8122 11.5197 14.0157 11.3697 14.1657C11.2197 14.3157 11.0162 14.4 10.804 14.4Z" fill="#003FDE"/>
</svg>
