<svg width="20" height="20" viewBox="0 0 20 20" fill="none" xmlns="http://www.w3.org/2000/svg">
<path d="M10 2.5C5.85771 2.5 2.5 5.85771 2.5 10C2.5 14.1423 5.85771 17.5 10 17.5C14.142 17.5 17.5 14.1423 17.5 10C17.5 5.85771 14.1423 2.5 10 2.5ZM9.54766 8.83164C9.59219 8.93184 9.67012 9.02324 9.78086 9.10645C9.8916 9.18965 10.0442 9.27432 10.2382 9.36045C10.7122 9.5667 11.1048 9.76855 11.4159 9.96543C11.7268 10.1626 11.9585 10.3882 12.1111 10.6422C12.2635 10.8962 12.3396 11.2126 12.3396 11.5914C12.3396 12.124 12.1703 12.5535 11.8316 12.8799C11.493 13.2062 11.0389 13.3987 10.469 13.4573V14.3948H9.72549V13.4664C9.32207 13.4263 8.96172 13.3202 8.64473 13.1477C8.32744 12.9754 8.079 12.7313 7.89883 12.4155C7.71865 12.1 7.63164 11.708 7.63779 11.2401L7.64717 11.217H9.23125C9.23125 11.4663 9.26816 11.669 9.34199 11.8243C9.41582 11.9799 9.51748 12.0938 9.64668 12.1662C9.77588 12.2386 9.92529 12.2746 10.0946 12.2746C10.2332 12.2746 10.3486 12.2462 10.4409 12.1891C10.5332 12.1322 10.6026 12.0528 10.6486 11.9512C10.6949 11.8495 10.7178 11.7326 10.7178 11.6002C10.7178 11.4432 10.6937 11.3107 10.6463 11.2029C10.5985 11.0951 10.52 10.999 10.4107 10.9144C10.3015 10.8297 10.1512 10.7459 9.96045 10.6627C9.47998 10.472 9.08535 10.281 8.77568 10.0899C8.46631 9.89922 8.2375 9.67598 8.08984 9.42022C7.94219 9.16475 7.86807 8.84453 7.86807 8.45957C7.86807 7.93633 8.04502 7.50596 8.39922 7.16875C8.75313 6.83154 9.22598 6.63525 9.81719 6.57988V5.60547H10.5561V6.60303C11.1104 6.68623 11.5498 6.91416 11.8747 7.28652C12.1996 7.65918 12.3572 8.13496 12.3481 8.71357L12.3619 8.75049H10.7594C10.7594 8.42119 10.697 8.17715 10.5725 8.01836C10.4477 7.85986 10.2854 7.78047 10.0853 7.78047C9.88516 7.78047 9.72666 7.84521 9.62793 7.97441C9.52949 8.10361 9.48027 8.27148 9.48027 8.47773C9.48027 8.61338 9.50254 8.73115 9.54736 8.83105L9.54766 8.83164Z" fill="#CC3030"/>
</svg>
