<svg width="52" height="52" viewBox="0 0 52 52" fill="none" xmlns="http://www.w3.org/2000/svg">
<g filter="url(#filter0_d_1999_14910)">
<rect x="6" y="2" width="40" height="40" rx="20" fill="#00288D"/>
<path d="M18.514 12C18.3779 12.0005 18.2474 12.0546 18.1511 12.1504C18.0548 12.2463 18.0005 12.3761 18 12.5117V31.4868C18 31.9074 18.4809 32.1496 18.8217 31.8977L22.5075 29.1764L26.1933 31.886C26.3744 32.0198 26.6217 32.0198 26.8047 31.886L30.4906 29.1764L34.1783 31.8977C34.5171 32.1496 35 31.9074 35 31.4868V12.5117C34.9995 12.3758 34.9449 12.2457 34.8482 12.1498C34.7515 12.0538 34.6205 12 34.484 12H18.514ZM26.501 15.3434C27.8661 15.346 29.1745 15.8869 30.1398 16.8478C31.105 17.8086 31.6484 19.1111 31.651 20.47C31.649 21.8295 31.1055 23.1328 30.1398 24.0941C29.174 25.0554 27.8648 25.5964 26.499 25.5985C25.1333 25.5964 23.824 25.0554 22.8583 24.0941C21.8926 23.1328 21.3491 21.8295 21.347 20.47C21.3496 19.1104 21.8936 17.8074 22.8597 16.8464C23.8258 15.8854 25.1352 15.3449 26.501 15.3434ZM26.501 16.3687C25.9594 16.3674 25.4229 16.4726 24.9222 16.6782C24.4215 16.8838 23.9666 17.1858 23.5834 17.5669C23.2003 17.9479 22.8965 18.4005 22.6895 18.8987C22.4824 19.3969 22.3763 19.9309 22.377 20.47C22.377 22.7435 24.217 24.5732 26.499 24.5732C27.0406 24.5742 27.5771 24.4688 28.0777 24.2629C28.5782 24.0571 29.033 23.7549 29.416 23.3736C29.799 22.9924 30.1025 22.5397 30.3093 22.0414C30.5161 21.5431 30.622 21.0091 30.621 20.47C30.6218 19.931 30.5157 19.3972 30.3088 18.8991C30.1019 18.4011 29.7982 17.9486 29.4153 17.5676C29.0324 17.1865 28.5776 16.8845 28.0772 16.6788C27.5768 16.4731 27.0424 16.3677 26.501 16.3687ZM29.0906 18.8496C29.2853 19.0551 29.2756 19.3788 29.0672 19.5726L26.3413 22.1175C26.2437 22.2077 26.1149 22.2569 25.9817 22.2547C25.8485 22.2526 25.7213 22.1992 25.6267 22.1058L23.9211 20.4099C23.8701 20.363 23.8292 20.3063 23.8008 20.2433C23.7723 20.1803 23.7569 20.1122 23.7555 20.0432C23.7541 19.9741 23.7668 19.9055 23.7926 19.8414C23.8185 19.7773 23.8571 19.719 23.9061 19.6701C23.9551 19.6212 24.0135 19.5826 24.0778 19.5567C24.1422 19.5308 24.2111 19.5181 24.2805 19.5193C24.3498 19.5205 24.4183 19.5356 24.4816 19.5637C24.545 19.5919 24.602 19.6325 24.6493 19.6831L26.0006 21.0282L28.3643 18.8244C28.4434 18.7543 28.5404 18.7073 28.6447 18.6888C28.7791 18.6577 28.966 18.714 29.0925 18.8477L29.0906 18.8496Z" fill="white"/>
</g>
<defs>
<filter id="filter0_d_1999_14910" x="0" y="0" width="52" height="52" filterUnits="userSpaceOnUse" color-interpolation-filters="sRGB">
<feFlood flood-opacity="0" result="BackgroundImageFix"/>
<feColorMatrix in="SourceAlpha" type="matrix" values="0 0 0 0 0 0 0 0 0 0 0 0 0 0 0 0 0 0 127 0" result="hardAlpha"/>
<feMorphology radius="2" operator="erode" in="SourceAlpha" result="effect1_dropShadow_1999_14910"/>
<feOffset dy="4"/>
<feGaussianBlur stdDeviation="4"/>
<feColorMatrix type="matrix" values="0 0 0 0 0 0 0 0 0 0.156863 0 0 0 0 0.552941 0 0 0 0.47 0"/>
<feBlend mode="normal" in2="BackgroundImageFix" result="effect1_dropShadow_1999_14910"/>
<feBlend mode="normal" in="SourceGraphic" in2="effect1_dropShadow_1999_14910" result="shape"/>
</filter>
</defs>
</svg>
