<svg width="52" height="52" viewBox="0 0 52 52" fill="none" xmlns="http://www.w3.org/2000/svg">
<g filter="url(#filter0_d_1999_14817)">
<rect x="6" y="2" width="40" height="40" rx="20" fill="#00288D"/>
<path d="M20.2745 16.5312C20.2745 19.0298 22.3152 21.0625 24.8235 21.0625C27.3319 21.0625 29.3725 19.0298 29.3725 16.5312C29.3725 14.0327 27.3319 12 24.8235 12C22.3152 12 20.2745 14.0327 20.2745 16.5312Z" fill="white"/>
<path d="M27.3611 21.6419C26.871 22.4411 26.5882 23.3797 26.5882 24.3828C26.5882 27.2906 28.9632 29.6562 31.8824 29.6562C32.5003 29.6562 33.0938 29.5499 33.6456 29.3551L33.6463 29.3939C33.6467 29.4162 33.6471 29.4386 33.6471 29.4609V31.4141C33.6471 31.7377 33.3837 32 33.0588 32H16.5882C16.2634 32 16 31.7377 16 31.4141V29.4609C16 27.1132 16.9178 24.9061 18.5844 23.2461C19.4661 22.3679 20.5015 21.6986 21.6302 21.2627C22.543 21.876 23.642 22.2344 24.8235 22.2344C25.7344 22.2344 26.5958 22.0205 27.3611 21.6419Z" fill="white"/>
<path fill-rule="evenodd" clip-rule="evenodd" d="M27.7647 24.3828C27.7647 22.1212 29.6119 20.2812 31.8824 20.2812C34.1528 20.2812 36 22.1212 36 24.3828C36 26.6444 34.1528 28.4844 31.8824 28.4844C29.6119 28.4844 27.7647 26.6444 27.7647 24.3828ZM32.4706 24.9688H33.0588C33.3837 24.9688 33.6471 24.7064 33.6471 24.3828C33.6471 24.0592 33.3837 23.7969 33.0588 23.7969H32.4706V23.2109C32.4706 22.8873 32.2072 22.625 31.8824 22.625C31.5575 22.625 31.2941 22.8873 31.2941 23.2109V23.7969H30.7059C30.381 23.7969 30.1176 24.0592 30.1176 24.3828C30.1176 24.7064 30.381 24.9688 30.7059 24.9688H31.2941V25.5547C31.2941 25.8783 31.5575 26.1406 31.8824 26.1406C32.2072 26.1406 32.4706 25.8783 32.4706 25.5547V24.9688Z" fill="white"/>
</g>
<defs>
<filter id="filter0_d_1999_14817" x="0" y="0" width="52" height="52" filterUnits="userSpaceOnUse" color-interpolation-filters="sRGB">
<feFlood flood-opacity="0" result="BackgroundImageFix"/>
<feColorMatrix in="SourceAlpha" type="matrix" values="0 0 0 0 0 0 0 0 0 0 0 0 0 0 0 0 0 0 127 0" result="hardAlpha"/>
<feMorphology radius="2" operator="erode" in="SourceAlpha" result="effect1_dropShadow_1999_14817"/>
<feOffset dy="4"/>
<feGaussianBlur stdDeviation="4"/>
<feColorMatrix type="matrix" values="0 0 0 0 0 0 0 0 0 0.156863 0 0 0 0 0.552941 0 0 0 0.47 0"/>
<feBlend mode="normal" in2="BackgroundImageFix" result="effect1_dropShadow_1999_14817"/>
<feBlend mode="normal" in="SourceGraphic" in2="effect1_dropShadow_1999_14817" result="shape"/>
</filter>
</defs>
</svg>
