<svg width="52" height="52" viewBox="0 0 52 52" fill="none" xmlns="http://www.w3.org/2000/svg">
<g filter="url(#filter0_d_1999_14903)">
<rect x="6" y="2" width="40" height="40" rx="20" fill="#00288D"/>
<path d="M31.9996 12H19.9999C19.2043 12 18.4413 12.3161 17.8787 12.8787C17.3161 13.4412 17 14.2043 17 14.9999V29.7995C16.9993 30.1375 17.0842 30.4702 17.2469 30.7665C17.4096 31.0628 17.6448 31.313 17.9304 31.4938C18.2161 31.6745 18.5429 31.78 18.8803 31.8002C19.2177 31.8204 19.5547 31.7548 19.8599 31.6094C20.0999 31.4894 20.3099 31.3594 20.5299 31.2294C20.953 30.9118 21.4709 30.7462 21.9999 30.7595C22.5319 30.7463 23.0529 30.9117 23.4798 31.2294C24.2182 31.7441 25.0998 32.0135 25.9997 31.9994C26.8998 32.0142 27.7816 31.7447 28.5197 31.2294C28.9462 30.911 29.4675 30.7455 29.9996 30.7595C30.5288 30.7446 31.0472 30.9103 31.4696 31.2294C31.6862 31.3646 31.9098 31.4881 32.1396 31.5994C32.444 31.7444 32.7801 31.8101 33.1167 31.7903C33.4533 31.7706 33.7795 31.6661 34.0648 31.4864C34.3502 31.3068 34.5855 31.058 34.7489 30.7631C34.9123 30.4681 34.9985 30.1367 34.9995 29.7995V14.9999C34.9995 14.2043 34.6834 13.4412 34.1208 12.8787C33.5582 12.3161 32.7952 12 31.9996 12ZM25.9997 25.9996H21.9999C21.7347 25.9996 21.4803 25.8942 21.2928 25.7067C21.1052 25.5192 20.9999 25.2648 20.9999 24.9996C20.9999 24.7344 21.1052 24.4801 21.2928 24.2925C21.4803 24.105 21.7347 23.9997 21.9999 23.9997H25.9997C26.265 23.9997 26.5193 24.105 26.7068 24.2925C26.8944 24.4801 26.9997 24.7344 26.9997 24.9996C26.9997 25.2648 26.8944 25.5192 26.7068 25.7067C26.5193 25.8942 26.265 25.9996 25.9997 25.9996ZM29.9996 21.9997H21.9999C21.7347 21.9997 21.4803 21.8944 21.2928 21.7068C21.1052 21.5193 20.9999 21.265 20.9999 20.9997C20.9999 20.7345 21.1052 20.4802 21.2928 20.2927C21.4803 20.1051 21.7347 19.9998 21.9999 19.9998H29.9996C30.2648 19.9998 30.5192 20.1051 30.7067 20.2927C30.8943 20.4802 30.9996 20.7345 30.9996 20.9997C30.9996 21.265 30.8943 21.5193 30.7067 21.7068C30.5192 21.8944 30.2648 21.9997 29.9996 21.9997ZM29.9996 17.9998H21.9999C21.7347 17.9998 21.4803 17.8945 21.2928 17.7069C21.1052 17.5194 20.9999 17.2651 20.9999 16.9999C20.9999 16.7346 21.1052 16.4803 21.2928 16.2928C21.4803 16.1052 21.7347 15.9999 21.9999 15.9999H29.9996C30.2648 15.9999 30.5192 16.1052 30.7067 16.2928C30.8943 16.4803 30.9996 16.7346 30.9996 16.9999C30.9996 17.2651 30.8943 17.5194 30.7067 17.7069C30.5192 17.8945 30.2648 17.9998 29.9996 17.9998Z" fill="white"/>
</g>
<defs>
<filter id="filter0_d_1999_14903" x="0" y="0" width="52" height="52" filterUnits="userSpaceOnUse" color-interpolation-filters="sRGB">
<feFlood flood-opacity="0" result="BackgroundImageFix"/>
<feColorMatrix in="SourceAlpha" type="matrix" values="0 0 0 0 0 0 0 0 0 0 0 0 0 0 0 0 0 0 127 0" result="hardAlpha"/>
<feMorphology radius="2" operator="erode" in="SourceAlpha" result="effect1_dropShadow_1999_14903"/>
<feOffset dy="4"/>
<feGaussianBlur stdDeviation="4"/>
<feColorMatrix type="matrix" values="0 0 0 0 0 0 0 0 0 0.156863 0 0 0 0 0.552941 0 0 0 0.47 0"/>
<feBlend mode="normal" in2="BackgroundImageFix" result="effect1_dropShadow_1999_14903"/>
<feBlend mode="normal" in="SourceGraphic" in2="effect1_dropShadow_1999_14903" result="shape"/>
</filter>
</defs>
</svg>
