<svg width="52" height="52" viewBox="0 0 52 52" fill="none" xmlns="http://www.w3.org/2000/svg">
<g filter="url(#filter0_d_2043_17082)">
<rect x="6" y="2" width="40" height="40" rx="20" fill="#00288D"/>
<path fill-rule="evenodd" clip-rule="evenodd" d="M18.3013 14.3013C19.7748 12.8278 21.7733 12 23.8571 12C25.9406 12.0013 27.9383 12.8296 29.4115 14.3028C30.8847 15.776 31.713 17.7737 31.7143 19.8571C31.7173 20.5821 31.6163 21.3037 31.4143 22H31.3571C29.9363 22 28.5737 22.5644 27.5691 23.5691C26.5644 24.5737 26 25.9363 26 27.3571V27.4143C25.3037 27.6163 24.5821 27.7173 23.8571 27.7143C21.7733 27.7143 19.7748 26.8865 18.3013 25.413C16.8278 23.9395 16 21.941 16 19.8571C16 17.7733 16.8278 15.7748 18.3013 14.3013ZM25.2373 19.6446C24.8509 19.3197 24.362 19.1419 23.8571 19.1429C23.7159 19.1429 23.5778 19.101 23.4603 19.0225C23.3428 18.944 23.2513 18.8324 23.1972 18.7019C23.1432 18.5714 23.129 18.4278 23.1566 18.2892C23.1841 18.1507 23.2522 18.0234 23.3521 17.9235C23.452 17.8236 23.5792 17.7556 23.7178 17.728C23.8563 17.7004 24 17.7146 24.1305 17.7687C24.261 17.8227 24.3726 17.9143 24.451 18.0317C24.5295 18.1492 24.5714 18.2873 24.5714 18.4286C24.5714 18.618 24.6467 18.7997 24.7806 18.9336C24.9146 19.0676 25.0963 19.1429 25.2857 19.1429C25.4752 19.1429 25.6568 19.0676 25.7908 18.9336C25.9247 18.7997 26 18.618 26 18.4286C25.9982 17.987 25.8599 17.5567 25.6042 17.1966C25.3485 16.8366 24.9878 16.5643 24.5714 16.4171V16.0479C24.5714 15.8584 24.4962 15.6767 24.3622 15.5428C24.2283 15.4088 24.0466 15.3336 23.8571 15.3336C23.6677 15.3336 23.486 15.4088 23.3521 15.5428C23.2181 15.6767 23.1429 15.8584 23.1429 16.0479V16.4171C22.6667 16.5849 22.2652 16.9157 22.0095 17.3511C21.7539 17.7865 21.6606 18.2983 21.7462 18.7958C21.8317 19.2934 22.0906 19.7447 22.477 20.0696C22.8633 20.3946 23.3523 20.5724 23.8571 20.5714C23.9984 20.5714 24.1365 20.6133 24.254 20.6918C24.3714 20.7703 24.463 20.8818 24.5171 21.0124C24.5711 21.1429 24.5853 21.2865 24.5577 21.4251C24.5301 21.5636 24.4621 21.6909 24.3622 21.7908C24.2623 21.8907 24.135 21.9587 23.9965 21.9863C23.8579 22.0138 23.7143 21.9997 23.5838 21.9456C23.4533 21.8916 23.3417 21.8 23.2632 21.6825C23.1847 21.5651 23.1429 21.427 23.1429 21.2857C23.1429 21.0963 23.0676 20.9146 22.9336 20.7806C22.7997 20.6467 22.618 20.5714 22.4286 20.5714C22.2391 20.5714 22.0574 20.6467 21.9235 20.7806C21.7895 20.9146 21.7143 21.0963 21.7143 21.2857C21.7161 21.7273 21.8543 22.1576 22.1101 22.5176C22.3658 22.8777 22.7265 23.1499 23.1429 23.2971V23.6664C23.1429 23.8559 23.2181 24.0375 23.3521 24.1715C23.486 24.3055 23.6677 24.3807 23.8571 24.3807C24.0466 24.3807 24.2283 24.3055 24.3622 24.1715C24.4962 24.0375 24.5714 23.8559 24.5714 23.6664V23.2971C25.0476 23.1294 25.4491 22.7986 25.7047 22.3632C25.9604 21.9278 26.0537 21.416 25.9681 20.9184C25.8826 20.4209 25.6237 19.9696 25.2373 19.6446Z" fill="white"/>
<path fill-rule="evenodd" clip-rule="evenodd" d="M28.7777 23.4967C29.5412 22.9866 30.4389 22.7143 31.3571 22.7143C32.588 22.7158 33.7681 23.2054 34.6385 24.0758C35.5088 24.9462 35.9985 26.1262 36 27.3571C36 28.2754 35.7277 29.1731 35.2175 29.9366C34.7074 30.7001 33.9823 31.2952 33.1339 31.6466C32.2855 31.998 31.352 32.0899 30.4514 31.9108C29.5507 31.7316 28.7235 31.2894 28.0741 30.6401C27.4248 29.9908 26.9826 29.1635 26.8035 28.2629C26.6244 27.3623 26.7163 26.4288 27.0677 25.5804C27.4191 24.732 28.0142 24.0069 28.7777 23.4967ZM31.3857 28.815L33.2907 26.91C33.3571 26.8437 33.4097 26.7649 33.4457 26.6783C33.4816 26.5916 33.5001 26.4987 33.5001 26.4049C33.5002 26.3111 33.4817 26.2182 33.4459 26.1315C33.41 26.0448 33.3574 25.966 33.2911 25.8996C33.2248 25.8333 33.146 25.7806 33.0593 25.7447C32.9727 25.7088 32.8798 25.6902 32.786 25.6902C32.6921 25.6902 32.5992 25.7086 32.5125 25.7445C32.4259 25.7804 32.3471 25.833 32.2807 25.8993L30.8807 27.2993L30.4336 26.8521C30.2989 26.722 30.1184 26.65 29.9311 26.6517C29.7439 26.6533 29.5647 26.7284 29.4323 26.8608C29.2998 26.9933 29.2247 27.1724 29.2231 27.3597C29.2215 27.547 29.2935 27.7274 29.4236 27.8621L30.3757 28.815C30.5097 28.9489 30.6913 29.0241 30.8807 29.0241C31.0701 29.0241 31.2518 28.9489 31.3857 28.815Z" fill="white"/>
</g>
<defs>
<filter id="filter0_d_2043_17082" x="0" y="0" width="52" height="52" filterUnits="userSpaceOnUse" color-interpolation-filters="sRGB">
<feFlood flood-opacity="0" result="BackgroundImageFix"/>
<feColorMatrix in="SourceAlpha" type="matrix" values="0 0 0 0 0 0 0 0 0 0 0 0 0 0 0 0 0 0 127 0" result="hardAlpha"/>
<feMorphology radius="2" operator="erode" in="SourceAlpha" result="effect1_dropShadow_2043_17082"/>
<feOffset dy="4"/>
<feGaussianBlur stdDeviation="4"/>
<feColorMatrix type="matrix" values="0 0 0 0 0 0 0 0 0 0.156863 0 0 0 0 0.552941 0 0 0 0.47 0"/>
<feBlend mode="normal" in2="BackgroundImageFix" result="effect1_dropShadow_2043_17082"/>
<feBlend mode="normal" in="SourceGraphic" in2="effect1_dropShadow_2043_17082" result="shape"/>
</filter>
</defs>
</svg>
