<svg width="40" height="40" viewBox="0 0 40 40" fill="none" xmlns="http://www.w3.org/2000/svg">
<rect width="40" height="40" rx="20" fill="#FAFAFA"/>
<path d="M29.9791 26.8105L26.6868 15.1656C26.6515 15.0406 26.5731 14.9302 26.4638 14.8513C26.3545 14.7725 26.2205 14.7298 26.0826 14.7298H22.4872C24.0746 12.8252 22.6331 10 20.0242 10C17.4149 10 15.974 12.8255 17.5611 14.7297H13.7141C13.5745 14.7297 13.4389 14.7735 13.3289 14.8542C13.219 14.9348 13.141 15.0476 13.1074 15.1746L10.0184 26.8497C9.98283 26.9841 9.99917 27.1259 10.0645 27.2501L11.3402 29.6734C11.3918 29.7714 11.4716 29.854 11.5707 29.9117C11.6698 29.9694 11.7841 30 11.9007 30H28.1518C28.2707 30 28.3871 29.9682 28.4874 29.9084C28.5877 29.8485 28.6677 29.7631 28.7181 29.6621L29.9412 27.2086C30.0033 27.0842 30.0167 26.9432 29.9791 26.8105ZM20.0242 11.1719C21.0581 11.1719 21.8993 11.9604 21.8993 12.9297C21.8993 13.8989 21.0581 14.6875 20.0242 14.6875C18.9902 14.6875 18.149 13.8989 18.149 12.9297C18.149 11.9604 18.9902 11.1719 20.0242 11.1719ZM20.6145 25.5507V25.8437C20.6145 26.1673 20.3346 26.4296 19.9894 26.4296C19.6442 26.4296 19.3644 26.1673 19.3644 25.8437V25.5942C18.8938 25.52 18.4483 25.3568 18.1087 25.1486C17.8199 24.9714 17.7389 24.6083 17.9279 24.3375C18.1168 24.0666 18.5042 23.9908 18.7931 24.1679C19.268 24.4591 20.012 24.5538 20.4179 24.3748C20.7158 24.2434 20.9385 23.9659 20.9721 23.6842C21.0418 23.0981 20.332 22.8352 19.7885 22.6339C19.2204 22.4236 18.5764 22.1852 18.207 21.5598C17.6716 20.6537 18.1809 19.4157 19.3644 19.075V18.8281C19.3644 18.5045 19.6442 18.2422 19.9894 18.2422C20.3346 18.2422 20.6145 18.5045 20.6145 18.8281V19.0336C20.9894 19.1104 21.3399 19.2665 21.6082 19.4984C21.862 19.7178 21.8779 20.0885 21.6439 20.3264C21.4098 20.5643 21.0144 20.5793 20.7606 20.3598C20.512 20.1449 19.8774 20.0652 19.544 20.2753C19.2806 20.4413 19.1691 20.7696 19.3005 20.992C19.5861 21.4754 20.6045 21.5231 21.3949 22.1005C22.8799 23.1854 22.2187 25.1305 20.6145 25.5507Z" fill="#CC3030"/>
</svg>
