<svg width="40" height="40" viewBox="0 0 40 40" fill="none" xmlns="http://www.w3.org/2000/svg">
<rect width="40" height="40" rx="20" fill="#FAFAFA"/>
<path d="M25.3333 11H14.6667C13.9594 11 13.2811 11.2845 12.7811 11.7908C12.281 12.2971 12 12.9839 12 13.6999V27.0195C11.9994 27.3238 12.0749 27.6232 12.2195 27.8899C12.3641 28.1565 12.5732 28.3817 12.8271 28.5444C13.081 28.7071 13.3715 28.802 13.6714 28.8202C13.9713 28.8384 14.2709 28.7793 14.5422 28.6485C14.7556 28.5405 14.9422 28.4235 15.1378 28.3065C15.5139 28.0206 15.9743 27.8716 16.4444 27.8835C16.9173 27.8716 17.3805 28.0206 17.76 28.3065C18.4164 28.7697 19.2 29.0121 20 28.9995C20.8001 29.0127 21.5839 28.7703 22.24 28.3065C22.6192 28.0199 23.0826 27.8709 23.5556 27.8835C24.0259 27.8701 24.4868 28.0193 24.8622 28.3065C25.0548 28.4281 25.2536 28.5393 25.4578 28.6395C25.7284 28.77 26.0272 28.8291 26.3264 28.8113C26.6256 28.7935 26.9155 28.6994 27.1692 28.5378C27.4228 28.3762 27.632 28.1522 27.7773 27.8868C27.9225 27.6213 27.9992 27.323 28 27.0195V13.6999C28 12.9839 27.719 12.2971 27.219 11.7908C26.7189 11.2845 26.0406 11 25.3333 11ZM20 23.5996H16.4444C16.2087 23.5996 15.9826 23.5048 15.8159 23.336C15.6492 23.1673 15.5556 22.9384 15.5556 22.6997C15.5556 22.461 15.6492 22.2321 15.8159 22.0633C15.9826 21.8945 16.2087 21.7997 16.4444 21.7997H20C20.2358 21.7997 20.4618 21.8945 20.6285 22.0633C20.7952 22.2321 20.8889 22.461 20.8889 22.6997C20.8889 22.9384 20.7952 23.1673 20.6285 23.336C20.4618 23.5048 20.2358 23.5996 20 23.5996ZM23.5556 19.9997H16.4444C16.2087 19.9997 15.9826 19.9049 15.8159 19.7361C15.6492 19.5674 15.5556 19.3385 15.5556 19.0998C15.5556 18.8611 15.6492 18.6322 15.8159 18.4634C15.9826 18.2946 16.2087 18.1998 16.4444 18.1998H23.5556C23.7913 18.1998 24.0174 18.2946 24.1841 18.4634C24.3508 18.6322 24.4444 18.8611 24.4444 19.0998C24.4444 19.3385 24.3508 19.5674 24.1841 19.7361C24.0174 19.9049 23.7913 19.9997 23.5556 19.9997ZM23.5556 16.3998H16.4444C16.2087 16.3998 15.9826 16.305 15.8159 16.1362C15.6492 15.9675 15.5556 15.7386 15.5556 15.4999C15.5556 15.2612 15.6492 15.0323 15.8159 14.8635C15.9826 14.6947 16.2087 14.5999 16.4444 14.5999H23.5556C23.7913 14.5999 24.0174 14.6947 24.1841 14.8635C24.3508 15.0323 24.4444 15.2612 24.4444 15.4999C24.4444 15.7386 24.3508 15.9675 24.1841 16.1362C24.0174 16.305 23.7913 16.3998 23.5556 16.3998Z" fill="#0047F9"/>
</svg>
