<svg width="40" height="40" viewBox="0 0 40 40" fill="none" xmlns="http://www.w3.org/2000/svg">
<rect width="40" height="40" rx="20" fill="#FAFAFA"/>
<path fill-rule="evenodd" clip-rule="evenodd" d="M19.7499 10.0516L13.3863 11.607C12.9909 11.7037 12.6393 11.9303 12.3879 12.2506C12.1366 12.5709 12 12.9662 12 13.3734V21.1024C11.9999 22.6021 12.4209 24.0717 13.215 25.3439C14.0091 26.6162 15.1444 27.6399 16.4918 28.2986L19.7826 29.9077C19.9069 29.9684 20.0434 30 20.1817 30C20.32 30 20.4565 29.9684 20.5808 29.9077L23.8717 28.2986C25.219 27.6399 26.3543 26.6162 27.1484 25.3439C27.9425 24.0717 28.3635 22.6021 28.3635 21.1024V13.3734C28.3635 12.9662 28.2269 12.5709 27.9755 12.2506C27.7242 11.9303 27.3726 11.7037 26.9771 11.607L20.6135 10.0525C20.3298 9.98312 20.0336 9.98221 19.7499 10.0516ZM24.4608 17.9151C24.6264 17.7437 24.718 17.514 24.7159 17.2757C24.7139 17.0373 24.6182 16.8093 24.4497 16.6408C24.2811 16.4722 24.0531 16.3766 23.8148 16.3745C23.5764 16.3725 23.3468 16.4641 23.1753 16.6297L19.2726 20.5324L17.1881 18.4478C17.1043 18.361 17.004 18.2918 16.893 18.2441C16.7821 18.1965 16.6628 18.1714 16.5421 18.1703C16.4214 18.1693 16.3017 18.1923 16.19 18.238C16.0783 18.2837 15.9768 18.3512 15.8914 18.4366C15.8061 18.5219 15.7386 18.6234 15.6928 18.7352C15.6471 18.8469 15.6241 18.9666 15.6252 19.0873C15.6262 19.208 15.6513 19.3273 15.699 19.4382C15.7466 19.5491 15.8159 19.6494 15.9027 19.7333L18.6299 22.4605C18.8004 22.631 19.0316 22.7267 19.2726 22.7267C19.5137 22.7267 19.7449 22.631 19.9154 22.4605L24.4608 17.9151Z" fill="#0047F9"/>
</svg>
