<svg width="40" height="40" viewBox="0 0 40 40" fill="none" xmlns="http://www.w3.org/2000/svg">
<rect width="40" height="40" rx="20" fill="#FAFAFA"/>
<path d="M29.7921 20.2293C29.9761 19.9774 30.1067 19.6906 30.1759 19.3864C30.2451 19.0823 30.2514 18.7672 30.1945 18.4605C30.1425 18.1517 30.0286 17.8565 29.8598 17.5928C29.6909 17.329 29.4705 17.1021 29.2118 16.9256L27.8454 15.9991C27.7887 15.9599 27.7415 15.9085 27.7074 15.8485C27.6734 15.7885 27.6534 15.7216 27.6489 15.6528L27.5272 14.015C27.5052 13.7028 27.4201 13.3983 27.2769 13.12C27.1337 12.8417 26.9355 12.5953 26.6943 12.3959C26.455 12.1939 26.1777 12.0418 25.8787 11.9486C25.5798 11.8554 25.2652 11.8229 24.9535 11.8531L23.3251 12.0215C23.2545 12.0308 23.1828 12.0228 23.116 11.9984C23.0492 11.9739 22.9893 11.9337 22.9414 11.8812L21.7902 10.7019C21.5715 10.4796 21.3108 10.3031 21.0232 10.1826C20.7355 10.0621 20.4268 10 20.115 10C19.8031 10 19.4944 10.0621 19.2068 10.1826C18.9192 10.3031 18.6584 10.4796 18.4397 10.7019L17.2886 11.8812C17.2407 11.9337 17.1807 11.9739 17.1139 11.9984C17.0471 12.0228 16.9754 12.0308 16.9049 12.0215L15.2764 11.8531C14.965 11.8236 14.6508 11.8563 14.3522 11.9493C14.0536 12.0424 13.7764 12.1939 13.5369 12.3951C13.2974 12.5963 13.1003 12.8432 12.9571 13.1213C12.8139 13.3994 12.7274 13.7032 12.7027 14.015L12.5811 15.6528C12.5757 15.7238 12.5544 15.7926 12.5188 15.8542C12.4831 15.9158 12.434 15.9685 12.3752 16.0084L11.0181 16.935C10.7611 17.111 10.5418 17.3366 10.373 17.5985C10.2043 17.8604 10.0895 18.1533 10.0355 18.4602C9.98144 18.767 9.9892 19.0815 10.0583 19.3853C10.1274 19.6891 10.2564 19.976 10.4379 20.2293L11.4018 21.5676C11.4424 21.6254 11.4694 21.6916 11.4807 21.7613C11.4921 21.831 11.4875 21.9024 11.4674 21.9701L11.0181 23.5517C10.9349 23.8532 10.9127 24.1683 10.9529 24.4784C10.9931 24.7886 11.0948 25.0876 11.2521 25.358C11.4078 25.6287 11.6165 25.8652 11.8658 26.0534C12.115 26.2415 12.3997 26.3774 12.7027 26.453L14.2937 26.8554C14.3618 26.8725 14.4251 26.9051 14.4787 26.9505C14.5322 26.9959 14.5746 27.053 14.6026 27.1175L15.2764 28.6149C15.4042 28.9008 15.588 29.1581 15.8171 29.3716C16.0461 29.5851 16.3157 29.7504 16.6098 29.8577C16.904 29.9651 17.2167 30.0123 17.5294 29.9965C17.8421 29.9808 18.1485 29.9024 18.4304 29.766L19.9091 29.0547C19.9729 29.0224 20.0434 29.0056 20.115 29.0056C20.1865 29.0056 20.257 29.0224 20.3209 29.0547L21.7996 29.766C22.1141 29.9205 22.4599 30.0006 22.8103 30C23.0847 29.9998 23.357 29.9523 23.6152 29.8596C23.9097 29.7513 24.1797 29.5855 24.4095 29.3718C24.6392 29.1581 24.8242 28.9008 24.9535 28.6149L25.6274 27.1175C25.6553 27.053 25.6977 26.9959 25.7513 26.9505C25.8048 26.9051 25.8681 26.8725 25.9362 26.8554L27.5272 26.453C27.8302 26.3767 28.1148 26.2403 28.3641 26.052C28.6134 25.8637 28.8223 25.6273 28.9785 25.3567C29.1348 25.0861 29.2351 24.787 29.2735 24.4769C29.312 24.1669 29.2878 23.8523 29.2025 23.5517L28.7626 21.9701C28.7424 21.9024 28.7379 21.831 28.7492 21.7613C28.7606 21.6916 28.7875 21.6254 28.8281 21.5676L29.7921 20.2293ZM24.392 18.4885L20.0495 22.8311C19.6605 23.2149 19.136 23.4301 18.5895 23.4301C18.043 23.4301 17.5185 23.2149 17.1295 22.8311L15.838 21.5396C15.7423 21.4455 15.6664 21.3333 15.6145 21.2096C15.5626 21.0859 15.5359 20.9531 15.5359 20.8189C15.5359 20.6848 15.5626 20.552 15.6145 20.4282C15.6664 20.3045 15.7423 20.1923 15.838 20.0983C16.0303 19.9094 16.2891 19.8036 16.5586 19.8036C16.8281 19.8036 17.0869 19.9094 17.2792 20.0983L18.5708 21.3898L22.9601 17.0473C23.1512 16.8574 23.4099 16.7512 23.6793 16.7521C23.9488 16.753 24.2068 16.8608 24.3967 17.052C24.5866 17.2431 24.6927 17.5018 24.6919 17.7712C24.691 18.0406 24.5831 18.2987 24.392 18.4885Z" fill="#27A55D"/>
</svg>
