<svg width="40" height="40" viewBox="0 0 40 40" fill="none" xmlns="http://www.w3.org/2000/svg">
<rect width="40" height="40" rx="20" fill="#FAFAFA"/>
<path fill-rule="evenodd" clip-rule="evenodd" d="M15.7784 16.04C14.4159 17.304 13.4467 18.6858 12.8182 20.2625C11.796 22.8277 11.7268 25.3756 12.6377 26.9133C13.221 27.898 14.1871 28.4813 15.5094 28.6479L22.1724 28.6772C22.3171 28.6638 22.4585 28.6453 22.5976 28.6231C22.4077 28.3672 22.2417 28.0945 22.1015 27.8083C21.3858 26.3474 21.2998 24.4358 21.2761 22.7583C21.275 22.6896 21.2945 22.6222 21.332 22.5646C21.3696 22.5071 21.4235 22.4621 21.4868 22.4354L25.3057 20.8204C25.3189 20.815 25.3324 20.8103 25.3462 20.8066C24.631 18.895 23.4333 17.116 22.1248 16.0401L15.7784 16.04ZM17.4836 21.2865C17.4919 20.746 17.8586 20.2629 18.4187 20.0553C18.5106 20.0212 18.605 19.994 18.7009 19.9737V19.5281C18.7009 19.4365 18.7373 19.3487 18.8021 19.2839C18.8669 19.2192 18.9547 19.1828 19.0463 19.1828C19.1379 19.1828 19.2257 19.2192 19.2905 19.2839C19.3552 19.3487 19.3916 19.4365 19.3916 19.5281V19.965C19.9734 20.0764 20.4691 20.4909 20.7112 21.1298C20.7276 21.1723 20.7354 21.2176 20.7342 21.2631C20.7331 21.3086 20.7229 21.3534 20.7043 21.395C20.6857 21.4365 20.6591 21.474 20.626 21.5053C20.5929 21.5365 20.554 21.5609 20.5114 21.577C20.4688 21.5932 20.4235 21.6007 20.378 21.5993C20.3325 21.5978 20.2877 21.5874 20.2463 21.5686C20.2048 21.5497 20.1675 21.5229 20.1364 21.4896C20.1054 21.4563 20.0812 21.4172 20.0654 21.3745C19.8285 20.7486 19.2629 20.4787 18.6589 20.7028C18.3727 20.809 18.1775 21.0478 18.1741 21.2968C18.1702 21.5351 18.342 21.7372 18.6574 21.8667C18.8305 21.9234 19.0088 21.9625 19.1897 21.9834C19.5952 22.0442 20.054 22.1129 20.4529 22.592C20.7521 22.9517 20.8349 23.411 20.6737 23.8216C20.4881 24.2956 20.0266 24.6245 19.4399 24.7005C19.4241 24.7027 19.4075 24.7044 19.3911 24.7061V25.1223C19.3901 25.2133 19.3533 25.3001 19.2886 25.3641C19.2239 25.4281 19.1366 25.464 19.0457 25.464C18.9547 25.464 18.8674 25.4281 18.8027 25.3641C18.7381 25.3001 18.7012 25.2133 18.7002 25.1223V24.6819C18.057 24.5641 17.4624 24.1687 17.2885 23.4111C17.2687 23.3221 17.2848 23.2289 17.3334 23.1518C17.3821 23.0746 17.4592 23.0199 17.5481 22.9994C17.6369 22.979 17.7302 22.9945 17.8077 23.0426C17.8852 23.0907 17.9405 23.1674 17.9615 23.2561C18.1067 23.8868 18.7637 24.0923 19.3503 24.0159C19.6789 23.9732 19.9396 23.8022 20.0307 23.5695C20.1003 23.3921 20.0614 23.2018 19.9219 23.0342C19.6909 22.7571 19.4375 22.7191 19.087 22.6664C18.8577 22.6391 18.632 22.5878 18.4135 22.5132L18.4032 22.5093C17.8187 22.2727 17.475 21.8155 17.4828 21.2867L17.4836 21.2865ZM17.2013 13.4368H20.8824C22.0544 12.9429 22.6144 11.8935 22.5941 10.2285C22.5939 10.2189 22.5913 10.2095 22.5865 10.2013C22.5817 10.193 22.5749 10.1861 22.5667 10.1811C22.5585 10.1761 22.5492 10.1733 22.5397 10.1729C22.5301 10.1725 22.5206 10.1745 22.5121 10.1788C21.2609 10.815 20.1407 10.7594 19.1818 10.0134C19.1729 10.0053 19.1615 10.0006 19.1495 10.0001C19.1375 9.99951 19.1257 10.0032 19.1162 10.0104C18.0132 10.7287 16.9308 10.8069 15.8999 10.2422C15.8913 10.2375 15.8817 10.2351 15.8719 10.2352C15.8621 10.2354 15.8525 10.2381 15.844 10.2431C15.8356 10.2481 15.8286 10.2552 15.8237 10.2637C15.8188 10.2722 15.8163 10.2819 15.8163 10.2917C15.8181 11.917 16.2713 12.9458 17.2013 13.4366V13.4368ZM22.8695 14.1275H15.1318C15.0439 14.1277 14.9597 14.1627 14.8977 14.2249C14.8356 14.287 14.8007 14.3713 14.8006 14.4591V15.0182C14.8006 15.1059 14.8355 15.1901 14.8975 15.2522C14.9596 15.3143 15.0438 15.3492 15.1315 15.3493H22.8694C22.9572 15.3492 23.0414 15.3143 23.1035 15.2522C23.1655 15.1902 23.2004 15.106 23.2005 15.0182V14.4591C23.2004 14.3713 23.1654 14.287 23.1033 14.2249C23.0412 14.1628 22.957 14.1278 22.8692 14.1276L22.8695 14.1275ZM25.4401 21.5131L28.9072 22.9835C29.056 25.3726 28.0903 28.4985 25.9439 29.7712C25.7998 29.857 25.6503 29.9334 25.4964 30C24.1214 29.3525 23.2381 28.5568 22.7219 27.5042C22.1002 26.2358 21.9985 24.5241 21.9703 22.9803L25.4401 21.5131ZM25.2737 25.7083C25.3074 25.7086 25.3399 25.6954 25.3639 25.6717C25.6186 25.4169 25.8722 25.1617 26.1246 24.9058C26.3784 24.649 26.6328 24.3927 26.8878 24.137C26.9526 24.0722 27.0405 24.0359 27.1321 24.0359C27.2237 24.0359 27.3115 24.0724 27.3763 24.1372C27.441 24.202 27.4774 24.2898 27.4773 24.3814C27.4773 24.473 27.4409 24.5609 27.3761 24.6256C27.1218 24.8803 26.8684 25.1356 26.6159 25.3915C26.362 25.6479 26.1075 25.9041 25.8526 26.1599C25.6988 26.3131 25.4907 26.3991 25.2737 26.3991C25.0566 26.3991 24.8485 26.3131 24.6947 26.1599C24.5704 26.0356 24.4439 25.8932 24.3217 25.755C24.1967 25.6143 24.067 25.4683 23.9384 25.3397C23.9063 25.3076 23.8809 25.2695 23.8635 25.2277C23.8461 25.1858 23.8372 25.1409 23.8371 25.0955C23.8371 25.0501 23.846 25.0052 23.8634 24.9633C23.8807 24.9214 23.9061 24.8833 23.9382 24.8512C23.9702 24.8191 24.0083 24.7937 24.0502 24.7763C24.0921 24.7589 24.137 24.75 24.1823 24.75C24.2277 24.7499 24.2726 24.7588 24.3145 24.7762C24.3564 24.7935 24.3945 24.8189 24.4266 24.851C24.5699 24.9948 24.7065 25.148 24.838 25.2968C24.9594 25.4328 25.0735 25.5619 25.183 25.6716C25.2072 25.6952 25.2398 25.7084 25.2737 25.7083Z" fill="#0047F9"/>
</svg>
