<svg width="40" height="40" viewBox="0 0 40 40" fill="none" xmlns="http://www.w3.org/2000/svg">
<rect width="40" height="40" rx="20" fill="#FAFAFA"/>
<path fill-rule="evenodd" clip-rule="evenodd" d="M13.2143 17.8572H28.2142C28.6876 17.8578 29.1415 18.0461 29.4763 18.3808C29.811 18.7156 29.9993 19.1695 29.9999 19.6429V28.2143C29.9993 28.6877 29.811 29.1416 29.4763 29.4764C29.1415 29.8111 28.6876 29.9994 28.2142 30H13.2143C12.7408 29.9994 12.287 29.8111 11.9522 29.4764C11.6175 29.1416 11.4291 28.6877 11.4286 28.2143V27.1429H15.3571C15.8305 27.1423 16.2844 26.954 16.6192 26.6192C16.9539 26.2845 17.1423 25.8306 17.1428 25.3572V22.5C17.1423 22.0266 16.9539 21.5727 16.6192 21.238C16.2844 20.9032 15.8305 20.7149 15.3571 20.7143H11.4286V19.6429C11.4291 19.1695 11.6175 18.7156 11.9522 18.3808C12.287 18.0461 12.7408 17.8578 13.2143 17.8572ZM23.9285 28.5714H26.0714C26.1661 28.5714 26.2569 28.5338 26.3239 28.4668C26.3909 28.3999 26.4285 28.309 26.4285 28.2143C26.4285 28.1196 26.3909 28.0287 26.3239 27.9618C26.2569 27.8948 26.1661 27.8572 26.0714 27.8572H23.9285C23.8338 27.8572 23.7429 27.8948 23.676 27.9618C23.609 28.0287 23.5714 28.1196 23.5714 28.2143C23.5714 28.309 23.609 28.3999 23.676 28.4668C23.7429 28.5338 23.8338 28.5714 23.9285 28.5714ZM27.4999 28.5714H28.2142C28.3089 28.5714 28.3998 28.5338 28.4667 28.4668C28.5337 28.3999 28.5713 28.309 28.5713 28.2143C28.5713 28.1196 28.5337 28.0287 28.4667 27.9618C28.3998 27.8948 28.3089 27.8572 28.2142 27.8572H27.4999C27.4052 27.8572 27.3144 27.8948 27.2474 27.9618C27.1804 28.0287 27.1428 28.1196 27.1428 28.2143C27.1428 28.309 27.1804 28.3999 27.2474 28.4668C27.3144 28.5338 27.4052 28.5714 27.4999 28.5714Z" fill="#0047F9"/>
<path d="M17.3378 17.1429H13.9689C14.7275 16.1979 15.3795 15.172 15.9132 14.084C16.1627 13.5717 16.3864 13.0472 16.5835 12.5126C16.7751 11.988 16.9392 11.4538 17.0753 10.9122C17.0917 10.8692 17.1177 10.8305 17.1514 10.799C17.1769 10.7759 17.2061 10.7572 17.2378 10.7437C17.3276 10.7089 17.4258 10.7019 17.5196 10.7237L21.1878 11.5312C20.7411 12.4109 20.2452 13.2647 19.7025 14.0886C18.9896 15.1629 18.1993 16.1837 17.3378 17.1429Z" fill="#0047F9"/>
<path d="M29.9528 12.9747C29.8406 13.2397 28.9053 14.8929 27.5956 17.1429H18.2857C19.0104 16.2983 19.6825 15.41 20.2982 14.4829C21.2044 13.1126 21.9845 11.6628 22.6289 10.1515C22.6781 10.0871 22.7464 10.0398 22.824 10.0164C22.9017 9.99301 22.9847 9.99467 23.0614 10.0212L29.7542 12.4383C29.8058 12.4571 29.8527 12.487 29.8916 12.5258C29.9305 12.5646 29.9605 12.6114 29.9795 12.6629C30.0102 12.7665 30.0007 12.8779 29.9528 12.9747Z" fill="#0047F9"/>
<path d="M13.9286 24.2857C14.1258 24.2857 14.2857 24.1258 14.2857 23.9286C14.2857 23.7313 14.1258 23.5715 13.9286 23.5715C13.7313 23.5715 13.5714 23.7313 13.5714 23.9286C13.5714 24.1258 13.7313 24.2857 13.9286 24.2857Z" fill="#0047F9"/>
<path fill-rule="evenodd" clip-rule="evenodd" d="M10.3138 26.1148C10.5147 26.3157 10.7873 26.4286 11.0714 26.4286H15.3571C15.6413 26.4286 15.9138 26.3157 16.1147 26.1148C16.3157 25.9138 16.4285 25.6413 16.4285 25.3572V22.5C16.4285 22.2159 16.3157 21.9433 16.1147 21.7424C15.9138 21.5415 15.6413 21.4286 15.3571 21.4286H11.0714C10.7873 21.4286 10.5147 21.5415 10.3138 21.7424C10.1129 21.9433 10 22.2159 10 22.5V25.3572C10 25.6413 10.1129 25.9138 10.3138 26.1148ZM13.9286 22.8572C14.1405 22.8572 14.3476 22.92 14.5238 23.0377C14.7 23.1555 14.8373 23.3228 14.9184 23.5186C14.9995 23.7144 15.0207 23.9298 14.9794 24.1376C14.938 24.3455 14.836 24.5364 14.6862 24.6862C14.5363 24.836 14.3454 24.9381 14.1376 24.9794C13.9297 25.0208 13.7143 24.9996 13.5185 24.9185C13.3228 24.8374 13.1554 24.7 13.0377 24.5238C12.92 24.3476 12.8571 24.1405 12.8571 23.9286C12.8571 23.6444 12.97 23.3719 13.1709 23.171C13.3719 22.9701 13.6444 22.8572 13.9286 22.8572Z" fill="#0047F9"/>
</svg>
