<svg width="52" height="53" viewBox="0 0 52 53" fill="none" xmlns="http://www.w3.org/2000/svg">
<g filter="url(#filter0_d_1999_14661)">
<rect x="6" y="2.5" width="40" height="40" rx="20" fill="#DA1E28"/>
<path d="M27.4658 22.5001L33.6959 16.2697C34.1014 15.8645 34.1014 15.2092 33.6959 14.804C33.2907 14.3987 32.6354 14.3987 32.2302 14.804L25.9999 21.0343L19.7698 14.804C19.3644 14.3987 18.7094 14.3987 18.3041 14.804C17.8986 15.2092 17.8986 15.8645 18.3041 16.2697L24.5341 22.5001L18.3041 28.7305C17.8987 29.1358 17.8987 29.7911 18.3041 30.1963C18.4003 30.2927 18.5145 30.3692 18.6403 30.4213C18.766 30.4734 18.9009 30.5001 19.037 30.5C19.3023 30.5 19.5677 30.3984 19.7699 30.1963L25.9999 23.9659L32.2302 30.1963C32.3263 30.2927 32.4406 30.3691 32.5663 30.4212C32.6921 30.4734 32.8269 30.5001 32.9631 30.5C33.2284 30.5 33.4938 30.3984 33.6959 30.1963C34.1014 29.791 34.1014 29.1358 33.6959 28.7305L27.4658 22.5001Z" fill="white"/>
</g>
<defs>
<filter id="filter0_d_1999_14661" x="0" y="0.5" width="52" height="52" filterUnits="userSpaceOnUse" color-interpolation-filters="sRGB">
<feFlood flood-opacity="0" result="BackgroundImageFix"/>
<feColorMatrix in="SourceAlpha" type="matrix" values="0 0 0 0 0 0 0 0 0 0 0 0 0 0 0 0 0 0 127 0" result="hardAlpha"/>
<feMorphology radius="2" operator="erode" in="SourceAlpha" result="effect1_dropShadow_1999_14661"/>
<feOffset dy="4"/>
<feGaussianBlur stdDeviation="4"/>
<feColorMatrix type="matrix" values="0 0 0 0 0.854902 0 0 0 0 0.117647 0 0 0 0 0.156863 0 0 0 0.68 0"/>
<feBlend mode="normal" in2="BackgroundImageFix" result="effect1_dropShadow_1999_14661"/>
<feBlend mode="normal" in="SourceGraphic" in2="effect1_dropShadow_1999_14661" result="shape"/>
</filter>
</defs>
</svg>
