<svg width="52" height="53" viewBox="0 0 52 53" fill="none" xmlns="http://www.w3.org/2000/svg">
<g filter="url(#filter0_d_2101_17335)">
<rect x="6" y="2.375" width="40" height="40" rx="20" fill="#00288D"/>
<path fill-rule="evenodd" clip-rule="evenodd" d="M32 15.5C32 13.5776 33.5776 12 35.5 12C37.4224 12 39 13.5776 39 15.5C39 17.4224 37.4224 19 35.5 19C33.5776 19 32 17.4224 32 15.5ZM33.5437 15.5593L35.0764 17.092L37.6217 14.778L37.0697 14.1712L35.1033 15.9588L34.1237 14.9793L33.5437 15.5593Z" fill="white"/>
<path d="M18.5804 25.1579V23.6013C17.2724 23.4604 17.2687 25.2982 18.5804 25.1579Z" fill="white"/>
<path d="M19.6165 27.4046C19.4984 27.43 19.3761 27.428 19.2589 27.3987V25.8421C19.3761 25.8128 19.4984 25.8107 19.6165 25.8362C19.7345 25.8616 19.8453 25.9138 19.9404 25.9888C20.0355 26.0638 20.1125 26.1596 20.1654 26.2691C20.2183 26.3785 20.2458 26.4986 20.2458 26.6204C20.2458 26.7421 20.2183 26.8623 20.1654 26.9717C20.1125 27.0812 20.0355 27.177 19.9404 27.252C19.8453 27.327 19.7345 27.3792 19.6165 27.4046Z" fill="white"/>
<path fill-rule="evenodd" clip-rule="evenodd" d="M32.3214 19H14.6786C14.4988 19.0005 14.3265 19.0728 14.1993 19.201C14.0722 19.3292 14.0005 19.5029 14 19.6842V31.3158C14.0005 31.4971 14.0722 31.6708 14.1993 31.799C14.3265 31.9272 14.4988 31.9995 14.6786 32H32.3214C32.5012 31.9995 32.6735 31.9272 32.8007 31.799C32.9278 31.6708 32.9995 31.4971 33 31.3158V19.6842C32.9995 19.5029 32.9278 19.3292 32.8007 19.201C32.6735 19.0728 32.5012 19.0005 32.3214 19ZM19.4761 25.1579C19.8608 25.1579 20.2297 25.312 20.5017 25.5863C20.7737 25.8605 20.9265 26.2325 20.9265 26.6204C20.9265 27.0083 20.7737 27.3803 20.5017 27.6545C20.2297 27.9288 19.8608 28.0829 19.4761 28.0829H19.2589V28.5789C19.2589 28.6697 19.2232 28.7567 19.1596 28.8209C19.0959 28.885 19.0096 28.9211 18.9196 28.9211C18.8297 28.9211 18.7434 28.885 18.6797 28.8209C18.6161 28.7567 18.5804 28.6697 18.5804 28.5789V28.0829H17.2537C17.1638 28.0829 17.0775 28.0469 17.0138 27.9827C16.9502 27.9185 16.9145 27.8315 16.9145 27.7408C16.9145 27.6501 16.9502 27.563 17.0138 27.4989C17.0775 27.4347 17.1638 27.3987 17.2537 27.3987H18.5804V25.8421H18.3632C17.9793 25.8412 17.6113 25.687 17.3398 25.4133C17.0683 25.1395 16.9154 24.7685 16.9145 24.3813C16.9171 24.171 16.9637 23.9636 17.0513 23.7727C17.1389 23.5819 17.2654 23.4118 17.4227 23.2736C17.5799 23.1354 17.7643 23.0322 17.9638 22.9707C18.1633 22.9093 18.3734 22.891 18.5804 22.9171V22.4211C18.5804 22.3303 18.6161 22.2433 18.6797 22.1791C18.7434 22.115 18.8297 22.0789 18.9196 22.0789C19.0096 22.0789 19.0959 22.115 19.1596 22.1791C19.2232 22.2433 19.2589 22.3303 19.2589 22.4211V22.9171H20.5855C20.6755 22.9171 20.7618 22.9531 20.8254 23.0173C20.8891 23.0815 20.9248 23.1685 20.9248 23.2592C20.9248 23.3499 20.8891 23.437 20.8254 23.5011C20.7618 23.5653 20.6755 23.6013 20.5855 23.6013H19.2589V25.1579H19.4761ZM31.1339 28.9211H21.9732C21.8832 28.9211 21.7969 28.885 21.7333 28.8209C21.6697 28.7567 21.6339 28.6697 21.6339 28.5789C21.6339 28.4882 21.6697 28.4012 21.7333 28.337C21.7969 28.2729 21.8832 28.2368 21.9732 28.2368H31.1339C31.2239 28.2368 31.3102 28.2729 31.3738 28.337C31.4375 28.4012 31.4732 28.4882 31.4732 28.5789C31.4732 28.6697 31.4375 28.7567 31.3738 28.8209C31.3102 28.885 31.2239 28.9211 31.1339 28.9211ZM31.1339 26.6118H25.0268C24.9368 26.6118 24.8505 26.5758 24.7869 26.5116C24.7232 26.4475 24.6875 26.3605 24.6875 26.2697C24.6875 26.179 24.7232 26.092 24.7869 26.0278C24.8505 25.9637 24.9368 25.9276 25.0268 25.9276H31.1339C31.2239 25.9276 31.3102 25.9637 31.3738 26.0278C31.4375 26.092 31.4732 26.179 31.4732 26.2697C31.4732 26.3605 31.4375 26.4475 31.3738 26.5116C31.3102 26.5758 31.2239 26.6118 31.1339 26.6118ZM31.1339 24.3026H25.0268C24.9368 24.3026 24.8505 24.2666 24.7869 24.2024C24.7232 24.1383 24.6875 24.0513 24.6875 23.9605C24.6875 23.8698 24.7232 23.7828 24.7869 23.7186C24.8505 23.6545 24.9368 23.6184 25.0268 23.6184H31.1339C31.2239 23.6184 31.3102 23.6545 31.3738 23.7186C31.4375 23.7828 31.4732 23.8698 31.4732 23.9605C31.4732 24.0513 31.4375 24.1383 31.3738 24.2024C31.3102 24.2666 31.2239 24.3026 31.1339 24.3026Z" fill="white"/>
</g>
<defs>
<filter id="filter0_d_2101_17335" x="0" y="0.375" width="52" height="52" filterUnits="userSpaceOnUse" color-interpolation-filters="sRGB">
<feFlood flood-opacity="0" result="BackgroundImageFix"/>
<feColorMatrix in="SourceAlpha" type="matrix" values="0 0 0 0 0 0 0 0 0 0 0 0 0 0 0 0 0 0 127 0" result="hardAlpha"/>
<feMorphology radius="2" operator="erode" in="SourceAlpha" result="effect1_dropShadow_2101_17335"/>
<feOffset dy="4"/>
<feGaussianBlur stdDeviation="4"/>
<feColorMatrix type="matrix" values="0 0 0 0 0 0 0 0 0 0.156863 0 0 0 0 0.552941 0 0 0 0.47 0"/>
<feBlend mode="normal" in2="BackgroundImageFix" result="effect1_dropShadow_2101_17335"/>
<feBlend mode="normal" in="SourceGraphic" in2="effect1_dropShadow_2101_17335" result="shape"/>
</filter>
</defs>
</svg>
