<svg width="52" height="53" viewBox="0 0 52 53" fill="none" xmlns="http://www.w3.org/2000/svg">
<g filter="url(#filter0_d_2101_17304)">
<rect x="6" y="2.375" width="40" height="40" rx="20" fill="#00288D"/>
<path d="M31.9996 12.375H19.9999C19.2043 12.375 18.4413 12.6911 17.8787 13.2537C17.3161 13.8162 17 14.5793 17 15.3749V30.1745C16.9993 30.5125 17.0842 30.8452 17.2469 31.1415C17.4096 31.4378 17.6448 31.688 17.9304 31.8688C18.2161 32.0495 18.5429 32.155 18.8803 32.1752C19.2177 32.1954 19.5547 32.1298 19.8599 31.9844C20.0999 31.8644 20.3099 31.7344 20.5299 31.6044C20.953 31.2868 21.4709 31.1212 21.9999 31.1345C22.5319 31.1213 23.0529 31.2867 23.4798 31.6044C24.2182 32.1191 25.0998 32.3885 25.9997 32.3744C26.8998 32.3892 27.7816 32.1197 28.5197 31.6044C28.9462 31.286 29.4675 31.1205 29.9996 31.1345C30.5288 31.1196 31.0472 31.2853 31.4696 31.6044C31.6862 31.7396 31.9098 31.8631 32.1396 31.9744C32.444 32.1194 32.7801 32.1851 33.1167 32.1653C33.4533 32.1456 33.7795 32.0411 34.0648 31.8614C34.3502 31.6818 34.5855 31.433 34.7489 31.1381C34.9123 30.8431 34.9985 30.5117 34.9995 30.1745V15.3749C34.9995 14.5793 34.6834 13.8162 34.1208 13.2537C33.5582 12.6911 32.7952 12.375 31.9996 12.375ZM25.9997 26.3746H21.9999C21.7347 26.3746 21.4803 26.2692 21.2928 26.0817C21.1052 25.8942 20.9999 25.6398 20.9999 25.3746C20.9999 25.1094 21.1052 24.8551 21.2928 24.6675C21.4803 24.48 21.7347 24.3747 21.9999 24.3747H25.9997C26.265 24.3747 26.5193 24.48 26.7068 24.6675C26.8944 24.8551 26.9997 25.1094 26.9997 25.3746C26.9997 25.6398 26.8944 25.8942 26.7068 26.0817C26.5193 26.2692 26.265 26.3746 25.9997 26.3746ZM29.9996 22.3747H21.9999C21.7347 22.3747 21.4803 22.2694 21.2928 22.0818C21.1052 21.8943 20.9999 21.64 20.9999 21.3747C20.9999 21.1095 21.1052 20.8552 21.2928 20.6677C21.4803 20.4801 21.7347 20.3748 21.9999 20.3748H29.9996C30.2648 20.3748 30.5192 20.4801 30.7067 20.6677C30.8943 20.8552 30.9996 21.1095 30.9996 21.3747C30.9996 21.64 30.8943 21.8943 30.7067 22.0818C30.5192 22.2694 30.2648 22.3747 29.9996 22.3747ZM29.9996 18.3748H21.9999C21.7347 18.3748 21.4803 18.2695 21.2928 18.0819C21.1052 17.8944 20.9999 17.6401 20.9999 17.3749C20.9999 17.1096 21.1052 16.8553 21.2928 16.6678C21.4803 16.4802 21.7347 16.3749 21.9999 16.3749H29.9996C30.2648 16.3749 30.5192 16.4802 30.7067 16.6678C30.8943 16.8553 30.9996 17.1096 30.9996 17.3749C30.9996 17.6401 30.8943 17.8944 30.7067 18.0819C30.5192 18.2695 30.2648 18.3748 29.9996 18.3748Z" fill="white"/>
</g>
<defs>
<filter id="filter0_d_2101_17304" x="0" y="0.375" width="52" height="52" filterUnits="userSpaceOnUse" color-interpolation-filters="sRGB">
<feFlood flood-opacity="0" result="BackgroundImageFix"/>
<feColorMatrix in="SourceAlpha" type="matrix" values="0 0 0 0 0 0 0 0 0 0 0 0 0 0 0 0 0 0 127 0" result="hardAlpha"/>
<feMorphology radius="2" operator="erode" in="SourceAlpha" result="effect1_dropShadow_2101_17304"/>
<feOffset dy="4"/>
<feGaussianBlur stdDeviation="4"/>
<feColorMatrix type="matrix" values="0 0 0 0 0 0 0 0 0 0.156863 0 0 0 0 0.552941 0 0 0 0.47 0"/>
<feBlend mode="normal" in2="BackgroundImageFix" result="effect1_dropShadow_2101_17304"/>
<feBlend mode="normal" in="SourceGraphic" in2="effect1_dropShadow_2101_17304" result="shape"/>
</filter>
</defs>
</svg>
