<svg width="52" height="53" viewBox="0 0 52 53" fill="none" xmlns="http://www.w3.org/2000/svg">
<g filter="url(#filter0_d_2101_17316)">
<rect x="6" y="2.125" width="40" height="40" rx="20" fill="#00288D"/>
<path fill-rule="evenodd" clip-rule="evenodd" d="M33.085 19.061H34.2553C35.2253 19.061 36.0144 19.85 36.0144 20.8201V30.2409C36.0144 31.2109 35.2253 32 34.2553 32H17.7591C16.7891 32 16 31.2109 16 30.2409V20.8201C16 19.8501 16.7891 19.061 17.7591 19.061H25.0708L23.5627 22.0775C23.3974 22.4076 23.3403 22.7814 23.3995 23.1458C23.4588 23.5102 23.6313 23.8467 23.8926 24.1075C24.0557 24.2711 24.2495 24.4009 24.463 24.4895C24.6764 24.578 24.9052 24.6235 25.1363 24.6234C25.4031 24.6234 25.6722 24.5621 25.923 24.4373L29.4103 22.6937C29.4666 22.6654 29.518 22.6283 29.5626 22.5837L33.085 19.061ZM22.4891 23.7519H18.9318C18.6077 23.7519 18.3454 24.0141 18.3454 24.3382C18.3454 24.6623 18.6077 24.9246 18.9318 24.9246H22.4891C22.8132 24.9246 23.0754 24.6623 23.0754 24.3382C23.0754 24.0141 22.8132 23.7519 22.4891 23.7519ZM18.9318 29.6545H33.0826C33.4067 29.6545 33.669 29.3923 33.669 29.0682C33.669 28.7441 33.4067 28.4818 33.0826 28.4818H18.9318C18.6077 28.4818 18.3454 28.7441 18.3454 29.0682C18.3454 29.3923 18.6077 29.6545 18.9318 29.6545ZM18.9318 27.3091H33.0826C33.4067 27.3091 33.669 27.0468 33.669 26.7227C33.669 26.3986 33.4067 26.1364 33.0826 26.1364H18.9318C18.6077 26.1364 18.3454 26.3986 18.3454 26.7227C18.3454 27.0468 18.6077 27.3091 18.9318 27.3091Z" fill="white"/>
<path d="M33.0143 12.4982C33.6768 11.8345 34.8369 11.8334 35.5018 12.4982C35.8339 12.8303 36.0171 13.2724 36.0171 13.7419C36.0171 14.212 35.8339 14.6541 35.5018 14.9862L35.0874 15.4006L32.5995 12.9129L33.0143 12.4982Z" fill="white"/>
<path d="M24.6117 22.6014L26.0811 19.6622L28.3377 21.9189L25.3985 23.3882C25.3149 23.43 25.2256 23.4501 25.1362 23.4501C25.0592 23.4501 24.983 23.435 24.9118 23.4055C24.8407 23.376 24.7761 23.3328 24.7217 23.2783C24.6346 23.1913 24.5771 23.0791 24.5574 22.9576C24.5377 22.8361 24.5567 22.7115 24.6117 22.6014Z" fill="white"/>
<path d="M26.7946 18.7174L31.7704 13.7421L34.2583 16.2297L29.2826 21.2054L26.7946 18.7174Z" fill="white"/>
</g>
<defs>
<filter id="filter0_d_2101_17316" x="0" y="0.125" width="52" height="52" filterUnits="userSpaceOnUse" color-interpolation-filters="sRGB">
<feFlood flood-opacity="0" result="BackgroundImageFix"/>
<feColorMatrix in="SourceAlpha" type="matrix" values="0 0 0 0 0 0 0 0 0 0 0 0 0 0 0 0 0 0 127 0" result="hardAlpha"/>
<feMorphology radius="2" operator="erode" in="SourceAlpha" result="effect1_dropShadow_2101_17316"/>
<feOffset dy="4"/>
<feGaussianBlur stdDeviation="4"/>
<feColorMatrix type="matrix" values="0 0 0 0 0 0 0 0 0 0.156863 0 0 0 0 0.552941 0 0 0 0.47 0"/>
<feBlend mode="normal" in2="BackgroundImageFix" result="effect1_dropShadow_2101_17316"/>
<feBlend mode="normal" in="SourceGraphic" in2="effect1_dropShadow_2101_17316" result="shape"/>
</filter>
</defs>
</svg>
