<svg width="52" height="53" viewBox="0 0 52 53" fill="none" xmlns="http://www.w3.org/2000/svg">
<g filter="url(#filter0_d_2101_17329)">
<rect x="6" y="2.625" width="40" height="40" rx="20" fill="#00288D"/>
<path d="M28.9431 13.625C26.0541 13.625 23.7034 15.9293 23.7034 18.7605C23.7034 21.5932 26.0541 23.8968 28.9431 23.8968C31.8322 23.8968 34.1829 21.5925 34.1829 18.7605C34.1812 17.3988 33.6286 16.0934 32.6463 15.1306C31.664 14.1679 30.3322 13.6264 28.9431 13.625ZM29.4622 20.9737C29.4107 20.9888 29.3655 21.0198 29.3334 21.0621C29.3013 21.1045 29.284 21.1558 29.2841 21.2086V21.451C29.2841 21.54 29.248 21.6254 29.1838 21.6884C29.1195 21.7513 29.0324 21.7867 28.9416 21.7867C28.8507 21.7867 28.7636 21.7513 28.6994 21.6884C28.6352 21.6254 28.5991 21.54 28.5991 21.451V21.3621C28.5991 21.2995 28.5746 21.2392 28.5306 21.1938C28.4865 21.1484 28.4264 21.1213 28.3625 21.1182C28.1425 21.1083 27.9335 21.0212 27.7735 20.8728C27.6854 20.7897 27.6154 20.69 27.5678 20.5796C27.5201 20.4692 27.4958 20.3505 27.4963 20.2307C27.4949 20.1416 27.5296 20.0557 27.5928 19.9917C27.656 19.9278 27.7426 19.8911 27.8334 19.8897C27.9243 19.8883 28.0119 19.9223 28.0772 19.9843C28.1424 20.0463 28.1799 20.1311 28.1813 20.2202C28.1836 20.2864 28.2243 20.3481 28.275 20.3925C28.3249 20.437 28.3994 20.4528 28.4708 20.4543C28.8233 20.4302 29.8961 20.3549 29.913 19.7286C29.913 19.5442 29.731 19.2829 28.8632 19.0895C27.2214 18.7229 27.2736 17.9761 27.2905 17.7299C27.3181 17.3332 27.5354 16.8055 28.4194 16.5496C28.471 16.5345 28.5163 16.5035 28.5485 16.4612C28.5808 16.4189 28.5982 16.3675 28.5983 16.3147V16.0716C28.5983 15.9825 28.6344 15.8971 28.6986 15.8341C28.7628 15.7712 28.85 15.7358 28.9408 15.7358C29.0316 15.7358 29.1188 15.7712 29.183 15.8341C29.2472 15.8971 29.2833 15.9825 29.2833 16.0716V16.1619C29.2833 16.2929 29.3885 16.3998 29.5214 16.4058C29.7456 16.4163 29.9468 16.4999 30.1043 16.6489C30.2817 16.8161 30.383 17.0502 30.383 17.2918C30.383 17.3809 30.3469 17.4663 30.2827 17.5292C30.2185 17.5922 30.1314 17.6276 30.0405 17.6276C29.9497 17.6276 29.8626 17.5922 29.7983 17.5292C29.7341 17.4663 29.698 17.3809 29.698 17.2918C29.698 17.2226 29.645 17.1586 29.592 17.1127C29.5622 17.0887 29.5276 17.0711 29.4905 17.061C29.4533 17.0509 29.4144 17.0485 29.3762 17.0539C28.9001 17.1029 28.0147 17.1955 27.9747 17.7759C27.9455 18.1944 28.7511 18.3743 29.0153 18.4338C30.6234 18.7929 30.6042 19.5148 30.5981 19.7512C30.5888 20.0869 30.4299 20.6921 29.4622 20.9737ZM19.9788 32.8127C19.9786 33.0282 19.8911 33.2348 19.7356 33.3871C19.5801 33.5394 19.3692 33.625 19.1494 33.625H17.3193C16.9696 33.6246 16.6342 33.4882 16.3869 33.2458C16.1395 33.0033 16.0004 32.6746 16 32.3317V27.2685C16.0004 26.9256 16.1395 26.5969 16.3869 26.3544C16.6342 26.112 16.9696 25.9756 17.3193 25.9752H19.1502C19.6071 25.9752 19.9795 26.3395 19.9795 26.7875V32.8127H19.9788ZM36.5205 29.8227L34.3533 31.5195C33.7482 31.9945 32.991 32.3295 32.1624 32.4875L28.1798 33.2313C27.4512 33.3638 26.7035 33.3577 25.9773 33.2132L20.4779 32.078V27.5244L22.1582 26.597C23.2042 26.0166 24.5159 25.8028 25.7569 26.0151L29.2895 26.6256C30.0275 26.7506 30.5635 27.2745 30.5635 27.8722C30.5635 28.2019 30.4007 28.5196 30.1096 28.7635C29.7772 29.0205 29.3649 29.1582 28.9416 29.1535H26.5095C26.4433 29.1535 26.3798 29.1792 26.333 29.2251C26.2862 29.271 26.2599 29.3332 26.2599 29.3981C26.2599 29.463 26.2862 29.5252 26.333 29.5711C26.3798 29.617 26.4433 29.6428 26.5095 29.6428H30.2594C30.6718 29.6428 31.0665 29.5464 31.399 29.3657L34.3917 27.7766C35.0583 27.422 35.9392 27.5064 36.4829 27.9708L36.572 28.0499C36.8561 28.2938 37.0074 28.6099 36.9997 28.9397C36.9936 29.2724 36.8223 29.5871 36.5205 29.8227Z" fill="white"/>
</g>
<defs>
<filter id="filter0_d_2101_17329" x="0" y="0.625" width="52" height="52" filterUnits="userSpaceOnUse" color-interpolation-filters="sRGB">
<feFlood flood-opacity="0" result="BackgroundImageFix"/>
<feColorMatrix in="SourceAlpha" type="matrix" values="0 0 0 0 0 0 0 0 0 0 0 0 0 0 0 0 0 0 127 0" result="hardAlpha"/>
<feMorphology radius="2" operator="erode" in="SourceAlpha" result="effect1_dropShadow_2101_17329"/>
<feOffset dy="4"/>
<feGaussianBlur stdDeviation="4"/>
<feColorMatrix type="matrix" values="0 0 0 0 0 0 0 0 0 0.156863 0 0 0 0 0.552941 0 0 0 0.47 0"/>
<feBlend mode="normal" in2="BackgroundImageFix" result="effect1_dropShadow_2101_17329"/>
<feBlend mode="normal" in="SourceGraphic" in2="effect1_dropShadow_2101_17329" result="shape"/>
</filter>
</defs>
</svg>
