<svg width="52" height="53" viewBox="0 0 52 53" fill="none" xmlns="http://www.w3.org/2000/svg">
<g filter="url(#filter0_d_2570_18340)">
<rect x="6" y="2.875" width="40" height="40" rx="20" fill="#00288D"/>
<path d="M35.9802 30.6855L32.8525 19.0406C32.8189 18.9156 32.7444 18.8052 32.6406 18.7263C32.5368 18.6475 32.4095 18.6048 32.2785 18.6048H28.8629C30.3708 16.7002 29.0014 13.875 26.523 13.875C24.0442 13.875 22.6753 16.7005 24.1831 18.6047H20.5284C20.3957 18.6047 20.267 18.6485 20.1625 18.7292C20.058 18.8098 19.984 18.9226 19.952 19.0496L17.0175 30.7247C16.9837 30.8591 16.9992 31.0009 17.0613 31.1251L18.2731 33.5484C18.3222 33.6464 18.3981 33.729 18.4922 33.7867C18.5863 33.8444 18.6949 33.875 18.8057 33.875H34.2442C34.3572 33.875 34.4678 33.8432 34.563 33.7834C34.6583 33.7235 34.7343 33.6381 34.7822 33.5371L35.9442 31.0836C36.0031 30.9592 36.0159 30.8182 35.9802 30.6855ZM26.523 15.0469C27.5052 15.0469 28.3043 15.8354 28.3043 16.8047C28.3043 17.7739 27.5052 18.5625 26.523 18.5625C25.5407 18.5625 24.7416 17.7739 24.7416 16.8047C24.7416 15.8354 25.5407 15.0469 26.523 15.0469ZM27.0837 29.4257V29.7187C27.0837 30.0423 26.8179 30.3046 26.4899 30.3046C26.162 30.3046 25.8962 30.0423 25.8962 29.7187V29.4692C25.4491 29.395 25.0259 29.2318 24.7033 29.0236C24.4289 28.8464 24.3519 28.4833 24.5315 28.2125C24.7109 27.9416 25.079 27.8658 25.3535 28.0429C25.8046 28.3341 26.5114 28.4288 26.897 28.2498C27.18 28.1184 27.3916 27.8409 27.4235 27.5592C27.4897 26.9731 26.8154 26.7102 26.2991 26.5089C25.7593 26.2986 25.1476 26.0602 24.7966 25.4348C24.288 24.5287 24.7718 23.2907 25.8962 22.95V22.7031C25.8962 22.3795 26.162 22.1172 26.4899 22.1172C26.8179 22.1172 27.0837 22.3795 27.0837 22.7031V22.9086C27.44 22.9854 27.7729 23.1415 28.0278 23.3734C28.2689 23.5928 28.284 23.9635 28.0617 24.2014C27.8394 24.4393 27.4637 24.4543 27.2226 24.2348C26.9864 24.0199 26.3835 23.9402 26.0668 24.1503C25.8166 24.3163 25.7106 24.6446 25.8355 24.867C26.1068 25.3504 27.0742 25.3981 27.8252 25.9755C29.2359 27.0604 28.6078 29.0055 27.0837 29.4257Z" fill="white"/>
</g>
<defs>
<filter id="filter0_d_2570_18340" x="0" y="0.875" width="52" height="52" filterUnits="userSpaceOnUse" color-interpolation-filters="sRGB">
<feFlood flood-opacity="0" result="BackgroundImageFix"/>
<feColorMatrix in="SourceAlpha" type="matrix" values="0 0 0 0 0 0 0 0 0 0 0 0 0 0 0 0 0 0 127 0" result="hardAlpha"/>
<feMorphology radius="2" operator="erode" in="SourceAlpha" result="effect1_dropShadow_2570_18340"/>
<feOffset dy="4"/>
<feGaussianBlur stdDeviation="4"/>
<feColorMatrix type="matrix" values="0 0 0 0 0 0 0 0 0 0.156863 0 0 0 0 0.552941 0 0 0 0.47 0"/>
<feBlend mode="normal" in2="BackgroundImageFix" result="effect1_dropShadow_2570_18340"/>
<feBlend mode="normal" in="SourceGraphic" in2="effect1_dropShadow_2570_18340" result="shape"/>
</filter>
</defs>
</svg>
