<svg width="52" height="53" viewBox="0 0 52 53" fill="none" xmlns="http://www.w3.org/2000/svg">
<g filter="url(#filter0_d_2570_18346)">
<rect x="6" y="2.875" width="40" height="40" rx="20" fill="#00288D"/>
<path d="M25.2917 15.5417H26.2083C26.55 15.5417 26.8333 15.825 26.8333 16.1667V17.4167C26.8333 18.2167 26.175 18.875 25.375 18.875H20.7917C19.9917 18.875 19.3333 18.2167 19.3333 17.4167V16.1667C19.3333 15.825 19.6167 15.5417 19.9583 15.5417H20.875C21.15 14.5833 22.0333 13.875 23.0833 13.875C24.1333 13.875 25.0167 14.5833 25.2917 15.5417Z" fill="white"/>
<path fill-rule="evenodd" clip-rule="evenodd" d="M27.6667 16.375H27.875C29.1417 16.375 30.1667 17.4 30.1667 18.6667V24.225L27.1667 27.225H27.1583C27.1167 27.2083 27.0833 27.2083 27.0417 27.2083H19.125C18.7833 27.2083 18.5 27.4917 18.5 27.8333C18.5 28.175 18.7833 28.4583 19.125 28.4583H25.925L25.2583 29.125C24.925 29.4667 24.7083 29.8833 24.625 30.35L24.4417 31.375H18.2917C17.025 31.375 16 30.35 16 29.0833V18.6667C16 17.4 17.025 16.375 18.2917 16.375H18.5V17.4167C18.5 18.6833 19.525 19.7083 20.7917 19.7083H25.375C26.6417 19.7083 27.6667 18.6833 27.6667 17.4167V16.375ZM19.125 25.75H27.0417C27.3833 25.75 27.6667 25.4667 27.6667 25.125C27.6667 24.7833 27.3833 24.5 27.0417 24.5H19.125C18.7833 24.5 18.5 24.7833 18.5 25.125C18.5 25.4667 18.7833 25.75 19.125 25.75ZM19.125 23.0417H27.0417C27.3833 23.0417 27.6667 22.7583 27.6667 22.4167C27.6667 22.075 27.3833 21.7917 27.0417 21.7917H19.125C18.7833 21.7917 18.5 22.075 18.5 22.4167C18.5 22.7583 18.7833 23.0417 19.125 23.0417Z" fill="white"/>
<path d="M26.1746 33.8168C26.2575 33.8554 26.3478 33.8752 26.4392 33.875C26.4755 33.875 26.5118 33.8716 26.5475 33.865L29.0517 33.4233C29.1781 33.4017 29.2947 33.3411 29.385 33.25L35.5725 27.0625C35.7079 26.9271 35.8154 26.7663 35.8887 26.5894C35.962 26.4124 35.9997 26.2228 35.9997 26.0312C35.9997 25.8397 35.962 25.6501 35.8887 25.4731C35.8154 25.2962 35.7079 25.1354 35.5725 25L34.5417 23.9692C34.1333 23.5608 33.3867 23.355 32.6267 24.1167L26.4392 30.3033C26.3487 30.3941 26.2882 30.5105 26.2658 30.6367L25.8242 33.1408C25.8079 33.2308 25.8116 33.3232 25.8351 33.4115C25.8585 33.4998 25.9011 33.5819 25.9597 33.6519C26.0184 33.722 26.0918 33.7783 26.1746 33.8168Z" fill="white"/>
</g>
<defs>
<filter id="filter0_d_2570_18346" x="0" y="0.875" width="52" height="52" filterUnits="userSpaceOnUse" color-interpolation-filters="sRGB">
<feFlood flood-opacity="0" result="BackgroundImageFix"/>
<feColorMatrix in="SourceAlpha" type="matrix" values="0 0 0 0 0 0 0 0 0 0 0 0 0 0 0 0 0 0 127 0" result="hardAlpha"/>
<feMorphology radius="2" operator="erode" in="SourceAlpha" result="effect1_dropShadow_2570_18346"/>
<feOffset dy="4"/>
<feGaussianBlur stdDeviation="4"/>
<feColorMatrix type="matrix" values="0 0 0 0 0 0 0 0 0 0.156863 0 0 0 0 0.552941 0 0 0 0.47 0"/>
<feBlend mode="normal" in2="BackgroundImageFix" result="effect1_dropShadow_2570_18346"/>
<feBlend mode="normal" in="SourceGraphic" in2="effect1_dropShadow_2570_18346" result="shape"/>
</filter>
</defs>
</svg>
