<svg width="52" height="53" viewBox="0 0 52 53" fill="none" xmlns="http://www.w3.org/2000/svg">
<g filter="url(#filter0_d_2101_17310)">
<rect x="6" y="2.125" width="40" height="40" rx="20" fill="#00288D"/>
<path d="M25.5427 16.2983C25.6219 16.3311 25.7068 16.3479 25.7925 16.3478C25.9657 16.3478 26.1317 16.2791 26.2541 16.1568C26.3766 16.0345 26.4453 15.8686 26.4453 15.6957V12.6522C26.4453 12.4792 26.3766 12.3133 26.2541 12.191C26.1317 12.0687 25.9657 12 25.7925 12H22.746C22.6167 11.9997 22.4903 12.0378 22.3828 12.1094C22.2753 12.181 22.1915 12.2829 22.1421 12.4021C22.0926 12.5214 22.0798 12.6527 22.1052 12.7792C22.1305 12.9058 22.193 13.022 22.2846 13.113L23.1925 14.02L17.9959 19.2113C17.8738 19.3327 17.7905 19.4877 17.7567 19.6565C17.7229 19.8253 17.7401 20.0003 17.806 20.1594C17.8719 20.3184 17.9837 20.4543 18.1271 20.5498C18.2705 20.6453 18.439 20.696 18.6113 20.6956C18.7256 20.6958 18.8389 20.6733 18.9445 20.6296C19.0501 20.5859 19.146 20.5217 19.2267 20.4409L24.4233 15.2496L25.3312 16.1565C25.3916 16.2173 25.4635 16.2654 25.5427 16.2983Z" fill="white"/>
<path d="M22.0931 29.3913V24.3913C22.0931 23.7913 21.6057 23.3043 21.0051 23.3043H17.9585C17.3579 23.3043 16.8704 23.7913 16.8704 24.3913V29.3913H22.0931Z" fill="white"/>
<path d="M29.0567 29.3913V20.913C29.0567 20.313 28.5692 19.8261 27.9686 19.8261H24.9221C24.3215 19.8261 23.834 20.313 23.834 20.913V29.3913H29.0567Z" fill="white"/>
<path d="M36.0202 29.3913V17.4348C36.0202 16.8348 35.5328 16.3478 34.9322 16.3478H31.8856C31.285 16.3478 30.7976 16.8348 30.7976 17.4348V29.3913H36.0202Z" fill="white"/>
<path d="M16.1912 31.809C16.3136 31.9313 16.4797 32 16.6528 32H36.2379C36.411 32 36.577 31.9313 36.6995 31.809C36.8219 31.6867 36.8907 31.5208 36.8907 31.3478C36.8907 31.1749 36.8219 31.009 36.6995 30.8867C36.577 30.7644 36.411 30.6957 36.2379 30.6957H16.6528C16.4797 30.6957 16.3136 30.7644 16.1912 30.8867C16.0688 31.009 16 31.1749 16 31.3478C16 31.5208 16.0688 31.6867 16.1912 31.809Z" fill="white"/>
</g>
<defs>
<filter id="filter0_d_2101_17310" x="0" y="0.125" width="52" height="52" filterUnits="userSpaceOnUse" color-interpolation-filters="sRGB">
<feFlood flood-opacity="0" result="BackgroundImageFix"/>
<feColorMatrix in="SourceAlpha" type="matrix" values="0 0 0 0 0 0 0 0 0 0 0 0 0 0 0 0 0 0 127 0" result="hardAlpha"/>
<feMorphology radius="2" operator="erode" in="SourceAlpha" result="effect1_dropShadow_2101_17310"/>
<feOffset dy="4"/>
<feGaussianBlur stdDeviation="4"/>
<feColorMatrix type="matrix" values="0 0 0 0 0 0 0 0 0 0.156863 0 0 0 0 0.552941 0 0 0 0.47 0"/>
<feBlend mode="normal" in2="BackgroundImageFix" result="effect1_dropShadow_2101_17310"/>
<feBlend mode="normal" in="SourceGraphic" in2="effect1_dropShadow_2101_17310" result="shape"/>
</filter>
</defs>
</svg>
