<svg width="52" height="53" viewBox="0 0 52 53" fill="none" xmlns="http://www.w3.org/2000/svg">
<g filter="url(#filter0_d_2101_17323)">
<rect x="6" y="2.625" width="40" height="40" rx="20" fill="#00288D"/>
<path d="M34.0502 13.625H20.9498C18.2208 13.625 16 15.8869 16 18.6665V23.6603C16 26.4399 18.2208 28.7018 20.9498 28.7018H29.2302L35.2497 33.625V28.55C37.427 27.9973 39 25.9991 39 23.6603V18.6665C39 15.8869 36.7792 13.625 34.0502 13.625ZM21.2966 23.3168C20.7105 23.3168 20.1883 23.1895 19.85 23.0069L20.0971 22.0121C20.3532 22.1674 20.8846 22.35 21.2966 22.35C21.7178 22.35 21.8918 22.2038 21.8918 21.9757C21.8918 21.7469 21.7543 21.6378 21.2328 21.4643C20.3077 21.1537 19.9504 20.652 19.9595 20.1224C19.9595 19.292 20.6741 18.6623 21.7817 18.6623C22.3039 18.6623 22.7714 18.7806 23.0458 18.9177L22.7987 19.8761C22.5972 19.7663 22.2126 19.6201 21.828 19.6201C21.4889 19.6201 21.2966 19.7572 21.2966 19.9853C21.2966 20.1952 21.4707 20.305 22.0203 20.4967C22.8717 20.7885 23.2289 21.218 23.2381 21.875C23.2381 22.7054 22.5789 23.3168 21.2966 23.3168ZM30.8474 23.2259H29.492V20.7982C29.492 20.1497 29.2808 19.7754 28.8323 19.7754C28.5122 19.7754 28.2827 19.9943 28.1914 20.2595C28.1549 20.3595 28.1367 20.5058 28.1367 20.6156V23.2259H26.7813V20.7247C26.7813 20.1587 26.5799 19.7754 26.1398 19.7754C25.7832 19.7754 25.5719 20.0496 25.4898 20.2777C25.4442 20.3869 25.4351 20.5149 25.4351 20.6247V23.2259H24.0797V20.1861C24.0797 19.6299 24.0615 19.1548 24.0432 18.7624H25.2154L25.2793 19.3647H25.3066C25.499 19.0821 25.8927 18.6623 26.662 18.6623C27.239 18.6623 27.6966 18.9541 27.8889 19.4193H27.9072C28.0721 19.1912 28.2736 19.0086 28.4842 18.8813C28.732 18.7351 29.0064 18.6624 29.3363 18.6624C30.1968 18.6624 30.8475 19.2648 30.8475 20.5968V23.2259H30.8474ZM33.144 23.3168C32.5579 23.3168 32.0357 23.1895 31.6974 23.0069L31.9445 22.0121C32.2007 22.1674 32.732 22.35 33.1441 22.35C33.5652 22.35 33.7393 22.2038 33.7393 21.9757C33.7393 21.7469 33.6017 21.6378 33.0802 21.4643C32.1551 21.1537 31.7978 20.652 31.8069 20.1224C31.8069 19.292 32.5215 18.6623 33.6291 18.6623C34.1513 18.6623 34.6181 18.7806 34.8932 18.9177L34.6461 19.8761C34.4446 19.7663 34.06 19.6201 33.6754 19.6201C33.3363 19.6201 33.144 19.7572 33.144 19.9853C33.144 20.1952 33.3181 20.305 33.8677 20.4967C34.7191 20.7885 35.0763 21.218 35.0855 21.875C35.0855 22.7054 34.4264 23.3168 33.144 23.3168Z" fill="white"/>
<path d="M15.5 31.125C17.7091 31.125 19.5 29.3341 19.5 27.125C19.5 24.9159 17.7091 23.125 15.5 23.125C13.2909 23.125 11.5 24.9159 11.5 27.125C11.5 29.3341 13.2909 31.125 15.5 31.125Z" fill="white" stroke="#00288D"/>
</g>
<defs>
<filter id="filter0_d_2101_17323" x="0" y="0.625" width="52" height="52" filterUnits="userSpaceOnUse" color-interpolation-filters="sRGB">
<feFlood flood-opacity="0" result="BackgroundImageFix"/>
<feColorMatrix in="SourceAlpha" type="matrix" values="0 0 0 0 0 0 0 0 0 0 0 0 0 0 0 0 0 0 127 0" result="hardAlpha"/>
<feMorphology radius="2" operator="erode" in="SourceAlpha" result="effect1_dropShadow_2101_17323"/>
<feOffset dy="4"/>
<feGaussianBlur stdDeviation="4"/>
<feColorMatrix type="matrix" values="0 0 0 0 0 0 0 0 0 0.156863 0 0 0 0 0.552941 0 0 0 0.47 0"/>
<feBlend mode="normal" in2="BackgroundImageFix" result="effect1_dropShadow_2101_17323"/>
<feBlend mode="normal" in="SourceGraphic" in2="effect1_dropShadow_2101_17323" result="shape"/>
</filter>
</defs>
</svg>
