<svg width="20" height="20" viewBox="0 0 20 20" fill="none" xmlns="http://www.w3.org/2000/svg">
<path d="M10.0004 2C5.58234 2 2 5.58164 2 10C2 14.4184 5.58199 18 10.0004 18C14.4191 18 18.0007 14.4184 18.0007 10C18.0007 5.58164 14.4191 2 10.0004 2ZM10.0004 4.39209C10.7022 4.39205 11.3752 4.67079 11.8715 5.16701C12.3678 5.66323 12.6466 6.33628 12.6467 7.03808C12.6467 7.73989 12.368 8.41297 11.8718 8.90926C11.3756 9.40555 10.7025 9.68438 10.0007 9.68443C9.2989 9.68447 8.62581 9.40573 8.12953 8.90951C7.63324 8.41329 7.35441 7.74024 7.35436 7.03844C7.35431 6.33663 7.63306 5.66355 8.12928 5.16726C8.6255 4.67098 9.29854 4.39214 10.0004 4.39209ZM9.99859 15.9084C8.59668 15.9099 7.24046 15.4098 6.17518 14.4985C6.05121 14.3927 5.95164 14.2613 5.88333 14.1133C5.81502 13.9654 5.77959 13.8044 5.77949 13.6414C5.77949 12.1595 6.97887 10.9734 8.46115 10.9734H11.5403C13.0229 10.9734 14.2177 12.1595 14.2177 13.6414C14.2178 13.8043 14.1825 13.9653 14.1142 14.1132C14.046 14.2612 13.9464 14.3925 13.8224 14.4981C12.7571 15.4098 11.4007 15.9101 9.99859 15.9084Z" fill="#003FDE"/>
</svg>
