<svg width="18" height="18" viewBox="0 0 18 18" fill="none" xmlns="http://www.w3.org/2000/svg">
<path fill-rule="evenodd" clip-rule="evenodd" d="M3.07223 0.730678C2.88599 0.829173 2.81967 0.989723 2.81967 1.34208V1.63215L2.45355 1.6494C2.17681 1.6624 2.0344 1.68619 1.87009 1.74681C1.34194 1.94172 0.963689 2.32432 0.763548 2.86607C0.697843 3.04393 0.691269 3.13108 0.679391 3.97976L0.666504 4.9005H7.99405H15.3216L15.3094 3.97976C15.2975 3.08548 15.2948 3.05276 15.214 2.84133C15.1041 2.55374 14.9615 2.33635 14.754 2.14001C14.4049 1.80975 14.0729 1.67635 13.5345 1.65005L13.1684 1.63215V1.34208C13.1684 0.983922 13.1024 0.827934 12.9089 0.729081C12.7463 0.64597 12.6143 0.64597 12.4516 0.729081C12.2574 0.828358 12.1921 0.983563 12.1921 1.34661V1.64125H11.1182H10.0443V1.34661C10.0443 0.983563 9.97906 0.828358 9.78478 0.729081C9.62213 0.64597 9.49013 0.64597 9.32748 0.729081C9.1332 0.828358 9.06798 0.983563 9.06798 1.34661V1.64125H7.99405H6.92012V1.34661C6.92012 0.983563 6.8549 0.828358 6.66062 0.729081C6.49797 0.64597 6.36597 0.64597 6.20332 0.729081C6.00904 0.828358 5.94382 0.983563 5.94382 1.34661V1.64125H4.86989H3.79597V1.34661C3.79597 0.983563 3.73075 0.828358 3.53646 0.729081C3.37612 0.647176 3.22926 0.647665 3.07223 0.730678ZM3.79597 2.42477C3.79597 3.14572 3.79073 3.21856 3.73046 3.3369C3.65639 3.4823 3.4691 3.5968 3.30541 3.5968C3.15405 3.5968 2.953 3.47004 2.8814 3.32947C2.82585 3.22042 2.81967 3.12975 2.81967 2.42477V1.64125H3.30782H3.79597V2.42477ZM6.92012 2.42477C6.92012 3.14572 6.91488 3.21856 6.85461 3.3369C6.78054 3.4823 6.59326 3.5968 6.42956 3.5968C6.2782 3.5968 6.07715 3.47004 6.00556 3.32947C5.95001 3.22042 5.94382 3.12975 5.94382 2.42477V1.64125H6.43197H6.92012V2.42477ZM10.0443 2.42477C10.0443 3.14572 10.039 3.21856 9.97877 3.3369C9.9047 3.4823 9.71741 3.5968 9.55372 3.5968C9.40236 3.5968 9.20131 3.47004 9.12971 3.32947C9.07416 3.22042 9.06798 3.12975 9.06798 2.42477V1.64125H9.55613H10.0443V2.42477ZM13.1684 2.42477C13.1684 3.14572 13.1632 3.21856 13.1029 3.3369C13.0289 3.4823 12.8416 3.5968 12.6779 3.5968C12.5265 3.5968 12.3255 3.47004 12.2539 3.32947C12.1983 3.22042 12.1921 3.12975 12.1921 2.42477V1.64125H12.6803H13.1684V2.42477ZM0.671808 9.60851C0.671808 12.2661 0.682418 13.3884 0.708713 13.5115C0.828374 14.0714 1.27773 14.5214 1.83683 14.6413C1.95958 14.6676 3.06045 14.6782 5.65601 14.6782C8.77359 14.6782 9.30021 14.6716 9.2852 14.6325C9.23587 14.5037 9.19129 13.8738 9.20857 13.5495C9.25449 12.6877 9.50848 11.9291 10.0013 11.1819C10.2032 10.8758 10.872 10.2073 11.1833 10.0004C12.336 9.23451 13.7241 9.0105 15.0081 9.38317C15.1602 9.42733 15.2918 9.46344 15.3005 9.46344C15.3092 9.46344 15.3163 8.65678 15.3163 7.67086V5.87827H7.99405H0.671808V9.60851ZM7.21633 7.67966C7.52344 7.88512 7.50317 8.30957 7.17705 8.50197C7.079 8.55982 7.00805 8.56715 6.54587 8.56715C6.08369 8.56715 6.01275 8.55982 5.9147 8.50197C5.58858 8.30957 5.56831 7.88512 5.87542 7.67966C5.97969 7.60991 6.01796 7.60567 6.54587 7.60567C7.07379 7.60567 7.11206 7.60991 7.21633 7.67966ZM10.1127 7.67966C10.4198 7.88512 10.3995 8.30957 10.0734 8.50197C9.97535 8.55982 9.90441 8.56715 9.44223 8.56715C8.98005 8.56715 8.9091 8.55982 8.81105 8.50197C8.48493 8.30957 8.46466 7.88512 8.77177 7.67966C8.87604 7.60991 8.91431 7.60567 9.44223 7.60567C9.97014 7.60567 10.0084 7.60991 10.1127 7.67966ZM13.009 7.67966C13.3161 7.88512 13.2959 8.30957 12.9698 8.50197C12.8717 8.55982 12.8008 8.56715 12.3386 8.56715C11.8764 8.56715 11.8055 8.55982 11.7074 8.50197C11.3813 8.30957 11.361 7.88512 11.6681 7.67966C11.7724 7.60991 11.8107 7.60567 12.3386 7.60567C12.8665 7.60567 12.9048 7.60991 13.009 7.67966ZM4.28496 9.85498C4.42936 9.92877 4.54446 10.1165 4.54446 10.2783C4.54446 10.44 4.42936 10.6277 4.28496 10.7015C4.17243 10.759 4.09344 10.7671 3.64711 10.7671C3.17966 10.7671 3.12701 10.7611 3.00786 10.6941C2.68035 10.5097 2.67703 10.0636 3.00168 9.86677C3.12108 9.79439 3.16007 9.78969 3.64269 9.78953C4.09367 9.7894 4.17226 9.79739 4.28496 9.85498ZM7.18131 9.85498C7.32571 9.92877 7.44081 10.1165 7.44081 10.2783C7.44081 10.44 7.32571 10.6277 7.18131 10.7015C7.06878 10.759 6.9898 10.7671 6.54347 10.7671C6.07601 10.7671 6.02336 10.7611 5.90422 10.6941C5.5767 10.5097 5.57338 10.0636 5.89803 9.86677C6.01744 9.79439 6.05642 9.78969 6.53904 9.78953C6.99002 9.7894 7.06862 9.79739 7.18131 9.85498ZM10.0777 9.85498C10.2221 9.92877 10.3372 10.1165 10.3372 10.2783C10.3372 10.44 10.2221 10.6277 10.0777 10.7015C9.96513 10.759 9.88615 10.7671 9.43982 10.7671C8.97237 10.7671 8.91971 10.7611 8.80057 10.6941C8.47306 10.5097 8.46974 10.0636 8.79439 9.86677C8.91379 9.79439 8.95278 9.78969 9.43539 9.78953C9.88638 9.7894 9.96497 9.79739 10.0777 9.85498ZM13.2525 10.2144C12.4821 10.3357 11.8113 10.6706 11.264 11.2071C10.7238 11.7367 10.3805 12.3681 10.2359 13.0975C10.1722 13.4193 10.1787 14.1724 10.248 14.4903C10.5531 15.8897 11.6333 16.9716 13.0306 17.2771C13.3481 17.3466 14.1001 17.3531 14.4214 17.2893C15.1512 17.1442 15.7829 16.7992 16.3089 16.2585C17.6746 14.8544 17.6746 12.6769 16.3089 11.2728C15.7938 10.7433 15.1991 10.4118 14.487 10.2572C14.2093 10.1969 13.5161 10.1729 13.2525 10.2144ZM13.9829 11.7127C14.2134 11.8306 14.2424 11.9358 14.2424 12.6562V13.2768H14.862C15.4188 13.2768 15.4946 13.2834 15.61 13.3424C15.7544 13.4162 15.8695 13.6039 15.8695 13.7657C15.8695 13.9274 15.7544 14.1151 15.61 14.1889C15.4903 14.2501 15.4194 14.2545 14.5678 14.2545C13.7162 14.2545 13.6453 14.2501 13.5256 14.1889C13.4429 14.1467 13.3738 14.0775 13.3316 13.9946C13.2705 13.8748 13.2661 13.8038 13.2661 12.9508C13.2661 12.0983 13.2706 12.0268 13.3315 11.9072C13.4518 11.6711 13.7355 11.5864 13.9829 11.7127ZM4.31998 12.0796C4.62709 12.2851 4.60681 12.7096 4.2807 12.9019C4.18264 12.9598 4.1117 12.9671 3.64952 12.9671C3.18734 12.9671 3.1164 12.9598 3.01834 12.9019C2.69223 12.7096 2.67195 12.2851 2.97906 12.0796C3.08333 12.0099 3.1216 12.0057 3.64952 12.0057C4.17744 12.0057 4.21571 12.0099 4.31998 12.0796ZM7.21633 12.0796C7.52344 12.2851 7.50317 12.7096 7.17705 12.9019C7.079 12.9598 7.00805 12.9671 6.54587 12.9671C6.08369 12.9671 6.01275 12.9598 5.9147 12.9019C5.58858 12.7096 5.56831 12.2851 5.87542 12.0796C5.97969 12.0099 6.01796 12.0057 6.54587 12.0057C7.07379 12.0057 7.11206 12.0099 7.21633 12.0796Z" fill="#C3C7D1"/>
</svg>
