<svg width="16" height="18" viewBox="0 0 16 18" fill="none" xmlns="http://www.w3.org/2000/svg">
<path fill-rule="evenodd" clip-rule="evenodd" d="M7.3975 0.67622C5.53474 0.971139 4.11605 2.43775 3.89056 4.30166C3.67336 6.09694 4.81551 8.72102 6.30062 9.83881C7.36 10.6362 8.40965 10.6889 9.47259 9.99811C10.7915 9.14097 11.9216 7.08829 12.108 5.21139C12.3136 3.14177 11.0238 1.29879 8.99051 0.756791C8.76837 0.69756 8.57326 0.678397 8.10601 0.669905C7.77628 0.66388 7.45745 0.666747 7.3975 0.67622ZM4.7633 9.85888C4.32457 9.92791 4.12081 9.99313 4.00607 10.1014C3.76685 10.3269 3.60276 10.7664 3.54652 11.332L3.52214 11.5772L3.66827 11.743C3.74868 11.8343 3.88838 11.9578 3.97871 12.0176C4.33947 12.2563 4.78957 12.8763 4.82347 13.1813C4.83299 13.2669 4.88051 13.484 4.92909 13.6637C5.04263 14.0833 5.08921 14.5624 5.05444 14.9521C5.01139 15.4341 4.93214 15.5663 4.59453 15.7192C4.3992 15.8077 4.31894 15.8231 4.05279 15.8231C3.75301 15.8231 3.73589 15.8186 3.62962 15.7125C3.5322 15.6152 3.52127 15.5839 3.53882 15.4531C3.57254 15.2021 3.65436 15.1536 4.06885 15.1394L4.4262 15.127L4.44898 14.8577C4.48607 14.4194 4.34107 13.6535 4.19867 13.5354C4.16805 13.51 4.086 13.3875 4.01639 13.2632C3.86528 12.9932 3.63161 12.7197 3.48926 12.6462C3.35806 12.5784 3.18943 12.5783 3.05852 12.6459C2.9133 12.7209 2.62964 13.0469 2.5218 13.2628C2.47148 13.3635 2.38428 13.4949 2.32807 13.5548C2.14949 13.745 2.01669 14.3822 2.05764 14.8523L2.08216 15.1335H2.4072C2.78075 15.1335 2.91322 15.1832 2.98193 15.3489C3.03843 15.4851 3.00693 15.621 2.89229 15.7355C2.81247 15.8152 2.77494 15.8231 2.47544 15.8231C2.29439 15.8231 2.11788 15.8084 2.08318 15.7905C2.04848 15.7726 1.949 15.7286 1.86209 15.6927C1.545 15.5616 1.44799 15.3104 1.44999 14.6254C1.45108 14.25 1.46819 14.1091 1.549 13.8088C1.6027 13.6092 1.65887 13.3724 1.67381 13.2826C1.70669 13.0845 1.72827 13.031 1.87975 12.7717C2.04666 12.486 2.25104 12.2491 2.47635 12.08C2.58299 12 2.7406 11.859 2.8266 11.7667C2.95297 11.6312 2.98295 11.5731 2.98295 11.4635C2.98295 11.24 3.05525 10.7908 3.12538 10.5783C3.16156 10.4688 3.17675 10.3791 3.15909 10.3791C3.14144 10.3791 3.02135 10.4432 2.89226 10.5215C1.90943 11.118 1.14613 12.0502 0.770986 13.1124C0.565446 13.6944 0.499136 14.1001 0.500008 14.7706C0.500662 15.2674 0.513997 15.4178 0.578308 15.653C0.841001 16.6143 1.48887 17.091 2.79329 17.2827C3.25345 17.3503 12.7406 17.3503 13.2007 17.2827C14.5082 17.0905 15.1524 16.6165 15.4157 15.653C15.5282 15.2412 15.5281 14.3268 15.4154 13.802C15.1099 12.3795 14.3117 11.2568 13.0726 10.5066C12.7855 10.3328 12.7214 10.318 12.787 10.4404C12.8506 10.5591 12.9421 10.9609 12.9863 11.3161L13.0293 11.6608L13.1902 11.7186C13.4149 11.7994 13.7136 12.0831 13.8361 12.3321C13.9216 12.506 13.9376 12.5844 13.9376 12.8297C13.9376 13.0851 13.923 13.1503 13.8187 13.3619C13.6032 13.7992 13.2337 14.0265 12.7386 14.0265C12.5013 14.0265 12.4112 14.0092 12.2481 13.9324C11.2995 13.4856 11.3125 12.1716 12.27 11.7337L12.4641 11.645L12.4441 11.4748C12.3746 10.8806 12.2185 10.437 11.9741 10.1391C11.8634 10.0041 11.8188 9.9792 11.6031 9.93194C11.4682 9.90236 11.2842 9.86799 11.1942 9.85555L11.0304 9.8329L10.967 10.0112C10.7759 10.5486 9.87382 11.4806 8.42116 12.6416C8.2048 12.8145 8.01404 12.9559 7.99729 12.9559C7.98051 12.9559 7.7406 12.7739 7.46413 12.5514C6.06103 11.4222 5.21537 10.5409 5.02734 10.0121C4.96368 9.83312 4.95587 9.82858 4.7633 9.85888ZM12.5656 12.3182C12.3795 12.3846 12.3207 12.4395 12.2394 12.6227C12.0269 13.1013 12.5521 13.5722 13.0109 13.3146C13.2035 13.2065 13.3156 12.9951 13.2919 12.7849C13.2685 12.5775 13.1768 12.4515 12.974 12.348C12.7903 12.2543 12.7527 12.2516 12.5656 12.3182Z" fill="#C3C7D1"/>
</svg>
