<svg width="14" height="14" viewBox="0 0 14 14" fill="none" xmlns="http://www.w3.org/2000/svg">
<path fill-rule="evenodd" clip-rule="evenodd" d="M5.93955 0.0435219C5.83354 0.0957951 5.74828 0.206906 5.72507 0.322996C5.69598 0.468464 5.73759 0.588793 5.86663 0.732346L5.98935 0.868896L5.80423 0.885856C5.20187 0.941029 4.75185 1.03827 4.2793 1.21539C3.01935 1.68762 1.9775 2.64482 1.39133 3.8686C1.11825 4.43874 0.954188 5.05756 0.897176 5.73241C0.85873 6.18744 0.878391 6.29338 1.02514 6.4223C1.15005 6.53199 1.28045 6.55527 1.43637 6.49572C1.59384 6.43554 1.67377 6.32276 1.68678 6.14231C1.69233 6.06525 1.70934 5.8668 1.72454 5.70131C1.87559 4.05794 2.94465 2.63579 4.50062 2.00827C4.87853 1.85585 5.633 1.69397 5.96542 1.69397C5.9841 1.69397 5.95517 1.74014 5.90114 1.79655C5.71389 1.99207 5.67038 2.16602 5.76275 2.34992C5.85944 2.54246 6.08921 2.62061 6.29677 2.53154C6.34517 2.51078 6.60825 2.26742 6.88138 1.9907C7.30171 1.56489 7.38101 1.47153 7.3976 1.38298C7.43734 1.17113 7.38536 1.0883 6.90807 0.603291C6.66537 0.356641 6.41208 0.119566 6.34523 0.0764559C6.20624 -0.01321 6.07605 -0.0237686 5.93955 0.0435219ZM11.0332 0.0384067C10.6777 0.116475 10.3495 0.305955 10.1174 0.567047C9.95941 0.744874 9.78162 1.08414 9.72098 1.3236C9.66763 1.53422 9.6679 1.96543 9.72147 2.17124C9.77345 2.37079 9.92554 2.66396 10.0565 2.81706C10.1524 2.92916 10.154 2.93433 10.1023 2.96989C9.49197 3.39002 9.17539 3.762 8.96544 4.3058C8.81516 4.69504 8.79539 4.84138 8.79309 5.58289C8.79112 6.22355 8.79389 6.2616 8.8474 6.33345C8.87841 6.37506 8.93774 6.4345 8.97928 6.46552C9.05393 6.52129 9.08018 6.522 11.3537 6.52923C13.6327 6.53645 13.6537 6.53604 13.77 6.47971C13.8555 6.43833 13.9026 6.39128 13.9437 6.30648C13.9948 6.20079 14 6.13952 14 5.63995C14 5.33736 13.987 4.99353 13.971 4.87582C13.9309 4.57942 13.7862 4.17001 13.6276 3.90416C13.4645 3.6309 13.0755 3.22666 12.8173 3.06213C12.695 2.98422 12.6406 2.93422 12.6563 2.91417C12.9247 2.57154 13.0252 2.37237 13.0866 2.06098C13.1629 1.67354 13.0909 1.24704 12.8859 0.873355C12.7428 0.612318 12.4194 0.302535 12.1598 0.17761C11.8054 0.00705922 11.4026 -0.0426974 11.0332 0.0384067ZM11.8124 0.930196C12.1172 1.09276 12.2877 1.37081 12.2891 1.70765C12.2902 1.98781 12.2213 2.16208 12.0342 2.35202C11.8282 2.56122 11.6387 2.63415 11.3439 2.61771C10.8441 2.58981 10.4951 2.22078 10.4969 1.72209C10.4978 1.4416 10.6069 1.20461 10.8145 1.03182C11.0967 0.796901 11.4877 0.757074 11.8124 0.930196ZM11.8505 3.52591C12.47 3.68443 12.9423 4.15097 13.1112 4.77128C13.1371 4.86633 13.1625 5.09944 13.1716 5.32519L13.1872 5.71498H11.3883H9.58945L9.60559 5.35255C9.63052 4.79269 9.74504 4.4369 10.0071 4.10527C10.4067 3.5996 11.1838 3.35533 11.8505 3.52591ZM2.31107 7.49298C1.68637 7.6059 1.18177 8.04993 0.971277 8.67191C0.905023 8.8676 0.893293 8.94635 0.89209 9.2026C0.890094 9.63413 0.988066 9.92663 1.24605 10.2591L1.36544 10.413L1.17961 10.5366C0.552152 10.954 0.13073 11.6172 0.0292578 12.3469C0.0131797 12.4627 0 12.8093 0 13.1173C0 13.7659 0.0215742 13.8479 0.218914 13.9486C0.326074 14.0033 0.362906 14.004 2.63648 13.9968C4.91993 13.9896 4.94605 13.9889 5.02072 13.9331C5.06226 13.9021 5.12159 13.8427 5.1526 13.801C5.20625 13.729 5.20885 13.6919 5.20614 13.0368C5.20343 12.3838 5.19955 12.3342 5.13081 12.0747C4.95791 11.4223 4.53209 10.8407 3.97168 10.4916C3.90775 10.4517 3.85547 10.413 3.85547 10.4054C3.85547 10.3979 3.90925 10.3257 3.97499 10.2449C4.1169 10.0706 4.2225 9.85671 4.28274 9.62152C4.34845 9.36489 4.32354 8.88062 4.23199 8.63522C4.02954 8.09252 3.61175 7.69037 3.08984 7.53576C2.90762 7.4818 2.49763 7.45926 2.31107 7.49298ZM12.5238 7.52786C12.3769 7.60557 12.3049 7.7331 12.3042 7.91653C12.3039 7.992 12.2918 8.16767 12.2771 8.3069C12.1661 9.36103 11.7436 10.2468 10.9943 10.9964C10.3702 11.6207 9.69555 11.995 8.83203 12.1961C8.65531 12.2372 8.14343 12.3073 8.01932 12.3073C8.01164 12.3073 8.04915 12.2588 8.10269 12.1995C8.29024 11.9918 8.32899 11.834 8.23725 11.6513C8.14056 11.4588 7.91079 11.3806 7.70323 11.4697C7.65483 11.4904 7.39175 11.7338 7.11862 12.0105C6.40579 12.7327 6.40527 12.7056 7.14612 13.4467C7.54865 13.8494 7.66407 13.9497 7.75616 13.9768C7.91544 14.0237 8.04882 13.9916 8.16121 13.8792C8.33539 13.7049 8.32524 13.4824 8.13337 13.2689L8.01065 13.1323L8.19577 13.1154C8.79812 13.0602 9.24815 12.963 9.7207 12.7858C11.392 12.1594 12.6565 10.6784 13.0138 8.92906C13.0816 8.59715 13.1398 7.94968 13.1141 7.81291C13.0803 7.63232 12.8845 7.46563 12.7063 7.46563C12.6706 7.46563 12.5885 7.49364 12.5238 7.52786ZM2.96663 8.36541C3.14836 8.44583 3.3445 8.64395 3.4291 8.83258C3.50451 9.0007 3.52754 9.24431 3.48474 9.42143C3.42907 9.65172 3.24045 9.89014 3.02321 10.0048C2.89989 10.0699 2.85491 10.0779 2.61133 10.0779C2.36507 10.0779 2.32354 10.0703 2.19341 10.0017C1.8766 9.8348 1.71486 9.56156 1.71232 9.18892C1.7112 9.02343 1.72473 8.9539 1.78235 8.82927C1.90014 8.57455 2.13087 8.38187 2.39898 8.31434C2.54559 8.27738 2.82442 8.30249 2.96663 8.36541ZM3.19353 11.034C3.63163 11.1747 3.99547 11.4924 4.19784 11.911C4.32644 12.1771 4.37407 12.3981 4.39368 12.8201L4.41055 13.1826H2.61166H0.812766L0.828434 12.7928C0.837512 12.567 0.862887 12.3339 0.888781 12.2389C1.05941 11.6122 1.52939 11.153 2.16625 10.9907C2.45424 10.9173 2.88695 10.9355 3.19353 11.034Z" fill="#00154A"/>
</svg>
