<svg width="14" height="12" viewBox="0 0 14 12" fill="none" xmlns="http://www.w3.org/2000/svg">
<path fill-rule="evenodd" clip-rule="evenodd" d="M7.02093 0.0455347C6.09857 0.188718 5.32081 0.476241 4.58452 0.9462C3.27853 1.77979 2.31519 3.11084 1.9609 4.57122L1.90004 4.82204L1.33033 4.12254C1.01699 3.73781 0.750057 3.41921 0.737163 3.41453C0.724242 3.40985 0.553119 3.53272 0.356838 3.68761L0 3.96921L0.892902 5.06821C1.88583 6.29038 1.94641 6.35947 2.07196 6.4125C2.2764 6.49891 2.28759 6.49461 3.83077 5.73697L5.28257 5.02423L5.07208 4.60947L4.86162 4.19475L3.82653 4.70353C3.25723 4.98333 2.79144 5.20755 2.79144 5.20174C2.79144 5.12816 2.91955 4.6204 2.99585 4.39158C3.70536 2.26377 5.82509 0.817706 8.08857 0.917385C9.44329 0.977031 10.5963 1.47206 11.5395 2.39907C12.5435 3.38577 13.0607 4.60751 13.0607 5.99237C13.0607 6.81608 12.8954 7.51745 12.5312 8.23885C12.2637 8.76886 11.9835 9.14925 11.5395 9.58566C10.6146 10.4946 9.53382 10.9677 8.14332 11.0722L7.89694 11.0907L7.88941 11.5453L7.88188 12L8.25898 11.9841C10.5923 11.8858 12.7426 10.3451 13.6035 8.15477C13.8797 7.45193 14 6.79604 14 5.99237C14 5.3627 13.9583 5.02861 13.81 4.46987C13.3153 2.60569 11.939 1.09285 10.0919 0.383072C9.75362 0.253072 9.31315 0.133834 8.89614 0.0593904C8.48956 -0.0132235 7.44891 -0.0209181 7.02093 0.0455347Z" fill="#00154A"/>
</svg>
