<svg width="18" height="14" viewBox="0 0 18 14" fill="none" xmlns="http://www.w3.org/2000/svg">
<path d="M6.73486 7C6.73486 7.58016 6.96533 8.13656 7.37557 8.5468C7.7858 8.95703 8.3422 9.1875 8.92237 9.1875C9.50253 9.1875 10.0589 8.95703 10.4692 8.5468C10.8794 8.13656 11.1099 7.58016 11.1099 7C11.1099 6.41984 10.8794 5.86344 10.4692 5.4532C10.0589 5.04297 9.50253 4.8125 8.92237 4.8125C8.3422 4.8125 7.7858 5.04297 7.37557 5.4532C6.96533 5.86344 6.73486 6.41984 6.73486 7ZM17.4028 6.49609C15.5513 2.5957 12.7525 0.632812 9.00049 0.632812C5.24658 0.632812 2.4497 2.5957 0.598135 6.49805C0.523869 6.65531 0.485352 6.82706 0.485352 7.00098C0.485352 7.17489 0.523869 7.34665 0.598135 7.50391C2.4497 11.4043 5.24853 13.3672 9.00049 13.3672C12.7544 13.3672 15.5513 11.4043 17.4028 7.50195C17.5532 7.18555 17.5532 6.81836 17.4028 6.49609ZM8.92237 10.4375C7.02393 10.4375 5.48486 8.89844 5.48486 7C5.48486 5.10156 7.02393 3.5625 8.92237 3.5625C10.8208 3.5625 12.3599 5.10156 12.3599 7C12.3599 8.89844 10.8208 10.4375 8.92237 10.4375Z" fill="#DCDEE4"/>
</svg>
