<svg width="18" height="18" viewBox="0 0 18 18" fill="none" xmlns="http://www.w3.org/2000/svg">
<path fill-rule="evenodd" clip-rule="evenodd" d="M8.46256 0.702926C7.69425 0.813603 6.92753 1.20289 6.35948 1.77079C4.8899 3.23986 4.88974 5.58744 6.35912 7.04873C7.65081 8.33333 9.58827 8.51435 11.1164 7.49323C11.4252 7.28688 11.8687 6.84287 12.0823 6.52617C13.0818 5.04451 12.9301 3.1271 11.7111 1.83528C10.8943 0.969755 9.64151 0.53307 8.46256 0.702926ZM9.22862 2.68547C9.44529 2.79598 9.48828 2.92505 9.48828 3.46499V3.92202H9.94545C10.3394 3.92202 10.4204 3.9311 10.5311 3.98755C10.6756 4.06124 10.7908 4.24878 10.7908 4.4103C10.7908 4.57182 10.6756 4.75935 10.5311 4.83305C10.4204 4.8895 10.3394 4.89858 9.94545 4.89858H9.48828V5.35561C9.48828 5.89555 9.44529 6.02461 9.22862 6.13513C9.0618 6.22019 8.92563 6.21801 8.76484 6.12767C8.54973 6.00681 8.5114 5.89008 8.5114 5.35561V4.89858H8.05423C7.66028 4.89858 7.57927 4.8895 7.46856 4.83305C7.32408 4.75935 7.2089 4.57182 7.2089 4.4103C7.2089 4.24878 7.32408 4.06124 7.46856 3.98755C7.57927 3.9311 7.66028 3.92202 8.05423 3.92202H8.5114L8.51277 3.45815C8.51433 2.92437 8.54618 2.82583 8.75865 2.69725C8.91456 2.60292 9.05959 2.59927 9.22862 2.68547ZM3.741 8.57604C3.09676 8.71881 2.59565 9.16145 2.38354 9.77518C2.31252 9.98059 2.30826 10.0402 2.30826 10.823C2.30826 11.6059 2.31252 11.6655 2.38354 11.8709C2.56814 12.405 2.97074 12.8098 3.51567 13.0091C3.79216 13.1103 4.37366 13.1103 4.65015 13.0091C5.19508 12.8098 5.59768 12.405 5.78228 11.8709C5.8533 11.6655 5.85756 11.6059 5.85756 10.823C5.85756 10.0402 5.8533 9.98059 5.78228 9.77518C5.59706 9.23931 5.18632 8.8275 4.65015 8.64006C4.43292 8.56415 3.94862 8.53004 3.741 8.57604ZM13.5749 8.57604C12.9306 8.71881 12.4295 9.16145 12.2174 9.77518C12.1464 9.98059 12.1421 10.0402 12.1421 10.823C12.1421 11.6059 12.1464 11.6655 12.2174 11.8709C12.402 12.405 12.8046 12.8098 13.3495 13.0091C13.626 13.1103 14.2075 13.1103 14.484 13.0091C15.0289 12.8098 15.4315 12.405 15.6161 11.8709C15.6872 11.6655 15.6914 11.6059 15.6914 10.823C15.6914 10.0402 15.6872 9.98059 15.6161 9.77518C15.4309 9.23931 15.0202 8.8275 14.484 8.64006C14.2668 8.56415 13.7825 8.53004 13.5749 8.57604ZM8.65793 9.71535C8.01368 9.85812 7.51258 10.3008 7.30047 10.9145C7.22945 11.1199 7.22519 11.1795 7.22519 11.9623C7.22519 12.7452 7.22945 12.8048 7.30047 13.0102C7.48507 13.5443 7.88767 13.9491 8.4326 14.1484C8.70909 14.2496 9.29059 14.2496 9.56708 14.1484C10.112 13.9491 10.5146 13.5443 10.6992 13.0102C10.7702 12.8048 10.7745 12.7452 10.7745 11.9623C10.7745 11.1795 10.7702 11.1199 10.6992 10.9145C10.514 10.3786 10.1033 9.96682 9.56708 9.77938C9.34985 9.70347 8.86555 9.66936 8.65793 9.71535ZM1.85238 13.3523C1.17997 13.8427 0.735849 14.6571 0.674925 15.5114C0.657569 15.7549 0.663723 15.8058 0.725071 15.926C0.77157 16.0171 0.837997 16.085 0.923506 16.1286C1.04773 16.1919 1.11224 16.1941 2.85765 16.1941H4.6633L4.68639 16.0558C4.72853 15.8032 4.89805 15.3362 5.05741 15.0336C5.34734 14.483 5.75893 14.0145 6.26427 13.6597L6.49413 13.4983L6.37723 13.402C6.1432 13.2092 6.12256 13.2066 5.95346 13.3491C5.56919 13.6729 5.27212 13.8386 4.84152 13.9692C4.59225 14.0448 4.4959 14.0564 4.09919 14.0584C3.71987 14.0602 3.60073 14.0484 3.38969 13.9878C2.92769 13.8551 2.59477 13.6764 2.24369 13.3724C2.15446 13.2951 2.06655 13.2322 2.04831 13.2327C2.03011 13.2331 1.94193 13.2869 1.85238 13.3523ZM11.7514 13.3036C11.6976 13.342 11.6208 13.4026 11.5807 13.4383L11.5077 13.5031L11.7272 13.6503C12.0209 13.8472 12.5013 14.3306 12.7025 14.6316C12.9977 15.0731 13.2459 15.6519 13.3133 16.0558L13.3364 16.1941H15.142C16.8874 16.1941 16.9519 16.1919 17.0762 16.1286C17.1617 16.085 17.2281 16.0171 17.2746 15.926C17.336 15.8058 17.3421 15.7549 17.3248 15.5114C17.2741 14.8011 16.9726 14.1371 16.4748 13.6395C16.2832 13.448 16.0026 13.2319 15.9455 13.2319C15.9305 13.2319 15.8452 13.2951 15.756 13.3724C15.4104 13.6716 15.1106 13.8372 14.6757 13.9691C14.4261 14.0448 14.3299 14.0564 13.933 14.0584C13.5537 14.0602 13.4346 14.0484 13.2235 13.9878C12.7615 13.8551 12.4286 13.6764 12.0775 13.3724C11.9883 13.2951 11.9004 13.2323 11.8822 13.2329C11.864 13.2335 11.8051 13.2653 11.7514 13.3036ZM6.76931 14.4916C6.0969 14.9821 5.65278 15.7964 5.59185 16.6507C5.5745 16.8943 5.58065 16.9451 5.642 17.0653C5.6885 17.1565 5.75493 17.2243 5.84043 17.2679C5.96648 17.3322 6.02643 17.3334 8.99984 17.3334C11.9732 17.3334 12.0332 17.3322 12.1592 17.2679C12.2448 17.2243 12.3112 17.1565 12.3577 17.0653C12.419 16.9451 12.4252 16.8943 12.4078 16.6507C12.3572 15.9404 12.0557 15.2764 11.5579 14.7788C11.3663 14.5873 11.0857 14.3712 11.0286 14.3712C11.0136 14.3712 10.9283 14.4344 10.8391 14.5117C10.4935 14.8109 10.1937 14.9765 9.75877 15.1084C9.50915 15.1841 9.41296 15.1957 9.01612 15.1977C8.63478 15.1996 8.51765 15.1878 8.29975 15.1257C7.92218 15.0181 7.55589 14.8289 7.25247 14.5849C7.1063 14.4674 6.97442 14.3715 6.95941 14.372C6.9444 14.3724 6.85886 14.4262 6.76931 14.4916Z" fill="#C3C7D1"/>
</svg>
