<svg width="1295" height="522" viewBox="0 0 1295 522" fill="none" xmlns="http://www.w3.org/2000/svg">
<path d="M182.306 311.405C183.525 314.505 184.792 317.582 186.109 320.637L186.568 320.439C187.883 323.492 189.247 326.523 190.659 329.529L190.206 329.742C191.621 332.756 193.084 335.746 194.593 338.711L195.039 338.485C196.546 341.448 198.1 344.386 199.699 347.298L199.261 347.539C200.864 350.457 202.511 353.349 204.203 356.215L204.634 355.961C206.324 358.823 208.057 361.659 209.834 364.467L209.412 364.734C211.191 367.547 213.014 370.332 214.879 373.089L215.293 372.809C217.155 375.562 219.059 378.287 221.003 380.982L220.598 381.274C222.545 383.974 224.533 386.644 226.561 389.284L226.957 388.979C228.982 391.615 231.045 394.221 233.147 396.795L232.76 397.111C234.865 399.689 237.008 402.237 239.189 404.752L239.567 404.424C241.744 406.935 243.958 409.414 246.208 411.861L245.84 412.199C248.093 414.649 250.382 417.066 252.706 419.45L253.064 419.1C255.384 421.48 257.739 423.826 260.127 426.138L259.78 426.497C262.172 428.812 264.597 431.092 267.055 433.336L267.392 432.967C269.846 435.209 272.333 437.415 274.851 439.584L274.524 439.963C277.046 442.136 279.598 444.273 282.181 446.372L282.497 445.984C285.076 448.081 287.685 450.14 290.323 452.162L290.019 452.559C292.661 454.583 295.333 456.57 298.032 458.518L298.324 458.112C301.02 460.057 303.743 461.964 306.492 463.83L306.212 464.244C308.966 466.114 311.747 467.943 314.553 469.733L314.822 469.311C317.625 471.098 320.453 472.844 323.306 474.549L323.049 474.979C325.907 476.686 328.789 478.353 331.694 479.977L331.938 479.54C334.839 481.162 337.764 482.742 340.711 484.278L340.48 484.721C343.432 486.26 346.406 487.756 349.401 489.207L349.619 488.757C352.61 490.207 355.622 491.613 358.654 492.973L358.449 493.429C361.487 494.792 364.544 496.11 367.619 497.381L367.81 496.919C370.882 498.189 373.972 499.413 377.08 500.59L376.903 501.058C380.016 502.237 383.146 503.37 386.293 504.454L386.456 503.981C389.598 505.064 392.757 506.099 395.93 507.086L395.782 507.563C398.96 508.551 402.154 509.491 405.361 510.38L405.495 509.898C408.697 510.787 411.913 511.625 415.142 512.413L415.023 512.899C418.256 513.688 421.502 514.427 424.759 515.114L424.863 514.625C428.114 515.311 431.376 515.946 434.649 516.529L434.561 517.021C437.837 517.604 441.123 518.135 444.418 518.613L444.49 518.119C447.777 518.595 451.073 519.019 454.377 519.389L454.321 519.886C457.627 520.257 460.94 520.573 464.26 520.836L464.3 520.337C465.956 520.468 467.614 520.585 469.274 520.689C470.925 520.791 472.569 520.884 474.208 520.967L474.183 521.466C477.489 521.632 480.772 521.756 484.04 521.836L484.052 521.336C487.349 521.416 490.63 521.452 493.901 521.44L493.903 521.94C497.199 521.928 500.485 521.867 503.768 521.757L503.751 521.257C507.032 521.147 510.31 520.986 513.59 520.773L513.622 521.272C516.895 521.059 520.17 520.794 523.454 520.474L523.406 519.977C526.657 519.66 529.917 519.291 533.192 518.865L533.256 519.361C536.494 518.941 539.747 518.466 543.021 517.935L542.941 517.441C546.153 516.92 549.386 516.344 552.644 515.712L552.739 516.203C555.935 515.582 559.155 514.908 562.405 514.178L562.295 513.69C565.46 512.979 568.654 512.215 571.88 511.395L572.003 511.88C575.146 511.082 578.32 510.232 581.531 509.328L581.395 508.847C584.511 507.97 587.66 507.042 590.848 506.063L590.995 506.541C594.091 505.589 597.224 504.588 600.396 503.537L600.239 503.062C603.311 502.044 606.421 500.979 609.572 499.865L609.738 500.336C612.79 499.257 615.881 498.132 619.012 496.961L618.837 496.493C621.861 495.362 624.923 494.187 628.027 492.968L628.21 493.433C631.218 492.252 634.264 491.029 637.352 489.764L637.162 489.301C640.152 488.075 643.18 486.81 646.25 485.504L646.446 485.964C649.426 484.696 652.444 483.389 655.503 482.044L655.302 481.586C658.271 480.28 661.279 478.937 664.328 477.556L664.534 478.011C667.491 476.672 670.487 475.297 673.522 473.887L673.311 473.433C676.236 472.074 679.198 470.68 682.198 469.253L682.413 469.705C685.339 468.313 688.301 466.89 691.301 465.433L691.083 464.983C694.011 463.561 696.976 462.108 699.979 460.623L700.201 461.072C703.102 459.637 706.037 458.173 709.01 456.679L708.785 456.232C711.677 454.779 714.603 453.296 717.565 451.785L717.792 452.231C720.699 450.748 723.64 449.237 726.617 447.698L726.387 447.254C729.259 445.769 732.164 444.257 735.103 442.719L735.335 443.162C738.212 441.657 741.121 440.126 744.063 438.57L743.829 438.128C746.716 436.601 749.634 435.049 752.585 433.472L752.821 433.913C755.67 432.391 758.55 430.846 761.461 429.277L761.224 428.836C764.104 427.284 767.014 425.709 769.956 424.11L770.195 424.55C773.036 423.006 775.907 421.44 778.808 419.852L778.568 419.413C781.43 417.846 784.321 416.258 787.242 414.648L787.484 415.086C790.328 413.519 793.2 411.931 796.101 410.322L795.859 409.885C798.708 408.305 801.585 406.705 804.49 405.085L804.734 405.522C807.577 403.937 810.446 402.332 813.344 400.708L813.1 400.272C814.548 399.46 816.004 398.643 817.467 397.822C818.866 397.036 820.281 396.239 821.713 395.431L821.958 395.866C824.822 394.251 827.749 392.592 830.736 390.892L830.489 390.457C833.325 388.844 836.215 387.194 839.158 385.508L839.406 385.942C842.285 384.293 845.213 382.61 848.188 380.895L847.939 380.462C850.772 378.829 853.648 377.166 856.565 375.476L856.816 375.908C859.692 374.242 862.607 372.548 865.561 370.828L865.309 370.396C868.15 368.742 871.026 367.063 873.936 365.362L874.188 365.794C877.054 364.118 879.951 362.42 882.88 360.7L882.627 360.269C885.482 358.593 888.367 356.896 891.279 355.18L891.533 355.61C894.385 353.93 897.264 352.23 900.167 350.514L899.913 350.083C902.785 348.385 905.682 346.669 908.602 344.938L908.857 345.368C911.697 343.684 914.557 341.984 917.439 340.271L917.183 339.841C920.064 338.127 922.966 336.399 925.887 334.657L926.143 335.086C928.978 333.395 931.832 331.691 934.702 329.974L934.445 329.545C937.308 327.834 940.187 326.11 943.082 324.375L943.339 324.804C946.197 323.09 949.071 321.365 951.959 319.63L951.701 319.202C954.549 317.491 957.41 315.77 960.283 314.04L960.541 314.468C963.415 312.737 966.301 310.997 969.199 309.249L968.941 308.82C971.78 307.108 974.629 305.386 977.489 303.657L977.748 304.085C980.606 302.357 983.474 300.621 986.351 298.877L986.092 298.45C988.949 296.718 991.816 294.98 994.691 293.235L994.95 293.662C997.798 291.934 1000.65 290.199 1003.51 288.458L1003.25 288.031C1006.12 286.291 1008.98 284.545 1011.86 282.794L1012.12 283.221C1014.97 281.486 1017.82 279.745 1020.68 278.001L1020.42 277.574C1023.27 275.833 1026.13 274.088 1028.99 272.339L1029.25 272.766C1032.11 271.019 1034.97 269.268 1037.83 267.515L1037.57 267.088C1040.42 265.344 1043.27 263.597 1046.12 261.847L1046.38 262.273C1049.24 260.523 1052.09 258.77 1054.95 257.016L1054.68 256.59C1057.54 254.837 1060.39 253.083 1063.24 251.327L1063.5 251.753C1066.35 249.998 1069.2 248.242 1072.05 246.486L1071.79 246.06C1074.64 244.304 1077.49 242.547 1080.34 240.789L1080.6 241.214C1083.45 239.453 1086.3 237.691 1089.15 235.93L1088.89 235.504C1091.74 233.742 1094.58 231.981 1097.43 230.22L1097.69 230.645C1100.54 228.882 1103.38 227.119 1106.22 225.358L1105.96 224.933C1108.81 223.162 1111.66 221.392 1114.5 219.625L1114.77 220.05C1117.61 218.283 1120.45 216.517 1123.28 214.755L1123.02 214.33C1125.87 212.555 1128.72 210.783 1131.55 209.014L1131.82 209.438C1134.67 207.661 1137.51 205.887 1140.35 204.117L1140.08 203.693C1142.92 201.923 1145.74 200.157 1148.56 198.395L1148.82 198.819C1151.69 197.028 1154.54 195.241 1157.38 193.46L1157.12 193.037C1159.96 191.256 1162.79 189.48 1165.61 187.711L1165.88 188.134C1168.72 186.347 1171.56 184.566 1174.38 182.792L1174.11 182.369C1176.97 180.574 1179.81 178.785 1182.64 177.005L1182.9 177.428C1185.73 175.647 1188.54 173.874 1191.34 172.109L1191.07 171.686C1193.94 169.875 1196.79 168.073 1199.63 166.281L1199.9 166.704C1202.74 164.908 1205.56 163.123 1208.36 161.348L1208.09 160.925C1210.94 159.119 1213.77 157.324 1216.58 155.54L1216.85 155.962C1219.7 154.15 1222.53 152.349 1225.34 150.561L1225.07 150.139C1227.9 148.34 1230.71 146.553 1233.48 144.78L1233.75 145.201C1236.63 143.369 1239.47 141.55 1242.29 139.748L1242.02 139.326C1244.84 137.524 1247.63 135.737 1250.39 133.966L1250.66 134.387C1253.54 132.54 1256.39 130.711 1259.2 128.901L1258.93 128.48C1261.76 126.662 1264.55 124.862 1267.31 123.083L1267.58 123.503C1270.46 121.65 1273.29 119.818 1276.08 118.009L1275.81 117.589C1278.64 115.755 1281.44 113.945 1284.18 112.16L1284.45 112.579C1287.33 110.711 1290.16 108.87 1292.93 107.058L1292.66 106.639C1295.49 104.793 1298.27 102.976 1300.99 101.191L1301.26 101.609C1304.15 99.7141 1306.98 97.8543 1309.75 96.032L1309.47 95.6145C1312.28 93.7617 1315.03 91.9476 1317.7 90.1741L1317.98 90.5908C1320.9 88.6528 1323.73 86.7633 1326.49 84.9248L1326.21 84.5091C1329.08 82.5914 1331.85 80.7292 1334.52 78.9254L1334.8 79.3399C1337.65 77.4163 1340.39 75.5591 1343.01 73.7716L1342.73 73.3586C1345.68 71.3452 1348.48 69.4204 1351.11 67.5891L1351.4 67.9999C1354.36 65.9481 1357.11 64.0136 1359.66 62.2032L1359.37 61.7957C1362.38 59.6546 1365.1 57.6881 1367.5 55.9074L1367.8 56.3091C1370.95 53.9765 1373.56 51.9613 1375.6 50.2891L1375.28 49.9028C1376.88 48.5914 1378.1 47.5007 1378.95 46.6405C1380.15 45.4255 1381.33 44.1396 1382.48 42.7896L1382.86 43.1146C1385.07 40.5314 1387.19 37.7174 1389.2 34.7205L1388.78 34.4423C1390.69 31.6009 1392.49 28.5932 1394.17 25.4603L1394.61 25.6966C1396.25 22.6402 1397.77 19.466 1399.16 16.2119L1398.7 16.0155C1400.07 12.8128 1401.31 9.53235 1402.4 6.21067L1402.87 6.36643C1403.97 3.01775 1404.92 -0.372765 1405.7 -3.76824L1405.21 -3.88011C1405.6 -5.59077 1405.95 -7.30247 1406.26 -9.01031C1406.59 -10.8913 1406.87 -12.6338 1407.1 -14.2863L1407.6 -14.218C1408.13 -18.0579 1408.36 -21.4247 1408.25 -24.9073L1407.75 -24.891C1407.64 -28.1365 1407.23 -31.4901 1406.47 -35.4448L1406.96 -35.5389C1406.38 -38.5967 1405.58 -42.0059 1404.57 -45.9903L1404.08 -45.8666C1403.67 -47.494 1403.22 -49.218 1402.72 -51.0541C1402.23 -52.8901 1401.76 -54.6096 1401.31 -56.2266L1401.79 -56.3618C1400.68 -60.3207 1399.66 -63.6692 1398.64 -66.6103L1398.16 -66.4462C1396.84 -70.2501 1395.52 -73.3592 1393.99 -76.2229L1394.43 -76.4586C1392.79 -79.5316 1390.9 -82.331 1388.53 -85.3918L1388.13 -85.085C1387.11 -86.4021 1385.99 -87.7696 1384.76 -89.2309C1383.65 -90.5507 1382.49 -91.852 1381.3 -93.1317L1381.67 -93.4722C1379.31 -96.0097 1376.81 -98.4616 1374.19 -100.804L1373.86 -100.432C1371.27 -102.755 1368.57 -104.97 1365.8 -107.053L1366.1 -107.453C1363.29 -109.572 1360.4 -111.555 1357.47 -113.377L1357.2 -112.953C1354.2 -114.826 1351.15 -116.529 1348.1 -118.033L1348.32 -118.482C1345.1 -120.077 1341.87 -121.451 1338.69 -122.573L1338.52 -122.102C1336.85 -122.692 1335.2 -123.211 1333.56 -123.655C1332.83 -123.855 1331.2 -124.1 1328.72 -124.379L1328.78 -124.876C1326.25 -125.162 1322.88 -125.48 1318.75 -125.824L1318.71 -125.326C1315.75 -125.572 1312.41 -125.832 1308.72 -126.104L1308.76 -126.603C1305.66 -126.831 1302.31 -127.068 1298.73 -127.311L1298.69 -126.813C1295.53 -127.028 1292.19 -127.249 1288.68 -127.474L1288.71 -127.973C1285.51 -128.179 1282.16 -128.389 1278.69 -128.603L1278.66 -128.104C1275.42 -128.303 1272.07 -128.505 1268.61 -128.709L1268.64 -129.208C1265.4 -129.4 1262.06 -129.594 1258.64 -129.79L1258.61 -129.291C1255.33 -129.478 1251.98 -129.667 1248.56 -129.857L1248.59 -130.356C1245.32 -130.538 1241.98 -130.721 1238.58 -130.905L1238.55 -130.405C1235.26 -130.583 1231.91 -130.762 1228.52 -130.941L1228.54 -131.44C1225.24 -131.614 1221.9 -131.788 1218.51 -131.962L1218.48 -131.463C1215.18 -131.632 1211.84 -131.802 1208.46 -131.972L1208.49 -132.471C1205.18 -132.637 1201.83 -132.803 1198.45 -132.969L1198.43 -132.469C1196.72 -132.553 1195.01 -132.637 1193.28 -132.72C1191.66 -132.799 1190.03 -132.877 1188.39 -132.956L1188.42 -133.455C1185.1 -133.615 1181.75 -133.773 1178.38 -133.931L1178.36 -133.432C1175.04 -133.587 1171.69 -133.742 1168.33 -133.896L1168.35 -134.396C1165.03 -134.548 1161.68 -134.699 1158.32 -134.85L1158.3 -134.35C1156.63 -134.425 1154.95 -134.5 1153.28 -134.574C1151.58 -134.649 1149.89 -134.724 1148.2 -134.8L1148.22 -135.299C1144.82 -135.451 1141.44 -135.605 1138.08 -135.759L1138.05 -135.259C1134.65 -135.415 1131.27 -135.571 1127.92 -135.728L1127.94 -136.228C1124.53 -136.387 1121.15 -136.548 1117.79 -136.708L1117.77 -136.209C1114.36 -136.372 1110.97 -136.536 1107.62 -136.7L1107.64 -137.2C1104.23 -137.367 1100.85 -137.534 1097.5 -137.701L1097.48 -137.202C1094.06 -137.373 1090.69 -137.544 1087.35 -137.715L1087.37 -138.214C1083.94 -138.39 1080.56 -138.565 1077.22 -138.74L1077.19 -138.241C1073.76 -138.421 1070.38 -138.601 1067.05 -138.78L1067.08 -139.279C1063.64 -139.464 1060.27 -139.647 1056.96 -139.83L1056.93 -139.331C1053.47 -139.522 1050.08 -139.712 1046.77 -139.9L1046.8 -140.399C1043.34 -140.596 1039.96 -140.79 1036.68 -140.983L1036.65 -140.484C1033.16 -140.689 1029.77 -140.891 1026.49 -141.091L1026.53 -141.59C1023.01 -141.804 1019.63 -142.014 1016.39 -142.22L1016.35 -141.722C1012.8 -141.947 1009.42 -142.168 1006.22 -142.383L1006.25 -142.882C1002.64 -143.125 999.254 -143.361 996.119 -143.589L996.083 -143.09C992.353 -143.361 988.976 -143.62 985.984 -143.865L986.025 -144.363C981.867 -144.703 978.456 -145.017 975.881 -145.299L975.826 -144.802C973.404 -145.067 971.689 -145.307 970.787 -145.519C969.243 -145.882 967.666 -146.312 966.064 -146.807L966.212 -147.284C963.247 -148.199 960.19 -149.333 957.085 -150.659L956.889 -150.199C953.978 -151.442 951.026 -152.852 948.067 -154.406L948.3 -154.849C945.479 -156.331 942.651 -157.945 939.846 -159.671L939.584 -159.246C936.835 -160.938 934.11 -162.738 931.435 -164.627L931.724 -165.035C929.073 -166.907 926.474 -168.866 923.953 -170.896L923.639 -170.506C921.082 -172.564 918.605 -174.694 916.238 -176.877L916.577 -177.244C914.15 -179.482 911.838 -181.776 909.674 -184.104L909.308 -183.764C908.184 -184.972 907.1 -186.191 906.059 -187.417C905.086 -188.563 904.177 -189.642 903.326 -190.669L903.71 -190.988C901.678 -193.438 899.974 -195.587 898.496 -197.648L898.09 -197.356C896.348 -199.786 894.916 -202.098 893.635 -204.631L894.081 -204.857C892.906 -207.18 891.86 -209.689 890.814 -212.654L890.342 -212.487C889.507 -214.854 888.673 -217.507 887.775 -220.578L888.255 -220.719C887.545 -223.147 886.795 -225.842 885.973 -228.869L885.49 -228.738C885.136 -230.042 884.768 -231.407 884.384 -232.84C884 -234.272 883.636 -235.638 883.291 -236.945L883.774 -237.073C882.973 -240.105 882.276 -242.814 881.676 -245.272L881.19 -245.154C880.432 -248.262 879.828 -250.977 879.368 -253.444L879.859 -253.536C879.283 -256.627 878.935 -259.323 878.791 -261.921L878.291 -261.894C878.134 -264.728 878.218 -267.446 878.512 -270.422L879.01 -270.373C879.259 -272.896 879.66 -275.609 880.195 -278.747L879.702 -278.832C879.927 -280.147 880.174 -281.535 880.444 -283.015C880.732 -284.596 881.062 -286.194 881.431 -287.802L881.918 -287.691C882.628 -290.789 883.483 -293.931 884.466 -297.083L883.989 -297.231C884.948 -300.305 886.028 -303.388 887.213 -306.449L887.679 -306.268C888.848 -309.286 890.12 -312.283 891.479 -315.229L891.025 -315.439C892.396 -318.412 893.857 -321.333 895.391 -324.173L895.831 -323.935C897.396 -326.833 899.038 -329.645 900.74 -332.339L900.318 -332.606C902.103 -335.431 903.955 -338.128 905.854 -340.659L906.254 -340.359C908.281 -343.06 910.361 -345.571 912.471 -347.844L912.105 -348.185C913.245 -349.413 914.395 -350.574 915.552 -351.66C916.357 -352.416 917.646 -353.472 919.35 -354.782L919.655 -354.385C921.693 -355.952 924.345 -357.899 927.513 -360.159L927.223 -360.566C929.605 -362.265 932.278 -364.141 935.199 -366.165L935.484 -365.754C937.991 -367.49 940.681 -369.336 943.527 -371.272L943.246 -371.686C945.819 -373.436 948.519 -375.26 951.327 -377.145L951.606 -376.73C954.222 -378.485 956.932 -380.294 959.719 -382.144L959.443 -382.561C962.09 -384.318 964.807 -386.113 967.58 -387.936L967.855 -387.518C970.527 -389.275 973.251 -391.058 976.015 -392.858L975.743 -393.277C978.435 -395.032 981.166 -396.803 983.923 -398.584L984.195 -398.164C986.907 -399.915 989.644 -401.676 992.398 -403.438L992.128 -403.859C993.495 -404.734 994.865 -405.61 996.238 -406.485L1000.63 -409.282L1000.9 -408.86C1003.8 -410.713 1006.67 -412.543 1009.51 -414.349L1009.24 -414.77C1012.09 -416.591 1014.91 -418.389 1017.7 -420.163L1017.97 -419.741C1020.9 -421.613 1023.8 -423.46 1026.65 -425.281L1026.38 -425.703C1029.24 -427.524 1032.05 -429.32 1034.83 -431.09L1035.1 -430.669C1038.04 -432.544 1040.93 -434.391 1043.78 -436.211L1043.51 -436.632C1046.38 -438.464 1049.2 -440.267 1051.98 -442.044L1052.25 -441.623C1055.18 -443.496 1058.07 -445.338 1060.9 -447.151L1060.63 -447.573C1063.5 -449.409 1066.33 -451.214 1069.1 -452.99L1069.37 -452.569C1072.31 -454.449 1075.19 -456.296 1078.02 -458.11L1077.75 -458.531C1080.61 -460.366 1083.42 -462.167 1086.17 -463.935L1086.44 -463.514C1089.39 -465.409 1092.28 -467.266 1095.12 -469.087L1094.85 -469.507C1097.74 -471.368 1100.57 -473.192 1103.34 -474.978L1103.61 -474.558C1106.52 -476.435 1109.37 -478.272 1112.15 -480.069L1111.88 -480.489C1113.54 -481.562 1115.18 -482.622 1116.79 -483.667C1118.03 -484.467 1119.25 -485.258 1120.45 -486.041L1120.73 -485.621C1123.62 -487.501 1126.44 -489.335 1129.19 -491.124L1128.92 -491.543C1131.83 -493.439 1134.66 -495.286 1137.41 -497.085L1137.68 -496.666C1140.62 -498.591 1143.47 -500.461 1146.23 -502.278L1145.95 -502.696C1148.88 -504.624 1151.71 -506.493 1154.44 -508.306L1154.72 -507.89C1157.64 -509.831 1160.45 -511.708 1163.16 -513.524L1162.88 -513.939C1165.81 -515.901 1168.61 -517.793 1171.3 -519.617L1171.58 -519.204C1174.51 -521.196 1177.3 -523.109 1179.96 -524.948L1179.68 -525.359C1182.61 -527.386 1185.38 -529.323 1188 -531.178L1188.29 -530.77C1191.21 -532.837 1193.94 -534.803 1196.5 -536.677L1196.21 -537.08C1199.14 -539.226 1201.85 -541.251 1204.35 -543.172L1204.65 -542.776C1207.55 -545.002 1210.17 -547.088 1212.56 -549.06L1212.24 -549.445C1215.12 -551.827 1217.64 -554.039 1219.87 -556.124L1220.21 -555.759C1222.99 -558.358 1225.32 -560.765 1227.31 -563.061L1226.93 -563.388C1229.36 -566.202 1231.28 -568.846 1232.89 -571.476L1233.32 -571.215C1235.13 -574.171 1236.56 -577.112 1237.9 -580.255L1237.44 -580.452C1238.09 -581.962 1238.72 -583.52 1239.36 -585.153C1239.99 -586.766 1240.58 -588.491 1241.13 -590.306L1241.61 -590.161C1242.62 -593.468 1243.48 -597.067 1244.2 -600.833L1243.7 -600.927C1244.37 -604.423 1244.9 -608.066 1245.3 -611.757L1245.8 -611.703C1246.2 -615.343 1246.46 -619.028 1246.58 -622.662L1246.08 -622.679C1246.21 -626.417 1246.2 -630.101 1246.02 -633.625L1246.52 -633.649C1246.34 -637.526 1245.96 -641.212 1245.4 -644.572L1244.9 -644.489C1244.59 -646.378 1244.21 -648.159 1243.76 -649.809C1243.33 -651.432 1242.84 -653.055 1242.28 -654.675L1242.76 -654.835C1241.68 -658.02 1240.38 -661.189 1238.89 -664.319L1238.44 -664.104C1237 -667.134 1235.37 -670.128 1233.59 -673.065L1234.02 -673.325C1232.26 -676.219 1230.35 -679.058 1228.3 -681.819L1227.9 -681.522C1225.88 -684.242 1223.73 -686.887 1221.47 -689.439L1221.84 -689.77C1219.58 -692.327 1217.2 -694.789 1214.73 -697.136L1214.38 -696.774C1211.9 -699.127 1209.33 -701.364 1206.69 -703.467L1207 -703.858C1204.3 -706.002 1201.52 -708.006 1198.69 -709.849L1198.42 -709.43C1195.53 -711.309 1192.59 -713.019 1189.61 -714.538L1189.83 -714.984C1186.74 -716.562 1183.6 -717.936 1180.45 -719.082L1180.28 -718.612C1178.67 -719.197 1177.06 -719.721 1175.44 -720.183C1174.37 -720.489 1172.9 -720.813 1171.05 -721.15L1171.14 -721.642C1168.71 -722.084 1165.67 -722.545 1162.11 -723.015L1162.04 -722.519C1159.31 -722.879 1156.28 -723.245 1152.98 -723.611L1153.03 -724.108C1150.19 -724.424 1147.15 -724.741 1143.95 -725.055L1143.9 -724.558C1141 -724.843 1137.96 -725.126 1134.81 -725.406L1134.85 -725.904C1131.91 -726.165 1128.87 -726.423 1125.74 -726.676L1125.7 -726.177C1122.74 -726.417 1119.7 -726.652 1116.61 -726.882L1116.64 -727.381C1113.66 -727.602 1110.61 -727.819 1107.53 -728.028L1107.49 -727.529C1104.49 -727.733 1101.45 -727.931 1098.38 -728.121L1098.41 -728.62C1095.4 -728.807 1092.35 -728.987 1089.29 -729.158L1089.27 -728.659C1087.75 -728.744 1086.23 -728.827 1084.71 -728.908C1083.02 -728.998 1081.33 -729.087 1079.65 -729.176L1079.68 -729.675C1076.32 -729.852 1072.96 -730.029 1069.62 -730.204L1069.59 -729.704C1066.25 -729.879 1062.92 -730.052 1059.59 -730.224L1059.62 -730.724C1056.29 -730.895 1052.98 -731.066 1049.68 -731.235L1049.65 -730.736C1047.84 -730.828 1046.03 -730.921 1044.23 -731.012C1042.7 -731.09 1041.18 -731.167 1039.65 -731.244L1039.68 -731.744C1036.31 -731.914 1032.96 -732.083 1029.62 -732.25L1029.59 -731.751C1027.86 -731.837 1026.13 -731.924 1024.41 -732.009C1022.8 -732.089 1021.19 -732.169 1019.59 -732.248L1019.61 -732.748C1016.29 -732.912 1012.98 -733.075 1009.68 -733.236L1009.65 -732.737C1006.3 -732.9 1002.97 -733.062 999.639 -733.223L999.663 -733.722C996.299 -733.884 992.946 -734.045 989.604 -734.204L989.58 -733.705C986.238 -733.864 982.907 -734.021 979.586 -734.177L979.61 -734.677C976.289 -734.833 972.979 -734.987 969.68 -735.14L969.657 -734.64C966.298 -734.796 962.949 -734.95 959.613 -735.103L959.635 -735.602C956.275 -735.756 952.925 -735.907 949.587 -736.058L949.564 -735.558C946.226 -735.708 942.9 -735.857 939.585 -736.004L939.607 -736.503C936.291 -736.65 932.987 -736.795 929.695 -736.939L929.673 -736.44C927.809 -736.521 925.948 -736.602 924.091 -736.682C922.584 -736.747 921.079 -736.812 919.577 -736.876L919.598 -737.376C916.243 -737.52 912.9 -737.662 909.569 -737.802L909.548 -737.303C906.217 -737.443 902.898 -737.582 899.59 -737.719L899.611 -738.218C896.274 -738.357 892.948 -738.493 889.635 -738.628L889.615 -738.128C886.243 -738.265 882.885 -738.4 879.538 -738.534L879.558 -739.033C876.212 -739.167 872.878 -739.298 869.557 -739.428L869.538 -738.928C866.217 -739.058 862.908 -739.186 859.612 -739.312L859.631 -739.812C856.263 -739.941 852.908 -740.067 849.566 -740.193L849.548 -739.693C846.187 -739.819 842.84 -739.942 839.506 -740.064L839.525 -740.564C836.191 -740.686 832.87 -740.806 829.562 -740.924L829.545 -740.424C826.205 -740.543 822.879 -740.66 819.567 -740.775L819.584 -741.275C816.211 -741.392 812.851 -741.508 809.506 -741.621L809.489 -741.121C806.143 -741.234 802.812 -741.346 799.495 -741.455L799.511 -741.955C796.194 -742.064 792.89 -742.171 789.601 -742.276L789.585 -741.776C787.712 -741.836 785.844 -741.895 783.98 -741.954C782.476 -742.001 780.976 -742.048 779.478 -742.094L779.493 -742.594C776.138 -742.697 772.797 -742.799 769.471 -742.899L769.456 -742.399C767.236 -742.465 765.023 -742.531 762.816 -742.595C761.717 -742.627 760.619 -742.659 759.523 -742.691L759.538 -743.191C756.17 -743.288 752.817 -743.383 749.48 -743.475L749.466 -742.976C746.827 -743.049 744.198 -743.121 741.578 -743.191L739.423 -743.249L739.436 -743.749C736.104 -743.838 732.787 -743.924 729.486 -744.009L729.474 -743.509C726.116 -743.594 722.774 -743.678 719.449 -743.759L719.462 -744.259C716.092 -744.341 712.739 -744.42 709.403 -744.497L709.391 -743.998C706.055 -744.075 702.735 -744.149 699.433 -744.222L699.444 -744.722C696.089 -744.795 692.752 -744.866 689.433 -744.934L689.422 -744.435C686.05 -744.504 682.695 -744.571 679.358 -744.635L679.367 -745.135C676.03 -745.199 672.71 -745.261 669.408 -745.32L669.399 -744.82C666.042 -744.88 662.704 -744.938 659.383 -744.992L659.392 -745.492C656.019 -745.548 652.665 -745.601 649.33 -745.651L649.322 -745.151C645.988 -745.201 642.672 -745.248 639.375 -745.293L639.382 -745.793C636.014 -745.838 632.667 -745.881 629.339 -745.921L629.333 -745.421C627.051 -745.448 624.779 -745.474 622.515 -745.498C621.438 -745.51 620.362 -745.521 619.288 -745.532L619.293 -746.032C615.965 -746.067 612.657 -746.098 609.369 -746.126L609.364 -745.626C605.98 -745.655 602.618 -745.682 599.276 -745.704L599.28 -746.205C595.92 -746.228 592.581 -746.247 589.265 -746.264L589.262 -745.764C585.928 -745.781 582.616 -745.795 579.326 -745.805L579.328 -746.305C575.936 -746.316 572.568 -746.323 569.223 -746.327L569.222 -745.827C565.877 -745.831 562.556 -745.831 559.257 -745.829L559.257 -746.329C555.891 -746.326 552.549 -746.319 549.231 -746.309L549.232 -745.809C545.86 -745.799 542.511 -745.785 539.188 -745.768L539.186 -746.268C535.857 -746.25 532.554 -746.229 529.276 -746.204L529.279 -745.704C525.879 -745.678 522.506 -745.649 519.159 -745.615L519.154 -746.115C515.807 -746.081 512.487 -746.044 509.194 -746.002L509.2 -745.502C505.825 -745.46 502.478 -745.413 499.159 -745.362L499.151 -745.862C495.782 -745.81 492.443 -745.754 489.132 -745.694L489.141 -745.194C485.789 -745.133 482.466 -745.068 479.174 -744.998L479.163 -745.498C475.775 -745.427 472.418 -745.35 469.093 -745.269L469.105 -744.769C465.77 -744.688 462.466 -744.602 459.194 -744.512L459.18 -745.012C455.776 -744.917 452.406 -744.818 449.07 -744.714L449.085 -744.214C445.75 -744.11 442.449 -744 439.182 -743.886L439.164 -744.386C435.758 -744.266 432.388 -744.142 429.055 -744.011L429.075 -743.512C425.734 -743.381 422.43 -743.245 419.164 -743.104L419.142 -743.603C415.736 -743.456 412.371 -743.302 409.046 -743.142L409.07 -742.643C405.73 -742.483 402.432 -742.316 399.174 -742.144L399.147 -742.643C395.735 -742.462 392.368 -742.275 389.046 -742.082L389.075 -741.582C385.73 -741.387 382.43 -741.185 379.175 -740.977L379.143 -741.476C375.734 -741.257 372.375 -741.031 369.066 -740.798L369.101 -740.299C365.734 -740.062 362.418 -739.817 359.154 -739.564L359.116 -740.063C355.732 -739.801 352.404 -739.531 349.13 -739.253L349.173 -738.755C345.778 -738.466 342.443 -738.169 339.168 -737.863L339.121 -738.36C335.767 -738.047 332.475 -737.724 329.245 -737.392L329.296 -736.895C325.886 -736.544 322.545 -736.183 319.273 -735.812L319.217 -736.309C315.822 -735.924 312.502 -735.528 309.257 -735.12L309.319 -734.624C305.951 -734.201 302.663 -733.767 299.455 -733.32L299.386 -733.815C295.997 -733.343 292.697 -732.858 289.487 -732.359L289.564 -731.865C286.155 -731.336 282.848 -730.792 279.642 -730.232L279.556 -730.725C276.156 -730.132 272.869 -729.522 269.695 -728.895L269.792 -728.404C268.164 -728.083 266.566 -727.756 264.997 -727.426C263.318 -727.072 261.643 -726.705 259.972 -726.326L259.861 -726.814C256.508 -726.053 253.173 -725.241 249.857 -724.38L249.983 -723.896C246.66 -723.033 243.357 -722.119 240.074 -721.157L239.934 -721.636C236.634 -720.669 233.355 -719.651 230.098 -718.584L230.253 -718.109C226.992 -717.04 223.751 -715.923 220.534 -714.756L220.363 -715.226C217.132 -714.054 213.924 -712.834 210.74 -711.565L210.925 -711.1C207.738 -709.83 204.575 -708.511 201.436 -707.145L201.236 -707.603C198.086 -706.231 194.961 -704.812 191.86 -703.344L192.074 -702.892C188.974 -701.424 185.9 -699.909 182.852 -698.346L182.624 -698.791C179.568 -697.225 176.538 -695.611 173.536 -693.95L173.778 -693.513C170.778 -691.853 167.805 -690.147 164.861 -688.395L164.606 -688.825C161.655 -687.069 158.733 -685.267 155.841 -683.42L156.11 -682.999C153.222 -681.154 150.362 -679.264 147.533 -677.329L147.251 -677.741C144.418 -675.804 141.616 -673.822 138.845 -671.795L139.14 -671.391C136.374 -669.369 133.639 -667.303 130.937 -665.193L130.629 -665.587C127.925 -663.475 125.253 -661.321 122.614 -659.123L122.933 -658.739C120.301 -656.548 117.702 -654.313 115.137 -652.037L114.805 -652.411C112.239 -650.135 109.708 -647.817 107.21 -645.458L107.554 -645.095C105.065 -642.743 102.61 -640.351 100.191 -637.918L99.8362 -638.27C97.4185 -635.839 95.0361 -633.367 92.6899 -630.856L93.0552 -630.515C90.7188 -628.014 88.4182 -625.474 86.1544 -622.895L85.7786 -623.225C83.5176 -620.649 81.2933 -618.035 79.1066 -615.382L79.4924 -615.064C77.3155 -612.424 75.1758 -609.746 73.0744 -607.031L72.679 -607.337C70.5814 -604.627 68.5217 -601.879 66.501 -599.096L66.9055 -598.802C64.8961 -596.035 62.9251 -593.231 60.9934 -590.393L60.58 -590.674C58.6533 -587.842 56.7657 -584.976 54.918 -582.075L55.3397 -581.806C54.4194 -580.361 53.509 -578.908 52.6086 -577.446L52.1829 -577.708L52.6087 -577.446C51.7115 -575.989 50.8263 -574.532 49.953 -573.073L49.5241 -573.33C47.7634 -570.39 46.0511 -567.445 44.3872 -564.496L44.8227 -564.25C43.1398 -561.267 41.5065 -558.28 39.9227 -555.288L39.4808 -555.522C37.8771 -552.492 36.324 -549.457 34.8213 -546.417L35.2696 -546.195C33.7544 -543.13 32.2907 -540.058 30.8784 -536.981L30.424 -537.189C28.9959 -534.078 27.6203 -530.96 26.2971 -527.835L26.7575 -527.64C25.4246 -524.493 24.1448 -521.338 22.9181 -518.177L22.452 -518.358C21.2151 -515.17 20.032 -511.974 18.9027 -508.771L19.3743 -508.605C18.2396 -505.386 17.1592 -502.159 16.1331 -498.924L15.6565 -499.075C14.6238 -495.819 13.6459 -492.554 12.7227 -489.279L13.204 -489.144C12.2793 -485.864 11.4097 -482.574 10.595 -479.276L10.1096 -479.395C9.29162 -476.084 8.52901 -472.762 7.82155 -469.429L8.31067 -469.326C7.60387 -465.996 6.95222 -462.657 6.35567 -459.306L5.86342 -459.394C5.26624 -456.04 4.72418 -452.675 4.23712 -449.299L4.73199 -449.227C4.24676 -445.864 3.81622 -442.489 3.44022 -439.103L2.94328 -439.158C2.56788 -435.776 2.24679 -432.383 1.97991 -428.978L2.47837 -428.939C2.21318 -425.554 2.00158 -422.158 1.84346 -418.749L1.34401 -418.772C1.18666 -415.379 1.08223 -411.973 1.03061 -408.554L1.53056 -408.547C1.47936 -405.156 1.48021 -401.752 1.53303 -398.335L1.03311 -398.327C1.08554 -394.934 1.18911 -391.527 1.34374 -388.107L1.84324 -388.13C1.99619 -384.747 2.19915 -381.351 2.45204 -377.941L1.95342 -377.904C2.20423 -374.521 2.5041 -371.126 2.85292 -367.716L3.35033 -367.766C3.69486 -364.398 4.08723 -361.017 4.52733 -357.62L4.03149 -357.556C4.46669 -354.198 4.94849 -350.826 5.47685 -347.439L5.97087 -347.517C6.23292 -345.837 6.50645 -344.154 6.79143 -342.467C7.07421 -340.793 7.37105 -339.122 7.68183 -337.453L7.19029 -337.362C7.81272 -334.019 8.49102 -330.687 9.22452 -327.365L9.71276 -327.473C10.4445 -324.159 11.2312 -320.857 12.0723 -317.566L11.5879 -317.442C12.4295 -314.149 13.3254 -310.868 14.2748 -307.601L14.755 -307.74C15.7017 -304.482 16.7018 -301.237 17.7545 -298.007L17.2791 -297.852C18.3318 -294.622 19.4371 -291.406 20.5942 -288.205L21.0644 -288.375C22.2178 -285.185 23.4228 -282.01 24.6787 -278.852L24.2141 -278.667C25.4694 -275.51 26.7754 -272.37 28.1315 -269.248L28.5901 -269.447C29.9412 -266.337 31.342 -263.244 32.792 -260.169L32.3398 -259.956C33.7888 -256.884 35.2867 -253.83 36.833 -250.796L37.2785 -251.023C38.8182 -248.002 40.4059 -245.001 42.041 -242.02L41.6026 -241.779C43.2357 -238.802 44.916 -235.846 46.6427 -232.911L47.0737 -233.164C48.7934 -230.241 50.5592 -227.34 52.3705 -224.462L51.9473 -224.195C53.7555 -221.322 55.609 -218.471 57.5071 -215.644L57.9222 -215.922C59.8119 -213.107 61.7459 -210.316 63.7236 -207.55L63.3168 -207.259C65.2915 -204.496 67.3097 -201.758 69.3706 -199.046L69.7687 -199.348C71.8195 -196.649 73.9128 -193.976 76.0479 -191.328L75.6587 -191.014C77.7898 -188.372 79.9625 -185.756 82.1761 -183.167L82.5561 -183.492C84.7596 -180.916 87.0037 -178.366 89.2878 -175.845L88.9172 -175.509C91.1961 -172.993 93.5149 -170.505 95.8727 -168.047L96.2336 -168.393C98.5796 -165.947 100.964 -163.529 103.387 -161.142L103.036 -160.786C105.454 -158.403 107.91 -156.05 110.403 -153.728L110.744 -154.094C113.225 -151.783 115.742 -149.504 118.297 -147.255L117.966 -146.88C120.513 -144.637 123.096 -142.426 125.715 -140.248L126.035 -140.632C127.339 -139.546 128.653 -138.469 129.975 -137.399C131.415 -136.235 132.822 -135.084 134.196 -133.945L133.877 -133.56C136.775 -131.159 139.53 -128.812 142.15 -126.508L142.481 -126.883C145.316 -124.39 147.995 -121.947 150.531 -119.538L150.187 -119.175C152.916 -116.584 155.478 -114.032 157.89 -111.502L158.252 -111.847C160.846 -109.125 163.268 -106.428 165.536 -103.731L165.154 -103.409C167.549 -100.561 169.773 -97.7138 171.848 -94.8408L172.253 -95.1335C174.415 -92.141 176.416 -89.1197 178.283 -86.0386L177.856 -85.7795C179.735 -82.6784 181.479 -79.5167 183.113 -76.2622L183.56 -76.4866C184.372 -74.87 185.157 -73.2308 185.919 -71.5651C186.634 -70.0004 187.321 -68.44 187.98 -66.8829L187.52 -66.6879C188.867 -63.508 190.096 -60.3424 191.207 -57.1825L191.679 -57.3484C192.823 -54.0945 193.844 -50.8461 194.739 -47.5936L194.257 -47.4608C195.166 -44.1606 195.946 -40.8566 196.597 -37.5388L197.088 -37.635C197.745 -34.2833 198.271 -30.9174 198.666 -27.527L198.169 -27.4692C198.56 -24.1097 198.821 -20.7262 198.952 -17.3086L199.451 -17.3277C199.58 -13.9532 199.583 -10.5458 199.459 -7.09617L198.96 -7.11412C198.839 -3.76979 198.6 -0.385155 198.24 3.0487L198.738 3.10079C198.389 6.43056 197.928 9.80589 197.355 13.2347L196.862 13.1523C196.313 16.4356 195.661 19.7686 194.905 23.1585L195.393 23.2673C194.668 26.5176 193.848 29.8195 192.933 33.1791L192.45 33.0477C191.578 36.2519 190.618 39.5094 189.572 42.8254L190.049 42.9759C189.047 46.1493 187.966 49.3757 186.806 52.66L186.334 52.4934C185.227 55.6277 184.047 58.8151 182.794 62.0599L183.26 62.24C182.653 63.8115 182.03 65.3964 181.389 66.995C180.783 68.5055 180.189 70.0324 179.608 71.5748L179.14 71.3983C177.995 74.4338 176.897 77.5292 175.846 80.6783L176.32 80.8366C175.293 83.9131 174.311 87.0411 173.374 90.2151L172.894 90.0736C171.973 93.195 171.096 96.3607 170.264 99.5651L170.748 99.6908C169.929 102.84 169.154 106.028 168.422 109.248L167.935 109.137C167.211 112.32 166.531 115.534 165.893 118.776L166.383 118.872C165.754 122.073 165.166 125.301 164.621 128.55L164.128 128.467C163.586 131.692 163.087 134.939 162.63 138.201L163.125 138.271C162.672 141.509 162.26 144.764 161.891 148.03L161.394 147.974C161.025 151.232 160.699 154.501 160.415 157.777L160.913 157.82C160.63 161.085 160.389 164.356 160.191 167.63L159.692 167.6C159.494 170.879 159.338 174.161 159.226 177.44L159.726 177.457C159.613 180.739 159.544 184.019 159.519 187.292L159.019 187.288C158.994 190.579 159.013 193.864 159.077 197.137L159.577 197.127C159.641 200.418 159.75 203.697 159.905 206.96L159.406 206.984C159.562 210.279 159.766 213.558 160.016 216.817L160.515 216.778C160.767 220.066 161.068 223.332 161.417 226.571L160.92 226.625C161.274 229.911 161.678 233.171 162.133 236.397L162.628 236.328C162.858 237.956 163.1 239.577 163.355 241.188C163.668 243.164 163.965 245.027 164.25 246.79L163.757 246.87C164.438 251.085 165.05 254.739 165.652 258.045L166.143 257.955C166.888 262.048 167.615 265.601 168.434 269.023L167.948 269.14C168.815 272.763 169.786 276.242 170.988 280.054L171.465 279.903C172.484 283.132 173.669 286.602 175.103 290.608L174.632 290.776C175.765 293.944 177.052 297.445 178.532 301.423L179.001 301.249C179.627 302.932 180.287 304.701 180.986 306.566C181.569 308.123 182.164 309.675 182.772 311.222L182.306 311.405Z" stroke="url(#paint0_linear_409_12319)" stroke-dasharray="10 10"/>
<defs>
<linearGradient id="paint0_linear_409_12319" x1="1062.86" y1="624.889" x2="1241.58" y2="-42.0824" gradientUnits="userSpaceOnUse">
<stop stop-color="#DCDEE4"/>
<stop offset="1" stop-color="#DCDEE4" stop-opacity="0"/>
</linearGradient>
</defs>
</svg>
