<svg width="18" height="20" viewBox="0 0 18 20" fill="none" xmlns="http://www.w3.org/2000/svg">
<path d="M0.944336 16.0919H5.79694V16.4844C5.79694 18.2507 7.2337 19.6875 9.00006 19.6875C10.7664 19.6875 12.2032 18.2507 12.2032 16.4844V16.0919H17.0558C17.5737 16.0919 17.9933 15.6723 17.9933 15.1544C17.9933 14.6365 17.5737 14.2169 17.0558 14.2169H16.2809V7.59338C16.2809 3.57879 13.0146 0.3125 9.00006 0.3125C4.98547 0.3125 1.71918 3.57879 1.71918 7.59338V14.2169H0.944336C0.426455 14.2169 0.00683594 14.6365 0.00683594 15.1544C0.00683594 15.6723 0.426455 16.0919 0.944336 16.0919ZM10.3282 16.4844C10.3282 17.2168 9.73248 17.8125 9.00006 17.8125C8.26764 17.8125 7.67194 17.2168 7.67194 16.4844V16.0919H10.3282V16.4844ZM3.59418 7.59338C3.59418 4.61243 6.0191 2.1875 9.00006 2.1875C11.981 2.1875 14.4059 4.61243 14.4059 7.59338V14.2169H3.59418V7.59338Z" fill="#878EA1"/>
</svg>
