<svg width="515" height="515" viewBox="0 0 515 515" fill="none" xmlns="http://www.w3.org/2000/svg">
<path d="M115.923 510.942C117.399 511.634 118.651 512.166 119.863 512.577L119.702 513.051C122.183 513.892 124.531 514.242 128.212 514.366L128.229 513.867C129.485 513.909 130.9 513.925 132.535 513.925C134.17 513.925 135.585 513.909 136.841 513.867L136.858 514.366C140.54 514.242 142.888 513.892 145.368 513.051L145.208 512.577C146.42 512.166 147.671 511.634 149.148 510.942C150.084 510.503 151.013 510.024 151.931 509.51L152.175 509.946C154.006 508.92 155.788 507.755 157.478 506.49L157.179 506.09C158.874 504.821 160.475 503.45 161.937 502.017L162.287 502.374C163.85 500.842 165.257 499.239 166.453 497.612L166.05 497.316C166.685 496.453 167.258 495.585 167.762 494.719C167.952 494.393 168.332 493.487 168.891 492.011L169.359 492.188C169.903 490.751 170.599 488.821 171.426 486.463L170.954 486.297C171.548 484.601 172.21 482.684 172.932 480.569L173.405 480.731C174.014 478.945 174.665 477.019 175.353 474.968L174.879 474.809C175.491 472.988 176.131 471.068 176.797 469.06L177.272 469.217C177.886 467.367 178.522 465.441 179.177 463.449L178.702 463.293C179.316 461.425 179.947 459.498 180.593 457.52L181.068 457.675C181.682 455.795 182.308 453.868 182.946 451.9L182.471 451.746C183.083 449.856 183.706 447.929 184.337 445.969L184.813 446.122C185.425 444.224 186.044 442.295 186.671 440.341L186.194 440.188C186.805 438.283 187.421 436.353 188.042 434.403L188.519 434.555C189.128 432.643 189.741 430.711 190.358 428.765L189.881 428.614C190.078 427.993 190.275 427.37 190.472 426.746C190.58 426.404 190.689 426.061 190.797 425.718C191.107 424.738 191.416 423.762 191.724 422.789L192.2 422.94C192.824 420.973 193.444 419.021 194.06 417.087L193.583 416.935C194.211 414.964 194.834 413.012 195.452 411.084L195.928 411.237C196.56 409.261 197.187 407.311 197.805 405.391L197.329 405.238C197.967 403.256 198.597 401.306 199.216 399.394L199.692 399.548C200.336 397.559 200.969 395.611 201.59 393.709L201.114 393.554C201.766 391.554 202.404 389.606 203.024 387.716L203.499 387.872C204.161 385.859 204.803 383.913 205.423 382.041L204.948 381.884C205.621 379.852 206.269 377.908 206.887 376.063L207.361 376.222C208.054 374.152 208.71 372.207 209.324 370.402L208.851 370.241C209.579 368.1 210.248 366.156 210.85 364.434L211.322 364.599C212.152 362.222 212.853 360.269 213.401 358.809L212.933 358.633C213.472 357.199 213.878 356.204 214.12 355.751C214.525 354.998 214.981 354.236 215.484 353.47L215.902 353.744C216.809 352.362 217.873 350.963 219.058 349.576L218.678 349.251C219.79 347.952 221.007 346.664 222.302 345.413L222.65 345.773C223.889 344.576 225.202 343.412 226.563 342.303L226.247 341.915C227.614 340.801 229.03 339.742 230.471 338.759L230.753 339.172C232.221 338.171 233.715 337.25 235.209 336.432L234.969 335.993C235.754 335.564 236.54 335.161 237.323 334.791L237.537 335.243L237.323 334.791C238.17 334.39 238.941 334.031 239.658 333.71L239.862 334.166C241.676 333.355 243.137 332.795 244.66 332.408L244.537 331.924C246.073 331.534 247.662 331.319 249.69 331.201L249.719 331.7C251.148 331.616 252.805 331.581 254.833 331.568L254.83 331.068C255.627 331.063 256.48 331.061 257.399 331.061C258.317 331.061 259.171 331.063 259.967 331.068L259.964 331.568C261.992 331.581 263.65 331.616 265.079 331.7L265.108 331.201C267.136 331.319 268.725 331.534 270.26 331.924L270.137 332.408C271.66 332.795 273.122 333.355 274.935 334.166L275.14 333.71C275.857 334.031 276.627 334.39 277.475 334.791C278.258 335.162 279.044 335.564 279.829 335.993L279.589 336.432C281.083 337.25 282.577 338.171 284.044 339.172L284.326 338.759C285.767 339.742 287.183 340.801 288.55 341.915L288.234 342.302C289.596 343.412 290.908 344.576 292.148 345.773L292.495 345.413C293.79 346.664 295.007 347.951 296.119 349.251L295.739 349.576C296.925 350.963 297.988 352.362 298.895 353.744L299.313 353.469C299.815 354.236 300.272 354.998 300.676 355.752L300.275 355.967L300.676 355.752C300.991 356.339 301.444 357.392 302.002 358.806L301.537 358.99C302.166 360.583 302.941 362.667 303.821 365.124L304.292 364.956C304.961 366.822 305.689 368.902 306.461 371.145L305.988 371.308C306.661 373.264 307.366 375.344 308.092 377.515L308.566 377.356C309.237 379.363 309.925 381.446 310.622 383.579L310.146 383.734C310.813 385.775 311.486 387.861 312.159 389.969L312.635 389.817C312.966 390.854 313.297 391.896 313.627 392.94L314.571 395.932L314.094 396.083C314.717 398.058 315.329 399.996 315.928 401.896L316.405 401.745C316.746 402.824 317.082 403.89 317.416 404.945C317.704 405.858 317.989 406.761 318.272 407.656L317.795 407.807C318.425 409.801 319.042 411.751 319.645 413.659L320.122 413.508C320.749 415.49 321.362 417.425 321.961 419.317L321.484 419.468C322.123 421.482 322.746 423.446 323.354 425.361L323.83 425.209C324.469 427.221 325.092 429.178 325.698 431.083L325.222 431.234C325.862 433.244 326.484 435.195 327.09 437.088L327.566 436.936C328.21 438.948 328.834 440.895 329.44 442.78L328.964 442.933C329.613 444.951 330.241 446.898 330.85 448.777L331.326 448.623C331.982 450.649 332.615 452.596 333.227 454.467L332.751 454.622C333.416 456.657 334.056 458.602 334.673 460.462L335.147 460.305C335.822 462.343 336.469 464.28 337.09 466.12L336.616 466.28C337.307 468.326 337.965 470.255 338.595 472.073L339.067 471.909C339.786 473.986 340.468 475.919 341.116 477.719L340.646 477.888C341.399 479.981 342.108 481.895 342.78 483.651L343.247 483.472C344.055 485.586 344.81 487.467 345.523 489.15L345.062 489.345C345.976 491.503 346.824 493.339 347.633 494.923L348.078 494.696C349.171 496.837 350.186 498.504 351.193 499.88L350.79 500.175C352.144 502.025 353.493 503.37 354.995 504.617L355.314 504.233C356.067 504.858 356.862 505.46 357.723 506.096C358.54 506.699 359.46 507.295 360.46 507.874L360.209 508.306C362.006 509.348 364.045 510.331 366.183 511.206L366.373 510.743C368.398 511.572 370.514 512.304 372.597 512.896L372.46 513.377C374.713 514.018 376.928 514.497 378.953 514.763L379.018 514.267C380.179 514.42 381.269 514.5 382.262 514.5C383.374 514.5 384.503 514.437 385.643 514.315L385.696 514.812C387.926 514.574 390.189 514.113 392.435 513.457L392.295 512.977C394.446 512.349 396.582 511.54 398.659 510.576L398.869 511.03C400.95 510.063 402.969 508.943 404.884 507.693L404.61 507.275C406.534 506.019 408.349 504.632 410.009 503.14L410.343 503.512C412.091 501.942 413.67 500.256 415.028 498.483L414.631 498.179C415.328 497.268 415.966 496.335 416.536 495.385C416.872 494.825 417.32 493.915 417.863 492.695L418.32 492.899C418.984 491.406 419.776 489.481 420.659 487.222L420.193 487.04C420.868 485.312 421.597 483.387 422.363 481.31L422.832 481.483C423.502 479.664 424.201 477.729 424.916 475.708L424.445 475.541C425.105 473.676 425.78 471.738 426.46 469.749L426.933 469.911C427.583 468.011 428.238 466.065 428.891 464.095L428.416 463.938C428.736 462.972 429.055 462 429.373 461.025C429.682 460.077 429.989 459.131 430.296 458.187L430.772 458.342C431.386 456.454 431.997 454.574 432.604 452.701L432.128 452.547C432.735 450.675 433.339 448.811 433.94 446.955L434.415 447.109C435.027 445.218 435.635 443.336 436.239 441.462L435.763 441.308C436.161 440.077 436.556 438.849 436.95 437.624C437.16 436.974 437.368 436.326 437.577 435.678L438.053 435.831C438.655 433.959 439.253 432.095 439.848 430.24L439.372 430.087C439.638 429.257 439.904 428.429 440.168 427.602C440.509 426.538 440.849 425.477 441.187 424.418L441.663 424.57C442.264 422.689 442.862 420.817 443.456 418.953L442.979 418.801C443.58 416.916 444.177 415.04 444.77 413.172L445.246 413.324C445.847 411.43 446.445 409.546 447.038 407.671L446.562 407.52C446.807 406.744 447.052 405.97 447.296 405.198C447.642 404.103 447.987 403.011 448.33 401.922L448.807 402.073C449.406 400.172 450.001 398.28 450.593 396.399L450.116 396.249C450.708 394.362 451.297 392.486 451.881 390.618L452.358 390.768C452.949 388.88 453.536 387.001 454.119 385.133L453.641 384.984C454.233 383.086 454.82 381.199 455.403 379.322L455.881 379.47C456.464 377.593 457.042 375.725 457.616 373.868L457.139 373.72C457.729 371.812 458.314 369.915 458.895 368.028L459.373 368.175C459.954 366.288 460.53 364.411 461.102 362.546L460.624 362.399C461.206 360.5 461.783 358.611 462.356 356.734L462.834 356.88C463.412 354.983 463.986 353.098 464.554 351.224L464.076 351.079C464.65 349.186 465.22 347.305 465.784 345.436L466.263 345.58C466.838 343.675 467.408 341.782 467.973 339.9L467.494 339.756C468.061 337.869 468.623 335.993 469.179 334.129L469.659 334.272C470.23 332.359 470.796 330.458 471.356 328.57L470.877 328.428C471.437 326.541 471.992 324.665 472.541 322.803L473.021 322.944C473.587 321.027 474.147 319.123 474.701 317.232L474.221 317.091C474.776 315.198 475.325 313.318 475.869 311.452L476.349 311.592C476.907 309.674 477.459 307.771 478.005 305.882L477.525 305.743C478.073 303.846 478.615 301.963 479.152 300.094L479.632 300.232C480.183 298.312 480.727 296.408 481.265 294.518L480.784 294.381C481.325 292.482 481.859 290.597 482.386 288.727L482.867 288.863C483.41 286.939 483.946 285.032 484.476 283.14L483.994 283.005C484.526 281.105 485.05 279.22 485.568 277.352L486.049 277.486C486.584 275.555 487.112 273.642 487.632 271.746L487.149 271.614C487.672 269.708 488.187 267.819 488.695 265.948L489.178 266.079C489.702 264.147 490.218 262.234 490.726 260.339L490.243 260.21C490.757 258.292 491.263 256.394 491.761 254.514L492.244 254.642C492.755 252.716 493.256 250.809 493.749 248.923L493.265 248.796C493.77 246.865 494.266 244.955 494.752 243.065L495.236 243.19C495.73 241.273 496.215 239.377 496.69 237.503L496.205 237.38C496.699 235.433 497.182 233.509 497.656 231.609L498.141 231.73C498.623 229.796 499.094 227.886 499.555 225.999L499.07 225.881C499.542 223.948 500.004 222.04 500.455 220.158L500.941 220.275C501.409 218.32 501.865 216.393 502.31 214.493L501.823 214.379C502.278 212.434 502.721 210.517 503.151 208.629L503.639 208.74C504.081 206.799 504.511 204.889 504.927 203.008L504.439 202.9C504.874 200.933 505.296 198.999 505.703 197.097L506.192 197.202C506.613 195.235 507.019 193.303 507.41 191.405L506.921 191.304C507.326 189.338 507.715 187.409 508.087 185.518L508.578 185.615C508.966 183.644 509.337 181.714 509.69 179.824L509.199 179.732C509.568 177.756 509.918 175.825 510.248 173.938L510.741 174.024C511.089 172.035 511.416 170.094 511.722 168.203L511.228 168.124C511.552 166.122 511.851 164.176 512.127 162.286L512.621 162.358C512.915 160.344 513.181 158.394 513.42 156.505L512.924 156.443C513.181 154.41 513.406 152.45 513.6 150.563L514.097 150.614C514.309 148.559 514.483 146.59 514.619 144.706L514.12 144.67C514.192 143.679 514.254 142.713 514.305 141.77C514.359 140.774 514.401 139.779 514.433 138.785L514.932 138.801C514.996 136.798 515.015 134.799 514.989 132.805L514.489 132.812C514.462 130.816 514.391 128.826 514.276 126.843L514.775 126.814C514.658 124.815 514.497 122.822 514.291 120.838L513.794 120.89C513.588 118.906 513.337 116.931 513.042 114.965L513.536 114.891C513.24 112.912 512.898 110.942 512.513 108.983L512.022 109.08C511.637 107.124 511.208 105.18 510.735 103.247L511.221 103.128C510.746 101.186 510.226 99.2555 509.664 97.3386L509.184 97.4794C508.623 95.5686 508.019 93.6712 507.372 91.7884L507.844 91.6258C507.195 89.736 506.502 87.8609 505.767 86.0017L505.302 86.1856C504.57 84.3351 503.796 82.5004 502.98 80.6829L503.436 80.4781C502.618 78.6564 501.758 76.852 500.857 75.0659L500.41 75.2912C499.514 73.5157 498.577 71.7586 497.599 70.021L498.035 69.7758C497.057 68.0365 496.037 66.3168 494.978 64.6179L494.554 64.8824C493.502 63.1961 492.411 61.5302 491.28 59.8862L491.692 59.6029C490.563 57.9598 489.394 56.3384 488.187 54.74L487.788 55.0413C486.59 53.4565 485.355 51.8943 484.083 50.3559L484.468 50.0372C483.197 48.5015 481.89 46.9895 480.545 45.5024L480.174 45.8377C479.507 45.1002 478.831 44.3688 478.146 43.6436C477.437 42.893 476.724 42.1527 476.008 41.4225L476.365 41.0724C474.908 39.5877 473.436 38.1449 471.949 36.7439L471.606 37.1079C470.098 35.6878 468.574 34.3109 467.034 32.9768L467.361 32.5988C465.792 31.2398 464.205 29.925 462.601 28.654L462.29 29.046C460.671 27.7632 459.033 26.5254 457.376 25.3322L457.669 24.9265C455.988 23.7162 454.288 22.5516 452.568 21.4323L452.296 21.8514C450.569 20.7278 448.822 19.6502 447.055 18.6181L447.307 18.1863C445.524 17.1452 443.719 16.1503 441.893 15.2013L441.662 15.6449C439.84 14.6981 437.996 13.7971 436.13 12.9416L436.338 12.4871C434.467 11.6294 432.573 10.8174 430.656 10.0506L430.47 10.5148C428.57 9.75453 426.646 9.0389 424.699 8.36759L424.862 7.89489C422.922 7.22603 420.958 6.60102 418.971 6.01956L418.831 6.49944C416.871 5.9261 414.888 5.39521 412.881 4.90649L412.999 4.42068C411.01 3.93639 408.997 3.49339 406.961 3.09139L406.864 3.58193C404.865 3.18724 402.842 2.83217 400.795 2.51647L400.871 2.02232C398.852 1.71081 396.809 1.43753 394.742 1.2022L394.686 1.69899C393.669 1.58326 392.647 1.47674 391.619 1.37939C390.6 1.28287 389.58 1.19916 388.558 1.1282L388.593 0.629405C386.542 0.486993 384.488 0.395716 382.431 0.355058L382.421 0.85496C380.375 0.814523 378.327 0.824359 376.277 0.883964L376.263 0.384175C374.21 0.443892 372.156 0.553366 370.104 0.71209L370.142 1.2106C368.103 1.3683 366.065 1.5748 364.029 1.82962L363.967 1.33349C361.93 1.58849 359.896 1.89168 357.866 2.24255L357.951 2.73525C355.937 3.08359 353.926 3.47912 351.922 3.92134L351.814 3.43309C349.81 3.87526 347.812 4.36393 345.823 4.89862L345.952 5.38149C343.978 5.91202 342.012 6.48803 340.055 7.10905L339.903 6.63247C337.948 7.25299 336.002 7.91827 334.067 8.62783L334.239 9.09726C332.32 9.80102 330.412 10.5485 328.516 11.3393L328.324 10.8778C326.431 11.6675 324.55 12.5002 322.684 13.3754L322.896 13.8281C321.046 14.6958 319.209 15.6056 317.388 16.5568L317.156 16.1136C315.339 17.0631 313.536 18.0538 311.751 19.0853L312.001 19.5182C310.232 20.5405 308.479 21.603 306.745 22.7053L306.477 22.2833C304.746 23.3831 303.034 24.5223 301.341 25.7004L301.627 26.1108C300.787 26.6953 299.952 27.2895 299.122 27.8932C298.312 28.4825 297.518 29.0511 296.737 29.5996L296.45 29.1906C294.772 30.3705 293.16 31.4568 291.599 32.4566L291.869 32.8776C290.135 33.9886 288.463 34.9941 286.833 35.9033L286.589 35.4666C284.809 36.4597 283.081 37.3361 281.379 38.1085L281.585 38.5638C279.74 39.4012 277.923 40.1177 276.102 40.7287L275.943 40.2547C274.081 40.8797 272.216 41.393 270.311 41.8117L270.419 42.3001C269.465 42.5098 268.502 42.6959 267.525 42.8606C266.56 43.0231 265.605 43.1651 264.657 43.286L264.594 42.79C262.652 43.0377 260.745 43.1964 258.863 43.2633L258.881 43.763C256.924 43.8325 254.994 43.8036 253.078 43.673L253.112 43.1741C251.197 43.0435 249.298 42.8103 247.405 42.4711L247.317 42.9633C245.432 42.6256 243.552 42.1841 241.668 41.6356L241.808 41.1555C240.003 40.6301 238.193 40.0056 236.368 39.279L236.183 39.7435C234.436 39.0478 232.677 38.2597 230.899 37.3769L231.121 36.9291C229.455 36.1024 227.77 35.1917 226.06 34.195L225.808 34.627C224.194 33.6864 222.559 32.67 220.896 31.5764L221.171 31.1586C219.619 30.1384 218.043 29.0501 216.438 27.8924L216.146 28.2979C215.376 27.7428 214.6 27.1717 213.817 26.5848C213.035 25.9989 212.236 25.4195 211.421 24.847L211.709 24.4379C210.111 23.3151 208.452 22.2189 206.74 21.1521L206.476 21.5765C204.82 20.5445 203.114 19.5399 201.364 18.5653L201.607 18.1285C199.891 17.1727 198.133 16.2459 196.341 15.3505L196.117 15.7978C194.361 14.9205 192.57 14.0735 190.752 13.2589L190.957 12.8026C189.154 11.9949 187.324 11.2191 185.473 10.4775L185.287 10.9416C183.455 10.2078 181.602 9.50752 179.734 8.8431L179.902 8.37201C178.031 7.7068 176.146 7.0774 174.252 6.48599L174.103 6.96328C172.21 6.37234 170.308 5.8195 168.402 5.30695L168.532 4.82411C166.606 4.30611 164.677 3.82909 162.75 3.39532L162.64 3.88311C160.697 3.44576 158.757 3.05258 156.825 2.70587L156.913 2.21374C154.94 1.85958 152.976 1.55368 151.027 1.29851L150.962 1.79428C149.977 1.6653 148.995 1.54935 148.019 1.44674C146.779 1.31654 145.651 1.19975 144.608 1.09637L144.657 0.598807C141.94 0.329307 139.805 0.150434 137.829 0.0628807L137.806 0.562391C135.55 0.462425 133.5 0.482357 131.011 0.623844L130.982 0.124649C129.06 0.233856 126.88 0.414942 124.149 0.668386L124.196 1.16625C123.145 1.2637 122.014 1.37188 120.783 1.49085L120.74 1.04799L120.783 1.49086C119.81 1.58486 118.839 1.69044 117.869 1.80746L117.809 1.31107C115.861 1.54632 113.92 1.82762 111.988 2.15386L112.071 2.64688C110.144 2.97232 108.226 3.34267 106.318 3.7568L106.212 3.26818C104.295 3.68439 102.388 4.14464 100.493 4.64779L100.622 5.13105C98.7332 5.63255 96.8566 6.17685 94.9934 6.76282L94.8434 6.28585C92.9725 6.87424 91.1151 7.50448 89.2726 8.17541L89.4436 8.64523C87.6078 9.31371 85.7869 10.0228 83.9821 10.7713L83.7906 10.3094C81.9792 11.0607 80.1842 11.8515 78.407 12.6807L78.6184 13.1338C76.848 13.9599 75.0952 14.8243 73.3615 15.7259L73.1308 15.2823C71.3911 16.187 69.6706 17.129 67.9707 18.1071L68.2201 18.5405C66.5265 19.5149 64.8535 20.5254 63.2025 21.5708L62.935 21.1483C61.2782 22.1974 59.6434 23.2815 58.0322 24.3993L58.3172 24.8101C56.7117 25.9241 55.1295 27.0718 53.5723 28.252L53.2703 27.8535C51.7072 29.0382 50.1692 30.2555 48.6575 31.5045L48.976 31.8899C47.4694 33.1347 45.9891 34.411 44.5365 35.7176L44.2021 35.3458C42.7439 36.6576 41.3135 37.9998 39.9124 39.3713L40.2622 39.7286C38.8655 41.0959 37.4981 42.4924 36.1614 43.917L35.7967 43.5748C34.4545 45.0053 33.1431 46.4639 31.8639 47.9497L32.2428 48.276C30.9677 49.757 29.7248 51.2651 28.5155 52.7991L28.1228 52.4895C26.9084 54.0299 25.7278 55.5962 24.5825 57.1874L24.9883 57.4795C23.8467 59.0655 22.7402 60.6762 21.6703 62.3105L21.252 62.0366C20.1778 63.6775 19.1403 65.3421 18.1409 67.0293L18.5711 67.2841C17.5756 68.9648 16.6182 70.668 15.7002 72.3925L15.2588 72.1575C14.3375 73.8882 13.4558 75.6404 12.6151 77.4128L13.0669 77.627C12.2302 79.391 11.4343 81.175 10.6807 82.9781L10.2194 82.7852C9.46375 84.5931 8.7504 86.42 8.08077 88.2648L8.55077 88.4354C8.21765 89.3532 7.8954 90.2753 7.5842 91.2018C7.27448 92.1239 6.97457 93.043 6.68452 93.9602L6.20779 93.8094C5.61842 95.6731 5.06954 97.5291 4.56178 99.3857L5.04407 99.5176C4.53293 101.387 4.0637 103.256 3.637 105.134L3.14943 105.023C2.72061 106.91 2.33452 108.807 1.9918 110.721L2.48397 110.809C2.14622 112.695 1.85077 114.598 1.59826 116.527L1.10249 116.462C0.853871 118.361 0.646709 120.285 0.481607 122.241L0.979835 122.283C0.819795 124.179 0.699407 126.105 0.619246 128.069L0.119662 128.049C0.0422467 129.946 0.00222479 131.878 9.02553e-05 133.851L0.50009 133.852C0.49804 135.747 0.531058 137.681 0.599612 139.659L0.0999123 139.677C0.165369 141.565 0.263117 143.494 0.393539 145.468L0.89245 145.435C1.01712 147.321 1.17174 149.249 1.35667 151.223L0.858851 151.269C1.0355 153.155 1.23972 155.081 1.4718 157.053L1.96837 156.995C2.18882 158.868 2.43448 160.782 2.70561 162.74L2.21034 162.809C2.46998 164.684 2.75291 166.6 3.05935 168.558L3.55334 168.481C3.84597 170.351 4.16008 172.261 4.49589 174.213L4.00313 174.298C4.32483 176.168 4.66639 178.076 5.02797 180.025L5.51958 179.934C5.86551 181.798 6.22982 183.7 6.61265 185.641L6.1221 185.738C6.48953 187.601 6.87399 189.5 7.27561 191.436L7.76519 191.335C8.15057 193.193 8.55179 195.086 8.96894 197.015L8.48024 197.121C8.88179 198.978 9.2981 200.868 9.72925 202.794L10.2172 202.684C10.6324 204.539 11.0615 206.425 11.5044 208.346L11.0172 208.458C11.4451 210.313 11.8859 212.199 12.3398 214.118L12.8263 214.003C13.2652 215.858 13.7163 217.743 14.1796 219.66L13.6936 219.778C14.143 221.636 14.6038 223.525 15.0763 225.443L15.5618 225.323C16.0177 227.174 16.4843 229.053 16.9619 230.961L16.4768 231.083C16.9388 232.928 17.4109 234.801 17.8932 236.702L18.3779 236.579C18.6174 237.522 18.8594 238.473 19.104 239.431C19.344 240.371 19.5899 241.327 19.8413 242.3L19.3572 242.426C19.8493 244.33 20.3629 246.297 20.8967 248.322L21.3802 248.194C21.886 250.113 22.41 252.084 22.9509 254.104L22.468 254.233C22.9765 256.131 23.5 258.073 24.0376 260.054L24.5202 259.923C25.0393 261.836 25.5716 263.786 26.1162 265.771L25.6341 265.903C26.1635 267.832 26.7046 269.794 27.2565 271.786L27.7384 271.653C28.2702 273.572 28.8122 275.519 29.3635 277.492L28.882 277.627C29.419 279.548 29.9649 281.494 30.5191 283.462L31.0004 283.327C31.5457 285.263 32.0991 287.222 32.6599 289.199L32.1789 289.336C32.7238 291.258 33.2757 293.198 33.8341 295.155L34.3149 295.018C34.866 296.949 35.4235 298.897 35.9867 300.859L35.5061 300.997C36.0616 302.933 36.6227 304.883 37.1889 306.845L37.6693 306.706C38.2257 308.635 38.7871 310.575 39.3529 312.526L38.8727 312.665C39.4353 314.605 40.0022 316.555 40.5731 318.514L41.0531 318.374C41.6158 320.305 42.1822 322.244 42.7519 324.19L42.272 324.33C42.8394 326.268 43.4101 328.213 43.9836 330.164L44.4633 330.023C45.0327 331.959 45.6049 333.901 46.1795 335.846L45.6999 335.988C46.2722 337.926 46.8468 339.868 47.4233 341.812L47.9027 341.67C48.4776 343.609 49.0545 345.55 49.6328 347.493L49.1536 347.635C49.731 349.575 50.3098 351.515 50.8897 353.455L51.3687 353.312C51.9485 355.252 52.5292 357.191 53.1106 359.128L52.6317 359.272C53.2144 361.214 53.7977 363.154 54.3812 365.091L54.86 364.947C55.4447 366.888 56.0297 368.826 56.6143 370.76L56.1357 370.904C56.7232 372.847 57.3105 374.785 57.897 376.717L58.3754 376.572C58.9658 378.517 59.5555 380.455 60.1439 382.386L59.6656 382.532C60.2572 384.473 60.8475 386.406 61.4362 388.329L61.9143 388.183C62.5111 390.134 63.1063 392.075 63.6992 394.004L63.2213 394.151C63.8177 396.092 64.4118 398.022 65.0033 399.938L65.481 399.791C66.0837 401.744 66.6835 403.684 67.2801 405.608L66.8025 405.756C67.4067 407.706 68.0076 409.64 68.6044 411.557L69.0818 411.408C69.6874 413.353 70.2888 415.28 70.8856 417.187L70.4084 417.336C71.0223 419.298 71.6312 421.239 72.2347 423.158L72.7117 423.008C73.3249 424.957 73.9324 426.883 74.5335 428.784L74.0568 428.934C74.6755 430.89 75.2875 432.819 75.8921 434.719L76.3685 434.567C76.9953 436.536 77.614 438.474 78.224 440.377L77.7479 440.53C78.3761 442.49 78.995 444.414 79.6038 446.299L80.0796 446.146C80.711 448.101 81.3315 450.015 81.9402 451.883L81.4648 452.038C82.1129 454.027 82.7475 455.966 83.3677 457.85L83.8426 457.693C84.4976 459.683 85.1363 461.612 85.7575 463.476L85.2832 463.634C85.9491 465.632 86.5947 467.554 87.2186 469.396L87.6922 469.236C88.3742 471.25 89.0301 473.168 89.6577 474.982L89.1852 475.146C89.8931 477.192 90.565 479.107 91.1979 480.881L91.6689 480.713C92.4149 482.805 93.1064 484.698 93.7382 486.378L93.2702 486.554C94.14 488.866 94.8975 490.776 95.5296 492.239L95.9887 492.041C96.4935 493.21 96.9099 494.074 97.2326 494.624C97.7442 495.496 98.3214 496.369 98.9568 497.234L98.5539 497.53C99.7602 499.172 101.17 500.784 102.732 502.321L103.083 501.965C104.551 503.41 106.157 504.789 107.856 506.064L107.556 506.464C109.253 507.737 111.042 508.908 112.882 509.939L113.126 509.503C114.048 510.02 114.982 510.501 115.923 510.942ZM115.923 510.942L115.71 511.394L115.923 510.942Z" stroke="#003FDE" stroke-dasharray="6 6"/>
<path d="M206.148 139.085V158.029H129.463L128 143.019L170.806 74.4572H190.27L169.123 108.92L151.562 139.085H206.148ZM195.392 74.4572V180.543H170.733V74.4572H195.392Z" fill="#00288D"/>
<path d="M294.172 117.809V137.191C294.172 144.817 293.269 151.447 291.464 157.082C289.708 162.716 287.171 167.379 283.854 171.071C280.586 174.762 276.683 177.507 272.147 179.304C267.61 181.101 262.61 182 257.146 182C252.756 182 248.658 181.441 244.853 180.324C241.048 179.158 237.609 177.41 234.536 175.078C231.512 172.698 228.902 169.735 226.707 166.189C224.511 162.643 222.828 158.466 221.658 153.657C220.487 148.8 219.902 143.311 219.902 137.191V117.809C219.902 110.135 220.78 103.504 222.536 97.9185C224.341 92.2839 226.902 87.6208 230.219 83.9291C233.536 80.2375 237.463 77.4931 242 75.6959C246.536 73.8986 251.536 73 257 73C261.39 73 265.464 73.5829 269.22 74.7487C273.025 75.8659 276.464 77.6145 279.537 79.9947C282.61 82.3262 285.22 85.2649 287.367 88.8108C289.562 92.3567 291.245 96.5584 292.415 101.416C293.586 106.225 294.172 111.689 294.172 117.809ZM269.512 140.178V114.676C269.512 111.276 269.317 108.313 268.927 105.787C268.586 103.262 268.049 101.124 267.317 99.3757C266.634 97.627 265.781 96.2184 264.756 95.1497C263.732 94.0325 262.561 93.2311 261.244 92.7453C259.976 92.211 258.561 91.9439 257 91.9439C255.049 91.9439 253.293 92.3567 251.732 93.1825C250.219 93.9597 248.927 95.2226 247.853 96.9713C246.78 98.7199 245.951 101.051 245.366 103.966C244.829 106.88 244.561 110.451 244.561 114.676V140.178C244.561 143.627 244.731 146.638 245.073 149.213C245.463 151.738 246 153.9 246.683 155.697C247.414 157.446 248.292 158.879 249.317 159.996C250.341 161.065 251.512 161.842 252.829 162.328C254.146 162.813 255.585 163.056 257.146 163.056C259.049 163.056 260.756 162.668 262.268 161.89C263.781 161.113 265.073 159.85 266.147 158.102C267.269 156.304 268.098 153.949 268.634 151.034C269.22 148.071 269.512 144.452 269.512 140.178Z" fill="#00288D"/>
<path d="M386 139.085V158.029H309.315L307.852 143.019L350.658 74.4572H370.122L348.975 108.92L331.413 139.085H386ZM375.244 74.4572V180.543H350.585V74.4572H375.244Z" fill="#00288D"/>
</svg>
