<svg width="17" height="17" viewBox="0 0 17 17" fill="none" xmlns="http://www.w3.org/2000/svg">
<path fill-rule="evenodd" clip-rule="evenodd" d="M6.65883 0.708297C6.51609 0.771131 6.36751 0.951984 6.34224 1.09365C6.33102 1.15638 6.32642 4.57165 6.33197 8.68315L6.34206 16.1586L6.41504 16.2564C6.45518 16.3101 6.53198 16.3869 6.58574 16.4271C6.68162 16.4987 6.71963 16.5001 8.58951 16.5001C10.4594 16.5001 10.4974 16.4987 10.5933 16.4271C10.647 16.3869 10.7238 16.3101 10.764 16.2564L10.837 16.1586V8.58838V1.01818L10.764 0.920408C10.7238 0.866637 10.647 0.789821 10.5933 0.749679C10.4979 0.67835 10.4527 0.676509 8.63117 0.668756C7.13522 0.662349 6.74544 0.670172 6.65883 0.708297ZM12.3217 5.23938C12.179 5.30218 12.0304 5.48303 12.005 5.62474C11.9938 5.68746 11.9892 8.08324 11.9948 10.9487C12.0049 16.1476 12.0051 16.1588 12.0779 16.2564C12.118 16.3101 12.1949 16.3869 12.2486 16.4271C12.3445 16.4987 12.3825 16.5001 14.2524 16.5001C16.1223 16.5001 16.1603 16.4987 16.2562 16.4271C16.3099 16.3869 16.3867 16.3101 16.4269 16.2564C16.4998 16.1586 16.4998 16.1564 16.4998 10.8539C16.4998 5.55146 16.4998 5.54923 16.4269 5.45149C16.3867 5.39772 16.3099 5.32091 16.2562 5.28076C16.1607 5.20943 16.1155 5.20759 14.294 5.19984C12.7981 5.19343 12.4083 5.20126 12.3217 5.23938ZM0.995959 9.77047C0.853325 9.83323 0.704711 10.014 0.679157 10.1558C0.667866 10.2185 0.663265 11.5948 0.668928 13.2142C0.679086 16.1248 0.680042 16.1598 0.752172 16.2564C0.792308 16.3101 0.869111 16.3869 0.922873 16.4271C1.01875 16.4987 1.05676 16.5001 2.92664 16.5001C4.79652 16.5001 4.83454 16.4987 4.93042 16.4271C4.98418 16.3869 5.06098 16.3101 5.10112 16.2564C5.17349 16.1594 5.1741 16.1337 5.1741 13.1195C5.1741 10.1052 5.17349 10.0795 5.10112 9.98258C5.06098 9.92881 4.98418 9.85199 4.93045 9.81185C4.835 9.74052 4.7898 9.73868 2.9683 9.73092C1.47235 9.72452 1.08257 9.73234 0.995959 9.77047Z" fill="#C3C7D1"/>
</svg>
