<svg width="20" height="20" viewBox="0 0 20 20" fill="none" xmlns="http://www.w3.org/2000/svg">
<path d="M16 8H4C2.89531 8 2 8.89687 2 10V13C2 13.5522 2.44781 14 3 14H4V17C4 17.5522 4.44781 18 5 18H15C15.5522 18 16 17.5522 16 17V14H17C17.5522 14 18 13.5522 18 13V10C18 8.89687 17.1031 8 16 8ZM14 16H6V13H14V16ZM15.5 11.25C15.0859 11.25 14.75 10.9141 14.75 10.5C14.75 10.0853 15.0859 9.75 15.5 9.75C15.9141 9.75 16.25 10.0853 16.25 10.5C16.25 10.9156 15.9156 11.25 15.5 11.25ZM6 4H13.1719L14 4.82844V7H16V4.41406C16 4.14894 15.8945 3.89469 15.707 3.70719L14.293 2.29313C14.1062 2.10547 13.85 2 13.5875 2H5C4.44812 2 4 2.44781 4 3V7H6V4Z" fill="#DCDEE4"/>
</svg>
