<svg width="20" height="20" viewBox="0 0 20 20" fill="none" xmlns="http://www.w3.org/2000/svg">
<path d="M18 15.0233H14.1017C13.5033 15.0233 12.9294 14.8076 12.5062 14.4238C12.0831 14.04 11.8453 13.5195 11.8453 12.9767V11.4884C11.8453 10.9456 12.0831 10.4251 12.5062 10.0413C12.9294 9.65746 13.5033 9.44184 14.1017 9.44184H18V8.51161C18 7.9691 17.762 7.44817 17.3395 7.06417C16.9159 6.68076 16.342 6.46532 15.7436 6.4651H4.25641C3.65826 6.4651 3.0839 6.68091 2.66051 7.06417C2.23778 7.44833 2.00025 7.96885 2 8.51161V15.9535C2 16.496 2.23795 17.0169 2.66051 17.4009C3.08408 17.7843 3.65799 17.9998 4.25641 18H15.7436C16.3417 18 16.9161 17.7842 17.3395 17.4009C17.7622 17.0168 17.9997 16.4962 18 15.9535V15.0233ZM18 10.5581V13.907H14.1017C13.5356 13.907 13.0761 13.4902 13.0761 12.9767V11.4884C13.0761 10.9749 13.5356 10.5581 14.1017 10.5581H18ZM14.5128 11.4884C14.7304 11.4884 14.9391 11.5668 15.093 11.7063C15.2469 11.8459 15.3333 12.0352 15.3333 12.2325C15.3333 12.4299 15.2469 12.6192 15.093 12.7588C14.9391 12.8983 14.7304 12.9767 14.5128 12.9767C14.2952 12.9767 14.0865 12.8983 13.9326 12.7588C13.7788 12.6192 13.6923 12.4299 13.6923 12.2325C13.6923 12.0352 13.7788 11.8459 13.9326 11.7063C14.0865 11.5668 14.2952 11.4884 14.5128 11.4884ZM13.3543 5.72091H15.7436C15.9003 5.72091 16.0562 5.73207 16.2096 5.75291L16.5986 4.99533C16.6674 4.86129 16.6748 4.70796 16.6191 4.56899C16.5634 4.43003 16.4492 4.31678 16.3015 4.25412L11.0954 2.05206C10.9475 1.98968 10.7784 1.98309 10.6251 2.03374C10.4719 2.0844 10.3471 2.18815 10.2782 2.3222L9.83754 3.17876L12.5452 4.32332C12.8302 4.44382 13.0637 4.64581 13.2098 4.89828C13.356 5.15075 13.4067 5.43975 13.3543 5.72091ZM4.81026 5.72091H12.5058C12.5677 5.58785 12.5703 5.43824 12.513 5.30349C12.4558 5.16874 12.3432 5.05935 12.199 4.9983L6.99282 2.79625C6.84494 2.73387 6.6758 2.72728 6.52257 2.77793C6.36933 2.82858 6.24453 2.93233 6.17559 3.06639L4.81026 5.72091Z" fill="#C3C7D1"/>
</svg>
