<svg width="20" height="20" viewBox="0 0 20 20" fill="none" xmlns="http://www.w3.org/2000/svg">
<path d="M14.7068 11.0806C12.7073 11.0806 11.0805 12.7073 11.0805 14.7068C11.0805 16.7063 12.7073 18.333 14.7068 18.3332C16.7063 18.333 18.333 16.7063 18.333 14.7068C18.333 12.7073 16.7063 11.0805 14.7068 11.0805V11.0806ZM14.7068 15.7528C14.129 15.7528 13.6607 15.2845 13.6607 14.7068C13.6607 14.1291 14.1291 13.6608 14.7068 13.6608C15.2846 13.6608 15.7529 14.1291 15.7529 14.7068C15.7528 15.2845 15.2843 15.7528 14.7068 15.7528ZM5.29274 8.91911C7.29229 8.91901 8.91901 7.29228 8.91901 5.29274C8.91901 4.32422 8.54186 3.41351 7.85687 2.72861C7.17197 2.04368 6.2613 1.6665 5.29274 1.6665H5.29264C4.32409 1.6665 3.41341 2.04365 2.72852 2.72865C2.04362 3.41351 1.6665 4.32422 1.6665 5.29277C1.6665 7.29228 3.29323 8.91898 5.29274 8.91911ZM5.29274 4.24678C5.87044 4.24678 6.33874 4.71507 6.33874 5.29274C6.33874 5.87044 5.87044 6.33887 5.29274 6.33887C4.71507 6.33887 4.24678 5.87044 4.24678 5.29274C4.24678 4.71507 4.71507 4.24678 5.29274 4.24678ZM18.333 3.20078C18.333 2.79095 18.1735 2.40566 17.8837 2.11589C17.5939 1.82607 17.2086 1.6665 16.7988 1.6665C16.3891 1.6665 16.0038 1.82594 15.7137 2.11589L2.11576 15.7139C1.51761 16.312 1.51761 17.2854 2.11576 17.8837C2.40553 18.1735 2.79082 18.3332 3.20078 18.3332C3.61061 18.3332 3.9959 18.1736 4.28568 17.8837L17.8837 4.28568C18.1735 3.9959 18.333 3.61061 18.333 3.20078Z" fill="#C3C7D1"/>
</svg>
