<svg width="20" height="20" viewBox="0 0 20 20" fill="none" xmlns="http://www.w3.org/2000/svg">
<path fill-rule="evenodd" clip-rule="evenodd" d="M10.5625 4.13396H17.4688C17.762 4.13396 18 4.37288 18 4.66727V15.3335C18 15.6278 17.762 15.8668 17.4688 15.8668H10.5625V17.4667C10.5625 17.5451 10.5452 17.6226 10.512 17.6936C10.4788 17.7645 10.4303 17.8273 10.3702 17.8773C10.2746 17.9573 10.1545 18 10.0313 18C9.99831 18 9.96538 17.9968 9.9335 17.9904L1.4335 16.3905C1.18169 16.3435 1 16.1228 1 15.8668V4.13396C0.999826 4.00954 1.04311 3.88901 1.12231 3.79332C1.20152 3.69763 1.31163 3.63285 1.4335 3.61025L9.9335 2.01032C10.0865 1.97832 10.2491 2.02205 10.3702 2.12338C10.4924 2.22471 10.5625 2.3751 10.5625 2.53403V4.13396ZM8.25581 12.5346C8.47681 12.3405 8.49913 12.0035 8.30575 11.7827L6.62594 9.8553L8.32594 7.66233C8.50656 7.42874 8.46513 7.09382 8.2335 6.91357C8.00188 6.73224 7.66825 6.7749 7.48763 7.00636L5.91406 9.0372L4.58806 7.51621C4.39256 7.29328 4.05788 7.27195 3.83794 7.46607C3.61694 7.6602 3.59463 7.99725 3.788 8.21804L5.24894 9.89477L3.76781 11.8061C3.58825 12.0387 3.62969 12.3736 3.86131 12.5549C3.95906 12.6306 4.07381 12.6669 4.1875 12.6669C4.26834 12.6669 4.34812 12.6485 4.42082 12.613C4.49353 12.5775 4.55725 12.5259 4.60719 12.4621L5.96188 10.7129L7.50675 12.4845C7.55649 12.5418 7.61788 12.5877 7.6868 12.6192C7.75571 12.6507 7.83054 12.6669 7.90625 12.6669C8.03491 12.6669 8.15918 12.6199 8.25581 12.5346ZM10.5625 14.8001H16.9375V5.20058H10.5625V6.26719H12.1563C12.4495 6.26719 12.6875 6.50612 12.6875 6.8005C12.6875 7.09489 12.4495 7.33381 12.1563 7.33381H10.5625V8.40043H12.1563C12.4495 8.40043 12.6875 8.63935 12.6875 8.93374C12.6875 9.22813 12.4495 9.46705 12.1563 9.46705H10.5625V10.5337H12.1563C12.4495 10.5337 12.6875 10.7726 12.6875 11.067C12.6875 11.3614 12.4495 11.6003 12.1563 11.6003H10.5625V12.6669H12.1563C12.4495 12.6669 12.6875 12.9058 12.6875 13.2002C12.6875 13.4946 12.4495 13.7335 12.1563 13.7335H10.5625V14.8001ZM14.5 6H15.5C15.776 6 16 6.224 16 6.5C16 6.776 15.776 7 15.5 7H14.5C14.224 7 14 6.776 14 6.5C14 6.224 14.224 6 14.5 6ZM14.5 8H15.5C15.776 8 16 8.224 16 8.5C16 8.776 15.776 9 15.5 9H14.5C14.224 9 14 8.776 14 8.5C14 8.224 14.224 8 14.5 8ZM14.5 10H15.5C15.776 10 16 10.224 16 10.5C16 10.776 15.776 11 15.5 11H14.5C14.224 11 14 10.776 14 10.5C14 10.224 14.224 10 14.5 10ZM14.5 12H15.5C15.776 12 16 12.224 16 12.5C16 12.776 15.776 13 15.5 13H14.5C14.224 13 14 12.776 14 12.5C14 12.224 14.224 12 14.5 12Z" fill="white"/>
</svg>
