<svg width="20" height="20" viewBox="0 0 20 20" fill="none" xmlns="http://www.w3.org/2000/svg">
<path d="M18 9.55686V15.5392C18 15.833 17.8831 16.1148 17.675 16.3226C17.467 16.5303 17.1848 16.647 16.8905 16.647C16.5963 16.647 16.3141 16.5303 16.106 16.3226C15.8979 16.1148 15.7811 15.833 15.7811 15.5392V8.22746H16.6686C17.0217 8.22746 17.3604 8.36752 17.6101 8.61683C17.8597 8.86614 18 9.20428 18 9.55686ZM16.2248 17.9764H4.68633C4.32464 18.028 3.9559 17.9947 3.60931 17.8793C3.26271 17.7639 2.94777 17.5696 2.68943 17.3116C2.43108 17.0536 2.23642 16.7391 2.12086 16.3931C2.00529 16.047 1.97199 15.6788 2.0236 15.3176V4.68238C1.97199 4.32122 2.00529 3.95302 2.12086 3.60694C2.23642 3.26085 2.43108 2.94638 2.68943 2.68841C2.94777 2.43045 3.26271 2.23608 3.60931 2.12068C3.9559 2.00528 4.32464 1.97204 4.68633 2.02356H11.787C12.1486 1.97204 12.5174 2.00528 12.864 2.12068C13.2106 2.23608 13.5255 2.43045 13.7839 2.68841C14.0422 2.94638 14.2369 3.26085 14.3524 3.60694C14.468 3.95302 14.5013 4.32122 14.4497 4.68238V16.2039C14.4497 16.674 14.6367 17.1249 14.9696 17.4573C15.3025 17.7897 15.754 17.9764 16.2248 17.9764ZM4.90823 6.45492C4.90823 6.63121 4.97836 6.80028 5.1032 6.92493C5.22804 7.04959 5.39736 7.11962 5.57391 7.11962H8.23664C8.41319 7.11962 8.58251 7.04959 8.70735 6.92493C8.83219 6.80028 8.90233 6.63121 8.90233 6.45492C8.90233 6.27863 8.83219 6.10956 8.70735 5.9849C8.58251 5.86025 8.41319 5.79021 8.23664 5.79021H5.57391C5.39736 5.79021 5.22804 5.86025 5.1032 5.9849C4.97836 6.10956 4.90823 6.27863 4.90823 6.45492ZM11.5651 13.5451C11.5651 13.3688 11.4949 13.1997 11.3701 13.0751C11.2452 12.9504 11.0759 12.8804 10.8994 12.8804H5.57391C5.39736 12.8804 5.22804 12.9504 5.1032 13.0751C4.97836 13.1997 4.90823 13.3688 4.90823 13.5451C4.90823 13.7214 4.97836 13.8904 5.1032 14.0151C5.22804 14.1398 5.39736 14.2098 5.57391 14.2098H10.8994C11.0759 14.2098 11.2452 14.1398 11.3701 14.0151C11.4949 13.8904 11.5651 13.7214 11.5651 13.5451ZM11.5651 10C11.5651 9.82371 11.4949 9.65464 11.3701 9.52998C11.2452 9.40533 11.0759 9.3353 10.8994 9.3353H5.57391C5.39736 9.3353 5.22804 9.40533 5.1032 9.52998C4.97836 9.65464 4.90823 9.82371 4.90823 10C4.90823 10.1763 4.97836 10.3454 5.1032 10.47C5.22804 10.5947 5.39736 10.6647 5.57391 10.6647H10.8994C11.0759 10.6647 11.2452 10.5947 11.3701 10.47C11.4949 10.3454 11.5651 10.1763 11.5651 10Z" fill="#C3C7D1"/>
</svg>
