<svg width="20" height="20" viewBox="0 0 20 20" fill="none" xmlns="http://www.w3.org/2000/svg">
<path d="M15.8667 2H4.13333C2.9568 2 2 2.926 2 4.06465V13.3556C2 14.4942 2.9568 15.4202 4.13333 15.4202V17.4838C4.13338 17.582 4.16229 17.6781 4.2167 17.7609C4.2711 17.8437 4.34874 17.9098 4.44053 17.9515C4.51141 17.9833 4.58855 17.9998 4.66667 18C4.78933 18 4.91093 17.9597 5.008 17.8803L8.05973 15.4202H15.8667C17.0432 15.4202 18 14.4942 18 13.3556V4.06465C18 2.926 17.0432 2 15.8667 2ZM5.73333 8.19395C6.61547 8.19395 7.33333 8.8887 7.33333 9.74244C7.33333 10.5962 6.61547 11.2909 5.73333 11.2909H4.66667C4.37227 11.2909 4.13333 11.0597 4.13333 10.7748C4.13333 10.4898 4.37227 10.2586 4.66667 10.2586H5.73333C6.02773 10.2586 6.26667 10.0274 6.26667 9.74244C6.26667 9.45751 6.02773 9.22627 5.73333 9.22627C4.8512 9.22627 4.13333 8.53152 4.13333 7.67779C4.13333 6.82405 4.8512 6.1293 5.73333 6.1293H6.8C7.0944 6.1293 7.33333 6.36054 7.33333 6.64546C7.33333 6.93038 7.0944 7.16162 6.8 7.16162H5.73333C5.43893 7.16162 5.2 7.39286 5.2 7.67779C5.2 7.96271 5.43893 8.19395 5.73333 8.19395ZM11.6 10.7748C11.6 11.0597 11.3611 11.2909 11.0667 11.2909C10.7723 11.2909 10.5333 11.0597 10.5333 10.7748V8.83192L10.4768 8.94135C10.2955 9.29131 9.70347 9.29131 9.52213 8.94135L9.46667 8.83192V10.7748C9.46667 11.0597 9.22773 11.2909 8.93333 11.2909C8.63893 11.2909 8.4 11.0597 8.4 10.7748V6.64546C8.4 6.40596 8.57067 6.19743 8.81067 6.14272C9.04853 6.08697 9.2992 6.20053 9.41013 6.41422L10 7.55597L10.5899 6.41525C10.6997 6.1995 10.944 6.08801 11.1893 6.14272C11.4304 6.19743 11.6 6.40596 11.6 6.64546V10.7748ZM14.2667 8.19395C15.1488 8.19395 15.8667 8.8887 15.8667 9.74244C15.8667 10.5962 15.1488 11.2909 14.2667 11.2909H13.2C12.9056 11.2909 12.6667 11.0597 12.6667 10.7748C12.6667 10.4898 12.9056 10.2586 13.2 10.2586H14.2667C14.56 10.2586 14.8 10.0274 14.8 9.74244C14.8 9.45751 14.56 9.22627 14.2667 9.22627C13.3845 9.22627 12.6667 8.53152 12.6667 7.67779C12.6667 6.82405 13.3845 6.1293 14.2667 6.1293H15.3333C15.6277 6.1293 15.8667 6.36054 15.8667 6.64546C15.8667 6.93038 15.6277 7.16162 15.3333 7.16162H14.2667C13.9733 7.16162 13.7333 7.39286 13.7333 7.67779C13.7333 7.96271 13.9733 8.19395 14.2667 8.19395Z" fill="#C3C7D1"/>
</svg>
