<svg width="20" height="20" viewBox="0 0 20 20" fill="none" xmlns="http://www.w3.org/2000/svg">
<path d="M2.35253 9.58651L6.03256 10.8362L14.7703 5.49447C14.8972 5.41733 15.0269 5.58933 14.9178 5.6899L8.30286 11.7785L8.05715 15.1871C8.05313 15.2442 8.06657 15.3012 8.09568 15.3505C8.12479 15.3998 8.16819 15.439 8.22013 15.4631C8.27208 15.4871 8.3301 15.4948 8.38652 15.4851C8.44293 15.4754 8.49506 15.4488 8.53601 15.4088L10.5726 13.406L14.2961 16.2243C14.6972 16.5283 15.2783 16.314 15.3863 15.8226L17.9789 4.05103C18.1269 3.3796 17.4687 2.81274 16.8269 3.05845L2.33424 8.60821C1.87938 8.7825 1.89195 9.42993 2.35253 9.58651Z" fill="#C3C7D1"/>
</svg>
