<svg width="20" height="20" viewBox="0 0 20 20" fill="none" xmlns="http://www.w3.org/2000/svg">
<path d="M7.71463 2H14.6701C15.1448 2 15.6 2.18855 15.9356 2.52417C16.2712 2.85979 16.4598 3.315 16.4598 3.78964V16.2104C16.4598 16.685 16.2712 17.1402 15.9356 17.4758C15.6 17.8115 15.1448 18 14.6701 18H7.71463V2ZM6.73847 2V18H5.78964C5.315 18 4.85979 17.8115 4.52417 17.4758C4.18855 17.1402 4 16.685 4 16.2104V3.78964C4 3.315 4.18855 2.85979 4.52417 2.52417C4.85979 2.18855 5.315 2 5.78964 2H6.73847ZM14.7111 5.24998C14.7112 5.19181 14.6998 5.1342 14.6776 5.08043C14.6554 5.02667 14.6229 4.97781 14.5818 4.93664C14.5407 4.89548 14.4918 4.86283 14.4381 4.84055C14.3844 4.81827 14.3268 4.8068 14.2686 4.8068H9.78345C9.72526 4.8068 9.66763 4.81826 9.61386 4.84054C9.56009 4.86281 9.51123 4.89545 9.47008 4.93661C9.42893 4.97776 9.39628 5.02661 9.37401 5.08038C9.35174 5.13415 9.34028 5.19178 9.34028 5.24998V7.50427C9.34028 7.74896 9.53876 7.9468 9.78345 7.9468H14.2686C14.386 7.9468 14.4985 7.90018 14.5815 7.81719C14.6645 7.7342 14.7111 7.62164 14.7111 7.50427V5.24998ZM10.226 5.69251V7.06109H13.8254V5.69251H10.226Z" fill="#C3C7D1"/>
</svg>
