<svg xmlns="http://www.w3.org/2000/svg" xmlns:xlink="http://www.w3.org/1999/xlink" viewBox="0 0 539.87 168.9"><defs><style>.cls-1{fill:#1481db;}.cls-2{fill:url(#Безымянный_градиент_70);}.cls-3{fill:url(#Безымянный_градиент_31);}.cls-4{fill:url(#Безымянный_градиент_37);}.cls-5{fill:url(#Безымянный_градиент_74);}.cls-6{fill:url(#Безымянный_градиент_65);}.cls-7{fill:url(#Безымянный_градиент_76);}.cls-8{fill:url(#Безымянный_градиент_68);}.cls-9{fill:url(#Безымянный_градиент_7);}.cls-10{fill:#5b0000;}.cls-11{fill:#250000;}.cls-12{fill:#fff;}.cls-13{fill:#d8d8d8;}.cls-14{fill:#777;}.cls-15{fill:#f06582;}.cls-16{fill:#e24b6d;}.cls-17{fill:#952640;}.cls-18{fill:#cecece;}.cls-19{fill:#64c7fe;}</style><radialGradient id="Безымянный_градиент_70" cx="25.22" cy="61.73" r="37.03" gradientUnits="userSpaceOnUse"><stop offset="0.01" stop-color="#249aea"/><stop offset="1" stop-color="#1481db"/></radialGradient><linearGradient id="Безымянный_градиент_31" x1="98.14" y1="117.98" x2="98.14" y2="11.29" gradientUnits="userSpaceOnUse"><stop offset="0" stop-color="#4ecdc4"/><stop offset="0.5" stop-color="#8cf9ee"/><stop offset="0.61" stop-color="#85f4ea"/><stop offset="0.78" stop-color="#73e7dd"/><stop offset="0.96" stop-color="#54d2c8"/><stop offset="1" stop-color="#4ecdc4"/></linearGradient><radialGradient id="Безымянный_градиент_37" cx="152" cy="54.72" r="44.67" gradientUnits="userSpaceOnUse"><stop offset="0.01" stop-color="#cafc72"/><stop offset="1" stop-color="#90cc3a"/></radialGradient><linearGradient id="Безымянный_градиент_74" x1="229.05" y1="115.72" x2="229.05" y2="6.64" gradientUnits="userSpaceOnUse"><stop offset="0" stop-color="#fc7575"/><stop offset="0.26" stop-color="#fd7f7f"/><stop offset="0.5" stop-color="#ff8d8d"/><stop offset="0.76" stop-color="#fd7e7e"/><stop offset="1" stop-color="#fc7575"/></linearGradient><linearGradient id="Безымянный_градиент_65" x1="404.53" y1="109.43" x2="404.53" y2="2.12" gradientUnits="userSpaceOnUse"><stop offset="0" stop-color="#ed6e35"/><stop offset="0" stop-color="#ed6e35"/><stop offset="0.31" stop-color="#f87a4d"/><stop offset="0.5" stop-color="#fc7e56"/><stop offset="0.75" stop-color="#fb7d54"/><stop offset="0.87" stop-color="#f8794d"/><stop offset="0.95" stop-color="#f27340"/><stop offset="1" stop-color="#ed6e35"/></linearGradient><linearGradient id="Безымянный_градиент_76" x1="441.32" y1="117.83" x2="441.32" y2="5.04" gradientUnits="userSpaceOnUse"><stop offset="0" stop-color="#ffc801"/><stop offset="0.5" stop-color="#fccb4f"/><stop offset="0.6" stop-color="#fccb48"/><stop offset="0.74" stop-color="#fdca36"/><stop offset="0.9" stop-color="#fec917"/><stop offset="1" stop-color="#ffc801"/></linearGradient><radialGradient id="Безымянный_градиент_68" cx="501.63" cy="68.16" r="44.41" gradientUnits="userSpaceOnUse"><stop offset="0.01" stop-color="#9f7afc"/><stop offset="1" stop-color="#9761ff"/></radialGradient><radialGradient id="Безымянный_градиент_7" cx="328.28" cy="70.93" r="50.53" gradientUnits="userSpaceOnUse"><stop offset="0" stop-color="#64c7fe"/><stop offset="0.64" stop-color="#2e97e6"/><stop offset="1" stop-color="#1481db"/></radialGradient></defs><g id="Слой_2" data-name="Слой 2"><g id="Слой_1-2" data-name="Слой 1"><path class="cls-1" d="M132.67,154.66a15.71,15.71,0,0,1-1,5.7,12.77,12.77,0,0,1-2.81,4.4,12.42,12.42,0,0,1-4.34,2.83,15.39,15.39,0,0,1-5.62,1H108.5V140.71h10.41a15.19,15.19,0,0,1,5.62,1,12.44,12.44,0,0,1,4.34,2.84,12.91,12.91,0,0,1,2.81,4.41A15.71,15.71,0,0,1,132.67,154.66Zm-3.87,0a14.18,14.18,0,0,0-.7-4.59,9.74,9.74,0,0,0-2-3.43A8.53,8.53,0,0,0,123,144.5a10.87,10.87,0,0,0-4.09-.74h-6.63v21.77h6.63a10.68,10.68,0,0,0,4.09-.74,8.39,8.39,0,0,0,3.11-2.13,9.48,9.48,0,0,0,2-3.41A14.18,14.18,0,0,0,128.8,154.66Z"/><path class="cls-1" d="M155.09,140.71v3.07H141.68V153h10.86v3H141.68v9.51h13.43l0,3.08H137.91V140.71Z"/><path class="cls-1" d="M162.72,140.74a.94.94,0,0,1,.31.1,1.39,1.39,0,0,1,.28.19,3.29,3.29,0,0,1,.29.32l16.13,21c0-.33,0-.66-.07-1s0-.62,0-.9V140.71h3.31v27.88h-1.89a1.54,1.54,0,0,1-.75-.16,1.86,1.86,0,0,1-.59-.52l-16.13-21,.06,1c0,.31,0,.6,0,.85v19.87h-3.31V140.71h1.94A2.54,2.54,0,0,1,162.72,140.74Z"/><path class="cls-1" d="M210,140.71v3.17h-9v24.71h-3.76V143.88h-9v-3.17Z"/><path class="cls-1" d="M241.35,168.59h-2.91a1.31,1.31,0,0,1-.82-.25,1.63,1.63,0,0,1-.47-.65l-2.6-6.73H222l-2.61,6.73a1.42,1.42,0,0,1-.45.63,1.25,1.25,0,0,1-.82.27h-2.91l11.14-27.88h3.82Zm-18.26-10.35h10.4l-4.37-11.34a11.9,11.9,0,0,1-.42-1.17c-.14-.44-.28-.92-.42-1.42-.13.5-.26,1-.4,1.43a9.36,9.36,0,0,1-.42,1.18Z"/><path class="cls-1" d="M250.35,165.42h12.06v3.17H246.6V140.71h3.75Z"/><path class="cls-1" d="M313.21,162.83a.72.72,0,0,1,.54.25l1.5,1.62a12,12,0,0,1-4.16,3.09,14.15,14.15,0,0,1-5.9,1.11,13.9,13.9,0,0,1-5.45-1,11.94,11.94,0,0,1-4.18-2.92,13.16,13.16,0,0,1-2.69-4.5,17,17,0,0,1-.95-5.78,16.27,16.27,0,0,1,1-5.78,13.38,13.38,0,0,1,2.8-4.51,12.31,12.31,0,0,1,4.3-2.93,14.47,14.47,0,0,1,5.55-1,13.62,13.62,0,0,1,5.25.95,13.23,13.23,0,0,1,4,2.59l-1.25,1.73a.84.84,0,0,1-.3.32.81.81,0,0,1-.49.13,1.57,1.57,0,0,1-.86-.38,14.09,14.09,0,0,0-1.32-.85,10.47,10.47,0,0,0-2-.84,11.34,11.34,0,0,0-7,.37,8.59,8.59,0,0,0-3.08,2.17,9.85,9.85,0,0,0-2,3.46,13.81,13.81,0,0,0-.72,4.61,13.42,13.42,0,0,0,.75,4.65,10.17,10.17,0,0,0,2.05,3.45,8.6,8.6,0,0,0,3.05,2.15,9.75,9.75,0,0,0,3.8.74,15.33,15.33,0,0,0,2.25-.15,8.64,8.64,0,0,0,1.85-.45,7.7,7.7,0,0,0,1.57-.79,11.29,11.29,0,0,0,1.45-1.14A1,1,0,0,1,313.21,162.83Z"/><path class="cls-1" d="M326.59,165.42h12.06v3.17H322.83V140.71h3.76Z"/><path class="cls-1" d="M350,168.59h-3.78V140.71H350Z"/><path class="cls-1" d="M360,140.74a.94.94,0,0,1,.31.1,1,1,0,0,1,.28.19,3.29,3.29,0,0,1,.29.32l16.13,21c0-.33-.05-.66-.07-1s0-.62,0-.9V140.71h3.31v27.88h-1.89a1.54,1.54,0,0,1-.75-.16,1.86,1.86,0,0,1-.59-.52l-16.13-21,.06,1c0,.31,0,.6,0,.85v19.87h-3.31V140.71h2A2.5,2.5,0,0,1,360,140.74Z"/><path class="cls-1" d="M391.53,168.59h-3.77V140.71h3.77Z"/><path class="cls-1" d="M420.4,162.83a.73.73,0,0,1,.55.25l1.49,1.62a11.92,11.92,0,0,1-4.15,3.09,14.22,14.22,0,0,1-5.9,1.11,13.86,13.86,0,0,1-5.45-1,11.85,11.85,0,0,1-4.18-2.92,13.16,13.16,0,0,1-2.69-4.5,17,17,0,0,1-.95-5.78,16.27,16.27,0,0,1,1-5.78,13.2,13.2,0,0,1,2.79-4.51,12.44,12.44,0,0,1,4.31-2.93,14.4,14.4,0,0,1,5.55-1,13.62,13.62,0,0,1,5.25.95,13.36,13.36,0,0,1,4,2.59l-1.25,1.73a1,1,0,0,1-.3.32.82.82,0,0,1-.5.13,1.54,1.54,0,0,1-.85-.38,13.16,13.16,0,0,0-1.33-.85,9.92,9.92,0,0,0-5.05-1.22,10.11,10.11,0,0,0-3.95.75,8.62,8.62,0,0,0-3.09,2.17,10,10,0,0,0-2,3.46,13.81,13.81,0,0,0-.72,4.61,13.42,13.42,0,0,0,.75,4.65,10.31,10.31,0,0,0,2,3.45,8.55,8.55,0,0,0,3.06,2.15,9.75,9.75,0,0,0,3.8.74,15.33,15.33,0,0,0,2.25-.15,8.54,8.54,0,0,0,1.84-.45,7.78,7.78,0,0,0,1.58-.79,11.29,11.29,0,0,0,1.45-1.14A1,1,0,0,1,420.4,162.83Z"/><path class="cls-2" d="M26,12.34q-.6,10.89-.69,21.58a4.44,4.44,0,0,0,8.42,2L45.89,11.47a4.43,4.43,0,0,1,4.6-2.41l16.33,2.33A4.44,4.44,0,0,1,70,18.09L44.77,59.51A4.45,4.45,0,0,0,45.42,65L74.56,94.09a4.44,4.44,0,0,1-.86,7L56.84,111.15a4.44,4.44,0,0,1-6-1.42L35.48,85.59a4.45,4.45,0,0,0-8.18,2.8q1.08,11.55,3.1,22.47a4.45,4.45,0,0,1-3.84,5.26L11,118a4.45,4.45,0,0,1-4.94-3.86A789.67,789.67,0,0,1,0,11.16,4.45,4.45,0,0,1,4.7,6.76l17.08.89A4.44,4.44,0,0,1,26,12.34Z"/><path class="cls-3" d="M102.1,11.55c7.78,1.5,12.07,9.78,10.06,17.18-2.64,9.72-15,14.44-23.15,8.08a14.39,14.39,0,0,1-4.8-15.21,13.78,13.78,0,0,1,3.05-5.24A16.74,16.74,0,0,1,102.1,11.55Zm10.05,43.1Q110.85,83.78,109,112.5a4.44,4.44,0,0,1-4,4.13L90.75,118a4.43,4.43,0,0,1-4.83-4.78,332.58,332.58,0,0,0-.73-56.09,4.44,4.44,0,0,1,3.88-4.85L107.17,50A4.46,4.46,0,0,1,112.15,54.65Z"/><path class="cls-4" d="M123.9,105.41,120.42,4.6A4.45,4.45,0,0,1,126.11.18c11.21,3.31,22.29,7.32,32.43,13.19,8.26,4.77,16.91,10.69,20.85,19.73a55.77,55.77,0,0,1,3.23,31.52c-4.57,23.06-29.24,34.82-48.72,43.32-.65.28-1.3.56-2,.82C128.79,110,124.05,109.88,123.9,105.41Zm18.77-65.32q.29,11.91.55,23.83a10.06,10.06,0,0,0,.57,3.79,5.32,5.32,0,0,0,7.32,2.48c6.78-3.75,11.7-10.59,11.09-18.6-.55-7.12-5.41-12.46-11.2-16.12A5.39,5.39,0,0,0,142.67,40.09Z"/><path class="cls-5" d="M187.85,100.61l8-18a4.45,4.45,0,0,1,6.42-2c7,4.34,14.38,8.68,22.39,11,7,2,18.34,2,21-6.52S235,73.77,229.27,72.3c-15.19-3.89-30.1-16.52-31.91-32.85-1.33-12,4.45-22.64,15.29-27.84C222.28,7,233.2,6.17,243.71,6.85a152.88,152.88,0,0,1,15.82,2c3.46.58,9.53,1.36,7.79,6.54l-5.49,16.42a4.46,4.46,0,0,1-5.9,2.69q-19.69-7.89-28-2.19c-15.48,10.61,24,23.8,29.55,26.12,9.52,4,13.83,14.22,13.08,24a38.35,38.35,0,0,1-12.77,25.1c-8.11,7.21-18.9,8.83-29.37,8-13-1-25.67-4.72-37.91-8.89A4.45,4.45,0,0,1,187.85,100.61Z"/><path class="cls-6" d="M408.48,2.73q7.68,2.58,10,9.45t-3,13.35Q410.16,32,403.12,31.4t-11.36-7.5q-4.18-6.66.66-14.82a5.13,5.13,0,0,1,.7-.91Q401,.2,408.48,2.73Zm10,43.37q-1.32,29.13-3.16,57.84a4.46,4.46,0,0,1-4,4.14l-14.21,1.33a4.45,4.45,0,0,1-4.84-4.78,331.65,331.65,0,0,0-.72-56.1,4.45,4.45,0,0,1,3.88-4.85l18.1-2.2A4.46,4.46,0,0,1,418.48,46.1Z"/><path class="cls-7" d="M448.22,9.16l7.39,102.05a4.43,4.43,0,0,1-3.91,4.73L436,117.79a4.44,4.44,0,0,1-5-4.23L427,9.65A4.44,4.44,0,0,1,431.45,5h12.34A4.44,4.44,0,0,1,448.22,9.16Z"/><path class="cls-8" d="M534.8,78.92l-16.1,2.3A4.47,4.47,0,0,0,515.22,84c-2.25,5.44-6.41,9.66-12.43,10.46-5.52.73-12-.85-16.06-4.72A13,13,0,0,1,483,84c-.64-2.59,2-4.52,4.21-5.12l47.73-13A4.46,4.46,0,0,0,538.13,61q-6-43.3-38.05-42.62-33.43.73-36.34,44a104.92,104.92,0,0,0,.86,25c1,5.88,2.8,12.35,6.48,17.18,9.64,12.62,28.7,16.24,43.27,11.32,13.88-4.68,21.18-18,25.31-31.2A4.45,4.45,0,0,0,534.8,78.92Zm-47.07-30a16.84,16.84,0,0,1,7.53-5.66,16.25,16.25,0,0,1,14.27,1.51c1.91,1.2,4.1,2.74,4.16,5.23a4.52,4.52,0,0,1-3.32,4.43q-7.22,1.88-14.41,3.79c-1.2.32-10.29,3.64-10.47,1.58C485.19,56.18,485.63,51.9,487.73,48.88Z"/><path class="cls-9" d="M299,111.74c2.71,3.81,8.7,9.19,13,4.28a16,16,0,0,0,2.47-4.59c1.69-4.16,4.43-15.61,9.73-16.28,7.7-1,16.64,9.95,18.6,15.25,6.64,17.95,22.24-5.08,26.13-12.86A137.3,137.3,0,0,0,381.85,51.6c.76-8.15-.38-18.72-6.5-24.85-7.31-7.35-17.52,1.17-23.93,5.67-13.26,9.32-36.08,8-49.47.06-8.91-5.29-18.78-12.59-24.59.07C267.15,54.81,286.7,94.5,299,111.74Z"/><path d="M300.53,49.66s5.3-6.5,10.42-4.4C309.27,42.11,304.16,40.19,300.53,49.66Z"/><path d="M356,49.66s-5.31-6.5-10.42-4.4C347.29,42.11,352.41,40.19,356,49.66Z"/><path d="M328.57,89.56a14.91,14.91,0,0,1-2.24-.16,4,4,0,0,1-2.26-1,15.84,15.84,0,0,0,9.73-.2,6,6,0,0,1-2.22,1.07A13.76,13.76,0,0,1,328.57,89.56Z"/><path d="M316.92,76.09a4.16,4.16,0,0,1-1.32-.15,3.48,3.48,0,0,1-1.35-1,7,7,0,0,0,4.65.25A3.82,3.82,0,0,1,316.92,76.09Z"/><path class="cls-10" d="M328.22,78.15h0a25.35,25.35,0,0,1-11.9-2.28c2.76,11,12.33,10.25,12.33,10.25h0s9.27.34,11.45-11.18A27.37,27.37,0,0,1,328.22,78.15Z"/><path class="cls-11" d="M326.92,79.9a8.93,8.93,0,0,0-3.1,5.35,11.93,11.93,0,0,0,4.83.87A10.9,10.9,0,0,0,333.28,85c-.6-1.33-1.14-2.71-1.75-3.94A2.87,2.87,0,0,0,326.92,79.9Z"/><path class="cls-12" d="M328.17,81.39s7.12-.09,8.93-5.06a29.15,29.15,0,0,1-8.88,1.82,27.76,27.76,0,0,1-8.79-1.08C321.59,81.7,328.17,81.39,328.17,81.39Z"/><path class="cls-13" d="M332.8,77.57c-1.36,3.1-6.63,3.32-10.55,2.46a12.45,12.45,0,0,0,5.92,1.36s7.12-.09,8.93-5.06A27.48,27.48,0,0,1,332.8,77.57Z"/><path class="cls-14" d="M327.91,81.68c-1.11,0-6.74-.22-8.74-4.49l-.27-.58.61.18a27,27,0,0,0,7.77,1.08h.93a28.77,28.77,0,0,0,8.79-1.8l.58-.22-.21.59c-1.85,5.09-8.88,5.24-9.19,5.25ZM320,77.53c2.07,3.39,6.9,3.58,7.9,3.58h.25c.07,0,6.36-.14,8.41-4.27a29.6,29.6,0,0,1-8.34,1.61h-1A27.9,27.9,0,0,1,320,77.53Z"/><path class="cls-15" d="M328.31,83c-1.16,0-3.67.63-3.95,2.44a11.42,11.42,0,0,0,8.36-.24C332.27,83.39,329.54,83,328.31,83Z"/><path class="cls-16" d="M332.72,85.23a3,3,0,0,0-2.35-1.94c1.15,2-2.5,2.62-4.6,2.51A13.81,13.81,0,0,0,332.72,85.23Z"/><path class="cls-17" d="M328.32,83.32c1.09,0,3.48.3,4.05,1.75h0l.71.29-.05-.21c-.47-1.91-3.06-2.42-4.52-2.42h-.18c-1.06,0-3.9.59-4.23,2.68v0l.62-.19C325.14,83.77,327.49,83.35,328.32,83.32Z"/><path d="M328.25,86.42c-1.6,0-9.71-.51-12.21-10.48l.41-.33a25,25,0,0,0,11.76,2.25A26.83,26.83,0,0,0,340,74.69l.43.3c-2.1,11.09-10.68,11.41-11.65,11.41h-.08A2.5,2.5,0,0,1,328.25,86.42Zm-11.49-10c2.48,8.76,9.39,9.45,11.49,9.45h.48c.91,0,8.76-.3,11-10.33a28.24,28.24,0,0,1-11.46,2.94h-1A25.45,25.45,0,0,1,316.76,76.39Z"/><path d="M340.4,75.26a4.22,4.22,0,0,1-1.33-.06,3.38,3.38,0,0,1-1.41-.87,7,7,0,0,0,4.65-.08A3.82,3.82,0,0,1,340.4,75.26Z"/><path class="cls-12" d="M319.36,61.21c.08,5.09-3,9.26-6.94,9.32s-7.14-4-7.21-9.11,3-9.26,6.94-9.32S319.28,56.12,319.36,61.21Z"/><path class="cls-18" d="M305.11,61.09s1.28,4.68,7.37,5c2.21.13,5.06-1.61,7.06-5.31,0,3.22-1.51,9.1-7.12,9.51S305.1,63.27,305.11,61.09Z"/><path d="M312.34,71c-4.09,0-7.47-4.27-7.55-9.52a11.11,11.11,0,0,1,2.06-6.81,6.73,6.73,0,0,1,5.29-2.94h.09c4.08,0,7.47,4.27,7.55,9.52A11.11,11.11,0,0,1,317.72,68,6.75,6.75,0,0,1,312.43,71Zm-.11-18.43h-.08a5.91,5.91,0,0,0-4.63,2.6,10.24,10.24,0,0,0-1.89,6.29c.07,4.8,3.08,8.7,6.71,8.7h.07a5.91,5.91,0,0,0,4.64-2.6,10.31,10.31,0,0,0,1.89-6.29C318.87,56.42,315.86,52.52,312.23,52.52Z"/><path class="cls-1" d="M313.81,55.27c-1.78,0-3.16,2.15-3.09,4.7s1.58,4.56,3.36,4.51,3.16-2.15,3.09-4.7S315.59,55.21,313.81,55.27Z"/><path class="cls-19" d="M311.09,60.74c.25,2,1.51,3.58,3,3.53s2.77-1.82,2.78-4C315.26,61.87,312.87,62.55,311.09,60.74Z"/><path d="M313.94,56.85c-1.25,0-2.22,1.52-2.17,3.3s1.1,3.21,2.35,3.18,2.22-1.52,2.17-3.3S315.19,56.82,313.94,56.85Z"/><path class="cls-12" d="M312.37,57.12a1,1,0,1,0,1,.94A1,1,0,0,0,312.37,57.12Z"/><path class="cls-12" d="M315.72,60.65a.41.41,0,0,0-.35.45.39.39,0,0,0,.41.38.42.42,0,0,0,.36-.45A.4.4,0,0,0,315.72,60.65Z"/><path class="cls-12" d="M351.36,60.89c.07,5.09-3,9.27-6.94,9.33s-7.14-4-7.22-9.12,3-9.26,6.94-9.32S351.28,55.8,351.36,60.89Z"/><path class="cls-18" d="M337.11,61.23s1.27,4.68,7.36,5c2.21.13,5.07-1.61,7.07-5.31,0,3.22-1.51,9.1-7.12,9.51S337.09,63.41,337.11,61.23Z"/><path d="M344.33,70.64c-4.08,0-7.47-4.28-7.54-9.53a11.14,11.14,0,0,1,2-6.8,6.74,6.74,0,0,1,5.3-3h.09c4.08,0,7.47,4.28,7.55,9.53a11.21,11.21,0,0,1-2.06,6.8,6.73,6.73,0,0,1-5.3,2.94Zm-.1-18.44h-.08a5.91,5.91,0,0,0-4.63,2.61,10.29,10.29,0,0,0-1.9,6.29c.07,4.8,3.09,8.7,6.71,8.7h.08A5.91,5.91,0,0,0,349,67.19a10.29,10.29,0,0,0,1.9-6.29C350.87,56.1,347.86,52.2,344.23,52.2Z"/><path class="cls-1" d="M345.81,55c-1.78,0-3.16,2.16-3.09,4.7s1.57,4.57,3.35,4.52,3.16-2.16,3.09-4.7S347.59,54.9,345.81,55Z"/><path class="cls-19" d="M343.09,60.43c.25,2,1.51,3.57,3,3.53s2.77-1.83,2.79-4C347.26,61.55,344.87,62.24,343.09,60.43Z"/><path d="M345.93,56.54c-1.25,0-2.22,1.51-2.17,3.3s1.11,3.21,2.36,3.17,2.22-1.51,2.17-3.3S347.18,56.5,345.93,56.54Z"/><path class="cls-12" d="M344.37,56.8a1,1,0,0,0-.86,1.09,1,1,0,0,0,1,1,1,1,0,0,0,.86-1.1A1,1,0,0,0,344.37,56.8Z"/><path class="cls-12" d="M347.72,60.34a.39.39,0,0,0-.35.44.4.4,0,0,0,.41.39.41.41,0,0,0,.35-.45A.39.39,0,0,0,347.72,60.34Z"/></g></g></svg>