<svg width="20" height="20" viewBox="0 0 20 20" fill="none" xmlns="http://www.w3.org/2000/svg">
<path d="M10.0005 2.00001C8.86112 1.99811 7.73456 2.24044 6.69669 2.71066C6.66401 2.72555 6.63466 2.74689 6.61041 2.77339C6.58615 2.79989 6.56749 2.831 6.55554 2.86488C6.54359 2.89876 6.5386 2.9347 6.54086 2.97055C6.54312 3.00641 6.55259 3.04144 6.56869 3.07355L7.04542 4.02814C7.07628 4.08985 7.12982 4.13722 7.19483 4.16033C7.25983 4.18344 7.33126 4.1805 7.39414 4.15212C8.21438 3.78671 9.10258 3.59881 10.0005 3.60074C11.1625 3.60028 12.3026 3.91647 13.2984 4.51533C14.2942 5.11419 15.1081 5.97309 15.6525 6.99975C16.197 8.02641 16.4515 9.18204 16.3886 10.3425C16.3258 11.5029 15.948 12.6243 15.2959 13.5861L14.4553 12.7454C14.418 12.7082 14.3704 12.6829 14.3187 12.6727C14.267 12.6624 14.2134 12.6677 14.1647 12.6879C14.116 12.708 14.0744 12.7422 14.045 12.7859C14.0156 12.8297 13.9999 12.8812 13.9998 12.9339V15.8673C13.9998 16.0154 14.1187 16.1354 14.2658 16.1354H17.1987C17.2517 16.1354 17.3034 16.1198 17.3474 16.0903C17.3914 16.0609 17.4257 16.0191 17.4459 15.9702C17.4661 15.9213 17.4713 15.8675 17.4608 15.8156C17.4504 15.7637 17.4248 15.7161 17.3872 15.6788L16.4428 14.7332C17.4547 13.3629 18.0005 11.7041 18 10.0006C17.9984 7.87931 17.1551 5.84536 15.6552 4.34546C14.1553 2.84556 12.1215 2.00135 10.0005 2.00001ZM2.79925 3.86585C2.74645 3.8658 2.69482 3.8814 2.65088 3.91069C2.60695 3.93998 2.57268 3.98163 2.5524 4.03038C2.53213 4.07914 2.52675 4.13281 2.53696 4.18462C2.54717 4.23643 2.57251 4.28405 2.60976 4.32147L3.55616 5.26698C2.54449 6.63774 1.99906 8.29687 2 10.0006C2.00105 11.3384 2.33725 12.6545 2.9779 13.8288C3.61854 15.0031 4.5432 15.9981 5.66738 16.723C6.79157 17.4478 8.07945 17.8793 9.41334 17.9781C10.7472 18.0769 12.0846 17.8399 13.3033 17.2886C13.3359 17.2737 13.3651 17.2524 13.3893 17.2259C13.4134 17.1995 13.432 17.1685 13.444 17.1347C13.4559 17.101 13.4609 17.0652 13.4588 17.0294C13.4566 16.9937 13.4473 16.9587 13.4313 16.9267L12.9526 15.9721C12.9217 15.9111 12.8687 15.8643 12.8044 15.8412C12.7401 15.8182 12.6694 15.8206 12.6069 15.8481C11.7868 16.2142 10.8986 16.4028 10.0005 16.4015C8.83796 16.4028 7.69706 16.087 6.7005 15.4883C5.70394 14.8896 4.88942 14.0305 4.34454 13.0034C3.79966 11.9763 3.54503 10.8201 3.60803 9.65905C3.67104 8.49805 4.04929 7.37618 4.70211 6.4141L5.5457 7.2558C5.58315 7.29232 5.63049 7.31704 5.68186 7.32689C5.73323 7.33675 5.78636 7.3313 5.83466 7.31123C5.88297 7.29115 5.92431 7.25733 5.95357 7.21397C5.98283 7.17061 5.99871 7.11961 5.99925 7.0673V4.13398C5.99938 4.09881 5.99257 4.06397 5.9792 4.03144C5.96584 3.99892 5.94619 3.96935 5.92137 3.94444C5.89656 3.91953 5.86707 3.89976 5.8346 3.88627C5.80213 3.87279 5.76732 3.86584 5.73216 3.86585H2.79925ZM9.9995 5.73269C7.64611 5.73269 5.73417 7.64791 5.73417 10.0016C5.73417 12.3553 7.64611 14.2675 9.9995 14.2675C12.3529 14.2675 14.2678 12.3553 14.2678 10.0016C14.2678 7.64791 12.3529 5.73269 9.9995 5.73269ZM9.9995 6.79816C10.1315 6.79816 10.2656 6.88686 10.2656 7.06528V7.62977C10.5664 7.69182 10.8368 7.85555 11.0311 8.09345C11.2255 8.33136 11.3321 8.62893 11.3329 8.93616C11.341 9.29904 10.7907 9.29904 10.7987 8.93616C10.7987 8.49162 10.445 8.1368 9.9995 8.1368C9.55402 8.1368 9.20025 8.49162 9.20025 8.93616C9.20025 9.38069 9.55502 9.73551 9.9995 9.73551C10.7332 9.73551 11.3329 10.3373 11.3329 11.0701C11.3329 11.7132 10.8723 12.2525 10.2646 12.3765V12.937C10.2646 13.2928 9.73241 13.2928 9.73241 12.937V12.3765C9.43193 12.3141 9.16206 12.1501 8.96809 11.9123C8.77411 11.6744 8.66784 11.3771 8.66709 11.0701C8.67515 10.7224 9.19219 10.7224 9.20126 11.0701C9.20126 11.5157 9.55402 11.8695 9.9995 11.8695C10.445 11.8695 10.7987 11.5157 10.7987 11.0701C10.7987 10.6246 10.445 10.2688 9.9995 10.2688C9.64645 10.2677 9.30816 10.1269 9.05852 9.87727C8.80887 9.62759 8.66815 9.28925 8.66709 8.93616C8.66709 8.29405 9.12567 7.75577 9.73241 7.63078V7.06528C9.73241 6.88686 9.86646 6.79816 9.9995 6.79816Z" fill="#C3C7D1"/>
</svg>
