<svg width="20" height="20" viewBox="0 0 20 20" fill="none" xmlns="http://www.w3.org/2000/svg">
<path d="M2.46875 18H3.625C3.88391 18 4.09375 17.7901 4.09375 17.5312V11.9062C4.09375 11.6474 3.88391 11.4375 3.625 11.4375H2.46875C2.20984 11.4375 2 11.6474 2 11.9062V17.5312C2 17.7901 2.20984 18 2.46875 18Z" fill="#C3C7D1"/>
<path d="M17.2687 12.8332C17.3185 12.8521 17.3672 12.8745 17.4142 12.9004C17.7755 13.0992 18 13.479 18 13.8915C18.0004 14.0796 17.9536 14.2647 17.8641 14.4301C17.7747 14.5955 17.6453 14.7358 17.4878 14.8385L14.1929 16.9929C13.8115 17.2422 13.3657 17.375 12.9102 17.375H5.03125V12.6096L5.62292 12.2546C6.17322 11.9245 6.80298 11.7501 7.4447 11.75C8.20581 11.75 8.96033 12.0015 9.56921 12.4582L9.875 12.6875H12.5107C13.1079 12.6875 13.6106 13.1578 13.6246 13.7549C13.6393 14.3699 13.1431 14.875 12.5312 14.875H10.1875C9.92114 14.875 9.70654 15.0972 9.71924 15.3664C9.7312 15.6185 9.94836 15.8125 10.2008 15.8125H12.5312C13.0825 15.8125 13.5984 15.595 13.9841 15.2C14.3016 14.875 14.4965 14.4644 14.5482 14.0219L16.2633 12.9358C16.4343 12.8274 16.6313 12.7669 16.8339 12.7607C16.9827 12.7561 17.1304 12.7809 17.2687 12.8332Z" fill="#C3C7D1"/>
<path fill-rule="evenodd" clip-rule="evenodd" d="M4.71875 5.90625C4.71875 3.75235 6.47107 2 8.625 2C10.7789 2 12.5312 3.75235 12.5312 5.90625C12.5312 8.06015 10.7789 9.8125 8.625 9.8125C6.47107 9.8125 4.71875 8.06015 4.71875 5.90625ZM9.09375 7.9375V7.84598C9.55139 7.66013 9.875 7.211 9.875 6.6875C9.875 5.99826 9.31421 5.4375 8.625 5.4375C8.45264 5.4375 8.3125 5.2973 8.3125 5.125C8.3125 4.9527 8.45264 4.8125 8.625 4.8125C8.77295 4.8125 8.90173 4.91745 8.93115 5.06207C8.98267 5.31573 9.2301 5.47964 9.48376 5.42816C9.73755 5.37659 9.90137 5.12915 9.84985 4.87546C9.76489 4.45682 9.47253 4.12119 9.09375 3.96695V3.875C9.09375 3.61612 8.88391 3.40625 8.625 3.40625C8.36621 3.40625 8.15625 3.61612 8.15625 3.875V3.96649C7.69873 4.15234 7.375 4.60147 7.375 5.12497C7.375 5.81421 7.93579 6.37497 8.625 6.37497C8.79736 6.37497 8.9375 6.51517 8.9375 6.68747C8.9375 6.85977 8.79736 6.99997 8.625 6.99997C8.47705 6.99997 8.34827 6.89502 8.31885 6.75043C8.26733 6.49677 8.0199 6.33292 7.76624 6.38434C7.51245 6.43591 7.34863 6.68335 7.40015 6.93704C7.48511 7.35568 7.77747 7.69131 8.15625 7.84555V7.9375C8.15625 8.19638 8.36609 8.40625 8.625 8.40625C8.88391 8.40625 9.09375 8.19638 9.09375 7.9375Z" fill="#C3C7D1"/>
<path d="M17.7828 8.10971C17.8579 8.1575 17.918 8.22577 17.9558 8.30643C17.9935 8.38712 18.0076 8.4769 17.9961 8.56528C17.9905 8.60873 17.9789 8.65097 17.9617 8.6908C17.944 8.73196 17.9203 8.77057 17.8914 8.80536L15.8601 11.2429C15.8323 11.2763 15.7999 11.3057 15.764 11.3301C15.7434 11.3442 15.7216 11.3566 15.6989 11.3673C15.6366 11.3964 15.5687 11.4115 15.5 11.4115C15.4313 11.4115 15.3634 11.3964 15.3011 11.3673C15.239 11.3381 15.1838 11.2957 15.1399 11.2429L13.1086 8.80536C13.0516 8.73691 13.0153 8.65363 13.0039 8.56528C12.9963 8.50699 12.9999 8.44809 13.0139 8.3916C13.0212 8.36243 13.0314 8.33389 13.0443 8.30643C13.082 8.22577 13.1421 8.1575 13.2173 8.10971C13.2924 8.06189 13.3796 8.0365 13.4688 8.0365H13.8813C13.7366 7.68481 13.5526 7.34991 13.335 7.03796C13.4222 6.67474 13.4688 6.29587 13.4688 5.90625C13.4688 4.63947 12.9797 3.48492 12.1808 2.62091C12.9028 2.92282 13.5817 3.33029 14.1909 3.83484C15.5006 4.91949 16.4347 6.40027 16.849 8.0365H17.5312C17.6204 8.0365 17.7076 8.06189 17.7828 8.10971Z" fill="#C3C7D1"/>
</svg>
