<svg width="20" height="20" viewBox="0 0 20 20" fill="none" xmlns="http://www.w3.org/2000/svg">
<path fill-rule="evenodd" clip-rule="evenodd" d="M12.7175 5.06142C12.7175 5.66055 13.2138 6.14795 13.8239 6.14795L17 6.14792V16.251C17 17.2154 16.2013 18 15.2192 18H4.78082C3.79884 18 3 17.2154 3 16.251V3.749C3 2.78457 3.79884 2 4.78082 2H12.7175V5.06142ZM6.5855 14.125H12.7329C12.9966 14.125 13.2101 13.9151 13.2101 13.6562C13.2101 13.3974 12.9966 13.1875 12.7329 13.1875H6.5855C6.32192 13.1875 6.10823 13.3974 6.10823 13.6562C6.10823 13.9151 6.32192 14.125 6.5855 14.125ZM6.5855 11.3125C6.32192 11.3125 6.10823 11.5224 6.10823 11.7812C6.10823 12.0401 6.32192 12.25 6.5855 12.25H12.0712C12.3347 12.25 12.5485 12.0401 12.5485 11.7812C12.5485 11.5224 12.3349 11.3125 12.0712 11.3125H6.5855ZM6.5855 10.375H13.3133C13.5769 10.375 13.7905 10.1651 13.7905 9.90625C13.7905 9.64737 13.5769 9.4375 13.3133 9.4375H6.5855C6.32192 9.4375 6.10823 9.64737 6.10823 9.90625C6.10823 10.1651 6.32192 10.375 6.5855 10.375ZM17 5H14.1496C14.0671 5 14 4.9317 14 4.84785V2L17 5Z" fill="#C3C7D1"/>
</svg>
