<svg width="20" height="20" viewBox="0 0 20 20" fill="none" xmlns="http://www.w3.org/2000/svg">
<path d="M16.025 2H10C8.90919 2 8.025 2.88256 8.025 3.975V13.0124C8.025 13.3959 8.46472 13.6201 8.775 13.3874L10.6583 11.975H16.025C17.1158 11.975 18 11.0924 18 10V3.975C18 2.88412 17.1174 2 16.025 2ZM12.5437 9.46459H10.5021C10.2432 9.46459 10.0333 9.25475 10.0333 8.99584C10.0333 8.73694 10.2432 8.52709 10.5021 8.52709H12.5437C12.8027 8.52709 13.0125 8.73694 13.0125 8.99584C13.0125 9.25475 12.8027 9.46459 12.5437 9.46459ZM15.523 7.45631H10.5021C10.2432 7.45631 10.0333 7.24631 10.0333 6.98756C10.0333 6.72863 10.2432 6.51881 10.5021 6.51881H15.5229C15.7818 6.51881 15.9917 6.72863 15.9917 6.98756C15.9917 7.24631 15.7819 7.45631 15.523 7.45631ZM15.523 5.44788H10.5021C10.2432 5.44788 10.0333 5.23803 10.0333 4.97913C10.0333 4.72034 10.2432 4.51038 10.5021 4.51038H15.5229C15.7818 4.51038 15.9917 4.72034 15.9917 4.97913C15.9917 5.23803 15.7819 5.44788 15.523 5.44788ZM7.19494 11.7468C7.19494 12.9706 6.20288 13.9627 4.97913 13.9627C3.75538 13.9627 2.76331 12.9706 2.76331 11.7468C2.76331 10.5229 3.75538 9.53088 4.97913 9.53088C6.20288 9.53088 7.19494 10.5229 7.19494 11.7468ZM4.97913 13.9627C3.33388 13.9627 2 15.2965 2 16.9418V17.5312C2 17.7902 2.20984 18 2.46875 18H7.48962C7.74841 18 7.95837 17.7902 7.95837 17.5312V16.9418C7.95837 15.2965 6.6245 13.9627 4.97913 13.9627Z" fill="#C3C7D1"/>
</svg>
