<svg width="20" height="20" viewBox="0 0 20 20" fill="none" xmlns="http://www.w3.org/2000/svg">
<path d="M13.8757 5.92888C13.8757 8.28292 11.9669 10.1913 9.61217 10.1913C7.25747 10.1913 5.34862 8.28292 5.34862 5.92888C5.34862 3.57483 7.25747 1.6665 9.61217 1.6665C11.9669 1.6665 13.8757 3.57483 13.8757 5.92888Z" fill="#C3C7D1"/>
<path fill-rule="evenodd" clip-rule="evenodd" d="M11.3859 12.2093L11.9917 12.8155C11.8269 13.0827 11.7088 13.3763 11.6427 13.6833H10.7751C10.6209 13.6833 10.473 13.7445 10.3639 13.8535C10.2549 13.9625 10.1937 14.1104 10.1937 14.2645C10.1937 14.4187 10.2549 14.5665 10.3639 14.6755C10.473 14.7845 10.6209 14.8458 10.7751 14.8458H11.6425C11.7086 15.1529 11.8266 15.4465 11.9914 15.7139L11.3859 16.3198C11.3319 16.3737 11.2891 16.4378 11.26 16.5082C11.2308 16.5787 11.2157 16.6542 11.2157 16.7305C11.2157 16.8068 11.2308 16.8823 11.26 16.9528C11.2891 17.0233 11.3319 17.0873 11.3859 17.1413C11.4399 17.1952 11.5039 17.238 11.5744 17.2672C11.6449 17.2964 11.7205 17.3114 11.7968 17.3114C11.8731 17.3114 11.9486 17.2964 12.0191 17.2672C12.0896 17.238 12.1537 17.1952 12.2076 17.1413L12.7963 16.5532C13.0661 16.7355 13.366 16.8687 13.682 16.9466V17.7519C13.682 17.9061 13.7433 18.0539 13.8523 18.1629C13.9613 18.2719 14.1092 18.3332 14.2634 18.3332C14.4176 18.3332 14.5655 18.2719 14.6745 18.1629C14.7836 18.0539 14.8448 17.9061 14.8448 17.7519V16.9643C15.1762 16.8932 15.4857 16.7625 15.7614 16.584L16.3192 17.1413C16.3732 17.1952 16.4372 17.238 16.5077 17.2672C16.5782 17.2964 16.6538 17.3114 16.7301 17.3114C16.8064 17.3114 16.8819 17.2964 16.9524 17.2672C17.0229 17.238 17.087 17.1952 17.1409 17.1413C17.1949 17.0873 17.2377 17.0233 17.2669 16.9528C17.2961 16.8823 17.3111 16.8068 17.3111 16.7305C17.3111 16.6542 17.2961 16.5787 17.2669 16.5082C17.2377 16.4378 17.1949 16.3737 17.1409 16.3198L16.5835 15.7621C16.762 15.4864 16.8927 15.1771 16.9639 14.8458H17.7518C17.906 14.8458 18.0539 14.7845 18.1629 14.6755C18.2719 14.5665 18.3332 14.4187 18.3332 14.2645C18.3332 14.1104 18.2719 13.9625 18.1629 13.8535C18.0539 13.7445 17.906 13.6833 17.7518 13.6833H16.9639C16.8927 13.352 16.762 13.0427 16.5834 12.7671L17.1409 12.2093C17.2499 12.1004 17.3111 11.9526 17.3111 11.7986C17.3111 11.6445 17.2499 11.4968 17.1409 11.3878C17.032 11.2789 16.8842 11.2177 16.7301 11.2177C16.576 11.2177 16.4282 11.2789 16.3192 11.3878L15.761 11.9454C15.4854 11.7671 15.1761 11.6366 14.8448 11.5655V10.7771C14.8448 10.623 14.7836 10.4752 14.6745 10.3661C14.5655 10.2571 14.4176 10.1959 14.2634 10.1959C14.1092 10.1959 13.9613 10.2571 13.8523 10.3661C13.7433 10.4752 13.682 10.623 13.682 10.7771V11.5832C13.3662 11.6611 13.0664 11.7942 12.7968 11.9763L12.2076 11.3878C12.1537 11.3339 12.0896 11.2911 12.0191 11.2619C11.9486 11.2327 11.8731 11.2177 11.7968 11.2177C11.7205 11.2177 11.6449 11.2327 11.5744 11.2619C11.5039 11.2911 11.4399 11.3339 11.3859 11.3878C11.3319 11.4418 11.2891 11.5058 11.26 11.5763C11.2308 11.6467 11.2157 11.7223 11.2157 11.7986C11.2157 11.8748 11.2308 11.9504 11.26 12.0209C11.2891 12.0913 11.3319 12.1554 11.3859 12.2093ZM12.6641 14.2571C12.6662 13.8209 12.8435 13.4258 13.1293 13.1384C13.1299 13.1378 13.1305 13.1372 13.1311 13.1366C13.1318 13.136 13.1325 13.1353 13.1332 13.1346C13.1344 13.1334 13.1356 13.1322 13.1367 13.131C13.426 12.844 13.8242 12.6665 14.2633 12.6665C15.1373 12.6665 15.8492 13.3693 15.8624 14.2399C15.862 14.2481 15.8619 14.2563 15.8619 14.2645C15.8619 14.2728 15.862 14.281 15.8624 14.2892C15.8559 14.7157 15.6817 15.1021 15.403 15.3854C15.3998 15.3884 15.3967 15.3914 15.3936 15.3945C15.3906 15.3975 15.3875 15.4007 15.3845 15.4038C15.1015 15.6823 14.7154 15.8563 14.2892 15.8631C14.2806 15.8627 14.272 15.8625 14.2634 15.8625C14.2548 15.8625 14.2462 15.8627 14.2376 15.8631C13.8123 15.8564 13.427 15.6831 13.1441 15.4057C13.1422 15.4037 13.1404 15.4018 13.1385 15.3999C13.1367 15.398 13.135 15.3962 13.1332 15.3945C13.131 15.3923 13.1288 15.3902 13.1266 15.3881C13.1251 15.3865 13.1235 15.385 13.1219 15.3836C12.8405 15.0967 12.6661 14.7044 12.6641 14.272C12.6642 14.2695 12.6642 14.267 12.6642 14.2645C12.6642 14.262 12.6642 14.2595 12.6641 14.2571Z" fill="#C3C7D1"/>
<path d="M10.4432 16.6461C10.4225 16.9758 10.5228 17.3018 10.7254 17.5628H2.98433C2.81119 17.5631 2.63968 17.5293 2.47966 17.4632C2.31964 17.3971 2.17424 17.3 2.0518 17.1776C1.92937 17.0552 1.83231 16.9099 1.7662 16.7499C1.70008 16.5899 1.6662 16.4185 1.66651 16.2454V15.1216C1.66651 14.1397 2.26185 13.2044 3.34169 12.4681C4.75719 11.5033 7.03703 10.8593 9.61222 10.8593C10.001 10.8592 10.3897 10.8742 10.7773 10.9042C10.5503 11.1631 10.4302 11.4985 10.4414 11.8426C10.4526 12.1867 10.5943 12.5137 10.8378 12.7572L10.9882 12.9083H10.775C10.4152 12.9083 10.0702 13.0512 9.81576 13.3055C9.56135 13.5599 9.41842 13.9048 9.41842 14.2645C9.41842 14.6242 9.56135 14.9692 9.81576 15.2235C10.0702 15.4778 10.4152 15.6207 10.775 15.6207H10.9882L10.8378 15.7718C10.6042 16.0055 10.4639 16.3164 10.4432 16.6461Z" fill="#C3C7D1"/>
</svg>
