<svg width="18" height="18" viewBox="0 0 18 18" fill="none" xmlns="http://www.w3.org/2000/svg">
    <path fill-rule="evenodd" clip-rule="evenodd"
          d="M4.57378 0.69889C2.92145 0.858525 1.42297 2.04609 0.896608 3.61311C0.51278 4.75583 0.590916 5.76403 1.26908 8.41932C1.86318 10.7456 3.55186 16.2604 3.79923 16.6822C3.92225 16.892 4.15852 17.0983 4.41118 17.2167C4.58871 17.2999 4.67132 17.3148 4.95567 17.3148C5.24002 17.3148 5.32263 17.2999 5.50017 17.2167C5.75215 17.0986 5.98954 16.8916 6.10969 16.6852C6.15833 16.6016 6.49445 15.5953 6.8566 14.4489C7.21879 13.3025 7.55789 12.2849 7.61022 12.1874C7.74314 11.9398 8.05662 11.6567 8.35378 11.516C8.58726 11.4055 8.63385 11.3969 8.99656 11.3969C9.35927 11.3969 9.40586 11.4055 9.63934 11.516C9.93654 11.6568 10.2501 11.9398 10.3829 12.1874C10.4351 12.2849 10.6232 12.8252 10.8008 13.3881C11.8417 16.6878 11.8863 16.8019 12.2337 17.0583C12.432 17.2046 12.8083 17.3334 13.0374 17.3334C13.4586 17.3334 13.9487 17.06 14.1605 16.7069C14.2267 16.5966 14.4088 16.1096 14.5775 15.5917C16.3342 10.1972 17.2446 6.77477 17.3268 5.25565C17.3907 4.07523 16.9701 2.93378 16.1522 2.06805C15.3759 1.24628 14.4658 0.801727 13.3418 0.695279C12.3073 0.597317 11.232 0.905496 10.3373 1.55636C9.93598 1.84834 9.65454 1.98174 9.32158 2.03787C8.72089 2.1391 8.23181 1.99071 7.59584 1.51415C7.03377 1.09297 6.20358 0.775785 5.45846 0.697475C5.0658 0.656236 5.01422 0.65631 4.57378 0.69889Z"
          fill="#C3C7D1"/>
</svg>